%TF.GenerationSoftware,KiCad,Pcbnew,10.0.0*%
%TF.CreationDate,2026-05-22T16:26:58-07:00*%
%TF.ProjectId,Voltage Source,566f6c74-6167-4652-9053-6f757263652e,rev?*%
%TF.SameCoordinates,Original*%
%TF.FileFunction,Legend,Top*%
%TF.FilePolarity,Positive*%
%FSLAX46Y46*%
G04 Gerber Fmt 4.6, Leading zero omitted, Abs format (unit mm)*
G04 Created by KiCad (PCBNEW 10.0.0) date 2026-05-22 16:26:58*
%MOMM*%
%LPD*%
G01*
G04 APERTURE LIST*
%ADD10C,0.150000*%
%ADD11C,0.120000*%
%ADD12C,1.600000*%
%ADD13R,1.600000X1.600000*%
%ADD14O,1.600000X1.600000*%
%ADD15C,1.440000*%
%ADD16C,3.400000*%
%ADD17O,1.800000X1.350000*%
%ADD18R,1.500000X1.050000*%
%ADD19O,1.500000X1.050000*%
%ADD20C,1.984375*%
%ADD21R,1.700000X1.700000*%
%ADD22O,1.700000X1.700000*%
G04 APERTURE END LIST*
D10*
X-35368928Y15728538D02*
X-35978451Y15499966D01*
X-35978451Y15499966D02*
X-35368928Y15271395D01*
X-34987975Y15499966D02*
X-34378452Y15499966D01*
X-33616547Y15995204D02*
X-33997499Y15995204D01*
X-33997499Y15995204D02*
X-34035595Y15614252D01*
X-34035595Y15614252D02*
X-33997499Y15652347D01*
X-33997499Y15652347D02*
X-33921309Y15690442D01*
X-33921309Y15690442D02*
X-33730833Y15690442D01*
X-33730833Y15690442D02*
X-33654642Y15652347D01*
X-33654642Y15652347D02*
X-33616547Y15614252D01*
X-33616547Y15614252D02*
X-33578452Y15538061D01*
X-33578452Y15538061D02*
X-33578452Y15347585D01*
X-33578452Y15347585D02*
X-33616547Y15271395D01*
X-33616547Y15271395D02*
X-33654642Y15233300D01*
X-33654642Y15233300D02*
X-33730833Y15195204D01*
X-33730833Y15195204D02*
X-33921309Y15195204D01*
X-33921309Y15195204D02*
X-33997499Y15233300D01*
X-33997499Y15233300D02*
X-34035595Y15271395D01*
X-33349880Y15995204D02*
X-33083213Y15195204D01*
X-33083213Y15195204D02*
X-32816547Y15995204D01*
X-31407023Y15995204D02*
X-30911785Y15995204D01*
X-30911785Y15995204D02*
X-31178451Y15690442D01*
X-31178451Y15690442D02*
X-31064166Y15690442D01*
X-31064166Y15690442D02*
X-30987975Y15652347D01*
X-30987975Y15652347D02*
X-30949880Y15614252D01*
X-30949880Y15614252D02*
X-30911785Y15538061D01*
X-30911785Y15538061D02*
X-30911785Y15347585D01*
X-30911785Y15347585D02*
X-30949880Y15271395D01*
X-30949880Y15271395D02*
X-30987975Y15233300D01*
X-30987975Y15233300D02*
X-31064166Y15195204D01*
X-31064166Y15195204D02*
X-31292737Y15195204D01*
X-31292737Y15195204D02*
X-31368928Y15233300D01*
X-31368928Y15233300D02*
X-31407023Y15271395D01*
X-30683213Y15995204D02*
X-30416546Y15195204D01*
X-30416546Y15195204D02*
X-30149880Y15995204D01*
X-28511784Y15995204D02*
X-28435594Y15995204D01*
X-28435594Y15995204D02*
X-28359403Y15957109D01*
X-28359403Y15957109D02*
X-28321308Y15919014D01*
X-28321308Y15919014D02*
X-28283213Y15842823D01*
X-28283213Y15842823D02*
X-28245118Y15690442D01*
X-28245118Y15690442D02*
X-28245118Y15499966D01*
X-28245118Y15499966D02*
X-28283213Y15347585D01*
X-28283213Y15347585D02*
X-28321308Y15271395D01*
X-28321308Y15271395D02*
X-28359403Y15233300D01*
X-28359403Y15233300D02*
X-28435594Y15195204D01*
X-28435594Y15195204D02*
X-28511784Y15195204D01*
X-28511784Y15195204D02*
X-28587975Y15233300D01*
X-28587975Y15233300D02*
X-28626070Y15271395D01*
X-28626070Y15271395D02*
X-28664165Y15347585D01*
X-28664165Y15347585D02*
X-28702261Y15499966D01*
X-28702261Y15499966D02*
X-28702261Y15690442D01*
X-28702261Y15690442D02*
X-28664165Y15842823D01*
X-28664165Y15842823D02*
X-28626070Y15919014D01*
X-28626070Y15919014D02*
X-28587975Y15957109D01*
X-28587975Y15957109D02*
X-28511784Y15995204D01*
X-28016546Y15995204D02*
X-27749879Y15195204D01*
X-27749879Y15195204D02*
X-27483213Y15995204D01*
X-27216546Y15499966D02*
X-26607023Y15499966D01*
X-26226070Y15728538D02*
X-25616547Y15499966D01*
X-25616547Y15499966D02*
X-26226070Y15271395D01*
X-24434761Y14071216D02*
X-23825238Y14071216D01*
X-24434761Y736216D02*
X-23825238Y736216D01*
X-22199523Y14528359D02*
X-22275713Y14566454D01*
X-22275713Y14566454D02*
X-22389999Y14566454D01*
X-22389999Y14566454D02*
X-22504285Y14528359D01*
X-22504285Y14528359D02*
X-22580475Y14452169D01*
X-22580475Y14452169D02*
X-22618570Y14375978D01*
X-22618570Y14375978D02*
X-22656666Y14223597D01*
X-22656666Y14223597D02*
X-22656666Y14109311D01*
X-22656666Y14109311D02*
X-22618570Y13956930D01*
X-22618570Y13956930D02*
X-22580475Y13880740D01*
X-22580475Y13880740D02*
X-22504285Y13804550D01*
X-22504285Y13804550D02*
X-22389999Y13766454D01*
X-22389999Y13766454D02*
X-22313808Y13766454D01*
X-22313808Y13766454D02*
X-22199523Y13804550D01*
X-22199523Y13804550D02*
X-22161427Y13842645D01*
X-22161427Y13842645D02*
X-22161427Y14109311D01*
X-22161427Y14109311D02*
X-22313808Y14109311D01*
X-21818570Y13766454D02*
X-21818570Y14566454D01*
X-21818570Y14566454D02*
X-21361427Y13766454D01*
X-21361427Y13766454D02*
X-21361427Y14566454D01*
X-20980475Y13766454D02*
X-20980475Y14566454D01*
X-20980475Y14566454D02*
X-20789999Y14566454D01*
X-20789999Y14566454D02*
X-20675713Y14528359D01*
X-20675713Y14528359D02*
X-20599523Y14452169D01*
X-20599523Y14452169D02*
X-20561428Y14375978D01*
X-20561428Y14375978D02*
X-20523332Y14223597D01*
X-20523332Y14223597D02*
X-20523332Y14109311D01*
X-20523332Y14109311D02*
X-20561428Y13956930D01*
X-20561428Y13956930D02*
X-20599523Y13880740D01*
X-20599523Y13880740D02*
X-20675713Y13804550D01*
X-20675713Y13804550D02*
X-20789999Y13766454D01*
X-20789999Y13766454D02*
X-20980475Y13766454D01*
X-22199523Y1193359D02*
X-22275713Y1231454D01*
X-22275713Y1231454D02*
X-22389999Y1231454D01*
X-22389999Y1231454D02*
X-22504285Y1193359D01*
X-22504285Y1193359D02*
X-22580475Y1117169D01*
X-22580475Y1117169D02*
X-22618570Y1040978D01*
X-22618570Y1040978D02*
X-22656666Y888597D01*
X-22656666Y888597D02*
X-22656666Y774311D01*
X-22656666Y774311D02*
X-22618570Y621930D01*
X-22618570Y621930D02*
X-22580475Y545740D01*
X-22580475Y545740D02*
X-22504285Y469550D01*
X-22504285Y469550D02*
X-22389999Y431454D01*
X-22389999Y431454D02*
X-22313808Y431454D01*
X-22313808Y431454D02*
X-22199523Y469550D01*
X-22199523Y469550D02*
X-22161427Y507645D01*
X-22161427Y507645D02*
X-22161427Y774311D01*
X-22161427Y774311D02*
X-22313808Y774311D01*
X-21818570Y431454D02*
X-21818570Y1231454D01*
X-21818570Y1231454D02*
X-21361427Y431454D01*
X-21361427Y431454D02*
X-21361427Y1231454D01*
X-20980475Y431454D02*
X-20980475Y1231454D01*
X-20980475Y1231454D02*
X-20789999Y1231454D01*
X-20789999Y1231454D02*
X-20675713Y1193359D01*
X-20675713Y1193359D02*
X-20599523Y1117169D01*
X-20599523Y1117169D02*
X-20561428Y1040978D01*
X-20561428Y1040978D02*
X-20523332Y888597D01*
X-20523332Y888597D02*
X-20523332Y774311D01*
X-20523332Y774311D02*
X-20561428Y621930D01*
X-20561428Y621930D02*
X-20599523Y545740D01*
X-20599523Y545740D02*
X-20675713Y469550D01*
X-20675713Y469550D02*
X-20789999Y431454D01*
X-20789999Y431454D02*
X-20980475Y431454D01*
X-18802047Y3875681D02*
X-18535380Y3075681D01*
X-18535380Y3075681D02*
X-18268714Y3875681D01*
X-17849666Y3875681D02*
X-17697285Y3875681D01*
X-17697285Y3875681D02*
X-17621095Y3837586D01*
X-17621095Y3837586D02*
X-17544904Y3761396D01*
X-17544904Y3761396D02*
X-17506809Y3609015D01*
X-17506809Y3609015D02*
X-17506809Y3342348D01*
X-17506809Y3342348D02*
X-17544904Y3189967D01*
X-17544904Y3189967D02*
X-17621095Y3113777D01*
X-17621095Y3113777D02*
X-17697285Y3075681D01*
X-17697285Y3075681D02*
X-17849666Y3075681D01*
X-17849666Y3075681D02*
X-17925857Y3113777D01*
X-17925857Y3113777D02*
X-18002047Y3189967D01*
X-18002047Y3189967D02*
X-18040143Y3342348D01*
X-18040143Y3342348D02*
X-18040143Y3609015D01*
X-18040143Y3609015D02*
X-18002047Y3761396D01*
X-18002047Y3761396D02*
X-17925857Y3837586D01*
X-17925857Y3837586D02*
X-17849666Y3875681D01*
X-16783000Y3075681D02*
X-17163952Y3075681D01*
X-17163952Y3075681D02*
X-17163952Y3875681D01*
X-16630619Y3875681D02*
X-16173476Y3875681D01*
X-16402048Y3075681D02*
X-16402048Y3875681D01*
X-15944905Y3304253D02*
X-15563952Y3304253D01*
X-16021095Y3075681D02*
X-15754428Y3875681D01*
X-15754428Y3875681D02*
X-15487762Y3075681D01*
X-14802048Y3837586D02*
X-14878238Y3875681D01*
X-14878238Y3875681D02*
X-14992524Y3875681D01*
X-14992524Y3875681D02*
X-15106810Y3837586D01*
X-15106810Y3837586D02*
X-15183000Y3761396D01*
X-15183000Y3761396D02*
X-15221095Y3685205D01*
X-15221095Y3685205D02*
X-15259191Y3532824D01*
X-15259191Y3532824D02*
X-15259191Y3418538D01*
X-15259191Y3418538D02*
X-15221095Y3266157D01*
X-15221095Y3266157D02*
X-15183000Y3189967D01*
X-15183000Y3189967D02*
X-15106810Y3113777D01*
X-15106810Y3113777D02*
X-14992524Y3075681D01*
X-14992524Y3075681D02*
X-14916333Y3075681D01*
X-14916333Y3075681D02*
X-14802048Y3113777D01*
X-14802048Y3113777D02*
X-14763952Y3151872D01*
X-14763952Y3151872D02*
X-14763952Y3418538D01*
X-14763952Y3418538D02*
X-14916333Y3418538D01*
X-14421095Y3494729D02*
X-14154429Y3494729D01*
X-14040143Y3075681D02*
X-14421095Y3075681D01*
X-14421095Y3075681D02*
X-14421095Y3875681D01*
X-14421095Y3875681D02*
X-14040143Y3875681D01*
X-18611571Y1825822D02*
X-18497285Y1787726D01*
X-18497285Y1787726D02*
X-18306809Y1787726D01*
X-18306809Y1787726D02*
X-18230618Y1825822D01*
X-18230618Y1825822D02*
X-18192523Y1863917D01*
X-18192523Y1863917D02*
X-18154428Y1940107D01*
X-18154428Y1940107D02*
X-18154428Y2016298D01*
X-18154428Y2016298D02*
X-18192523Y2092488D01*
X-18192523Y2092488D02*
X-18230618Y2130583D01*
X-18230618Y2130583D02*
X-18306809Y2168679D01*
X-18306809Y2168679D02*
X-18459190Y2206774D01*
X-18459190Y2206774D02*
X-18535380Y2244869D01*
X-18535380Y2244869D02*
X-18573475Y2282964D01*
X-18573475Y2282964D02*
X-18611571Y2359155D01*
X-18611571Y2359155D02*
X-18611571Y2435345D01*
X-18611571Y2435345D02*
X-18573475Y2511536D01*
X-18573475Y2511536D02*
X-18535380Y2549631D01*
X-18535380Y2549631D02*
X-18459190Y2587726D01*
X-18459190Y2587726D02*
X-18268713Y2587726D01*
X-18268713Y2587726D02*
X-18154428Y2549631D01*
X-17659189Y2587726D02*
X-17506808Y2587726D01*
X-17506808Y2587726D02*
X-17430618Y2549631D01*
X-17430618Y2549631D02*
X-17354427Y2473441D01*
X-17354427Y2473441D02*
X-17316332Y2321060D01*
X-17316332Y2321060D02*
X-17316332Y2054393D01*
X-17316332Y2054393D02*
X-17354427Y1902012D01*
X-17354427Y1902012D02*
X-17430618Y1825822D01*
X-17430618Y1825822D02*
X-17506808Y1787726D01*
X-17506808Y1787726D02*
X-17659189Y1787726D01*
X-17659189Y1787726D02*
X-17735380Y1825822D01*
X-17735380Y1825822D02*
X-17811570Y1902012D01*
X-17811570Y1902012D02*
X-17849666Y2054393D01*
X-17849666Y2054393D02*
X-17849666Y2321060D01*
X-17849666Y2321060D02*
X-17811570Y2473441D01*
X-17811570Y2473441D02*
X-17735380Y2549631D01*
X-17735380Y2549631D02*
X-17659189Y2587726D01*
X-16973475Y2587726D02*
X-16973475Y1940107D01*
X-16973475Y1940107D02*
X-16935380Y1863917D01*
X-16935380Y1863917D02*
X-16897285Y1825822D01*
X-16897285Y1825822D02*
X-16821094Y1787726D01*
X-16821094Y1787726D02*
X-16668713Y1787726D01*
X-16668713Y1787726D02*
X-16592523Y1825822D01*
X-16592523Y1825822D02*
X-16554428Y1863917D01*
X-16554428Y1863917D02*
X-16516332Y1940107D01*
X-16516332Y1940107D02*
X-16516332Y2587726D01*
X-15678237Y1787726D02*
X-15944904Y2168679D01*
X-16135380Y1787726D02*
X-16135380Y2587726D01*
X-16135380Y2587726D02*
X-15830618Y2587726D01*
X-15830618Y2587726D02*
X-15754428Y2549631D01*
X-15754428Y2549631D02*
X-15716333Y2511536D01*
X-15716333Y2511536D02*
X-15678237Y2435345D01*
X-15678237Y2435345D02*
X-15678237Y2321060D01*
X-15678237Y2321060D02*
X-15716333Y2244869D01*
X-15716333Y2244869D02*
X-15754428Y2206774D01*
X-15754428Y2206774D02*
X-15830618Y2168679D01*
X-15830618Y2168679D02*
X-16135380Y2168679D01*
X-14878237Y1863917D02*
X-14916333Y1825822D01*
X-14916333Y1825822D02*
X-15030618Y1787726D01*
X-15030618Y1787726D02*
X-15106809Y1787726D01*
X-15106809Y1787726D02*
X-15221095Y1825822D01*
X-15221095Y1825822D02*
X-15297285Y1902012D01*
X-15297285Y1902012D02*
X-15335380Y1978202D01*
X-15335380Y1978202D02*
X-15373476Y2130583D01*
X-15373476Y2130583D02*
X-15373476Y2244869D01*
X-15373476Y2244869D02*
X-15335380Y2397250D01*
X-15335380Y2397250D02*
X-15297285Y2473441D01*
X-15297285Y2473441D02*
X-15221095Y2549631D01*
X-15221095Y2549631D02*
X-15106809Y2587726D01*
X-15106809Y2587726D02*
X-15030618Y2587726D01*
X-15030618Y2587726D02*
X-14916333Y2549631D01*
X-14916333Y2549631D02*
X-14878237Y2511536D01*
X-14535380Y2206774D02*
X-14268714Y2206774D01*
X-14154428Y1787726D02*
X-14535380Y1787726D01*
X-14535380Y1787726D02*
X-14535380Y2587726D01*
X-14535380Y2587726D02*
X-14154428Y2587726D01*
X20980476Y14687109D02*
X20904286Y14725204D01*
X20904286Y14725204D02*
X20790000Y14725204D01*
X20790000Y14725204D02*
X20675714Y14687109D01*
X20675714Y14687109D02*
X20599524Y14610919D01*
X20599524Y14610919D02*
X20561429Y14534728D01*
X20561429Y14534728D02*
X20523333Y14382347D01*
X20523333Y14382347D02*
X20523333Y14268061D01*
X20523333Y14268061D02*
X20561429Y14115680D01*
X20561429Y14115680D02*
X20599524Y14039490D01*
X20599524Y14039490D02*
X20675714Y13963300D01*
X20675714Y13963300D02*
X20790000Y13925204D01*
X20790000Y13925204D02*
X20866191Y13925204D01*
X20866191Y13925204D02*
X20980476Y13963300D01*
X20980476Y13963300D02*
X21018572Y14001395D01*
X21018572Y14001395D02*
X21018572Y14268061D01*
X21018572Y14268061D02*
X20866191Y14268061D01*
X21361429Y13925204D02*
X21361429Y14725204D01*
X21361429Y14725204D02*
X21818572Y13925204D01*
X21818572Y13925204D02*
X21818572Y14725204D01*
X22199524Y13925204D02*
X22199524Y14725204D01*
X22199524Y14725204D02*
X22390000Y14725204D01*
X22390000Y14725204D02*
X22504286Y14687109D01*
X22504286Y14687109D02*
X22580476Y14610919D01*
X22580476Y14610919D02*
X22618571Y14534728D01*
X22618571Y14534728D02*
X22656667Y14382347D01*
X22656667Y14382347D02*
X22656667Y14268061D01*
X22656667Y14268061D02*
X22618571Y14115680D01*
X22618571Y14115680D02*
X22580476Y14039490D01*
X22580476Y14039490D02*
X22504286Y13963300D01*
X22504286Y13963300D02*
X22390000Y13925204D01*
X22390000Y13925204D02*
X22199524Y13925204D01*
X20980476Y1352109D02*
X20904286Y1390204D01*
X20904286Y1390204D02*
X20790000Y1390204D01*
X20790000Y1390204D02*
X20675714Y1352109D01*
X20675714Y1352109D02*
X20599524Y1275919D01*
X20599524Y1275919D02*
X20561429Y1199728D01*
X20561429Y1199728D02*
X20523333Y1047347D01*
X20523333Y1047347D02*
X20523333Y933061D01*
X20523333Y933061D02*
X20561429Y780680D01*
X20561429Y780680D02*
X20599524Y704490D01*
X20599524Y704490D02*
X20675714Y628300D01*
X20675714Y628300D02*
X20790000Y590204D01*
X20790000Y590204D02*
X20866191Y590204D01*
X20866191Y590204D02*
X20980476Y628300D01*
X20980476Y628300D02*
X21018572Y666395D01*
X21018572Y666395D02*
X21018572Y933061D01*
X21018572Y933061D02*
X20866191Y933061D01*
X21361429Y590204D02*
X21361429Y1390204D01*
X21361429Y1390204D02*
X21818572Y590204D01*
X21818572Y590204D02*
X21818572Y1390204D01*
X22199524Y590204D02*
X22199524Y1390204D01*
X22199524Y1390204D02*
X22390000Y1390204D01*
X22390000Y1390204D02*
X22504286Y1352109D01*
X22504286Y1352109D02*
X22580476Y1275919D01*
X22580476Y1275919D02*
X22618571Y1199728D01*
X22618571Y1199728D02*
X22656667Y1047347D01*
X22656667Y1047347D02*
X22656667Y933061D01*
X22656667Y933061D02*
X22618571Y780680D01*
X22618571Y780680D02*
X22580476Y704490D01*
X22580476Y704490D02*
X22504286Y628300D01*
X22504286Y628300D02*
X22390000Y590204D01*
X22390000Y590204D02*
X22199524Y590204D01*
X23825238Y14229966D02*
X24434762Y14229966D01*
X24130000Y13925204D02*
X24130000Y14534728D01*
X23825238Y894966D02*
X24434762Y894966D01*
X24130000Y590204D02*
X24130000Y1199728D01*
X26226072Y15728538D02*
X25616548Y15499966D01*
X25616548Y15499966D02*
X26226072Y15271395D01*
X26607024Y15499966D02*
X27216548Y15499966D01*
X27978452Y15995204D02*
X27597500Y15995204D01*
X27597500Y15995204D02*
X27559404Y15614252D01*
X27559404Y15614252D02*
X27597500Y15652347D01*
X27597500Y15652347D02*
X27673690Y15690442D01*
X27673690Y15690442D02*
X27864166Y15690442D01*
X27864166Y15690442D02*
X27940357Y15652347D01*
X27940357Y15652347D02*
X27978452Y15614252D01*
X27978452Y15614252D02*
X28016547Y15538061D01*
X28016547Y15538061D02*
X28016547Y15347585D01*
X28016547Y15347585D02*
X27978452Y15271395D01*
X27978452Y15271395D02*
X27940357Y15233300D01*
X27940357Y15233300D02*
X27864166Y15195204D01*
X27864166Y15195204D02*
X27673690Y15195204D01*
X27673690Y15195204D02*
X27597500Y15233300D01*
X27597500Y15233300D02*
X27559404Y15271395D01*
X28245119Y15995204D02*
X28511786Y15195204D01*
X28511786Y15195204D02*
X28778452Y15995204D01*
X30187976Y15995204D02*
X30683214Y15995204D01*
X30683214Y15995204D02*
X30416548Y15690442D01*
X30416548Y15690442D02*
X30530833Y15690442D01*
X30530833Y15690442D02*
X30607024Y15652347D01*
X30607024Y15652347D02*
X30645119Y15614252D01*
X30645119Y15614252D02*
X30683214Y15538061D01*
X30683214Y15538061D02*
X30683214Y15347585D01*
X30683214Y15347585D02*
X30645119Y15271395D01*
X30645119Y15271395D02*
X30607024Y15233300D01*
X30607024Y15233300D02*
X30530833Y15195204D01*
X30530833Y15195204D02*
X30302262Y15195204D01*
X30302262Y15195204D02*
X30226071Y15233300D01*
X30226071Y15233300D02*
X30187976Y15271395D01*
X30911786Y15995204D02*
X31178453Y15195204D01*
X31178453Y15195204D02*
X31445119Y15995204D01*
X33083215Y15995204D02*
X33159405Y15995204D01*
X33159405Y15995204D02*
X33235596Y15957109D01*
X33235596Y15957109D02*
X33273691Y15919014D01*
X33273691Y15919014D02*
X33311786Y15842823D01*
X33311786Y15842823D02*
X33349881Y15690442D01*
X33349881Y15690442D02*
X33349881Y15499966D01*
X33349881Y15499966D02*
X33311786Y15347585D01*
X33311786Y15347585D02*
X33273691Y15271395D01*
X33273691Y15271395D02*
X33235596Y15233300D01*
X33235596Y15233300D02*
X33159405Y15195204D01*
X33159405Y15195204D02*
X33083215Y15195204D01*
X33083215Y15195204D02*
X33007024Y15233300D01*
X33007024Y15233300D02*
X32968929Y15271395D01*
X32968929Y15271395D02*
X32930834Y15347585D01*
X32930834Y15347585D02*
X32892738Y15499966D01*
X32892738Y15499966D02*
X32892738Y15690442D01*
X32892738Y15690442D02*
X32930834Y15842823D01*
X32930834Y15842823D02*
X32968929Y15919014D01*
X32968929Y15919014D02*
X33007024Y15957109D01*
X33007024Y15957109D02*
X33083215Y15995204D01*
X33578453Y15995204D02*
X33845120Y15195204D01*
X33845120Y15195204D02*
X34111786Y15995204D01*
X34378453Y15499966D02*
X34987977Y15499966D01*
X35368929Y15728538D02*
X35978453Y15499966D01*
X35978453Y15499966D02*
X35368929Y15271395D01*
X-47180476Y8165180D02*
X-47656666Y8165180D01*
X-47656666Y8165180D02*
X-47704285Y7688990D01*
X-47704285Y7688990D02*
X-47656666Y7736609D01*
X-47656666Y7736609D02*
X-47561428Y7784228D01*
X-47561428Y7784228D02*
X-47323333Y7784228D01*
X-47323333Y7784228D02*
X-47228095Y7736609D01*
X-47228095Y7736609D02*
X-47180476Y7688990D01*
X-47180476Y7688990D02*
X-47132857Y7593752D01*
X-47132857Y7593752D02*
X-47132857Y7355657D01*
X-47132857Y7355657D02*
X-47180476Y7260419D01*
X-47180476Y7260419D02*
X-47228095Y7212800D01*
X-47228095Y7212800D02*
X-47323333Y7165180D01*
X-47323333Y7165180D02*
X-47561428Y7165180D01*
X-47561428Y7165180D02*
X-47656666Y7212800D01*
X-47656666Y7212800D02*
X-47704285Y7260419D01*
X-46847142Y8165180D02*
X-46513809Y7165180D01*
X-46513809Y7165180D02*
X-46180476Y8165180D01*
X-47466190Y5625180D02*
X-47370952Y5625180D01*
X-47370952Y5625180D02*
X-47275714Y5577561D01*
X-47275714Y5577561D02*
X-47228095Y5529942D01*
X-47228095Y5529942D02*
X-47180476Y5434704D01*
X-47180476Y5434704D02*
X-47132857Y5244228D01*
X-47132857Y5244228D02*
X-47132857Y5006133D01*
X-47132857Y5006133D02*
X-47180476Y4815657D01*
X-47180476Y4815657D02*
X-47228095Y4720419D01*
X-47228095Y4720419D02*
X-47275714Y4672800D01*
X-47275714Y4672800D02*
X-47370952Y4625180D01*
X-47370952Y4625180D02*
X-47466190Y4625180D01*
X-47466190Y4625180D02*
X-47561428Y4672800D01*
X-47561428Y4672800D02*
X-47609047Y4720419D01*
X-47609047Y4720419D02*
X-47656666Y4815657D01*
X-47656666Y4815657D02*
X-47704285Y5006133D01*
X-47704285Y5006133D02*
X-47704285Y5244228D01*
X-47704285Y5244228D02*
X-47656666Y5434704D01*
X-47656666Y5434704D02*
X-47609047Y5529942D01*
X-47609047Y5529942D02*
X-47561428Y5577561D01*
X-47561428Y5577561D02*
X-47466190Y5625180D01*
X-46847142Y5625180D02*
X-46513809Y4625180D01*
X-46513809Y4625180D02*
X-46180476Y5625180D01*
X-47751904Y3085180D02*
X-47132857Y3085180D01*
X-47132857Y3085180D02*
X-47466190Y2704228D01*
X-47466190Y2704228D02*
X-47323333Y2704228D01*
X-47323333Y2704228D02*
X-47228095Y2656609D01*
X-47228095Y2656609D02*
X-47180476Y2608990D01*
X-47180476Y2608990D02*
X-47132857Y2513752D01*
X-47132857Y2513752D02*
X-47132857Y2275657D01*
X-47132857Y2275657D02*
X-47180476Y2180419D01*
X-47180476Y2180419D02*
X-47228095Y2132800D01*
X-47228095Y2132800D02*
X-47323333Y2085180D01*
X-47323333Y2085180D02*
X-47609047Y2085180D01*
X-47609047Y2085180D02*
X-47704285Y2132800D01*
X-47704285Y2132800D02*
X-47751904Y2180419D01*
X-46847142Y3085180D02*
X-46513809Y2085180D01*
X-46513809Y2085180D02*
X-46180476Y3085180D01*
X46799523Y8165180D02*
X46323333Y8165180D01*
X46323333Y8165180D02*
X46275714Y7688990D01*
X46275714Y7688990D02*
X46323333Y7736609D01*
X46323333Y7736609D02*
X46418571Y7784228D01*
X46418571Y7784228D02*
X46656666Y7784228D01*
X46656666Y7784228D02*
X46751904Y7736609D01*
X46751904Y7736609D02*
X46799523Y7688990D01*
X46799523Y7688990D02*
X46847142Y7593752D01*
X46847142Y7593752D02*
X46847142Y7355657D01*
X46847142Y7355657D02*
X46799523Y7260419D01*
X46799523Y7260419D02*
X46751904Y7212800D01*
X46751904Y7212800D02*
X46656666Y7165180D01*
X46656666Y7165180D02*
X46418571Y7165180D01*
X46418571Y7165180D02*
X46323333Y7212800D01*
X46323333Y7212800D02*
X46275714Y7260419D01*
X47132857Y8165180D02*
X47466190Y7165180D01*
X47466190Y7165180D02*
X47799523Y8165180D01*
X46513809Y5625180D02*
X46609047Y5625180D01*
X46609047Y5625180D02*
X46704285Y5577561D01*
X46704285Y5577561D02*
X46751904Y5529942D01*
X46751904Y5529942D02*
X46799523Y5434704D01*
X46799523Y5434704D02*
X46847142Y5244228D01*
X46847142Y5244228D02*
X46847142Y5006133D01*
X46847142Y5006133D02*
X46799523Y4815657D01*
X46799523Y4815657D02*
X46751904Y4720419D01*
X46751904Y4720419D02*
X46704285Y4672800D01*
X46704285Y4672800D02*
X46609047Y4625180D01*
X46609047Y4625180D02*
X46513809Y4625180D01*
X46513809Y4625180D02*
X46418571Y4672800D01*
X46418571Y4672800D02*
X46370952Y4720419D01*
X46370952Y4720419D02*
X46323333Y4815657D01*
X46323333Y4815657D02*
X46275714Y5006133D01*
X46275714Y5006133D02*
X46275714Y5244228D01*
X46275714Y5244228D02*
X46323333Y5434704D01*
X46323333Y5434704D02*
X46370952Y5529942D01*
X46370952Y5529942D02*
X46418571Y5577561D01*
X46418571Y5577561D02*
X46513809Y5625180D01*
X47132857Y5625180D02*
X47466190Y4625180D01*
X47466190Y4625180D02*
X47799523Y5625180D01*
X46228095Y3085180D02*
X46847142Y3085180D01*
X46847142Y3085180D02*
X46513809Y2704228D01*
X46513809Y2704228D02*
X46656666Y2704228D01*
X46656666Y2704228D02*
X46751904Y2656609D01*
X46751904Y2656609D02*
X46799523Y2608990D01*
X46799523Y2608990D02*
X46847142Y2513752D01*
X46847142Y2513752D02*
X46847142Y2275657D01*
X46847142Y2275657D02*
X46799523Y2180419D01*
X46799523Y2180419D02*
X46751904Y2132800D01*
X46751904Y2132800D02*
X46656666Y2085180D01*
X46656666Y2085180D02*
X46370952Y2085180D01*
X46370952Y2085180D02*
X46275714Y2132800D01*
X46275714Y2132800D02*
X46228095Y2180419D01*
X47132857Y3085180D02*
X47466190Y2085180D01*
X47466190Y2085180D02*
X47799523Y3085180D01*
X-8603895Y7994667D02*
X-8565800Y7956571D01*
X-8565800Y7956571D02*
X-8527704Y7842286D01*
X-8527704Y7842286D02*
X-8527704Y7766095D01*
X-8527704Y7766095D02*
X-8565800Y7651809D01*
X-8565800Y7651809D02*
X-8641990Y7575619D01*
X-8641990Y7575619D02*
X-8718180Y7537524D01*
X-8718180Y7537524D02*
X-8870561Y7499428D01*
X-8870561Y7499428D02*
X-8984847Y7499428D01*
X-8984847Y7499428D02*
X-9137228Y7537524D01*
X-9137228Y7537524D02*
X-9213419Y7575619D01*
X-9213419Y7575619D02*
X-9289609Y7651809D01*
X-9289609Y7651809D02*
X-9327704Y7766095D01*
X-9327704Y7766095D02*
X-9327704Y7842286D01*
X-9327704Y7842286D02*
X-9289609Y7956571D01*
X-9289609Y7956571D02*
X-9251514Y7994667D01*
X-9327704Y8680381D02*
X-9327704Y8528000D01*
X-9327704Y8528000D02*
X-9289609Y8451809D01*
X-9289609Y8451809D02*
X-9251514Y8413714D01*
X-9251514Y8413714D02*
X-9137228Y8337524D01*
X-9137228Y8337524D02*
X-8984847Y8299428D01*
X-8984847Y8299428D02*
X-8680085Y8299428D01*
X-8680085Y8299428D02*
X-8603895Y8337524D01*
X-8603895Y8337524D02*
X-8565800Y8375619D01*
X-8565800Y8375619D02*
X-8527704Y8451809D01*
X-8527704Y8451809D02*
X-8527704Y8604190D01*
X-8527704Y8604190D02*
X-8565800Y8680381D01*
X-8565800Y8680381D02*
X-8603895Y8718476D01*
X-8603895Y8718476D02*
X-8680085Y8756571D01*
X-8680085Y8756571D02*
X-8870561Y8756571D01*
X-8870561Y8756571D02*
X-8946752Y8718476D01*
X-8946752Y8718476D02*
X-8984847Y8680381D01*
X-8984847Y8680381D02*
X-9022942Y8604190D01*
X-9022942Y8604190D02*
X-9022942Y8451809D01*
X-9022942Y8451809D02*
X-8984847Y8375619D01*
X-8984847Y8375619D02*
X-8946752Y8337524D01*
X-8946752Y8337524D02*
X-8870561Y8299428D01*
X12628604Y16757667D02*
X12666700Y16719571D01*
X12666700Y16719571D02*
X12704795Y16605286D01*
X12704795Y16605286D02*
X12704795Y16529095D01*
X12704795Y16529095D02*
X12666700Y16414809D01*
X12666700Y16414809D02*
X12590509Y16338619D01*
X12590509Y16338619D02*
X12514319Y16300524D01*
X12514319Y16300524D02*
X12361938Y16262428D01*
X12361938Y16262428D02*
X12247652Y16262428D01*
X12247652Y16262428D02*
X12095271Y16300524D01*
X12095271Y16300524D02*
X12019080Y16338619D01*
X12019080Y16338619D02*
X11942890Y16414809D01*
X11942890Y16414809D02*
X11904795Y16529095D01*
X11904795Y16529095D02*
X11904795Y16605286D01*
X11904795Y16605286D02*
X11942890Y16719571D01*
X11942890Y16719571D02*
X11980985Y16757667D01*
X12171461Y17443381D02*
X12704795Y17443381D01*
X11866700Y17252905D02*
X12438128Y17062428D01*
X12438128Y17062428D02*
X12438128Y17557667D01*
X17898055Y10191395D02*
X17859959Y10153300D01*
X17859959Y10153300D02*
X17745674Y10115204D01*
X17745674Y10115204D02*
X17669483Y10115204D01*
X17669483Y10115204D02*
X17555197Y10153300D01*
X17555197Y10153300D02*
X17479007Y10229490D01*
X17479007Y10229490D02*
X17440912Y10305680D01*
X17440912Y10305680D02*
X17402816Y10458061D01*
X17402816Y10458061D02*
X17402816Y10572347D01*
X17402816Y10572347D02*
X17440912Y10724728D01*
X17440912Y10724728D02*
X17479007Y10800919D01*
X17479007Y10800919D02*
X17555197Y10877109D01*
X17555197Y10877109D02*
X17669483Y10915204D01*
X17669483Y10915204D02*
X17745674Y10915204D01*
X17745674Y10915204D02*
X17859959Y10877109D01*
X17859959Y10877109D02*
X17898055Y10839014D01*
X18164721Y10915204D02*
X18659959Y10915204D01*
X18659959Y10915204D02*
X18393293Y10610442D01*
X18393293Y10610442D02*
X18507578Y10610442D01*
X18507578Y10610442D02*
X18583769Y10572347D01*
X18583769Y10572347D02*
X18621864Y10534252D01*
X18621864Y10534252D02*
X18659959Y10458061D01*
X18659959Y10458061D02*
X18659959Y10267585D01*
X18659959Y10267585D02*
X18621864Y10191395D01*
X18621864Y10191395D02*
X18583769Y10153300D01*
X18583769Y10153300D02*
X18507578Y10115204D01*
X18507578Y10115204D02*
X18279007Y10115204D01*
X18279007Y10115204D02*
X18202816Y10153300D01*
X18202816Y10153300D02*
X18164721Y10191395D01*
X-12413895Y16757667D02*
X-12375800Y16719571D01*
X-12375800Y16719571D02*
X-12337704Y16605286D01*
X-12337704Y16605286D02*
X-12337704Y16529095D01*
X-12337704Y16529095D02*
X-12375800Y16414809D01*
X-12375800Y16414809D02*
X-12451990Y16338619D01*
X-12451990Y16338619D02*
X-12528180Y16300524D01*
X-12528180Y16300524D02*
X-12680561Y16262428D01*
X-12680561Y16262428D02*
X-12794847Y16262428D01*
X-12794847Y16262428D02*
X-12947228Y16300524D01*
X-12947228Y16300524D02*
X-13023419Y16338619D01*
X-13023419Y16338619D02*
X-13099609Y16414809D01*
X-13099609Y16414809D02*
X-13137704Y16529095D01*
X-13137704Y16529095D02*
X-13137704Y16605286D01*
X-13137704Y16605286D02*
X-13099609Y16719571D01*
X-13099609Y16719571D02*
X-13061514Y16757667D01*
X-12337704Y17519571D02*
X-12337704Y17062428D01*
X-12337704Y17291000D02*
X-13137704Y17291000D01*
X-13137704Y17291000D02*
X-13023419Y17214809D01*
X-13023419Y17214809D02*
X-12947228Y17138619D01*
X-12947228Y17138619D02*
X-12909133Y17062428D01*
X-18612082Y10191395D02*
X-18650178Y10153300D01*
X-18650178Y10153300D02*
X-18764463Y10115204D01*
X-18764463Y10115204D02*
X-18840654Y10115204D01*
X-18840654Y10115204D02*
X-18954940Y10153300D01*
X-18954940Y10153300D02*
X-19031130Y10229490D01*
X-19031130Y10229490D02*
X-19069225Y10305680D01*
X-19069225Y10305680D02*
X-19107321Y10458061D01*
X-19107321Y10458061D02*
X-19107321Y10572347D01*
X-19107321Y10572347D02*
X-19069225Y10724728D01*
X-19069225Y10724728D02*
X-19031130Y10800919D01*
X-19031130Y10800919D02*
X-18954940Y10877109D01*
X-18954940Y10877109D02*
X-18840654Y10915204D01*
X-18840654Y10915204D02*
X-18764463Y10915204D01*
X-18764463Y10915204D02*
X-18650178Y10877109D01*
X-18650178Y10877109D02*
X-18612082Y10839014D01*
X-18307321Y10839014D02*
X-18269225Y10877109D01*
X-18269225Y10877109D02*
X-18193035Y10915204D01*
X-18193035Y10915204D02*
X-18002559Y10915204D01*
X-18002559Y10915204D02*
X-17926368Y10877109D01*
X-17926368Y10877109D02*
X-17888273Y10839014D01*
X-17888273Y10839014D02*
X-17850178Y10762823D01*
X-17850178Y10762823D02*
X-17850178Y10686633D01*
X-17850178Y10686633D02*
X-17888273Y10572347D01*
X-17888273Y10572347D02*
X-18345416Y10115204D01*
X-18345416Y10115204D02*
X-17850178Y10115204D01*
X9453604Y7994667D02*
X9491700Y7956571D01*
X9491700Y7956571D02*
X9529795Y7842286D01*
X9529795Y7842286D02*
X9529795Y7766095D01*
X9529795Y7766095D02*
X9491700Y7651809D01*
X9491700Y7651809D02*
X9415509Y7575619D01*
X9415509Y7575619D02*
X9339319Y7537524D01*
X9339319Y7537524D02*
X9186938Y7499428D01*
X9186938Y7499428D02*
X9072652Y7499428D01*
X9072652Y7499428D02*
X8920271Y7537524D01*
X8920271Y7537524D02*
X8844080Y7575619D01*
X8844080Y7575619D02*
X8767890Y7651809D01*
X8767890Y7651809D02*
X8729795Y7766095D01*
X8729795Y7766095D02*
X8729795Y7842286D01*
X8729795Y7842286D02*
X8767890Y7956571D01*
X8767890Y7956571D02*
X8805985Y7994667D01*
X8729795Y8261333D02*
X8729795Y8794667D01*
X8729795Y8794667D02*
X9529795Y8451809D01*
X-133332Y17366895D02*
X-171428Y17328800D01*
X-171428Y17328800D02*
X-285713Y17290704D01*
X-285713Y17290704D02*
X-361904Y17290704D01*
X-361904Y17290704D02*
X-476190Y17328800D01*
X-476190Y17328800D02*
X-552380Y17404990D01*
X-552380Y17404990D02*
X-590475Y17481180D01*
X-590475Y17481180D02*
X-628571Y17633561D01*
X-628571Y17633561D02*
X-628571Y17747847D01*
X-628571Y17747847D02*
X-590475Y17900228D01*
X-590475Y17900228D02*
X-552380Y17976419D01*
X-552380Y17976419D02*
X-476190Y18052609D01*
X-476190Y18052609D02*
X-361904Y18090704D01*
X-361904Y18090704D02*
X-285713Y18090704D01*
X-285713Y18090704D02*
X-171428Y18052609D01*
X-171428Y18052609D02*
X-133332Y18014514D01*
X590476Y18090704D02*
X209524Y18090704D01*
X209524Y18090704D02*
X171428Y17709752D01*
X171428Y17709752D02*
X209524Y17747847D01*
X209524Y17747847D02*
X285714Y17785942D01*
X285714Y17785942D02*
X476190Y17785942D01*
X476190Y17785942D02*
X552381Y17747847D01*
X552381Y17747847D02*
X590476Y17709752D01*
X590476Y17709752D02*
X628571Y17633561D01*
X628571Y17633561D02*
X628571Y17443085D01*
X628571Y17443085D02*
X590476Y17366895D01*
X590476Y17366895D02*
X552381Y17328800D01*
X552381Y17328800D02*
X476190Y17290704D01*
X476190Y17290704D02*
X285714Y17290704D01*
X285714Y17290704D02*
X209524Y17328800D01*
X209524Y17328800D02*
X171428Y17366895D01*
X-7089332Y2177704D02*
X-7355999Y2558657D01*
X-7546475Y2177704D02*
X-7546475Y2977704D01*
X-7546475Y2977704D02*
X-7241713Y2977704D01*
X-7241713Y2977704D02*
X-7165523Y2939609D01*
X-7165523Y2939609D02*
X-7127428Y2901514D01*
X-7127428Y2901514D02*
X-7089332Y2825323D01*
X-7089332Y2825323D02*
X-7089332Y2711038D01*
X-7089332Y2711038D02*
X-7127428Y2634847D01*
X-7127428Y2634847D02*
X-7165523Y2596752D01*
X-7165523Y2596752D02*
X-7241713Y2558657D01*
X-7241713Y2558657D02*
X-7546475Y2558657D01*
X-6365523Y2977704D02*
X-6746475Y2977704D01*
X-6746475Y2977704D02*
X-6784571Y2596752D01*
X-6784571Y2596752D02*
X-6746475Y2634847D01*
X-6746475Y2634847D02*
X-6670285Y2672942D01*
X-6670285Y2672942D02*
X-6479809Y2672942D01*
X-6479809Y2672942D02*
X-6403618Y2634847D01*
X-6403618Y2634847D02*
X-6365523Y2596752D01*
X-6365523Y2596752D02*
X-6327428Y2520561D01*
X-6327428Y2520561D02*
X-6327428Y2330085D01*
X-6327428Y2330085D02*
X-6365523Y2253895D01*
X-6365523Y2253895D02*
X-6403618Y2215800D01*
X-6403618Y2215800D02*
X-6479809Y2177704D01*
X-6479809Y2177704D02*
X-6670285Y2177704D01*
X-6670285Y2177704D02*
X-6746475Y2215800D01*
X-6746475Y2215800D02*
X-6784571Y2253895D01*
X13519167Y14560204D02*
X13252500Y14941157D01*
X13062024Y14560204D02*
X13062024Y15360204D01*
X13062024Y15360204D02*
X13366786Y15360204D01*
X13366786Y15360204D02*
X13442976Y15322109D01*
X13442976Y15322109D02*
X13481071Y15284014D01*
X13481071Y15284014D02*
X13519167Y15207823D01*
X13519167Y15207823D02*
X13519167Y15093538D01*
X13519167Y15093538D02*
X13481071Y15017347D01*
X13481071Y15017347D02*
X13442976Y14979252D01*
X13442976Y14979252D02*
X13366786Y14941157D01*
X13366786Y14941157D02*
X13062024Y14941157D01*
X13823928Y15284014D02*
X13862024Y15322109D01*
X13862024Y15322109D02*
X13938214Y15360204D01*
X13938214Y15360204D02*
X14128690Y15360204D01*
X14128690Y15360204D02*
X14204881Y15322109D01*
X14204881Y15322109D02*
X14242976Y15284014D01*
X14242976Y15284014D02*
X14281071Y15207823D01*
X14281071Y15207823D02*
X14281071Y15131633D01*
X14281071Y15131633D02*
X14242976Y15017347D01*
X14242976Y15017347D02*
X13785833Y14560204D01*
X13785833Y14560204D02*
X14281071Y14560204D01*
X-14640332Y5352704D02*
X-14906999Y5733657D01*
X-15097475Y5352704D02*
X-15097475Y6152704D01*
X-15097475Y6152704D02*
X-14792713Y6152704D01*
X-14792713Y6152704D02*
X-14716523Y6114609D01*
X-14716523Y6114609D02*
X-14678428Y6076514D01*
X-14678428Y6076514D02*
X-14640332Y6000323D01*
X-14640332Y6000323D02*
X-14640332Y5886038D01*
X-14640332Y5886038D02*
X-14678428Y5809847D01*
X-14678428Y5809847D02*
X-14716523Y5771752D01*
X-14716523Y5771752D02*
X-14792713Y5733657D01*
X-14792713Y5733657D02*
X-15097475Y5733657D01*
X-14373666Y6152704D02*
X-13878428Y6152704D01*
X-13878428Y6152704D02*
X-14145094Y5847942D01*
X-14145094Y5847942D02*
X-14030809Y5847942D01*
X-14030809Y5847942D02*
X-13954618Y5809847D01*
X-13954618Y5809847D02*
X-13916523Y5771752D01*
X-13916523Y5771752D02*
X-13878428Y5695561D01*
X-13878428Y5695561D02*
X-13878428Y5505085D01*
X-13878428Y5505085D02*
X-13916523Y5428895D01*
X-13916523Y5428895D02*
X-13954618Y5390800D01*
X-13954618Y5390800D02*
X-14030809Y5352704D01*
X-14030809Y5352704D02*
X-14259380Y5352704D01*
X-14259380Y5352704D02*
X-14335571Y5390800D01*
X-14335571Y5390800D02*
X-14373666Y5428895D01*
X-13785832Y14560204D02*
X-14052499Y14941157D01*
X-14242975Y14560204D02*
X-14242975Y15360204D01*
X-14242975Y15360204D02*
X-13938213Y15360204D01*
X-13938213Y15360204D02*
X-13862023Y15322109D01*
X-13862023Y15322109D02*
X-13823928Y15284014D01*
X-13823928Y15284014D02*
X-13785832Y15207823D01*
X-13785832Y15207823D02*
X-13785832Y15093538D01*
X-13785832Y15093538D02*
X-13823928Y15017347D01*
X-13823928Y15017347D02*
X-13862023Y14979252D01*
X-13862023Y14979252D02*
X-13938213Y14941157D01*
X-13938213Y14941157D02*
X-14242975Y14941157D01*
X-13023928Y14560204D02*
X-13481071Y14560204D01*
X-13252499Y14560204D02*
X-13252499Y15360204D01*
X-13252499Y15360204D02*
X-13328690Y15245919D01*
X-13328690Y15245919D02*
X-13404880Y15169728D01*
X-13404880Y15169728D02*
X-13481071Y15131633D01*
X6851667Y2177704D02*
X6585000Y2558657D01*
X6394524Y2177704D02*
X6394524Y2977704D01*
X6394524Y2977704D02*
X6699286Y2977704D01*
X6699286Y2977704D02*
X6775476Y2939609D01*
X6775476Y2939609D02*
X6813571Y2901514D01*
X6813571Y2901514D02*
X6851667Y2825323D01*
X6851667Y2825323D02*
X6851667Y2711038D01*
X6851667Y2711038D02*
X6813571Y2634847D01*
X6813571Y2634847D02*
X6775476Y2596752D01*
X6775476Y2596752D02*
X6699286Y2558657D01*
X6699286Y2558657D02*
X6394524Y2558657D01*
X7537381Y2977704D02*
X7385000Y2977704D01*
X7385000Y2977704D02*
X7308809Y2939609D01*
X7308809Y2939609D02*
X7270714Y2901514D01*
X7270714Y2901514D02*
X7194524Y2787228D01*
X7194524Y2787228D02*
X7156428Y2634847D01*
X7156428Y2634847D02*
X7156428Y2330085D01*
X7156428Y2330085D02*
X7194524Y2253895D01*
X7194524Y2253895D02*
X7232619Y2215800D01*
X7232619Y2215800D02*
X7308809Y2177704D01*
X7308809Y2177704D02*
X7461190Y2177704D01*
X7461190Y2177704D02*
X7537381Y2215800D01*
X7537381Y2215800D02*
X7575476Y2253895D01*
X7575476Y2253895D02*
X7613571Y2330085D01*
X7613571Y2330085D02*
X7613571Y2520561D01*
X7613571Y2520561D02*
X7575476Y2596752D01*
X7575476Y2596752D02*
X7537381Y2634847D01*
X7537381Y2634847D02*
X7461190Y2672942D01*
X7461190Y2672942D02*
X7308809Y2672942D01*
X7308809Y2672942D02*
X7232619Y2634847D01*
X7232619Y2634847D02*
X7194524Y2596752D01*
X7194524Y2596752D02*
X7156428Y2520561D01*
X14471667Y5352704D02*
X14205000Y5733657D01*
X14014524Y5352704D02*
X14014524Y6152704D01*
X14014524Y6152704D02*
X14319286Y6152704D01*
X14319286Y6152704D02*
X14395476Y6114609D01*
X14395476Y6114609D02*
X14433571Y6076514D01*
X14433571Y6076514D02*
X14471667Y6000323D01*
X14471667Y6000323D02*
X14471667Y5886038D01*
X14471667Y5886038D02*
X14433571Y5809847D01*
X14433571Y5809847D02*
X14395476Y5771752D01*
X14395476Y5771752D02*
X14319286Y5733657D01*
X14319286Y5733657D02*
X14014524Y5733657D01*
X15157381Y5886038D02*
X15157381Y5352704D01*
X14966905Y6190800D02*
X14776428Y5619371D01*
X14776428Y5619371D02*
X15271667Y5619371D01*
X-43457738Y22786180D02*
X-43791071Y23262371D01*
X-44029166Y22786180D02*
X-44029166Y23786180D01*
X-44029166Y23786180D02*
X-43648214Y23786180D01*
X-43648214Y23786180D02*
X-43552976Y23738561D01*
X-43552976Y23738561D02*
X-43505357Y23690942D01*
X-43505357Y23690942D02*
X-43457738Y23595704D01*
X-43457738Y23595704D02*
X-43457738Y23452847D01*
X-43457738Y23452847D02*
X-43505357Y23357609D01*
X-43505357Y23357609D02*
X-43552976Y23309990D01*
X-43552976Y23309990D02*
X-43648214Y23262371D01*
X-43648214Y23262371D02*
X-44029166Y23262371D01*
X-43172023Y23786180D02*
X-42838690Y22786180D01*
X-42838690Y22786180D02*
X-42505357Y23786180D01*
X-41743452Y23786180D02*
X-41933928Y23786180D01*
X-41933928Y23786180D02*
X-42029166Y23738561D01*
X-42029166Y23738561D02*
X-42076785Y23690942D01*
X-42076785Y23690942D02*
X-42172023Y23548085D01*
X-42172023Y23548085D02*
X-42219642Y23357609D01*
X-42219642Y23357609D02*
X-42219642Y22976657D01*
X-42219642Y22976657D02*
X-42172023Y22881419D01*
X-42172023Y22881419D02*
X-42124404Y22833800D01*
X-42124404Y22833800D02*
X-42029166Y22786180D01*
X-42029166Y22786180D02*
X-41838690Y22786180D01*
X-41838690Y22786180D02*
X-41743452Y22833800D01*
X-41743452Y22833800D02*
X-41695833Y22881419D01*
X-41695833Y22881419D02*
X-41648214Y22976657D01*
X-41648214Y22976657D02*
X-41648214Y23214752D01*
X-41648214Y23214752D02*
X-41695833Y23309990D01*
X-41695833Y23309990D02*
X-41743452Y23357609D01*
X-41743452Y23357609D02*
X-41838690Y23405228D01*
X-41838690Y23405228D02*
X-42029166Y23405228D01*
X-42029166Y23405228D02*
X-42124404Y23357609D01*
X-42124404Y23357609D02*
X-42172023Y23309990D01*
X-42172023Y23309990D02*
X-42219642Y23214752D01*
X3454476Y11613704D02*
X3454476Y10966085D01*
X3454476Y10966085D02*
X3492571Y10889895D01*
X3492571Y10889895D02*
X3530666Y10851800D01*
X3530666Y10851800D02*
X3606857Y10813704D01*
X3606857Y10813704D02*
X3759238Y10813704D01*
X3759238Y10813704D02*
X3835428Y10851800D01*
X3835428Y10851800D02*
X3873523Y10889895D01*
X3873523Y10889895D02*
X3911619Y10966085D01*
X3911619Y10966085D02*
X3911619Y11613704D01*
X4711618Y10813704D02*
X4254475Y10813704D01*
X4483047Y10813704D02*
X4483047Y11613704D01*
X4483047Y11613704D02*
X4406856Y11499419D01*
X4406856Y11499419D02*
X4330666Y11423228D01*
X4330666Y11423228D02*
X4254475Y11385133D01*
X-28273333Y3085180D02*
X-28273333Y2370895D01*
X-28273333Y2370895D02*
X-28320952Y2228038D01*
X-28320952Y2228038D02*
X-28416190Y2132800D01*
X-28416190Y2132800D02*
X-28559047Y2085180D01*
X-28559047Y2085180D02*
X-28654285Y2085180D01*
X-27273333Y2085180D02*
X-27844761Y2085180D01*
X-27559047Y2085180D02*
X-27559047Y3085180D01*
X-27559047Y3085180D02*
X-27654285Y2942323D01*
X-27654285Y2942323D02*
X-27749523Y2847085D01*
X-27749523Y2847085D02*
X-27844761Y2799466D01*
X33642333Y2977704D02*
X33642333Y2406276D01*
X33642333Y2406276D02*
X33604238Y2291990D01*
X33604238Y2291990D02*
X33528047Y2215800D01*
X33528047Y2215800D02*
X33413762Y2177704D01*
X33413762Y2177704D02*
X33337571Y2177704D01*
X33985190Y2901514D02*
X34023286Y2939609D01*
X34023286Y2939609D02*
X34099476Y2977704D01*
X34099476Y2977704D02*
X34289952Y2977704D01*
X34289952Y2977704D02*
X34366143Y2939609D01*
X34366143Y2939609D02*
X34404238Y2901514D01*
X34404238Y2901514D02*
X34442333Y2825323D01*
X34442333Y2825323D02*
X34442333Y2749133D01*
X34442333Y2749133D02*
X34404238Y2634847D01*
X34404238Y2634847D02*
X33947095Y2177704D01*
X33947095Y2177704D02*
X34442333Y2177704D01*
X7645476Y18217704D02*
X7645476Y17570085D01*
X7645476Y17570085D02*
X7683571Y17493895D01*
X7683571Y17493895D02*
X7721666Y17455800D01*
X7721666Y17455800D02*
X7797857Y17417704D01*
X7797857Y17417704D02*
X7950238Y17417704D01*
X7950238Y17417704D02*
X8026428Y17455800D01*
X8026428Y17455800D02*
X8064523Y17493895D01*
X8064523Y17493895D02*
X8102619Y17570085D01*
X8102619Y17570085D02*
X8102619Y18217704D01*
X8445475Y18141514D02*
X8483571Y18179609D01*
X8483571Y18179609D02*
X8559761Y18217704D01*
X8559761Y18217704D02*
X8750237Y18217704D01*
X8750237Y18217704D02*
X8826428Y18179609D01*
X8826428Y18179609D02*
X8864523Y18141514D01*
X8864523Y18141514D02*
X8902618Y18065323D01*
X8902618Y18065323D02*
X8902618Y17989133D01*
X8902618Y17989133D02*
X8864523Y17874847D01*
X8864523Y17874847D02*
X8407380Y17417704D01*
X8407380Y17417704D02*
X8902618Y17417704D01*
X-9499523Y18217704D02*
X-9499523Y17570085D01*
X-9499523Y17570085D02*
X-9461428Y17493895D01*
X-9461428Y17493895D02*
X-9423333Y17455800D01*
X-9423333Y17455800D02*
X-9347142Y17417704D01*
X-9347142Y17417704D02*
X-9194761Y17417704D01*
X-9194761Y17417704D02*
X-9118571Y17455800D01*
X-9118571Y17455800D02*
X-9080476Y17493895D01*
X-9080476Y17493895D02*
X-9042380Y17570085D01*
X-9042380Y17570085D02*
X-9042380Y18217704D01*
X-8737619Y18217704D02*
X-8242381Y18217704D01*
X-8242381Y18217704D02*
X-8509047Y17912942D01*
X-8509047Y17912942D02*
X-8394762Y17912942D01*
X-8394762Y17912942D02*
X-8318571Y17874847D01*
X-8318571Y17874847D02*
X-8280476Y17836752D01*
X-8280476Y17836752D02*
X-8242381Y17760561D01*
X-8242381Y17760561D02*
X-8242381Y17570085D01*
X-8242381Y17570085D02*
X-8280476Y17493895D01*
X-8280476Y17493895D02*
X-8318571Y17455800D01*
X-8318571Y17455800D02*
X-8394762Y17417704D01*
X-8394762Y17417704D02*
X-8623333Y17417704D01*
X-8623333Y17417704D02*
X-8699524Y17455800D01*
X-8699524Y17455800D02*
X-8737619Y17493895D01*
X-37102704Y10344167D02*
X-37483657Y10077500D01*
X-37102704Y9887024D02*
X-37902704Y9887024D01*
X-37902704Y9887024D02*
X-37902704Y10191786D01*
X-37902704Y10191786D02*
X-37864609Y10267976D01*
X-37864609Y10267976D02*
X-37826514Y10306071D01*
X-37826514Y10306071D02*
X-37750323Y10344167D01*
X-37750323Y10344167D02*
X-37636038Y10344167D01*
X-37636038Y10344167D02*
X-37559847Y10306071D01*
X-37559847Y10306071D02*
X-37521752Y10267976D01*
X-37521752Y10267976D02*
X-37483657Y10191786D01*
X-37483657Y10191786D02*
X-37483657Y9887024D01*
X-37902704Y10610833D02*
X-37902704Y11144167D01*
X-37902704Y11144167D02*
X-37102704Y10801309D01*
X-43770204Y15424167D02*
X-44151157Y15157500D01*
X-43770204Y14967024D02*
X-44570204Y14967024D01*
X-44570204Y14967024D02*
X-44570204Y15271786D01*
X-44570204Y15271786D02*
X-44532109Y15347976D01*
X-44532109Y15347976D02*
X-44494014Y15386071D01*
X-44494014Y15386071D02*
X-44417823Y15424167D01*
X-44417823Y15424167D02*
X-44303538Y15424167D01*
X-44303538Y15424167D02*
X-44227347Y15386071D01*
X-44227347Y15386071D02*
X-44189252Y15347976D01*
X-44189252Y15347976D02*
X-44151157Y15271786D01*
X-44151157Y15271786D02*
X-44151157Y14967024D01*
X-44227347Y15881309D02*
X-44265442Y15805119D01*
X-44265442Y15805119D02*
X-44303538Y15767024D01*
X-44303538Y15767024D02*
X-44379728Y15728928D01*
X-44379728Y15728928D02*
X-44417823Y15728928D01*
X-44417823Y15728928D02*
X-44494014Y15767024D01*
X-44494014Y15767024D02*
X-44532109Y15805119D01*
X-44532109Y15805119D02*
X-44570204Y15881309D01*
X-44570204Y15881309D02*
X-44570204Y16033690D01*
X-44570204Y16033690D02*
X-44532109Y16109881D01*
X-44532109Y16109881D02*
X-44494014Y16147976D01*
X-44494014Y16147976D02*
X-44417823Y16186071D01*
X-44417823Y16186071D02*
X-44379728Y16186071D01*
X-44379728Y16186071D02*
X-44303538Y16147976D01*
X-44303538Y16147976D02*
X-44265442Y16109881D01*
X-44265442Y16109881D02*
X-44227347Y16033690D01*
X-44227347Y16033690D02*
X-44227347Y15881309D01*
X-44227347Y15881309D02*
X-44189252Y15805119D01*
X-44189252Y15805119D02*
X-44151157Y15767024D01*
X-44151157Y15767024D02*
X-44074966Y15728928D01*
X-44074966Y15728928D02*
X-43922585Y15728928D01*
X-43922585Y15728928D02*
X-43846395Y15767024D01*
X-43846395Y15767024D02*
X-43808300Y15805119D01*
X-43808300Y15805119D02*
X-43770204Y15881309D01*
X-43770204Y15881309D02*
X-43770204Y16033690D01*
X-43770204Y16033690D02*
X-43808300Y16109881D01*
X-43808300Y16109881D02*
X-43846395Y16147976D01*
X-43846395Y16147976D02*
X-43922585Y16186071D01*
X-43922585Y16186071D02*
X-44074966Y16186071D01*
X-44074966Y16186071D02*
X-44151157Y16147976D01*
X-44151157Y16147976D02*
X-44189252Y16109881D01*
X-44189252Y16109881D02*
X-44227347Y16033690D01*
X-39325204Y15424167D02*
X-39706157Y15157500D01*
X-39325204Y14967024D02*
X-40125204Y14967024D01*
X-40125204Y14967024D02*
X-40125204Y15271786D01*
X-40125204Y15271786D02*
X-40087109Y15347976D01*
X-40087109Y15347976D02*
X-40049014Y15386071D01*
X-40049014Y15386071D02*
X-39972823Y15424167D01*
X-39972823Y15424167D02*
X-39858538Y15424167D01*
X-39858538Y15424167D02*
X-39782347Y15386071D01*
X-39782347Y15386071D02*
X-39744252Y15347976D01*
X-39744252Y15347976D02*
X-39706157Y15271786D01*
X-39706157Y15271786D02*
X-39706157Y14967024D01*
X-39325204Y15805119D02*
X-39325204Y15957500D01*
X-39325204Y15957500D02*
X-39363300Y16033690D01*
X-39363300Y16033690D02*
X-39401395Y16071786D01*
X-39401395Y16071786D02*
X-39515680Y16147976D01*
X-39515680Y16147976D02*
X-39668061Y16186071D01*
X-39668061Y16186071D02*
X-39972823Y16186071D01*
X-39972823Y16186071D02*
X-40049014Y16147976D01*
X-40049014Y16147976D02*
X-40087109Y16109881D01*
X-40087109Y16109881D02*
X-40125204Y16033690D01*
X-40125204Y16033690D02*
X-40125204Y15881309D01*
X-40125204Y15881309D02*
X-40087109Y15805119D01*
X-40087109Y15805119D02*
X-40049014Y15767024D01*
X-40049014Y15767024D02*
X-39972823Y15728928D01*
X-39972823Y15728928D02*
X-39782347Y15728928D01*
X-39782347Y15728928D02*
X-39706157Y15767024D01*
X-39706157Y15767024D02*
X-39668061Y15805119D01*
X-39668061Y15805119D02*
X-39629966Y15881309D01*
X-39629966Y15881309D02*
X-39629966Y16033690D01*
X-39629966Y16033690D02*
X-39668061Y16109881D01*
X-39668061Y16109881D02*
X-39706157Y16147976D01*
X-39706157Y16147976D02*
X-39782347Y16186071D01*
X-41547704Y9645714D02*
X-41928657Y9379047D01*
X-41547704Y9188571D02*
X-42347704Y9188571D01*
X-42347704Y9188571D02*
X-42347704Y9493333D01*
X-42347704Y9493333D02*
X-42309609Y9569523D01*
X-42309609Y9569523D02*
X-42271514Y9607618D01*
X-42271514Y9607618D02*
X-42195323Y9645714D01*
X-42195323Y9645714D02*
X-42081038Y9645714D01*
X-42081038Y9645714D02*
X-42004847Y9607618D01*
X-42004847Y9607618D02*
X-41966752Y9569523D01*
X-41966752Y9569523D02*
X-41928657Y9493333D01*
X-41928657Y9493333D02*
X-41928657Y9188571D01*
X-41547704Y10407618D02*
X-41547704Y9950475D01*
X-41547704Y10179047D02*
X-42347704Y10179047D01*
X-42347704Y10179047D02*
X-42233419Y10102856D01*
X-42233419Y10102856D02*
X-42157228Y10026666D01*
X-42157228Y10026666D02*
X-42119133Y9950475D01*
X-42347704Y10902857D02*
X-42347704Y10979047D01*
X-42347704Y10979047D02*
X-42309609Y11055238D01*
X-42309609Y11055238D02*
X-42271514Y11093333D01*
X-42271514Y11093333D02*
X-42195323Y11131428D01*
X-42195323Y11131428D02*
X-42042942Y11169523D01*
X-42042942Y11169523D02*
X-41852466Y11169523D01*
X-41852466Y11169523D02*
X-41700085Y11131428D01*
X-41700085Y11131428D02*
X-41623895Y11093333D01*
X-41623895Y11093333D02*
X-41585800Y11055238D01*
X-41585800Y11055238D02*
X-41547704Y10979047D01*
X-41547704Y10979047D02*
X-41547704Y10902857D01*
X-41547704Y10902857D02*
X-41585800Y10826666D01*
X-41585800Y10826666D02*
X-41623895Y10788571D01*
X-41623895Y10788571D02*
X-41700085Y10750476D01*
X-41700085Y10750476D02*
X-41852466Y10712380D01*
X-41852466Y10712380D02*
X-42042942Y10712380D01*
X-42042942Y10712380D02*
X-42195323Y10750476D01*
X-42195323Y10750476D02*
X-42271514Y10788571D01*
X-42271514Y10788571D02*
X-42309609Y10826666D01*
X-42309609Y10826666D02*
X-42347704Y10902857D01*
X-45992704Y9645714D02*
X-46373657Y9379047D01*
X-45992704Y9188571D02*
X-46792704Y9188571D01*
X-46792704Y9188571D02*
X-46792704Y9493333D01*
X-46792704Y9493333D02*
X-46754609Y9569523D01*
X-46754609Y9569523D02*
X-46716514Y9607618D01*
X-46716514Y9607618D02*
X-46640323Y9645714D01*
X-46640323Y9645714D02*
X-46526038Y9645714D01*
X-46526038Y9645714D02*
X-46449847Y9607618D01*
X-46449847Y9607618D02*
X-46411752Y9569523D01*
X-46411752Y9569523D02*
X-46373657Y9493333D01*
X-46373657Y9493333D02*
X-46373657Y9188571D01*
X-45992704Y10407618D02*
X-45992704Y9950475D01*
X-45992704Y10179047D02*
X-46792704Y10179047D01*
X-46792704Y10179047D02*
X-46678419Y10102856D01*
X-46678419Y10102856D02*
X-46602228Y10026666D01*
X-46602228Y10026666D02*
X-46564133Y9950475D01*
X-45992704Y11169523D02*
X-45992704Y10712380D01*
X-45992704Y10940952D02*
X-46792704Y10940952D01*
X-46792704Y10940952D02*
X-46678419Y10864761D01*
X-46678419Y10864761D02*
X-46602228Y10788571D01*
X-46602228Y10788571D02*
X-46564133Y10712380D01*
X46717295Y9645714D02*
X46336342Y9379047D01*
X46717295Y9188571D02*
X45917295Y9188571D01*
X45917295Y9188571D02*
X45917295Y9493333D01*
X45917295Y9493333D02*
X45955390Y9569523D01*
X45955390Y9569523D02*
X45993485Y9607618D01*
X45993485Y9607618D02*
X46069676Y9645714D01*
X46069676Y9645714D02*
X46183961Y9645714D01*
X46183961Y9645714D02*
X46260152Y9607618D01*
X46260152Y9607618D02*
X46298247Y9569523D01*
X46298247Y9569523D02*
X46336342Y9493333D01*
X46336342Y9493333D02*
X46336342Y9188571D01*
X46717295Y10407618D02*
X46717295Y9950475D01*
X46717295Y10179047D02*
X45917295Y10179047D01*
X45917295Y10179047D02*
X46031580Y10102856D01*
X46031580Y10102856D02*
X46107771Y10026666D01*
X46107771Y10026666D02*
X46145866Y9950475D01*
X45993485Y10712380D02*
X45955390Y10750476D01*
X45955390Y10750476D02*
X45917295Y10826666D01*
X45917295Y10826666D02*
X45917295Y11017142D01*
X45917295Y11017142D02*
X45955390Y11093333D01*
X45955390Y11093333D02*
X45993485Y11131428D01*
X45993485Y11131428D02*
X46069676Y11169523D01*
X46069676Y11169523D02*
X46145866Y11169523D01*
X46145866Y11169523D02*
X46260152Y11131428D01*
X46260152Y11131428D02*
X46717295Y10674285D01*
X46717295Y10674285D02*
X46717295Y11169523D01*
X44494795Y15360714D02*
X44113842Y15094047D01*
X44494795Y14903571D02*
X43694795Y14903571D01*
X43694795Y14903571D02*
X43694795Y15208333D01*
X43694795Y15208333D02*
X43732890Y15284523D01*
X43732890Y15284523D02*
X43770985Y15322618D01*
X43770985Y15322618D02*
X43847176Y15360714D01*
X43847176Y15360714D02*
X43961461Y15360714D01*
X43961461Y15360714D02*
X44037652Y15322618D01*
X44037652Y15322618D02*
X44075747Y15284523D01*
X44075747Y15284523D02*
X44113842Y15208333D01*
X44113842Y15208333D02*
X44113842Y14903571D01*
X44494795Y16122618D02*
X44494795Y15665475D01*
X44494795Y15894047D02*
X43694795Y15894047D01*
X43694795Y15894047D02*
X43809080Y15817856D01*
X43809080Y15817856D02*
X43885271Y15741666D01*
X43885271Y15741666D02*
X43923366Y15665475D01*
X43694795Y16389285D02*
X43694795Y16884523D01*
X43694795Y16884523D02*
X43999557Y16617857D01*
X43999557Y16617857D02*
X43999557Y16732142D01*
X43999557Y16732142D02*
X44037652Y16808333D01*
X44037652Y16808333D02*
X44075747Y16846428D01*
X44075747Y16846428D02*
X44151938Y16884523D01*
X44151938Y16884523D02*
X44342414Y16884523D01*
X44342414Y16884523D02*
X44418604Y16846428D01*
X44418604Y16846428D02*
X44456700Y16808333D01*
X44456700Y16808333D02*
X44494795Y16732142D01*
X44494795Y16732142D02*
X44494795Y16503571D01*
X44494795Y16503571D02*
X44456700Y16427380D01*
X44456700Y16427380D02*
X44418604Y16389285D01*
X40049795Y15043214D02*
X39668842Y14776547D01*
X40049795Y14586071D02*
X39249795Y14586071D01*
X39249795Y14586071D02*
X39249795Y14890833D01*
X39249795Y14890833D02*
X39287890Y14967023D01*
X39287890Y14967023D02*
X39325985Y15005118D01*
X39325985Y15005118D02*
X39402176Y15043214D01*
X39402176Y15043214D02*
X39516461Y15043214D01*
X39516461Y15043214D02*
X39592652Y15005118D01*
X39592652Y15005118D02*
X39630747Y14967023D01*
X39630747Y14967023D02*
X39668842Y14890833D01*
X39668842Y14890833D02*
X39668842Y14586071D01*
X40049795Y15805118D02*
X40049795Y15347975D01*
X40049795Y15576547D02*
X39249795Y15576547D01*
X39249795Y15576547D02*
X39364080Y15500356D01*
X39364080Y15500356D02*
X39440271Y15424166D01*
X39440271Y15424166D02*
X39478366Y15347975D01*
X39516461Y16490833D02*
X40049795Y16490833D01*
X39211700Y16300357D02*
X39783128Y16109880D01*
X39783128Y16109880D02*
X39783128Y16605119D01*
X42272295Y9645714D02*
X41891342Y9379047D01*
X42272295Y9188571D02*
X41472295Y9188571D01*
X41472295Y9188571D02*
X41472295Y9493333D01*
X41472295Y9493333D02*
X41510390Y9569523D01*
X41510390Y9569523D02*
X41548485Y9607618D01*
X41548485Y9607618D02*
X41624676Y9645714D01*
X41624676Y9645714D02*
X41738961Y9645714D01*
X41738961Y9645714D02*
X41815152Y9607618D01*
X41815152Y9607618D02*
X41853247Y9569523D01*
X41853247Y9569523D02*
X41891342Y9493333D01*
X41891342Y9493333D02*
X41891342Y9188571D01*
X42272295Y10407618D02*
X42272295Y9950475D01*
X42272295Y10179047D02*
X41472295Y10179047D01*
X41472295Y10179047D02*
X41586580Y10102856D01*
X41586580Y10102856D02*
X41662771Y10026666D01*
X41662771Y10026666D02*
X41700866Y9950475D01*
X41472295Y11131428D02*
X41472295Y10750476D01*
X41472295Y10750476D02*
X41853247Y10712380D01*
X41853247Y10712380D02*
X41815152Y10750476D01*
X41815152Y10750476D02*
X41777057Y10826666D01*
X41777057Y10826666D02*
X41777057Y11017142D01*
X41777057Y11017142D02*
X41815152Y11093333D01*
X41815152Y11093333D02*
X41853247Y11131428D01*
X41853247Y11131428D02*
X41929438Y11169523D01*
X41929438Y11169523D02*
X42119914Y11169523D01*
X42119914Y11169523D02*
X42196104Y11131428D01*
X42196104Y11131428D02*
X42234200Y11093333D01*
X42234200Y11093333D02*
X42272295Y11017142D01*
X42272295Y11017142D02*
X42272295Y10826666D01*
X42272295Y10826666D02*
X42234200Y10750476D01*
X42234200Y10750476D02*
X42196104Y10712380D01*
X37827295Y9645714D02*
X37446342Y9379047D01*
X37827295Y9188571D02*
X37027295Y9188571D01*
X37027295Y9188571D02*
X37027295Y9493333D01*
X37027295Y9493333D02*
X37065390Y9569523D01*
X37065390Y9569523D02*
X37103485Y9607618D01*
X37103485Y9607618D02*
X37179676Y9645714D01*
X37179676Y9645714D02*
X37293961Y9645714D01*
X37293961Y9645714D02*
X37370152Y9607618D01*
X37370152Y9607618D02*
X37408247Y9569523D01*
X37408247Y9569523D02*
X37446342Y9493333D01*
X37446342Y9493333D02*
X37446342Y9188571D01*
X37827295Y10407618D02*
X37827295Y9950475D01*
X37827295Y10179047D02*
X37027295Y10179047D01*
X37027295Y10179047D02*
X37141580Y10102856D01*
X37141580Y10102856D02*
X37217771Y10026666D01*
X37217771Y10026666D02*
X37255866Y9950475D01*
X37027295Y11093333D02*
X37027295Y10940952D01*
X37027295Y10940952D02*
X37065390Y10864761D01*
X37065390Y10864761D02*
X37103485Y10826666D01*
X37103485Y10826666D02*
X37217771Y10750476D01*
X37217771Y10750476D02*
X37370152Y10712380D01*
X37370152Y10712380D02*
X37674914Y10712380D01*
X37674914Y10712380D02*
X37751104Y10750476D01*
X37751104Y10750476D02*
X37789200Y10788571D01*
X37789200Y10788571D02*
X37827295Y10864761D01*
X37827295Y10864761D02*
X37827295Y11017142D01*
X37827295Y11017142D02*
X37789200Y11093333D01*
X37789200Y11093333D02*
X37751104Y11131428D01*
X37751104Y11131428D02*
X37674914Y11169523D01*
X37674914Y11169523D02*
X37484438Y11169523D01*
X37484438Y11169523D02*
X37408247Y11131428D01*
X37408247Y11131428D02*
X37370152Y11093333D01*
X37370152Y11093333D02*
X37332057Y11017142D01*
X37332057Y11017142D02*
X37332057Y10864761D01*
X37332057Y10864761D02*
X37370152Y10788571D01*
X37370152Y10788571D02*
X37408247Y10750476D01*
X37408247Y10750476D02*
X37484438Y10712380D01*
X-23137738Y22786180D02*
X-23471071Y23262371D01*
X-23709166Y22786180D02*
X-23709166Y23786180D01*
X-23709166Y23786180D02*
X-23328214Y23786180D01*
X-23328214Y23786180D02*
X-23232976Y23738561D01*
X-23232976Y23738561D02*
X-23185357Y23690942D01*
X-23185357Y23690942D02*
X-23137738Y23595704D01*
X-23137738Y23595704D02*
X-23137738Y23452847D01*
X-23137738Y23452847D02*
X-23185357Y23357609D01*
X-23185357Y23357609D02*
X-23232976Y23309990D01*
X-23232976Y23309990D02*
X-23328214Y23262371D01*
X-23328214Y23262371D02*
X-23709166Y23262371D01*
X-22852023Y23786180D02*
X-22518690Y22786180D01*
X-22518690Y22786180D02*
X-22185357Y23786180D01*
X-21328214Y22786180D02*
X-21899642Y22786180D01*
X-21613928Y22786180D02*
X-21613928Y23786180D01*
X-21613928Y23786180D02*
X-21709166Y23643323D01*
X-21709166Y23643323D02*
X-21804404Y23548085D01*
X-21804404Y23548085D02*
X-21899642Y23500466D01*
X-33297738Y22786180D02*
X-33631071Y23262371D01*
X-33869166Y22786180D02*
X-33869166Y23786180D01*
X-33869166Y23786180D02*
X-33488214Y23786180D01*
X-33488214Y23786180D02*
X-33392976Y23738561D01*
X-33392976Y23738561D02*
X-33345357Y23690942D01*
X-33345357Y23690942D02*
X-33297738Y23595704D01*
X-33297738Y23595704D02*
X-33297738Y23452847D01*
X-33297738Y23452847D02*
X-33345357Y23357609D01*
X-33345357Y23357609D02*
X-33392976Y23309990D01*
X-33392976Y23309990D02*
X-33488214Y23262371D01*
X-33488214Y23262371D02*
X-33869166Y23262371D01*
X-33012023Y23786180D02*
X-32678690Y22786180D01*
X-32678690Y22786180D02*
X-32345357Y23786180D01*
X-32059642Y23690942D02*
X-32012023Y23738561D01*
X-32012023Y23738561D02*
X-31916785Y23786180D01*
X-31916785Y23786180D02*
X-31678690Y23786180D01*
X-31678690Y23786180D02*
X-31583452Y23738561D01*
X-31583452Y23738561D02*
X-31535833Y23690942D01*
X-31535833Y23690942D02*
X-31488214Y23595704D01*
X-31488214Y23595704D02*
X-31488214Y23500466D01*
X-31488214Y23500466D02*
X-31535833Y23357609D01*
X-31535833Y23357609D02*
X-32107261Y22786180D01*
X-32107261Y22786180D02*
X-31488214Y22786180D01*
X42267261Y22913180D02*
X41933928Y23389371D01*
X41695833Y22913180D02*
X41695833Y23913180D01*
X41695833Y23913180D02*
X42076785Y23913180D01*
X42076785Y23913180D02*
X42172023Y23865561D01*
X42172023Y23865561D02*
X42219642Y23817942D01*
X42219642Y23817942D02*
X42267261Y23722704D01*
X42267261Y23722704D02*
X42267261Y23579847D01*
X42267261Y23579847D02*
X42219642Y23484609D01*
X42219642Y23484609D02*
X42172023Y23436990D01*
X42172023Y23436990D02*
X42076785Y23389371D01*
X42076785Y23389371D02*
X41695833Y23389371D01*
X42552976Y23913180D02*
X42886309Y22913180D01*
X42886309Y22913180D02*
X43219642Y23913180D01*
X43457738Y23913180D02*
X44076785Y23913180D01*
X44076785Y23913180D02*
X43743452Y23532228D01*
X43743452Y23532228D02*
X43886309Y23532228D01*
X43886309Y23532228D02*
X43981547Y23484609D01*
X43981547Y23484609D02*
X44029166Y23436990D01*
X44029166Y23436990D02*
X44076785Y23341752D01*
X44076785Y23341752D02*
X44076785Y23103657D01*
X44076785Y23103657D02*
X44029166Y23008419D01*
X44029166Y23008419D02*
X43981547Y22960800D01*
X43981547Y22960800D02*
X43886309Y22913180D01*
X43886309Y22913180D02*
X43600595Y22913180D01*
X43600595Y22913180D02*
X43505357Y22960800D01*
X43505357Y22960800D02*
X43457738Y23008419D01*
X32107261Y22913180D02*
X31773928Y23389371D01*
X31535833Y22913180D02*
X31535833Y23913180D01*
X31535833Y23913180D02*
X31916785Y23913180D01*
X31916785Y23913180D02*
X32012023Y23865561D01*
X32012023Y23865561D02*
X32059642Y23817942D01*
X32059642Y23817942D02*
X32107261Y23722704D01*
X32107261Y23722704D02*
X32107261Y23579847D01*
X32107261Y23579847D02*
X32059642Y23484609D01*
X32059642Y23484609D02*
X32012023Y23436990D01*
X32012023Y23436990D02*
X31916785Y23389371D01*
X31916785Y23389371D02*
X31535833Y23389371D01*
X32392976Y23913180D02*
X32726309Y22913180D01*
X32726309Y22913180D02*
X33059642Y23913180D01*
X33821547Y23579847D02*
X33821547Y22913180D01*
X33583452Y23960800D02*
X33345357Y23246514D01*
X33345357Y23246514D02*
X33964404Y23246514D01*
X21947261Y22913180D02*
X21613928Y23389371D01*
X21375833Y22913180D02*
X21375833Y23913180D01*
X21375833Y23913180D02*
X21756785Y23913180D01*
X21756785Y23913180D02*
X21852023Y23865561D01*
X21852023Y23865561D02*
X21899642Y23817942D01*
X21899642Y23817942D02*
X21947261Y23722704D01*
X21947261Y23722704D02*
X21947261Y23579847D01*
X21947261Y23579847D02*
X21899642Y23484609D01*
X21899642Y23484609D02*
X21852023Y23436990D01*
X21852023Y23436990D02*
X21756785Y23389371D01*
X21756785Y23389371D02*
X21375833Y23389371D01*
X22232976Y23913180D02*
X22566309Y22913180D01*
X22566309Y22913180D02*
X22899642Y23913180D01*
X23709166Y23913180D02*
X23232976Y23913180D01*
X23232976Y23913180D02*
X23185357Y23436990D01*
X23185357Y23436990D02*
X23232976Y23484609D01*
X23232976Y23484609D02*
X23328214Y23532228D01*
X23328214Y23532228D02*
X23566309Y23532228D01*
X23566309Y23532228D02*
X23661547Y23484609D01*
X23661547Y23484609D02*
X23709166Y23436990D01*
X23709166Y23436990D02*
X23756785Y23341752D01*
X23756785Y23341752D02*
X23756785Y23103657D01*
X23756785Y23103657D02*
X23709166Y23008419D01*
X23709166Y23008419D02*
X23661547Y22960800D01*
X23661547Y22960800D02*
X23566309Y22913180D01*
X23566309Y22913180D02*
X23328214Y22913180D01*
X23328214Y22913180D02*
X23232976Y22960800D01*
X23232976Y22960800D02*
X23185357Y23008419D01*
D11*
X-35267440Y1326000D02*
X-35233154Y1428858D01*
X-35233154Y1428858D02*
X-35233154Y1600286D01*
X-35233154Y1600286D02*
X-35267440Y1668858D01*
X-35267440Y1668858D02*
X-35301725Y1703143D01*
X-35301725Y1703143D02*
X-35370297Y1737429D01*
X-35370297Y1737429D02*
X-35438868Y1737429D01*
X-35438868Y1737429D02*
X-35507440Y1703143D01*
X-35507440Y1703143D02*
X-35541725Y1668858D01*
X-35541725Y1668858D02*
X-35576011Y1600286D01*
X-35576011Y1600286D02*
X-35610297Y1463143D01*
X-35610297Y1463143D02*
X-35644582Y1394572D01*
X-35644582Y1394572D02*
X-35678868Y1360286D01*
X-35678868Y1360286D02*
X-35747440Y1326000D01*
X-35747440Y1326000D02*
X-35816011Y1326000D01*
X-35816011Y1326000D02*
X-35884582Y1360286D01*
X-35884582Y1360286D02*
X-35918868Y1394572D01*
X-35918868Y1394572D02*
X-35953154Y1463143D01*
X-35953154Y1463143D02*
X-35953154Y1634572D01*
X-35953154Y1634572D02*
X-35918868Y1737429D01*
X-35953154Y1977429D02*
X-35233154Y2148857D01*
X-35233154Y2148857D02*
X-35747440Y2286000D01*
X-35747440Y2286000D02*
X-35233154Y2423143D01*
X-35233154Y2423143D02*
X-35953154Y2594572D01*
X-35233154Y3246000D02*
X-35233154Y2834571D01*
X-35233154Y3040286D02*
X-35953154Y3040286D01*
X-35953154Y3040286D02*
X-35850297Y2971714D01*
X-35850297Y2971714D02*
X-35781725Y2903143D01*
X-35781725Y2903143D02*
X-35747440Y2834571D01*
X36106560Y1326000D02*
X36140845Y1428858D01*
X36140845Y1428858D02*
X36140845Y1600286D01*
X36140845Y1600286D02*
X36106560Y1668858D01*
X36106560Y1668858D02*
X36072274Y1703143D01*
X36072274Y1703143D02*
X36003702Y1737429D01*
X36003702Y1737429D02*
X35935131Y1737429D01*
X35935131Y1737429D02*
X35866560Y1703143D01*
X35866560Y1703143D02*
X35832274Y1668858D01*
X35832274Y1668858D02*
X35797988Y1600286D01*
X35797988Y1600286D02*
X35763702Y1463143D01*
X35763702Y1463143D02*
X35729417Y1394572D01*
X35729417Y1394572D02*
X35695131Y1360286D01*
X35695131Y1360286D02*
X35626560Y1326000D01*
X35626560Y1326000D02*
X35557988Y1326000D01*
X35557988Y1326000D02*
X35489417Y1360286D01*
X35489417Y1360286D02*
X35455131Y1394572D01*
X35455131Y1394572D02*
X35420845Y1463143D01*
X35420845Y1463143D02*
X35420845Y1634572D01*
X35420845Y1634572D02*
X35455131Y1737429D01*
X35420845Y1977429D02*
X36140845Y2148857D01*
X36140845Y2148857D02*
X35626560Y2286000D01*
X35626560Y2286000D02*
X36140845Y2423143D01*
X36140845Y2423143D02*
X35420845Y2594572D01*
X35489417Y2834571D02*
X35455131Y2868857D01*
X35455131Y2868857D02*
X35420845Y2937429D01*
X35420845Y2937429D02*
X35420845Y3108857D01*
X35420845Y3108857D02*
X35455131Y3177429D01*
X35455131Y3177429D02*
X35489417Y3211714D01*
X35489417Y3211714D02*
X35557988Y3246000D01*
X35557988Y3246000D02*
X35626560Y3246000D01*
X35626560Y3246000D02*
X35729417Y3211714D01*
X35729417Y3211714D02*
X36140845Y2800286D01*
X36140845Y2800286D02*
X36140845Y3246000D01*
D10*
X-5213332Y12032895D02*
X-5251428Y11994800D01*
X-5251428Y11994800D02*
X-5365713Y11956704D01*
X-5365713Y11956704D02*
X-5441904Y11956704D01*
X-5441904Y11956704D02*
X-5556190Y11994800D01*
X-5556190Y11994800D02*
X-5632380Y12070990D01*
X-5632380Y12070990D02*
X-5670475Y12147180D01*
X-5670475Y12147180D02*
X-5708571Y12299561D01*
X-5708571Y12299561D02*
X-5708571Y12413847D01*
X-5708571Y12413847D02*
X-5670475Y12566228D01*
X-5670475Y12566228D02*
X-5632380Y12642419D01*
X-5632380Y12642419D02*
X-5556190Y12718609D01*
X-5556190Y12718609D02*
X-5441904Y12756704D01*
X-5441904Y12756704D02*
X-5365713Y12756704D01*
X-5365713Y12756704D02*
X-5251428Y12718609D01*
X-5251428Y12718609D02*
X-5213332Y12680514D01*
X-4756190Y12413847D02*
X-4832380Y12451942D01*
X-4832380Y12451942D02*
X-4870475Y12490038D01*
X-4870475Y12490038D02*
X-4908571Y12566228D01*
X-4908571Y12566228D02*
X-4908571Y12604323D01*
X-4908571Y12604323D02*
X-4870475Y12680514D01*
X-4870475Y12680514D02*
X-4832380Y12718609D01*
X-4832380Y12718609D02*
X-4756190Y12756704D01*
X-4756190Y12756704D02*
X-4603809Y12756704D01*
X-4603809Y12756704D02*
X-4527618Y12718609D01*
X-4527618Y12718609D02*
X-4489523Y12680514D01*
X-4489523Y12680514D02*
X-4451428Y12604323D01*
X-4451428Y12604323D02*
X-4451428Y12566228D01*
X-4451428Y12566228D02*
X-4489523Y12490038D01*
X-4489523Y12490038D02*
X-4527618Y12451942D01*
X-4527618Y12451942D02*
X-4603809Y12413847D01*
X-4603809Y12413847D02*
X-4756190Y12413847D01*
X-4756190Y12413847D02*
X-4832380Y12375752D01*
X-4832380Y12375752D02*
X-4870475Y12337657D01*
X-4870475Y12337657D02*
X-4908571Y12261466D01*
X-4908571Y12261466D02*
X-4908571Y12109085D01*
X-4908571Y12109085D02*
X-4870475Y12032895D01*
X-4870475Y12032895D02*
X-4832380Y11994800D01*
X-4832380Y11994800D02*
X-4756190Y11956704D01*
X-4756190Y11956704D02*
X-4603809Y11956704D01*
X-4603809Y11956704D02*
X-4527618Y11994800D01*
X-4527618Y11994800D02*
X-4489523Y12032895D01*
X-4489523Y12032895D02*
X-4451428Y12109085D01*
X-4451428Y12109085D02*
X-4451428Y12261466D01*
X-4451428Y12261466D02*
X-4489523Y12337657D01*
X-4489523Y12337657D02*
X-4527618Y12375752D01*
X-4527618Y12375752D02*
X-4603809Y12413847D01*
%TO.C,C6*%
D11*
X-8037500Y10447500D02*
X-7707500Y10447500D01*
X-8037500Y5507500D02*
X-8037500Y10447500D01*
X-7707500Y5507500D02*
X-8037500Y5507500D01*
X-5627500Y10447500D02*
X-5297500Y10447500D01*
X-5297500Y10447500D02*
X-5297500Y5507500D01*
X-5297500Y5507500D02*
X-5627500Y5507500D01*
%TO.C,C4*%
X8472500Y16480000D02*
X8802500Y16480000D01*
X8472500Y11540000D02*
X8472500Y16480000D01*
X8802500Y11540000D02*
X8472500Y11540000D01*
X10882500Y16480000D02*
X11212500Y16480000D01*
X11212500Y16480000D02*
X11212500Y11540000D01*
X11212500Y11540000D02*
X10882500Y11540000D01*
%TO.C,C3*%
X11464113Y11952500D02*
X11964113Y11952500D01*
X11714113Y12202500D02*
X11714113Y11702500D01*
X14268888Y13057500D02*
X14268888Y11517500D01*
X14268888Y9437500D02*
X14268888Y7897500D01*
X14308888Y13057500D02*
X14308888Y11517500D01*
X14308888Y9437500D02*
X14308888Y7897500D01*
X14348888Y13056500D02*
X14348888Y11517500D01*
X14348888Y9437500D02*
X14348888Y7898500D01*
X14388888Y13055500D02*
X14388888Y11517500D01*
X14388888Y9437500D02*
X14388888Y7899500D01*
X14428888Y13053500D02*
X14428888Y11517500D01*
X14428888Y9437500D02*
X14428888Y7901500D01*
X14468888Y13050500D02*
X14468888Y11517500D01*
X14468888Y9437500D02*
X14468888Y7904500D01*
X14508888Y13046500D02*
X14508888Y11517500D01*
X14508888Y9437500D02*
X14508888Y7908500D01*
X14548888Y13042500D02*
X14548888Y11517500D01*
X14548888Y9437500D02*
X14548888Y7912500D01*
X14588888Y13038500D02*
X14588888Y11517500D01*
X14588888Y9437500D02*
X14588888Y7916500D01*
X14628888Y13033500D02*
X14628888Y11517500D01*
X14628888Y9437500D02*
X14628888Y7921500D01*
X14668888Y13027500D02*
X14668888Y11517500D01*
X14668888Y9437500D02*
X14668888Y7927500D01*
X14708888Y13020500D02*
X14708888Y11517500D01*
X14708888Y9437500D02*
X14708888Y7934500D01*
X14748888Y13013500D02*
X14748888Y11517500D01*
X14748888Y9437500D02*
X14748888Y7941500D01*
X14788888Y13005500D02*
X14788888Y11517500D01*
X14788888Y9437500D02*
X14788888Y7949500D01*
X14828888Y12997500D02*
X14828888Y11517500D01*
X14828888Y9437500D02*
X14828888Y7957500D01*
X14868888Y12988500D02*
X14868888Y11517500D01*
X14868888Y9437500D02*
X14868888Y7966500D01*
X14908888Y12978500D02*
X14908888Y11517500D01*
X14908888Y9437500D02*
X14908888Y7976500D01*
X14948888Y12968500D02*
X14948888Y11517500D01*
X14948888Y9437500D02*
X14948888Y7986500D01*
X14989888Y12957500D02*
X14989888Y11517500D01*
X14989888Y9437500D02*
X14989888Y7997500D01*
X15029888Y12945500D02*
X15029888Y11517500D01*
X15029888Y9437500D02*
X15029888Y8009500D01*
X15069888Y12932500D02*
X15069888Y11517500D01*
X15069888Y9437500D02*
X15069888Y8022500D01*
X15109888Y12919500D02*
X15109888Y11517500D01*
X15109888Y9437500D02*
X15109888Y8035500D01*
X15149888Y12905500D02*
X15149888Y11517500D01*
X15149888Y9437500D02*
X15149888Y8049500D01*
X15189888Y12891500D02*
X15189888Y11517500D01*
X15189888Y9437500D02*
X15189888Y8063500D01*
X15229888Y12875500D02*
X15229888Y11517500D01*
X15229888Y9437500D02*
X15229888Y8079500D01*
X15269888Y12859500D02*
X15269888Y11517500D01*
X15269888Y9437500D02*
X15269888Y8095500D01*
X15309888Y12842500D02*
X15309888Y11517500D01*
X15309888Y9437500D02*
X15309888Y8112500D01*
X15349888Y12825500D02*
X15349888Y11517500D01*
X15349888Y9437500D02*
X15349888Y8129500D01*
X15389888Y12806500D02*
X15389888Y11517500D01*
X15389888Y9437500D02*
X15389888Y8148500D01*
X15429888Y12787500D02*
X15429888Y11517500D01*
X15429888Y9437500D02*
X15429888Y8167500D01*
X15469888Y12767500D02*
X15469888Y11517500D01*
X15469888Y9437500D02*
X15469888Y8187500D01*
X15509888Y12745500D02*
X15509888Y11517500D01*
X15509888Y9437500D02*
X15509888Y8209500D01*
X15549888Y12724500D02*
X15549888Y11517500D01*
X15549888Y9437500D02*
X15549888Y8230500D01*
X15589888Y12701500D02*
X15589888Y11517500D01*
X15589888Y9437500D02*
X15589888Y8253500D01*
X15629888Y12677500D02*
X15629888Y11517500D01*
X15629888Y9437500D02*
X15629888Y8277500D01*
X15669888Y12652500D02*
X15669888Y11517500D01*
X15669888Y9437500D02*
X15669888Y8302500D01*
X15709888Y12626500D02*
X15709888Y11517500D01*
X15709888Y9437500D02*
X15709888Y8328500D01*
X15749888Y12599500D02*
X15749888Y11517500D01*
X15749888Y9437500D02*
X15749888Y8355500D01*
X15789888Y12572500D02*
X15789888Y11517500D01*
X15789888Y9437500D02*
X15789888Y8382500D01*
X15829888Y12542500D02*
X15829888Y11517500D01*
X15829888Y9437500D02*
X15829888Y8412500D01*
X15869888Y12512500D02*
X15869888Y11517500D01*
X15869888Y9437500D02*
X15869888Y8442500D01*
X15909888Y12481500D02*
X15909888Y11517500D01*
X15909888Y9437500D02*
X15909888Y8473500D01*
X15949888Y12448500D02*
X15949888Y11517500D01*
X15949888Y9437500D02*
X15949888Y8506500D01*
X15989888Y12414500D02*
X15989888Y11517500D01*
X15989888Y9437500D02*
X15989888Y8540500D01*
X16029888Y12378500D02*
X16029888Y11517500D01*
X16029888Y9437500D02*
X16029888Y8576500D01*
X16069888Y12341500D02*
X16069888Y11517500D01*
X16069888Y9437500D02*
X16069888Y8613500D01*
X16109888Y12303500D02*
X16109888Y11517500D01*
X16109888Y9437500D02*
X16109888Y8651500D01*
X16149888Y12262500D02*
X16149888Y11517500D01*
X16149888Y9437500D02*
X16149888Y8692500D01*
X16189888Y12220500D02*
X16189888Y11517500D01*
X16189888Y9437500D02*
X16189888Y8734500D01*
X16229888Y12176500D02*
X16229888Y11517500D01*
X16229888Y9437500D02*
X16229888Y8778500D01*
X16269888Y12130500D02*
X16269888Y11517500D01*
X16269888Y9437500D02*
X16269888Y8824500D01*
X16309888Y12082500D02*
X16309888Y8872500D01*
X16349888Y12031500D02*
X16349888Y8923500D01*
X16389888Y11977500D02*
X16389888Y8977500D01*
X16429888Y11920500D02*
X16429888Y9034500D01*
X16469888Y11860500D02*
X16469888Y9094500D01*
X16509888Y11796500D02*
X16509888Y9158500D01*
X16549888Y11728500D02*
X16549888Y9226500D01*
X16589888Y11655500D02*
X16589888Y9299500D01*
X16629888Y11575500D02*
X16629888Y9379500D01*
X16669888Y11488500D02*
X16669888Y9466500D01*
X16709888Y11392500D02*
X16709888Y9562500D01*
X16749888Y11282500D02*
X16749888Y9672500D01*
X16789888Y11154500D02*
X16789888Y9800500D01*
X16829888Y10995500D02*
X16829888Y9959500D01*
X16869888Y10761500D02*
X16869888Y10193500D01*
X16888888Y10477500D02*
G75*
G02*
X11648888Y10477500I-2620000J0D01*
G01*
X11648888Y10477500D02*
G75*
G02*
X16888888Y10477500I2620000J0D01*
G01*
%TO.C,C1*%
X-11847500Y16400000D02*
X-11517500Y16400000D01*
X-11847500Y11460000D02*
X-11847500Y16400000D01*
X-11517500Y11460000D02*
X-11847500Y11460000D01*
X-9437500Y16400000D02*
X-9107500Y16400000D01*
X-9107500Y16400000D02*
X-9107500Y11460000D01*
X-9107500Y11460000D02*
X-9437500Y11460000D01*
%TO.C,C2*%
X-17679775Y11952500D02*
X-17179775Y11952500D01*
X-17429775Y12202500D02*
X-17429775Y11702500D01*
X-14875000Y13057500D02*
X-14875000Y11517500D01*
X-14875000Y9437500D02*
X-14875000Y7897500D01*
X-14835000Y13057500D02*
X-14835000Y11517500D01*
X-14835000Y9437500D02*
X-14835000Y7897500D01*
X-14795000Y13056500D02*
X-14795000Y11517500D01*
X-14795000Y9437500D02*
X-14795000Y7898500D01*
X-14755000Y13055500D02*
X-14755000Y11517500D01*
X-14755000Y9437500D02*
X-14755000Y7899500D01*
X-14715000Y13053500D02*
X-14715000Y11517500D01*
X-14715000Y9437500D02*
X-14715000Y7901500D01*
X-14675000Y13050500D02*
X-14675000Y11517500D01*
X-14675000Y9437500D02*
X-14675000Y7904500D01*
X-14635000Y13046500D02*
X-14635000Y11517500D01*
X-14635000Y9437500D02*
X-14635000Y7908500D01*
X-14595000Y13042500D02*
X-14595000Y11517500D01*
X-14595000Y9437500D02*
X-14595000Y7912500D01*
X-14555000Y13038500D02*
X-14555000Y11517500D01*
X-14555000Y9437500D02*
X-14555000Y7916500D01*
X-14515000Y13033500D02*
X-14515000Y11517500D01*
X-14515000Y9437500D02*
X-14515000Y7921500D01*
X-14475000Y13027500D02*
X-14475000Y11517500D01*
X-14475000Y9437500D02*
X-14475000Y7927500D01*
X-14435000Y13020500D02*
X-14435000Y11517500D01*
X-14435000Y9437500D02*
X-14435000Y7934500D01*
X-14395000Y13013500D02*
X-14395000Y11517500D01*
X-14395000Y9437500D02*
X-14395000Y7941500D01*
X-14355000Y13005500D02*
X-14355000Y11517500D01*
X-14355000Y9437500D02*
X-14355000Y7949500D01*
X-14315000Y12997500D02*
X-14315000Y11517500D01*
X-14315000Y9437500D02*
X-14315000Y7957500D01*
X-14275000Y12988500D02*
X-14275000Y11517500D01*
X-14275000Y9437500D02*
X-14275000Y7966500D01*
X-14235000Y12978500D02*
X-14235000Y11517500D01*
X-14235000Y9437500D02*
X-14235000Y7976500D01*
X-14195000Y12968500D02*
X-14195000Y11517500D01*
X-14195000Y9437500D02*
X-14195000Y7986500D01*
X-14154000Y12957500D02*
X-14154000Y11517500D01*
X-14154000Y9437500D02*
X-14154000Y7997500D01*
X-14114000Y12945500D02*
X-14114000Y11517500D01*
X-14114000Y9437500D02*
X-14114000Y8009500D01*
X-14074000Y12932500D02*
X-14074000Y11517500D01*
X-14074000Y9437500D02*
X-14074000Y8022500D01*
X-14034000Y12919500D02*
X-14034000Y11517500D01*
X-14034000Y9437500D02*
X-14034000Y8035500D01*
X-13994000Y12905500D02*
X-13994000Y11517500D01*
X-13994000Y9437500D02*
X-13994000Y8049500D01*
X-13954000Y12891500D02*
X-13954000Y11517500D01*
X-13954000Y9437500D02*
X-13954000Y8063500D01*
X-13914000Y12875500D02*
X-13914000Y11517500D01*
X-13914000Y9437500D02*
X-13914000Y8079500D01*
X-13874000Y12859500D02*
X-13874000Y11517500D01*
X-13874000Y9437500D02*
X-13874000Y8095500D01*
X-13834000Y12842500D02*
X-13834000Y11517500D01*
X-13834000Y9437500D02*
X-13834000Y8112500D01*
X-13794000Y12825500D02*
X-13794000Y11517500D01*
X-13794000Y9437500D02*
X-13794000Y8129500D01*
X-13754000Y12806500D02*
X-13754000Y11517500D01*
X-13754000Y9437500D02*
X-13754000Y8148500D01*
X-13714000Y12787500D02*
X-13714000Y11517500D01*
X-13714000Y9437500D02*
X-13714000Y8167500D01*
X-13674000Y12767500D02*
X-13674000Y11517500D01*
X-13674000Y9437500D02*
X-13674000Y8187500D01*
X-13634000Y12745500D02*
X-13634000Y11517500D01*
X-13634000Y9437500D02*
X-13634000Y8209500D01*
X-13594000Y12724500D02*
X-13594000Y11517500D01*
X-13594000Y9437500D02*
X-13594000Y8230500D01*
X-13554000Y12701500D02*
X-13554000Y11517500D01*
X-13554000Y9437500D02*
X-13554000Y8253500D01*
X-13514000Y12677500D02*
X-13514000Y11517500D01*
X-13514000Y9437500D02*
X-13514000Y8277500D01*
X-13474000Y12652500D02*
X-13474000Y11517500D01*
X-13474000Y9437500D02*
X-13474000Y8302500D01*
X-13434000Y12626500D02*
X-13434000Y11517500D01*
X-13434000Y9437500D02*
X-13434000Y8328500D01*
X-13394000Y12599500D02*
X-13394000Y11517500D01*
X-13394000Y9437500D02*
X-13394000Y8355500D01*
X-13354000Y12572500D02*
X-13354000Y11517500D01*
X-13354000Y9437500D02*
X-13354000Y8382500D01*
X-13314000Y12542500D02*
X-13314000Y11517500D01*
X-13314000Y9437500D02*
X-13314000Y8412500D01*
X-13274000Y12512500D02*
X-13274000Y11517500D01*
X-13274000Y9437500D02*
X-13274000Y8442500D01*
X-13234000Y12481500D02*
X-13234000Y11517500D01*
X-13234000Y9437500D02*
X-13234000Y8473500D01*
X-13194000Y12448500D02*
X-13194000Y11517500D01*
X-13194000Y9437500D02*
X-13194000Y8506500D01*
X-13154000Y12414500D02*
X-13154000Y11517500D01*
X-13154000Y9437500D02*
X-13154000Y8540500D01*
X-13114000Y12378500D02*
X-13114000Y11517500D01*
X-13114000Y9437500D02*
X-13114000Y8576500D01*
X-13074000Y12341500D02*
X-13074000Y11517500D01*
X-13074000Y9437500D02*
X-13074000Y8613500D01*
X-13034000Y12303500D02*
X-13034000Y11517500D01*
X-13034000Y9437500D02*
X-13034000Y8651500D01*
X-12994000Y12262500D02*
X-12994000Y11517500D01*
X-12994000Y9437500D02*
X-12994000Y8692500D01*
X-12954000Y12220500D02*
X-12954000Y11517500D01*
X-12954000Y9437500D02*
X-12954000Y8734500D01*
X-12914000Y12176500D02*
X-12914000Y11517500D01*
X-12914000Y9437500D02*
X-12914000Y8778500D01*
X-12874000Y12130500D02*
X-12874000Y11517500D01*
X-12874000Y9437500D02*
X-12874000Y8824500D01*
X-12834000Y12082500D02*
X-12834000Y8872500D01*
X-12794000Y12031500D02*
X-12794000Y8923500D01*
X-12754000Y11977500D02*
X-12754000Y8977500D01*
X-12714000Y11920500D02*
X-12714000Y9034500D01*
X-12674000Y11860500D02*
X-12674000Y9094500D01*
X-12634000Y11796500D02*
X-12634000Y9158500D01*
X-12594000Y11728500D02*
X-12594000Y9226500D01*
X-12554000Y11655500D02*
X-12554000Y9299500D01*
X-12514000Y11575500D02*
X-12514000Y9379500D01*
X-12474000Y11488500D02*
X-12474000Y9466500D01*
X-12434000Y11392500D02*
X-12434000Y9562500D01*
X-12394000Y11282500D02*
X-12394000Y9672500D01*
X-12354000Y11154500D02*
X-12354000Y9800500D01*
X-12314000Y10995500D02*
X-12314000Y9959500D01*
X-12274000Y10761500D02*
X-12274000Y10193500D01*
X-12255000Y10477500D02*
G75*
G02*
X-17495000Y10477500I-2620000J0D01*
G01*
X-17495000Y10477500D02*
G75*
G02*
X-12255000Y10477500I2620000J0D01*
G01*
%TO.C,C7*%
X5297500Y9495000D02*
X5627500Y9495000D01*
X5297500Y4555000D02*
X5297500Y9495000D01*
X5627500Y4555000D02*
X5297500Y4555000D01*
X7707500Y9495000D02*
X8037500Y9495000D01*
X8037500Y9495000D02*
X8037500Y4555000D01*
X8037500Y4555000D02*
X7707500Y4555000D01*
%TO.C,C5*%
X-2470000Y16991000D02*
X2470000Y16991000D01*
X-2470000Y16661000D02*
X-2470000Y16991000D01*
X-2470000Y14251000D02*
X-2470000Y14581000D01*
X2470000Y16991000D02*
X2470000Y16661000D01*
X2470000Y14581000D02*
X2470000Y14251000D01*
X2470000Y14251000D02*
X-2470000Y14251000D01*
%TO.C,R5*%
X-10866000Y2540000D02*
X-10936000Y2540000D01*
X-8126000Y2540000D02*
G75*
G02*
X-10866000Y2540000I-1370000J0D01*
G01*
X-10866000Y2540000D02*
G75*
G02*
X-8126000Y2540000I1370000J0D01*
G01*
%TO.C,R2*%
X16727500Y14922500D02*
X16657500Y14922500D01*
X19467500Y14922500D02*
G75*
G02*
X16727500Y14922500I-1370000J0D01*
G01*
X16727500Y14922500D02*
G75*
G02*
X19467500Y14922500I1370000J0D01*
G01*
%TO.C,R3*%
X-10597000Y5715000D02*
X-10527000Y5715000D01*
X-10597000Y5715000D02*
G75*
G02*
X-13337000Y5715000I-1370000J0D01*
G01*
X-13337000Y5715000D02*
G75*
G02*
X-10597000Y5715000I1370000J0D01*
G01*
%TO.C,R1*%
X-16727500Y14922500D02*
X-16657500Y14922500D01*
X-16727500Y14922500D02*
G75*
G02*
X-19467500Y14922500I-1370000J0D01*
G01*
X-19467500Y14922500D02*
G75*
G02*
X-16727500Y14922500I1370000J0D01*
G01*
%TO.C,R6*%
X10895000Y2540000D02*
X10965000Y2540000D01*
X10895000Y2540000D02*
G75*
G02*
X8155000Y2540000I-1370000J0D01*
G01*
X8155000Y2540000D02*
G75*
G02*
X10895000Y2540000I1370000J0D01*
G01*
%TO.C,R4*%
X10695000Y5715000D02*
X10625000Y5715000D01*
X13435000Y5715000D02*
G75*
G02*
X10695000Y5715000I-1370000J0D01*
G01*
X10695000Y5715000D02*
G75*
G02*
X13435000Y5715000I1370000J0D01*
G01*
%TO.C,RV6*%
X-47737500Y21887500D02*
X-37987500Y21887500D01*
X-47737500Y16837500D02*
X-47737500Y21887500D01*
X-37987500Y21887500D02*
X-37987500Y16837500D01*
X-37987500Y16837500D02*
X-47737500Y16837500D01*
%TO.C,U1*%
X-2650000Y10855000D02*
X-2650000Y575000D01*
X-2650000Y575000D02*
X2650000Y575000D01*
X-1000000Y10855000D02*
X-2650000Y10855000D01*
X2650000Y10855000D02*
X1000000Y10855000D01*
X2650000Y575000D02*
X2650000Y10855000D01*
X1000000Y10855000D02*
G75*
G02*
X-1000000Y10855000I-1000000J0D01*
G01*
%TO.C,J1*%
X-35725000Y3755000D02*
X-35725000Y14255000D01*
X-35615000Y14365000D02*
X-26615000Y14365000D01*
X-32278200Y3645000D02*
X-35615000Y3645000D01*
X-32278200Y3645000D02*
X-32278200Y1596800D01*
X-32278200Y1596800D02*
X-29951800Y1596800D01*
X-29951800Y3645000D02*
X-29951800Y1596800D01*
X-26615000Y3645000D02*
X-29951800Y3645000D01*
X-26505000Y14255000D02*
X-26505000Y3755000D01*
X-35725000Y14255000D02*
G75*
G02*
X-35615000Y14365000I110000J0D01*
G01*
X-35615000Y3645000D02*
G75*
G02*
X-35725000Y3755000I-1J109999D01*
G01*
X-26615000Y14365000D02*
G75*
G02*
X-26505000Y14255000I0J-110000D01*
G01*
X-26505000Y3755000D02*
G75*
G02*
X-26615000Y3645000I-109999J-1D01*
G01*
X-29151800Y8255000D02*
G75*
G02*
X-33078200Y8255000I-1963200J0D01*
G01*
X-33078200Y8255000D02*
G75*
G02*
X-29151800Y8255000I1963200J0D01*
G01*
%TO.C,J2*%
X26505000Y3755000D02*
X26505000Y14255000D01*
X26615000Y14365000D02*
X35615000Y14365000D01*
X29951800Y3645000D02*
X26615000Y3645000D01*
X29951800Y3645000D02*
X29951800Y1596800D01*
X29951800Y1596800D02*
X32278200Y1596800D01*
X32278200Y3645000D02*
X32278200Y1596800D01*
X35615000Y3645000D02*
X32278200Y3645000D01*
X35725000Y14255000D02*
X35725000Y3755000D01*
X26505000Y14255000D02*
G75*
G02*
X26615000Y14365000I110000J0D01*
G01*
X26615000Y3645000D02*
G75*
G02*
X26505000Y3755000I-1J109999D01*
G01*
X35615000Y14365000D02*
G75*
G02*
X35725000Y14255000I0J-110000D01*
G01*
X35725000Y3755000D02*
G75*
G02*
X35615000Y3645000I-109999J-1D01*
G01*
X33078200Y8255000D02*
G75*
G02*
X29151800Y8255000I-1963200J0D01*
G01*
X29151800Y8255000D02*
G75*
G02*
X33078200Y8255000I1963200J0D01*
G01*
%TO.C,U2*%
X3547500Y17357500D02*
X3547500Y13757500D01*
X3559022Y17395978D02*
G75*
G02*
X7997501Y15557500I1838478J-1838478D01*
G01*
X7997500Y15557500D02*
G75*
G02*
X3559022Y13719022I-2600000J0D01*
G01*
%TO.C,U3*%
X-4182500Y13757500D02*
X-4182500Y17357500D01*
X-8632500Y15557500D02*
G75*
G02*
X-4194022Y17395978I2600000J0D01*
G01*
X-4194022Y13719022D02*
G75*
G02*
X-8632501Y15557500I-1838478J1838478D01*
G01*
%TO.C,R7*%
X-37465000Y13552500D02*
X-37465000Y13482500D01*
X-36095000Y14922500D02*
G75*
G02*
X-38835000Y14922500I-1370000J0D01*
G01*
X-38835000Y14922500D02*
G75*
G02*
X-36095000Y14922500I1370000J0D01*
G01*
%TO.C,R8*%
X-44132500Y12482500D02*
X-44132500Y12552500D01*
X-42762500Y11112500D02*
G75*
G02*
X-45502500Y11112500I-1370000J0D01*
G01*
X-45502500Y11112500D02*
G75*
G02*
X-42762500Y11112500I1370000J0D01*
G01*
%TO.C,R9*%
X-39687500Y12482500D02*
X-39687500Y12552500D01*
X-38317500Y11112500D02*
G75*
G02*
X-41057500Y11112500I-1370000J0D01*
G01*
X-41057500Y11112500D02*
G75*
G02*
X-38317500Y11112500I1370000J0D01*
G01*
%TO.C,R10*%
X-41910000Y13552500D02*
X-41910000Y13482500D01*
X-40540000Y14922500D02*
G75*
G02*
X-43280000Y14922500I-1370000J0D01*
G01*
X-43280000Y14922500D02*
G75*
G02*
X-40540000Y14922500I1370000J0D01*
G01*
%TO.C,R11*%
X-46355000Y13552500D02*
X-46355000Y13482500D01*
X-44985000Y14922500D02*
G75*
G02*
X-47725000Y14922500I-1370000J0D01*
G01*
X-47725000Y14922500D02*
G75*
G02*
X-44985000Y14922500I1370000J0D01*
G01*
%TO.C,R12*%
X46355000Y13552500D02*
X46355000Y13482500D01*
X47725000Y14922500D02*
G75*
G02*
X44985000Y14922500I-1370000J0D01*
G01*
X44985000Y14922500D02*
G75*
G02*
X47725000Y14922500I1370000J0D01*
G01*
%TO.C,R13*%
X44132500Y12482500D02*
X44132500Y12552500D01*
X45502500Y11112500D02*
G75*
G02*
X42762500Y11112500I-1370000J0D01*
G01*
X42762500Y11112500D02*
G75*
G02*
X45502500Y11112500I1370000J0D01*
G01*
%TO.C,R14*%
X39687500Y12165000D02*
X39687500Y12235000D01*
X41057500Y10795000D02*
G75*
G02*
X38317500Y10795000I-1370000J0D01*
G01*
X38317500Y10795000D02*
G75*
G02*
X41057500Y10795000I1370000J0D01*
G01*
%TO.C,R15*%
X41910000Y13552500D02*
X41910000Y13482500D01*
X43280000Y14922500D02*
G75*
G02*
X40540000Y14922500I-1370000J0D01*
G01*
X40540000Y14922500D02*
G75*
G02*
X43280000Y14922500I1370000J0D01*
G01*
%TO.C,R16*%
X37465000Y13552500D02*
X37465000Y13482500D01*
X38835000Y14922500D02*
G75*
G02*
X36095000Y14922500I-1370000J0D01*
G01*
X36095000Y14922500D02*
G75*
G02*
X38835000Y14922500I1370000J0D01*
G01*
%TO.C,RV1*%
X-27417500Y21887500D02*
X-17667500Y21887500D01*
X-27417500Y16837500D02*
X-27417500Y21887500D01*
X-17667500Y21887500D02*
X-17667500Y16837500D01*
X-17667500Y16837500D02*
X-27417500Y16837500D01*
%TO.C,RV2*%
X-37577500Y21887500D02*
X-27827500Y21887500D01*
X-37577500Y16837500D02*
X-37577500Y21887500D01*
X-27827500Y21887500D02*
X-27827500Y16837500D01*
X-27827500Y16837500D02*
X-37577500Y16837500D01*
%TO.C,RV3*%
X37987500Y21887500D02*
X47737500Y21887500D01*
X37987500Y16837500D02*
X37987500Y21887500D01*
X47737500Y21887500D02*
X47737500Y16837500D01*
X47737500Y16837500D02*
X37987500Y16837500D01*
%TO.C,RV4*%
X27827500Y21887500D02*
X37577500Y21887500D01*
X27827500Y16837500D02*
X27827500Y21887500D01*
X37577500Y21887500D02*
X37577500Y16837500D01*
X37577500Y16837500D02*
X27827500Y16837500D01*
%TO.C,RV5*%
X17667500Y21887500D02*
X27417500Y21887500D01*
X17667500Y16837500D02*
X17667500Y21887500D01*
X27417500Y21887500D02*
X27417500Y16837500D01*
X27417500Y16837500D02*
X17667500Y16837500D01*
%TO.C,SW1*%
X-46034000Y9331000D02*
X-36516000Y9331000D01*
X-46034000Y829000D02*
X-46034000Y9331000D01*
X-36516000Y9331000D02*
X-36516000Y829000D01*
X-36516000Y829000D02*
X-46034000Y829000D01*
%TO.C,SW2*%
X36516000Y9331000D02*
X46034000Y9331000D01*
X36516000Y829000D02*
X36516000Y9331000D01*
X46034000Y9331000D02*
X46034000Y829000D01*
X46034000Y829000D02*
X36516000Y829000D01*
%TO.C,C8*%
X-3105000Y13943000D02*
X1835000Y13943000D01*
X-3105000Y13613000D02*
X-3105000Y13943000D01*
X-3105000Y11203000D02*
X-3105000Y11533000D01*
X1835000Y13943000D02*
X1835000Y13613000D01*
X1835000Y11533000D02*
X1835000Y11203000D01*
X1835000Y11203000D02*
X-3105000Y11203000D01*
%TD*%
%LPC*%
D12*
%TO.C,C6*%
X-6667500Y10477500D03*
X-6667500Y5477500D03*
%TD*%
%TO.C,C4*%
X9842500Y16510000D03*
X9842500Y11510000D03*
%TD*%
D13*
%TO.C,C3*%
X13268888Y10477500D03*
D12*
X15268888Y10477500D03*
%TD*%
%TO.C,C1*%
X-10477500Y11430000D03*
X-10477500Y16430000D03*
%TD*%
D13*
%TO.C,C2*%
X-15875000Y10477500D03*
D12*
X-13875000Y10477500D03*
%TD*%
%TO.C,C7*%
X6667500Y9525000D03*
X6667500Y4525000D03*
%TD*%
%TO.C,C5*%
X2500000Y15621000D03*
X-2500000Y15621000D03*
%TD*%
%TO.C,R5*%
X-9496000Y2540000D03*
D14*
X-12036000Y2540000D03*
%TD*%
D12*
%TO.C,R2*%
X18097500Y14922500D03*
D14*
X15557500Y14922500D03*
%TD*%
D12*
%TO.C,R3*%
X-11967000Y5715000D03*
D14*
X-9427000Y5715000D03*
%TD*%
D12*
%TO.C,R1*%
X-18097500Y14922500D03*
D14*
X-15557500Y14922500D03*
%TD*%
D12*
%TO.C,R6*%
X9525000Y2540000D03*
D14*
X12065000Y2540000D03*
%TD*%
D12*
%TO.C,R4*%
X12065000Y5715000D03*
D14*
X9525000Y5715000D03*
%TD*%
D15*
%TO.C,RV6*%
X-40322500Y20637500D03*
X-42862500Y18097500D03*
X-45402500Y20637500D03*
%TD*%
D13*
%TO.C,U1*%
X-3810000Y9525000D03*
D14*
X-3810000Y6985000D03*
X-3810000Y4445000D03*
X-3810000Y1905000D03*
X3810000Y1905000D03*
X3810000Y4445000D03*
X3810000Y6985000D03*
X3810000Y9525000D03*
%TD*%
D16*
%TO.C,J1*%
X-31115000Y8255000D03*
D17*
X-31115000Y2535000D03*
X-31115000Y13175000D03*
X-31115000Y4875000D03*
%TD*%
D16*
%TO.C,J2*%
X31115000Y8255000D03*
D17*
X31115000Y2535000D03*
X31115000Y13175000D03*
X31115000Y4875000D03*
%TD*%
D18*
%TO.C,U2*%
X5397500Y16827500D03*
D19*
X5397500Y15557500D03*
X5397500Y14287500D03*
%TD*%
D18*
%TO.C,U3*%
X-6032500Y14287500D03*
D19*
X-6032500Y15557500D03*
X-6032500Y16827500D03*
%TD*%
D12*
%TO.C,R7*%
X-37465000Y14922500D03*
D14*
X-37465000Y12382500D03*
%TD*%
D12*
%TO.C,R8*%
X-44132500Y11112500D03*
D14*
X-44132500Y13652500D03*
%TD*%
D12*
%TO.C,R9*%
X-39687500Y11112500D03*
D14*
X-39687500Y13652500D03*
%TD*%
D12*
%TO.C,R10*%
X-41910000Y14922500D03*
D14*
X-41910000Y12382500D03*
%TD*%
D12*
%TO.C,R11*%
X-46355000Y14922500D03*
D14*
X-46355000Y12382500D03*
%TD*%
D12*
%TO.C,R12*%
X46355000Y14922500D03*
D14*
X46355000Y12382500D03*
%TD*%
D12*
%TO.C,R13*%
X44132500Y11112500D03*
D14*
X44132500Y13652500D03*
%TD*%
D12*
%TO.C,R14*%
X39687500Y10795000D03*
D14*
X39687500Y13335000D03*
%TD*%
D12*
%TO.C,R15*%
X41910000Y14922500D03*
D14*
X41910000Y12382500D03*
%TD*%
D12*
%TO.C,R16*%
X37465000Y14922500D03*
D14*
X37465000Y12382500D03*
%TD*%
D15*
%TO.C,RV1*%
X-20002500Y20637500D03*
X-22542500Y18097500D03*
X-25082500Y20637500D03*
%TD*%
%TO.C,RV2*%
X-30162500Y20637500D03*
X-32702500Y18097500D03*
X-35242500Y20637500D03*
%TD*%
%TO.C,RV3*%
X45402500Y20637500D03*
X42862500Y18097500D03*
X40322500Y20637500D03*
%TD*%
%TO.C,RV4*%
X35242500Y20637500D03*
X32702500Y18097500D03*
X30162500Y20637500D03*
%TD*%
%TO.C,RV5*%
X25082500Y20637500D03*
X22542500Y18097500D03*
X20002500Y20637500D03*
%TD*%
D20*
%TO.C,SW1*%
X-43815000Y2540000D03*
X-43815000Y5080000D03*
X-43815000Y7620000D03*
X-38735000Y2540000D03*
X-38735000Y5080000D03*
X-38735000Y7620000D03*
%TD*%
%TO.C,SW2*%
X38735000Y2540000D03*
X38735000Y5080000D03*
X38735000Y7620000D03*
X43815000Y2540000D03*
X43815000Y5080000D03*
X43815000Y7620000D03*
%TD*%
D12*
%TO.C,C8*%
X1865000Y12573000D03*
X-3135000Y12573000D03*
%TD*%
D21*
%TO.C,J5*%
X24130000Y12700000D03*
D22*
X21590000Y12700000D03*
X24130000Y10160000D03*
X21590000Y10160000D03*
X24130000Y7620000D03*
X21590000Y7620000D03*
X24130000Y5080000D03*
X21590000Y5080000D03*
X24130000Y2540000D03*
X21590000Y2540000D03*
%TD*%
D21*
%TO.C,J6*%
X-24130000Y2540000D03*
D22*
X-21590000Y2540000D03*
X-24130000Y5080000D03*
X-21590000Y5080000D03*
X-24130000Y7620000D03*
X-21590000Y7620000D03*
X-24130000Y10160000D03*
X-21590000Y10160000D03*
X-24130000Y12700000D03*
X-21590000Y12700000D03*
%TD*%
D21*
%TO.C,J4*%
X-13970000Y20320000D03*
%TD*%
%TO.C,J3*%
X13970000Y20320000D03*
%TD*%
%LPD*%
M02*
