%TF.GenerationSoftware,KiCad,Pcbnew,10.0.0*%
%TF.CreationDate,2026-05-22T16:26:58-07:00*%
%TF.ProjectId,Voltage Source,566f6c74-6167-4652-9053-6f757263652e,rev?*%
%TF.SameCoordinates,Original*%
%TF.FileFunction,Copper,L2,Bot*%
%TF.FilePolarity,Positive*%
%FSLAX46Y46*%
G04 Gerber Fmt 4.6, Leading zero omitted, Abs format (unit mm)*
G04 Created by KiCad (PCBNEW 10.0.0) date 2026-05-22 16:26:58*
%MOMM*%
%LPD*%
G01*
G04 APERTURE LIST*
%TA.AperFunction,ComponentPad*%
%ADD10C,1.600000*%
%TD*%
%TA.AperFunction,ComponentPad*%
%ADD11R,1.600000X1.600000*%
%TD*%
%TA.AperFunction,ComponentPad*%
%ADD12O,1.600000X1.600000*%
%TD*%
%TA.AperFunction,ComponentPad*%
%ADD13C,1.440000*%
%TD*%
%TA.AperFunction,ComponentPad*%
%ADD14O,1.800000X1.350000*%
%TD*%
%TA.AperFunction,ComponentPad*%
%ADD15R,1.500000X1.050000*%
%TD*%
%TA.AperFunction,ComponentPad*%
%ADD16O,1.500000X1.050000*%
%TD*%
%TA.AperFunction,ComponentPad*%
%ADD17C,1.984375*%
%TD*%
%TA.AperFunction,ComponentPad*%
%ADD18R,1.700000X1.700000*%
%TD*%
%TA.AperFunction,ComponentPad*%
%ADD19O,1.700000X1.700000*%
%TD*%
%TA.AperFunction,ViaPad*%
%ADD20C,0.808000*%
%TD*%
%TA.AperFunction,Conductor*%
%ADD21C,0.508000*%
%TD*%
%TA.AperFunction,Conductor*%
%ADD22C,0.381000*%
%TD*%
G04 APERTURE END LIST*
D10*
%TO.P,C6,1*%
%TO.N,Net-(C6-Pad1)*%
X-6667500Y10477500D03*
%TO.P,C6,2*%
%TO.N,Net-(SW1A-B)*%
X-6667500Y5477500D03*
%TD*%
%TO.P,C4,1*%
%TO.N,VREF+*%
X9842500Y16510000D03*
%TO.P,C4,2*%
%TO.N,GND*%
X9842500Y11510000D03*
%TD*%
D11*
%TO.P,C3,1*%
%TO.N,VREF+*%
X13268888Y10477500D03*
D10*
%TO.P,C3,2*%
%TO.N,GND*%
X15268888Y10477500D03*
%TD*%
%TO.P,C1,1*%
%TO.N,GND*%
X-10477500Y11430000D03*
%TO.P,C1,2*%
%TO.N,VREF-*%
X-10477500Y16430000D03*
%TD*%
D11*
%TO.P,C2,1*%
%TO.N,GND*%
X-15875000Y10477500D03*
D10*
%TO.P,C2,2*%
%TO.N,VREF-*%
X-13875000Y10477500D03*
%TD*%
%TO.P,C7,1*%
%TO.N,Net-(C7-Pad1)*%
X6667500Y9525000D03*
%TO.P,C7,2*%
%TO.N,Net-(SW2A-B)*%
X6667500Y4525000D03*
%TD*%
%TO.P,C5,1*%
%TO.N,VCC*%
X2500000Y15621000D03*
%TO.P,C5,2*%
%TO.N,GND*%
X-2500000Y15621000D03*
%TD*%
%TO.P,R5,1*%
%TO.N,Net-(SW1A-B)*%
X-9496000Y2540000D03*
D12*
%TO.P,R5,2*%
%TO.N,Net-(J4-Pin_1)*%
X-12036000Y2540000D03*
%TD*%
D10*
%TO.P,R2,1*%
%TO.N,VCC*%
X18097500Y14922500D03*
D12*
%TO.P,R2,2*%
%TO.N,VREF+*%
X15557500Y14922500D03*
%TD*%
D10*
%TO.P,R3,1*%
%TO.N,Net-(J4-Pin_1)*%
X-11967000Y5715000D03*
D12*
%TO.P,R3,2*%
%TO.N,Net-(C6-Pad1)*%
X-9427000Y5715000D03*
%TD*%
D10*
%TO.P,R1,1*%
%TO.N,VEE*%
X-18097500Y14922500D03*
D12*
%TO.P,R1,2*%
%TO.N,VREF-*%
X-15557500Y14922500D03*
%TD*%
D10*
%TO.P,R6,1*%
%TO.N,Net-(SW2A-B)*%
X9525000Y2540000D03*
D12*
%TO.P,R6,2*%
%TO.N,Net-(J3-Pin_1)*%
X12065000Y2540000D03*
%TD*%
D10*
%TO.P,R4,1*%
%TO.N,Net-(J3-Pin_1)*%
X12065000Y5715000D03*
D12*
%TO.P,R4,2*%
%TO.N,Net-(C7-Pad1)*%
X9525000Y5715000D03*
%TD*%
D13*
%TO.P,RV6,1,1_1*%
%TO.N,VREF+*%
X-40322500Y20637500D03*
%TO.P,RV6,2,2_2*%
%TO.N,Net-(R11-Pad1)*%
X-42862500Y18097500D03*
%TO.P,RV6,3,3_3*%
%TO.N,VREF-*%
X-45402500Y20637500D03*
%TD*%
D11*
%TO.P,U1,1*%
%TO.N,Net-(C6-Pad1)*%
X-3810000Y9525000D03*
D12*
%TO.P,U1,2,-_2*%
%TO.N,Net-(SW1A-B)*%
X-3810000Y6985000D03*
%TO.P,U1,3,+_3*%
%TO.N,GND*%
X-3810000Y4445000D03*
%TO.P,U1,4,V-_4*%
%TO.N,VEE*%
X-3810000Y1905000D03*
%TO.P,U1,5,+_5*%
%TO.N,GND*%
X3810000Y1905000D03*
%TO.P,U1,6,-_6*%
%TO.N,Net-(SW2A-B)*%
X3810000Y4445000D03*
%TO.P,U1,7*%
%TO.N,Net-(C7-Pad1)*%
X3810000Y6985000D03*
%TO.P,U1,8,V+_8*%
%TO.N,VCC*%
X3810000Y9525000D03*
%TD*%
D14*
%TO.P,J1,S*%
%TO.N,GND*%
X-31115000Y2535000D03*
%TO.P,J1,T*%
%TO.N,Net-(J4-Pin_1)*%
X-31115000Y13175000D03*
%TO.P,J1,TN*%
%TO.N,unconnected-(J1-PadTN)*%
X-31115000Y4875000D03*
%TD*%
%TO.P,J2,S*%
%TO.N,GND*%
X31115000Y2535000D03*
%TO.P,J2,T*%
%TO.N,Net-(J3-Pin_1)*%
X31115000Y13175000D03*
%TO.P,J2,TN*%
%TO.N,unconnected-(J2-PadTN)*%
X31115000Y4875000D03*
%TD*%
D15*
%TO.P,U2,1*%
%TO.N,N/C*%
X5397500Y16827500D03*
D16*
%TO.P,U2,2,K_2*%
%TO.N,VREF+*%
X5397500Y15557500D03*
%TO.P,U2,3,A_3*%
%TO.N,GND*%
X5397500Y14287500D03*
%TD*%
D15*
%TO.P,U3,1*%
%TO.N,N/C*%
X-6032500Y14287500D03*
D16*
%TO.P,U3,2,K_2*%
%TO.N,GND*%
X-6032500Y15557500D03*
%TO.P,U3,3,A_3*%
%TO.N,VREF-*%
X-6032500Y16827500D03*
%TD*%
D10*
%TO.P,R7,1*%
%TO.N,Net-(R7-Pad1)*%
X-37465000Y14922500D03*
D12*
%TO.P,R7,2*%
%TO.N,/ZERO_1*%
X-37465000Y12382500D03*
%TD*%
D10*
%TO.P,R8,1*%
%TO.N,/THREE_1*%
X-44132500Y11112500D03*
D12*
%TO.P,R8,2*%
%TO.N,VREF-*%
X-44132500Y13652500D03*
%TD*%
D10*
%TO.P,R9,1*%
%TO.N,/THREE_1*%
X-39687500Y11112500D03*
D12*
%TO.P,R9,2*%
%TO.N,Net-(R9-Pad2)*%
X-39687500Y13652500D03*
%TD*%
D10*
%TO.P,R10,1*%
%TO.N,VREF-*%
X-41910000Y14922500D03*
D12*
%TO.P,R10,2*%
%TO.N,/FIVE_1*%
X-41910000Y12382500D03*
%TD*%
D10*
%TO.P,R11,1*%
%TO.N,Net-(R11-Pad1)*%
X-46355000Y14922500D03*
D12*
%TO.P,R11,2*%
%TO.N,/FIVE_1*%
X-46355000Y12382500D03*
%TD*%
D10*
%TO.P,R12,1*%
%TO.N,Net-(R12-Pad1)*%
X46355000Y14922500D03*
D12*
%TO.P,R12,2*%
%TO.N,/ZERO_2*%
X46355000Y12382500D03*
%TD*%
D10*
%TO.P,R13,1*%
%TO.N,/THREE_2*%
X44132500Y11112500D03*
D12*
%TO.P,R13,2*%
%TO.N,VREF-*%
X44132500Y13652500D03*
%TD*%
D10*
%TO.P,R14,1*%
%TO.N,/THREE_2*%
X39687500Y10795000D03*
D12*
%TO.P,R14,2*%
%TO.N,Net-(R14-Pad2)*%
X39687500Y13335000D03*
%TD*%
D10*
%TO.P,R15,1*%
%TO.N,VREF-*%
X41910000Y14922500D03*
D12*
%TO.P,R15,2*%
%TO.N,/FIVE_2*%
X41910000Y12382500D03*
%TD*%
D10*
%TO.P,R16,1*%
%TO.N,Net-(R16-Pad1)*%
X37465000Y14922500D03*
D12*
%TO.P,R16,2*%
%TO.N,/FIVE_2*%
X37465000Y12382500D03*
%TD*%
D13*
%TO.P,RV1,1,1_1*%
%TO.N,VREF+*%
X-20002500Y20637500D03*
%TO.P,RV1,2,2_2*%
%TO.N,Net-(R7-Pad1)*%
X-22542500Y18097500D03*
%TO.P,RV1,3,3_3*%
%TO.N,VREF-*%
X-25082500Y20637500D03*
%TD*%
%TO.P,RV2,1,1_1*%
%TO.N,VREF+*%
X-30162500Y20637500D03*
%TO.P,RV2,2,2_2*%
%TO.N,Net-(R9-Pad2)*%
X-32702500Y18097500D03*
%TO.P,RV2,3,3_3*%
%TO.N,VREF-*%
X-35242500Y20637500D03*
%TD*%
%TO.P,RV3,1,1_1*%
%TO.N,VREF+*%
X45402500Y20637500D03*
%TO.P,RV3,2,2_2*%
%TO.N,Net-(R12-Pad1)*%
X42862500Y18097500D03*
%TO.P,RV3,3,3_3*%
%TO.N,VREF-*%
X40322500Y20637500D03*
%TD*%
%TO.P,RV4,1,1_1*%
%TO.N,VREF+*%
X35242500Y20637500D03*
%TO.P,RV4,2,2_2*%
%TO.N,Net-(R14-Pad2)*%
X32702500Y18097500D03*
%TO.P,RV4,3,3_3*%
%TO.N,VREF-*%
X30162500Y20637500D03*
%TD*%
%TO.P,RV5,1,1_1*%
%TO.N,VREF+*%
X25082500Y20637500D03*
%TO.P,RV5,2,2_2*%
%TO.N,Net-(R16-Pad1)*%
X22542500Y18097500D03*
%TO.P,RV5,3,3_3*%
%TO.N,VREF-*%
X20002500Y20637500D03*
%TD*%
D17*
%TO.P,SW1,1,A_1*%
%TO.N,/FIVE_1*%
X-43815000Y2540000D03*
%TO.P,SW1,2,B_2*%
%TO.N,Net-(SW1A-B)*%
X-43815000Y5080000D03*
%TO.P,SW1,3,C_3*%
%TO.N,Net-(SW1A-C)*%
X-43815000Y7620000D03*
%TO.P,SW1,4,A_4*%
%TO.N,/ZERO_1*%
X-38735000Y2540000D03*
%TO.P,SW1,5,B_5*%
%TO.N,Net-(SW1A-C)*%
X-38735000Y5080000D03*
%TO.P,SW1,6,C_6*%
%TO.N,/THREE_1*%
X-38735000Y7620000D03*
%TD*%
%TO.P,SW2,1,A_1*%
%TO.N,/FIVE_2*%
X38735000Y2540000D03*
%TO.P,SW2,2,B_2*%
%TO.N,Net-(SW2A-B)*%
X38735000Y5080000D03*
%TO.P,SW2,3,C_3*%
%TO.N,Net-(SW2A-C)*%
X38735000Y7620000D03*
%TO.P,SW2,4,A_4*%
%TO.N,/ZERO_2*%
X43815000Y2540000D03*
%TO.P,SW2,5,B_5*%
%TO.N,Net-(SW2A-C)*%
X43815000Y5080000D03*
%TO.P,SW2,6,C_6*%
%TO.N,/THREE_2*%
X43815000Y7620000D03*
%TD*%
D10*
%TO.P,C8,1*%
%TO.N,GND*%
X1865000Y12573000D03*
%TO.P,C8,2*%
%TO.N,VEE*%
X-3135000Y12573000D03*
%TD*%
D18*
%TO.P,J5,1,Pin_1_1*%
%TO.N,VCC*%
X24130000Y12700000D03*
D19*
%TO.P,J5,2,Pin_2_2*%
%TO.N,GND*%
X21590000Y12700000D03*
%TO.P,J5,3,Pin_3_3*%
%TO.N,VCC*%
X24130000Y10160000D03*
%TO.P,J5,4,Pin_4_4*%
%TO.N,GND*%
X21590000Y10160000D03*
%TO.P,J5,5,Pin_5_5*%
%TO.N,VCC*%
X24130000Y7620000D03*
%TO.P,J5,6,Pin_6_6*%
%TO.N,GND*%
X21590000Y7620000D03*
%TO.P,J5,7,Pin_7_7*%
%TO.N,VCC*%
X24130000Y5080000D03*
%TO.P,J5,8,Pin_8_8*%
%TO.N,GND*%
X21590000Y5080000D03*
%TO.P,J5,9,Pin_9_9*%
%TO.N,VCC*%
X24130000Y2540000D03*
%TO.P,J5,10,Pin_10_10*%
%TO.N,GND*%
X21590000Y2540000D03*
%TD*%
D18*
%TO.P,J6,1,Pin_1_1*%
%TO.N,VEE*%
X-24130000Y2540000D03*
D19*
%TO.P,J6,2,Pin_2_2*%
%TO.N,GND*%
X-21590000Y2540000D03*
%TO.P,J6,3,Pin_3_3*%
%TO.N,VEE*%
X-24130000Y5080000D03*
%TO.P,J6,4,Pin_4_4*%
%TO.N,GND*%
X-21590000Y5080000D03*
%TO.P,J6,5,Pin_5_5*%
%TO.N,VEE*%
X-24130000Y7620000D03*
%TO.P,J6,6,Pin_6_6*%
%TO.N,GND*%
X-21590000Y7620000D03*
%TO.P,J6,7,Pin_7_7*%
%TO.N,VEE*%
X-24130000Y10160000D03*
%TO.P,J6,8,Pin_8_8*%
%TO.N,GND*%
X-21590000Y10160000D03*
%TO.P,J6,9,Pin_9_9*%
%TO.N,VEE*%
X-24130000Y12700000D03*
%TO.P,J6,10,Pin_10_10*%
%TO.N,GND*%
X-21590000Y12700000D03*
%TD*%
D18*
%TO.P,J4,1,Pin_1_1*%
%TO.N,Net-(J4-Pin_1)*%
X-13970000Y20320000D03*
%TD*%
%TO.P,J3,1,Pin_1_1*%
%TO.N,Net-(J3-Pin_1)*%
X13970000Y20320000D03*
%TD*%
D20*
%TO.N,Net-(J4-Pin_1)*%
X-26035000Y2093999D03*
%TO.N,Net-(J3-Pin_1)*%
X25717500Y2093999D03*
%TD*%
%TO.N,VREF+*%
D21*
X-20002500Y20637500D02*
X-21230501Y21865501D01*
X23854499Y21865501D02*
X23453001Y21865501D01*
X-12901099Y21865501D02*
X-12598010Y21562412D01*
X33379499Y21865501D02*
X44174499Y21865501D01*
X-39094499Y21865501D02*
X-40322500Y20637500D01*
X-28616999Y21865501D02*
X-39094499Y21865501D01*
X-21631999Y21865501D02*
X-28616999Y21865501D01*
X12901099Y21865501D02*
X23453001Y21865501D01*
X-21230501Y21865501D02*
X-21631999Y21865501D01*
X34014499Y21865501D02*
X33379499Y21865501D01*
X9842500Y16510000D02*
X9842500Y17666480D01*
X9842500Y17666480D02*
X9626990Y17881990D01*
X44174499Y21865501D02*
X45402500Y20637500D01*
X-12598010Y18194221D02*
X-12285779Y17881990D01*
X35242500Y20637500D02*
X34014499Y21865501D01*
X12611999Y21576401D02*
X12901099Y21865501D01*
X12285779Y17881990D02*
X12611999Y18208210D01*
X-12598010Y21562412D02*
X-12598010Y18194221D01*
X9842500Y16510000D02*
X9842500Y17780000D01*
X9626990Y17881990D02*
X9944490Y17881990D01*
X-21631999Y21865501D02*
X-12901099Y21865501D01*
X12611999Y18208210D02*
X12611999Y21576401D01*
X-12285779Y17881990D02*
X9626990Y17881990D01*
X9842500Y17780000D02*
X9944490Y17881990D01*
X-30162500Y20637500D02*
X-28934499Y21865501D01*
X25082500Y20637500D02*
X23854499Y21865501D01*
X-28934499Y21865501D02*
X-28616999Y21865501D01*
X23453001Y21865501D02*
X33379499Y21865501D01*
X9944490Y17881990D02*
X12285779Y17881990D01*
%TO.N,Net-(J4-Pin_1)*%
D22*
X-13330501Y1245499D02*
X-25186500Y1245499D01*
X-12036000Y2540000D02*
X-13330501Y1245499D01*
X-25186500Y1245499D02*
X-26035000Y2093999D01*
%TO.N,Net-(J3-Pin_1)*%
X13359501Y1245499D02*
X24869000Y1245499D01*
X12065000Y2540000D02*
X13335000Y1270000D01*
X13335000Y1270000D02*
X13359501Y1245499D01*
X24869000Y1245499D02*
X25717500Y2093999D01*
%TO.N,Net-(SW1A-C)*%
X-38735000Y5080000D02*
X-41275000Y5080000D01*
X-41275000Y5080000D02*
X-43815000Y7620000D01*
%TO.N,Net-(SW2A-C)*%
X41275000Y7620000D02*
X43815000Y5080000D01*
X38735000Y7620000D02*
X41275000Y7620000D01*
%TD*%
%TA.AperFunction,Conductor*%
%TO.N,GND*%
G36*
X-21336000Y2970702D02*
G01*
X-21397007Y3005925D01*
X-21524174Y3040000D01*
X-21655826Y3040000D01*
X-21782993Y3005925D01*
X-21844000Y2970702D01*
X-21844000Y4649297D01*
X-21782993Y4614075D01*
X-21655826Y4580000D01*
X-21524174Y4580000D01*
X-21397007Y4614075D01*
X-21336000Y4649297D01*
X-21336000Y2970702D01*
G37*
%TD.AperFunction*%
%TA.AperFunction,Conductor*%
G36*
X-21336000Y5510702D02*
G01*
X-21397007Y5545925D01*
X-21524174Y5580000D01*
X-21655826Y5580000D01*
X-21782993Y5545925D01*
X-21844000Y5510702D01*
X-21844000Y7189297D01*
X-21782993Y7154075D01*
X-21655826Y7120000D01*
X-21524174Y7120000D01*
X-21397007Y7154075D01*
X-21336000Y7189297D01*
X-21336000Y5510702D01*
G37*
%TD.AperFunction*%
%TA.AperFunction,Conductor*%
G36*
X-21336000Y8050702D02*
G01*
X-21397007Y8085925D01*
X-21524174Y8120000D01*
X-21655826Y8120000D01*
X-21782993Y8085925D01*
X-21844000Y8050702D01*
X-21844000Y9729297D01*
X-21782993Y9694075D01*
X-21655826Y9660000D01*
X-21524174Y9660000D01*
X-21397007Y9694075D01*
X-21336000Y9729297D01*
X-21336000Y8050702D01*
G37*
%TD.AperFunction*%
%TA.AperFunction,Conductor*%
G36*
X-21336000Y10590702D02*
G01*
X-21397007Y10625925D01*
X-21524174Y10660000D01*
X-21655826Y10660000D01*
X-21782993Y10625925D01*
X-21844000Y10590702D01*
X-21844000Y12269297D01*
X-21782993Y12234075D01*
X-21655826Y12200000D01*
X-21524174Y12200000D01*
X-21397007Y12234075D01*
X-21336000Y12269297D01*
X-21336000Y10590702D01*
G37*
%TD.AperFunction*%
%TA.AperFunction,Conductor*%
G36*
X21844000Y2970702D02*
G01*
X21782993Y3005925D01*
X21655826Y3040000D01*
X21524174Y3040000D01*
X21397007Y3005925D01*
X21336000Y2970702D01*
X21336000Y4649297D01*
X21397007Y4614075D01*
X21524174Y4580000D01*
X21655826Y4580000D01*
X21782993Y4614075D01*
X21844000Y4649297D01*
X21844000Y2970702D01*
G37*
%TD.AperFunction*%
%TA.AperFunction,Conductor*%
G36*
X21844000Y5510702D02*
G01*
X21782993Y5545925D01*
X21655826Y5580000D01*
X21524174Y5580000D01*
X21397007Y5545925D01*
X21336000Y5510702D01*
X21336000Y7189297D01*
X21397007Y7154075D01*
X21524174Y7120000D01*
X21655826Y7120000D01*
X21782993Y7154075D01*
X21844000Y7189297D01*
X21844000Y5510702D01*
G37*
%TD.AperFunction*%
%TA.AperFunction,Conductor*%
G36*
X21844000Y8050702D02*
G01*
X21782993Y8085925D01*
X21655826Y8120000D01*
X21524174Y8120000D01*
X21397007Y8085925D01*
X21336000Y8050702D01*
X21336000Y9729297D01*
X21397007Y9694075D01*
X21524174Y9660000D01*
X21655826Y9660000D01*
X21782993Y9694075D01*
X21844000Y9729297D01*
X21844000Y8050702D01*
G37*
%TD.AperFunction*%
%TA.AperFunction,Conductor*%
G36*
X21844000Y10590702D02*
G01*
X21782993Y10625925D01*
X21655826Y10660000D01*
X21524174Y10660000D01*
X21397007Y10625925D01*
X21336000Y10590702D01*
X21336000Y12269297D01*
X21397007Y12234075D01*
X21524174Y12200000D01*
X21655826Y12200000D01*
X21782993Y12234075D01*
X21844000Y12269297D01*
X21844000Y10590702D01*
G37*
%TD.AperFunction*%
%TA.AperFunction,Conductor*%
G36*
X-39385187Y22496998D02*
G01*
X-39338694Y22443342D01*
X-39328590Y22373068D01*
X-39358084Y22308488D01*
X-39390309Y22281881D01*
X-39406721Y22272405D01*
X-39406722Y22272404D01*
X-39406725Y22272402D01*
X-40045950Y21633175D01*
X-40108261Y21599152D01*
X-40159623Y21598693D01*
X-40226520Y21612000D01*
X-40418480Y21612000D01*
X-40606751Y21574550D01*
X-40784099Y21501091D01*
X-40943707Y21394443D01*
X-41079443Y21258707D01*
X-41186091Y21099099D01*
X-41259550Y20921751D01*
X-41297000Y20733480D01*
X-41297000Y20541520D01*
X-41259550Y20353249D01*
X-41186091Y20175901D01*
X-41079443Y20016293D01*
X-41079438Y20016287D01*
X-40943712Y19880561D01*
X-40943707Y19880557D01*
X-40784099Y19773909D01*
X-40672262Y19727585D01*
X-40606754Y19700451D01*
X-40606751Y19700450D01*
X-40418483Y19663000D01*
X-40418480Y19663000D01*
X-40226516Y19663000D01*
X-40038248Y19700450D01*
X-40038245Y19700451D01*
X-39860901Y19773909D01*
X-39701293Y19880556D01*
X-39701287Y19880561D01*
X-39565561Y20016287D01*
X-39565556Y20016293D01*
X-39458909Y20175901D01*
X-39385451Y20353245D01*
X-39385450Y20353248D01*
X-39348000Y20541516D01*
X-39348000Y20733485D01*
X-39361305Y20800373D01*
X-39354977Y20871087D01*
X-39326822Y20914049D01*
X-38920777Y21320096D01*
X-38858465Y21354121D01*
X-38831681Y21357001D01*
X-36169495Y21357001D01*
X-36101374Y21336999D01*
X-36054881Y21283343D01*
X-36044777Y21213069D01*
X-36064728Y21161001D01*
X-36106091Y21099099D01*
X-36179550Y20921751D01*
X-36217000Y20733480D01*
X-36217000Y20541520D01*
X-36179550Y20353249D01*
X-36106091Y20175901D01*
X-35999443Y20016293D01*
X-35999438Y20016287D01*
X-35863712Y19880561D01*
X-35863707Y19880557D01*
X-35704099Y19773909D01*
X-35592262Y19727585D01*
X-35526754Y19700451D01*
X-35526751Y19700450D01*
X-35338483Y19663000D01*
X-35338480Y19663000D01*
X-35146516Y19663000D01*
X-34958248Y19700450D01*
X-34958245Y19700451D01*
X-34780901Y19773909D01*
X-34621293Y19880556D01*
X-34621287Y19880561D01*
X-34485561Y20016287D01*
X-34485556Y20016293D01*
X-34378909Y20175901D01*
X-34305451Y20353245D01*
X-34305450Y20353248D01*
X-34268000Y20541516D01*
X-34268000Y20733483D01*
X-34305450Y20921751D01*
X-34305451Y20921754D01*
X-34378907Y21099096D01*
X-34378909Y21099099D01*
X-34420270Y21161000D01*
X-34441485Y21228751D01*
X-34422702Y21297218D01*
X-34369885Y21344662D01*
X-34315505Y21357001D01*
X-31089495Y21357001D01*
X-31021374Y21336999D01*
X-30974881Y21283343D01*
X-30964777Y21213069D01*
X-30984728Y21161001D01*
X-31026091Y21099099D01*
X-31099550Y20921751D01*
X-31137000Y20733480D01*
X-31137000Y20541520D01*
X-31099550Y20353249D01*
X-31026091Y20175901D01*
X-30919443Y20016293D01*
X-30919438Y20016287D01*
X-30783712Y19880561D01*
X-30783707Y19880557D01*
X-30624099Y19773909D01*
X-30512262Y19727585D01*
X-30446754Y19700451D01*
X-30446751Y19700450D01*
X-30258483Y19663000D01*
X-30258480Y19663000D01*
X-30066516Y19663000D01*
X-29878248Y19700450D01*
X-29878245Y19700451D01*
X-29700901Y19773909D01*
X-29541293Y19880556D01*
X-29541287Y19880561D01*
X-29405561Y20016287D01*
X-29405556Y20016293D01*
X-29298909Y20175901D01*
X-29225451Y20353245D01*
X-29225450Y20353248D01*
X-29188000Y20541516D01*
X-29188000Y20733485D01*
X-29201305Y20800373D01*
X-29194977Y20871087D01*
X-29166822Y20914049D01*
X-28760777Y21320096D01*
X-28698465Y21354121D01*
X-28671681Y21357001D01*
X-26009495Y21357001D01*
X-25941374Y21336999D01*
X-25894881Y21283343D01*
X-25884777Y21213069D01*
X-25904728Y21161001D01*
X-25946091Y21099099D01*
X-26019550Y20921751D01*
X-26057000Y20733480D01*
X-26057000Y20541520D01*
X-26019550Y20353249D01*
X-25946091Y20175901D01*
X-25839443Y20016293D01*
X-25839438Y20016287D01*
X-25703712Y19880561D01*
X-25703707Y19880557D01*
X-25544099Y19773909D01*
X-25432262Y19727585D01*
X-25366754Y19700451D01*
X-25366751Y19700450D01*
X-25178483Y19663000D01*
X-25178480Y19663000D01*
X-24986516Y19663000D01*
X-24798248Y19700450D01*
X-24798245Y19700451D01*
X-24620901Y19773909D01*
X-24461293Y19880556D01*
X-24461287Y19880561D01*
X-24325561Y20016287D01*
X-24325556Y20016293D01*
X-24218909Y20175901D01*
X-24145451Y20353245D01*
X-24145450Y20353248D01*
X-24108000Y20541516D01*
X-24108000Y20733483D01*
X-24145450Y20921751D01*
X-24145451Y20921754D01*
X-24218907Y21099096D01*
X-24218909Y21099099D01*
X-24260270Y21161000D01*
X-24281485Y21228751D01*
X-24262702Y21297218D01*
X-24209885Y21344662D01*
X-24155505Y21357001D01*
X-21698944Y21357001D01*
X-21493320Y21357001D01*
X-21425199Y21336999D01*
X-21404225Y21320097D01*
X-20998177Y20914050D01*
X-20964152Y20851737D01*
X-20963693Y20800375D01*
X-20977000Y20733480D01*
X-20977000Y20541520D01*
X-20939550Y20353249D01*
X-20866091Y20175901D01*
X-20759443Y20016293D01*
X-20759438Y20016287D01*
X-20623712Y19880561D01*
X-20623707Y19880557D01*
X-20464099Y19773909D01*
X-20352262Y19727585D01*
X-20286754Y19700451D01*
X-20286751Y19700450D01*
X-20098483Y19663000D01*
X-20098480Y19663000D01*
X-19906516Y19663000D01*
X-19718248Y19700450D01*
X-19718245Y19700451D01*
X-19540901Y19773909D01*
X-19381293Y19880556D01*
X-19381287Y19880561D01*
X-19245561Y20016287D01*
X-19245556Y20016293D01*
X-19138909Y20175901D01*
X-19065451Y20353245D01*
X-19065450Y20353248D01*
X-19028000Y20541516D01*
X-19028000Y20733483D01*
X-19065450Y20921751D01*
X-19065451Y20921754D01*
X-19138907Y21099096D01*
X-19138909Y21099099D01*
X-19180270Y21161000D01*
X-19201485Y21228751D01*
X-19182702Y21297218D01*
X-19129885Y21344662D01*
X-19075505Y21357001D01*
X-15195821Y21357001D01*
X-15127700Y21336999D01*
X-15081207Y21283343D01*
X-15071103Y21213069D01*
X-15072242Y21206421D01*
X-15074500Y21195067D01*
X-15074499Y20175901D01*
X-15074499Y19444936D01*
X-15074498Y19444926D01*
X-15059734Y19370699D01*
X-15003483Y19286515D01*
X-14919302Y19230266D01*
X-14845069Y19215500D01*
X-14845067Y19215500D01*
X-13232510Y19215500D01*
X-13164389Y19195498D01*
X-13117896Y19141842D01*
X-13106510Y19089500D01*
X-13106510Y18261166D01*
X-13106510Y18127276D01*
X-13071857Y17997947D01*
X-13071854Y17997942D01*
X-13004913Y17881997D01*
X-13004905Y17881987D01*
X-12598012Y17475094D01*
X-12598002Y17475086D01*
X-12525068Y17432978D01*
X-12482056Y17408145D01*
X-12482053Y17408143D01*
X-12352724Y17373490D01*
X-11329488Y17373490D01*
X-11261367Y17353488D01*
X-11214874Y17299832D01*
X-11204770Y17229558D01*
X-11234264Y17164978D01*
X-11240393Y17158395D01*
X-11275787Y17123000D01*
X-11296583Y17102204D01*
X-11411986Y16929493D01*
X-11491476Y16737586D01*
X-11532000Y16533859D01*
X-11532000Y16326141D01*
X-11491476Y16122414D01*
X-11411986Y15930507D01*
X-11332467Y15811500D01*
X-11296583Y15757796D01*
X-11296578Y15757790D01*
X-11149709Y15610921D01*
X-11149703Y15610916D01*
X-11096720Y15575514D01*
X-10976993Y15495514D01*
X-10813190Y15427665D01*
X-10785091Y15416026D01*
X-10785086Y15416024D01*
X-10581361Y15375500D01*
X-10581359Y15375500D01*
X-10373638Y15375500D01*
X-10169913Y15416024D01*
X-10169908Y15416026D01*
X-10078774Y15453775D01*
X-9978007Y15495514D01*
X-9805296Y15610916D01*
X-9805290Y15610921D01*
X-9658421Y15757790D01*
X-9658416Y15757796D01*
X-9543014Y15930507D01*
X-9463526Y16122408D01*
X-9463524Y16122413D01*
X-9423000Y16326138D01*
X-9423000Y16533861D01*
X-9463524Y16737586D01*
X-9463526Y16737591D01*
X-9503117Y16833173D01*
X-9543014Y16929493D01*
X-9658417Y17102204D01*
X-9658421Y17102209D01*
X-9714607Y17158395D01*
X-9748633Y17220707D01*
X-9743568Y17291522D01*
X-9701021Y17348358D01*
X-9634501Y17373169D01*
X-9625512Y17373490D01*
X-7063641Y17373490D01*
X-6995520Y17353488D01*
X-6949027Y17299832D01*
X-6938923Y17229558D01*
X-6947232Y17199271D01*
X-6948283Y17196733D01*
X-6948284Y17196732D01*
X-7007045Y17054872D01*
X-7037000Y16904274D01*
X-7037000Y16750726D01*
X-7007045Y16600128D01*
X-7007043Y16600125D01*
X-7007043Y16600121D01*
X-6960768Y16488406D01*
X-6948284Y16458268D01*
X-6948280Y16458263D01*
X-6946819Y16455527D01*
X-6946485Y16453924D01*
X-6945916Y16452550D01*
X-6946176Y16452442D01*
X-6932347Y16386021D01*
X-6957751Y16319725D01*
X-6968846Y16307035D01*
X-7059883Y16215998D01*
X-7172932Y16046808D01*
X-7250800Y15858818D01*
X-7250801Y15858815D01*
X-7260213Y15811500D01*
X-6308830Y15811500D01*
X-6332575Y15787755D01*
X-6381944Y15702245D01*
X-6407500Y15606870D01*
X-6407500Y15508130D01*
X-6381944Y15412755D01*
X-6332575Y15327245D01*
X-6308830Y15303500D01*
X-7260213Y15303500D01*
X-7260213Y15303499D01*
X-7250801Y15256184D01*
X-7250800Y15256181D01*
X-7172932Y15068191D01*
X-7058234Y14896534D01*
X-7037019Y14828782D01*
X-7036999Y14826643D01*
X-7036999Y14269486D01*
X-7036999Y13737436D01*
X-7036998Y13737426D01*
X-7027903Y13691701D01*
X-7022234Y13663199D01*
X-6971301Y13586973D01*
X-6965983Y13579015D01*
X-6881802Y13522766D01*
X-6807567Y13508000D01*
X-5257436Y13508000D01*
X-5257426Y13508001D01*
X-5183199Y13522765D01*
X-5099015Y13579016D01*
X-5042766Y13663197D01*
X-5028000Y13737430D01*
X-5028000Y14826531D01*
X-5007998Y14894652D01*
X-5006765Y14896533D01*
X-4892067Y15068190D01*
X-4814199Y15256181D01*
X-4814198Y15256184D01*
X-4804786Y15303499D01*
X-4804787Y15303500D01*
X-5756170Y15303500D01*
X-5732425Y15327245D01*
X-5683056Y15412755D01*
X-5657500Y15508130D01*
X-5657500Y15606870D01*
X-5683056Y15702245D01*
X-5695580Y15723938D01*
X-3808000Y15723938D01*
X-3808000Y15518061D01*
X-3775791Y15314703D01*
X-3712173Y15118906D01*
X-3712170Y15118900D01*
X-3618699Y14935454D01*
X-3587583Y14892626D01*
X-3587582Y14892626D01*
X-2900000Y15580208D01*
X-2900000Y15568339D01*
X-2872741Y15466606D01*
X-2820080Y15375394D01*
X-2745606Y15300920D01*
X-2654394Y15248259D01*
X-2552661Y15221000D01*
X-2540790Y15221000D01*
X-3228372Y14533416D01*
X-3185541Y14502298D01*
X-3185540Y14502297D01*
X-3002099Y14408829D01*
X-3002093Y14408826D01*
X-2806294Y14345208D01*
X-2806298Y14345208D01*
X-2602939Y14313000D01*
X-2397061Y14313000D01*
X-2193703Y14345208D01*
X-1997906Y14408826D01*
X-1997900Y14408829D01*
X-1814452Y14502301D01*
X-1771625Y14533416D01*
X-2459209Y15221000D01*
X-2447339Y15221000D01*
X-2345606Y15248259D01*
X-2254394Y15300920D01*
X-2179920Y15375394D01*
X-2127259Y15466606D01*
X-2100000Y15568339D01*
X-2100000Y15580209D01*
X-1412416Y14892625D01*
X-1381301Y14935452D01*
X-1287829Y15118900D01*
X-1287826Y15118906D01*
X-1224208Y15314703D01*
X-1192000Y15518061D01*
X-1192000Y15723942D01*
X-1192146Y15724861D01*
X1445500Y15724861D01*
X1445500Y15517138D01*
X1486024Y15313413D01*
X1486026Y15313408D01*
X1565514Y15121507D01*
X1680916Y14948796D01*
X1680921Y14948790D01*
X1827790Y14801921D01*
X1827796Y14801916D01*
X2000507Y14686514D01*
X2192408Y14607026D01*
X2192413Y14607024D01*
X2396138Y14566500D01*
X2396141Y14566500D01*
X2603861Y14566500D01*
X2807586Y14607024D01*
X2807591Y14607026D01*
X2835690Y14618665D01*
X2999493Y14686514D01*
X3172204Y14801917D01*
X3172209Y14801921D01*
X3319078Y14948790D01*
X3319083Y14948796D01*
X3370909Y15026359D01*
X3434486Y15121507D01*
X3513976Y15313414D01*
X3554500Y15517141D01*
X3554500Y15724859D01*
X3513976Y15928586D01*
X3434486Y16120493D01*
X3319083Y16293204D01*
X3172204Y16440083D01*
X2999493Y16555486D01*
X2807586Y16634976D01*
X2603859Y16675500D01*
X2396141Y16675500D01*
X2192414Y16634976D01*
X2000507Y16555486D01*
X1827916Y16440163D01*
X1827796Y16440083D01*
X1827790Y16440078D01*
X1680921Y16293209D01*
X1680916Y16293203D01*
X1670379Y16277433D01*
X1565514Y16120493D01*
X1513012Y15993741D01*
X1486026Y15928591D01*
X1486024Y15928586D01*
X1445500Y15724861D01*
X-1192146Y15724861D01*
X-1224208Y15927296D01*
X-1287826Y16123093D01*
X-1287829Y16123099D01*
X-1381297Y16306540D01*
X-1381298Y16306541D01*
X-1412416Y16349372D01*
X-2100000Y15661788D01*
X-2100000Y15673661D01*
X-2127259Y15775394D01*
X-2179920Y15866606D01*
X-2254394Y15941080D01*
X-2345606Y15993741D01*
X-2447339Y16021000D01*
X-2459210Y16021000D01*
X-1771626Y16708582D01*
X-1771626Y16708583D01*
X-1814454Y16739699D01*
X-1997900Y16833170D01*
X-1997906Y16833173D01*
X-2193705Y16896791D01*
X-2193701Y16896791D01*
X-2397061Y16929000D01*
X-2602939Y16929000D01*
X-2806296Y16896791D01*
X-3002093Y16833173D01*
X-3002099Y16833170D01*
X-3185541Y16739701D01*
X-3228372Y16708582D01*
X-3228372Y16708581D01*
X-2540791Y16021000D01*
X-2552661Y16021000D01*
X-2654394Y15993741D01*
X-2745606Y15941080D01*
X-2820080Y15866606D01*
X-2872741Y15775394D01*
X-2900000Y15673661D01*
X-2900000Y15661791D01*
X-3587581Y16349372D01*
X-3587582Y16349372D01*
X-3618701Y16306541D01*
X-3712170Y16123099D01*
X-3712173Y16123093D01*
X-3775791Y15927296D01*
X-3808000Y15723938D01*
X-5695580Y15723938D01*
X-5732425Y15787755D01*
X-5756170Y15811500D01*
X-4804786Y15811500D01*
X-4814198Y15858815D01*
X-4814199Y15858818D01*
X-4892067Y16046808D01*
X-5005116Y16215998D01*
X-5005121Y16216004D01*
X-5096153Y16307036D01*
X-5130179Y16369348D01*
X-5125114Y16440163D01*
X-5118186Y16455517D01*
X-5116714Y16458271D01*
X-5057956Y16600121D01*
X-5041045Y16685142D01*
X-5028000Y16750720D01*
X-5028000Y16904279D01*
X-5057955Y17054874D01*
X-5117768Y17199271D01*
X-5125357Y17269861D01*
X-5093578Y17333348D01*
X-5032520Y17369576D01*
X-5001359Y17373490D01*
X4267000Y17373490D01*
X4335121Y17353488D01*
X4381614Y17299832D01*
X4393000Y17247490D01*
X4393000Y16277436D01*
X4393001Y16277426D01*
X4407765Y16203199D01*
X4464017Y16119013D01*
X4472790Y16110241D01*
X4471114Y16108565D01*
X4505842Y16067006D01*
X4514685Y15996562D01*
X4495075Y15946725D01*
X4481714Y15926729D01*
X4481713Y15926727D01*
X4422956Y15784878D01*
X4393000Y15634279D01*
X4393000Y15480720D01*
X4422956Y15330121D01*
X4481714Y15188271D01*
X4483186Y15185517D01*
X4483520Y15183911D01*
X4484084Y15182550D01*
X4483825Y15182443D01*
X4497651Y15116009D01*
X4472241Y15049715D01*
X4461153Y15037036D01*
X4370121Y14946004D01*
X4370116Y14945998D01*
X4257067Y14776808D01*
X4179199Y14588818D01*
X4179198Y14588815D01*
X4169786Y14541500D01*
X5121170Y14541500D01*
X5097425Y14517755D01*
X5048056Y14432245D01*
X5022500Y14336870D01*
X5022500Y14238130D01*
X5048056Y14142755D01*
X5097425Y14057245D01*
X5121170Y14033500D01*
X4169787Y14033500D01*
X4169786Y14033499D01*
X4179198Y13986184D01*
X4179199Y13986181D01*
X4257067Y13798191D01*
X4370116Y13629001D01*
X4370121Y13628995D01*
X4513995Y13485121D01*
X4514001Y13485116D01*
X4683191Y13372067D01*
X4871181Y13294199D01*
X4871184Y13294198D01*
X5070754Y13254500D01*
X5143500Y13254500D01*
X5143500Y14011170D01*
X5167245Y13987425D01*
X5252755Y13938056D01*
X5348130Y13912500D01*
X5446870Y13912500D01*
X5542245Y13938056D01*
X5627755Y13987425D01*
X5651500Y14011170D01*
X5651500Y13254500D01*
X5724245Y13254500D01*
X5923815Y13294198D01*
X5923818Y13294199D01*
X6111808Y13372067D01*
X6280998Y13485116D01*
X6281004Y13485121D01*
X6424878Y13628995D01*
X6424883Y13629001D01*
X6537932Y13798191D01*
X6615800Y13986181D01*
X6615801Y13986184D01*
X6625213Y14033499D01*
X6625213Y14033500D01*
X5673830Y14033500D01*
X5697575Y14057245D01*
X5746944Y14142755D01*
X5772500Y14238130D01*
X5772500Y14336870D01*
X5746944Y14432245D01*
X5697575Y14517755D01*
X5673830Y14541500D01*
X6625213Y14541500D01*
X6615801Y14588815D01*
X6615800Y14588818D01*
X6537932Y14776808D01*
X6424883Y14945998D01*
X6344520Y15026361D01*
X14503000Y15026361D01*
X14503000Y14818638D01*
X14543524Y14614913D01*
X14543526Y14614908D01*
X14623014Y14423007D01*
X14738416Y14250296D01*
X14738421Y14250290D01*
X14885290Y14103421D01*
X14885296Y14103416D01*
X15058007Y13988014D01*
X15249908Y13908526D01*
X15249913Y13908524D01*
X15453638Y13868000D01*
X15453641Y13868000D01*
X15661361Y13868000D01*
X15865086Y13908524D01*
X15865091Y13908526D01*
X15936383Y13938056D01*
X16056993Y13988014D01*
X16229704Y14103417D01*
X16229709Y14103421D01*
X16376578Y14250290D01*
X16376583Y14250296D01*
X16418481Y14313000D01*
X16491986Y14423007D01*
X16571476Y14614914D01*
X16612000Y14818641D01*
X16612000Y15026359D01*
X16612000Y15026361D01*
X17043000Y15026361D01*
X17043000Y14818638D01*
X17083524Y14614913D01*
X17083526Y14614908D01*
X17163014Y14423007D01*
X17278416Y14250296D01*
X17278421Y14250290D01*
X17425290Y14103421D01*
X17425296Y14103416D01*
X17598007Y13988014D01*
X17789908Y13908526D01*
X17789913Y13908524D01*
X17993638Y13868000D01*
X17993641Y13868000D01*
X18201361Y13868000D01*
X18405086Y13908524D01*
X18405091Y13908526D01*
X18476383Y13938056D01*
X18596993Y13988014D01*
X18769704Y14103417D01*
X18769709Y14103421D01*
X18916578Y14250290D01*
X18916583Y14250296D01*
X18958481Y14313000D01*
X19031986Y14423007D01*
X19111476Y14614914D01*
X19152000Y14818641D01*
X19152000Y15026359D01*
X19152000Y15026361D01*
X36410500Y15026361D01*
X36410500Y14818638D01*
X36451024Y14614913D01*
X36451026Y14614908D01*
X36530514Y14423007D01*
X36645916Y14250296D01*
X36645921Y14250290D01*
X36792790Y14103421D01*
X36792796Y14103416D01*
X36965507Y13988014D01*
X37157408Y13908526D01*
X37157413Y13908524D01*
X37361138Y13868000D01*
X37361141Y13868000D01*
X37568861Y13868000D01*
X37772586Y13908524D01*
X37772591Y13908526D01*
X37843883Y13938056D01*
X37964493Y13988014D01*
X38137204Y14103417D01*
X38137209Y14103421D01*
X38284078Y14250290D01*
X38284083Y14250296D01*
X38325981Y14313000D01*
X38399486Y14423007D01*
X38478976Y14614914D01*
X38519500Y14818641D01*
X38519500Y15026359D01*
X38519500Y15026361D01*
X40855500Y15026361D01*
X40855500Y14818638D01*
X40896024Y14614913D01*
X40896026Y14614908D01*
X40975514Y14423007D01*
X41090916Y14250296D01*
X41090921Y14250290D01*
X41237790Y14103421D01*
X41237796Y14103416D01*
X41410507Y13988014D01*
X41602408Y13908526D01*
X41602413Y13908524D01*
X41806138Y13868000D01*
X41806141Y13868000D01*
X42013861Y13868000D01*
X42079214Y13881000D01*
X42217586Y13908524D01*
X42409493Y13988014D01*
X42582204Y14103417D01*
X42582209Y14103421D01*
X42729078Y14250290D01*
X42729083Y14250296D01*
X42770981Y14313000D01*
X42844486Y14423007D01*
X42923976Y14614914D01*
X42964500Y14818641D01*
X42964500Y15026359D01*
X42964500Y15026361D01*
X45300500Y15026361D01*
X45300500Y14818638D01*
X45341024Y14614913D01*
X45341026Y14614908D01*
X45420514Y14423007D01*
X45535916Y14250296D01*
X45535921Y14250290D01*
X45682790Y14103421D01*
X45682796Y14103416D01*
X45855507Y13988014D01*
X46047408Y13908526D01*
X46047413Y13908524D01*
X46251138Y13868000D01*
X46251141Y13868000D01*
X46458861Y13868000D01*
X46662586Y13908524D01*
X46662591Y13908526D01*
X46733883Y13938056D01*
X46854493Y13988014D01*
X47027204Y14103417D01*
X47027209Y14103421D01*
X47174078Y14250290D01*
X47174083Y14250296D01*
X47215981Y14313000D01*
X47289486Y14423007D01*
X47368976Y14614914D01*
X47409500Y14818641D01*
X47409500Y15026359D01*
X47368976Y15230086D01*
X47289486Y15421993D01*
X47174083Y15594704D01*
X47027204Y15741583D01*
X46854493Y15856986D01*
X46662586Y15936476D01*
X46458859Y15977000D01*
X46251141Y15977000D01*
X46047414Y15936476D01*
X45855507Y15856986D01*
X45707060Y15757796D01*
X45682796Y15741583D01*
X45682790Y15741578D01*
X45535921Y15594709D01*
X45535916Y15594703D01*
X45518300Y15568339D01*
X45420514Y15421993D01*
X45370364Y15300920D01*
X45341026Y15230091D01*
X45341024Y15230086D01*
X45300500Y15026361D01*
X42964500Y15026361D01*
X42923976Y15230086D01*
X42844486Y15421993D01*
X42729083Y15594704D01*
X42582204Y15741583D01*
X42409493Y15856986D01*
X42217586Y15936476D01*
X42013859Y15977000D01*
X41806141Y15977000D01*
X41602414Y15936476D01*
X41410507Y15856986D01*
X41262060Y15757796D01*
X41237796Y15741583D01*
X41237790Y15741578D01*
X41090921Y15594709D01*
X41090916Y15594703D01*
X41073300Y15568339D01*
X40975514Y15421993D01*
X40925364Y15300920D01*
X40896026Y15230091D01*
X40896024Y15230086D01*
X40855500Y15026361D01*
X38519500Y15026361D01*
X38478976Y15230086D01*
X38399486Y15421993D01*
X38284083Y15594704D01*
X38137204Y15741583D01*
X37964493Y15856986D01*
X37772586Y15936476D01*
X37568859Y15977000D01*
X37361141Y15977000D01*
X37157414Y15936476D01*
X36965507Y15856986D01*
X36817060Y15757796D01*
X36792796Y15741583D01*
X36792790Y15741578D01*
X36645921Y15594709D01*
X36645916Y15594703D01*
X36628300Y15568339D01*
X36530514Y15421993D01*
X36480364Y15300920D01*
X36451026Y15230091D01*
X36451024Y15230086D01*
X36410500Y15026361D01*
X19152000Y15026361D01*
X19111476Y15230086D01*
X19031986Y15421993D01*
X18916583Y15594704D01*
X18769704Y15741583D01*
X18596993Y15856986D01*
X18405086Y15936476D01*
X18201359Y15977000D01*
X17993641Y15977000D01*
X17789914Y15936476D01*
X17598007Y15856986D01*
X17449560Y15757796D01*
X17425296Y15741583D01*
X17425290Y15741578D01*
X17278421Y15594709D01*
X17278416Y15594703D01*
X17260800Y15568339D01*
X17163014Y15421993D01*
X17112864Y15300920D01*
X17083526Y15230091D01*
X17083524Y15230086D01*
X17043000Y15026361D01*
X16612000Y15026361D01*
X16571476Y15230086D01*
X16491986Y15421993D01*
X16376583Y15594704D01*
X16229704Y15741583D01*
X16056993Y15856986D01*
X15865086Y15936476D01*
X15661359Y15977000D01*
X15453641Y15977000D01*
X15249914Y15936476D01*
X15058007Y15856986D01*
X14909560Y15757796D01*
X14885296Y15741583D01*
X14885290Y15741578D01*
X14738421Y15594709D01*
X14738416Y15594703D01*
X14720800Y15568339D01*
X14623014Y15421993D01*
X14572864Y15300920D01*
X14543526Y15230091D01*
X14543524Y15230086D01*
X14503000Y15026361D01*
X6344520Y15026361D01*
X6333846Y15037035D01*
X6299821Y15099347D01*
X6304885Y15170163D01*
X6311819Y15185527D01*
X6313280Y15188263D01*
X6313284Y15188268D01*
X6330608Y15230091D01*
X6372043Y15330121D01*
X6372043Y15330125D01*
X6372045Y15330128D01*
X6396982Y15455500D01*
X6401999Y15480720D01*
X6402000Y15480727D01*
X6402000Y15634272D01*
X6401999Y15634279D01*
X6372045Y15784872D01*
X6361015Y15811500D01*
X6313286Y15926727D01*
X6313284Y15926732D01*
X6299925Y15946725D01*
X6278710Y16014475D01*
X6297492Y16082942D01*
X6323035Y16109415D01*
X6322210Y16110241D01*
X6330983Y16119014D01*
X6387233Y16203197D01*
X6387234Y16203199D01*
X6402000Y16277433D01*
X6401999Y17247490D01*
X6422001Y17315611D01*
X6475657Y17362104D01*
X6527999Y17373490D01*
X8915501Y17373490D01*
X8983622Y17353488D01*
X9030115Y17299832D01*
X9040219Y17229558D01*
X9020266Y17177488D01*
X8908014Y17009493D01*
X8908014Y17009492D01*
X8828526Y16817591D01*
X8828524Y16817586D01*
X8788000Y16613861D01*
X8788000Y16406138D01*
X8828524Y16202413D01*
X8828526Y16202408D01*
X8908014Y16010507D01*
X9023416Y15837796D01*
X9023421Y15837790D01*
X9170290Y15690921D01*
X9170296Y15690916D01*
X9343007Y15575514D01*
X9534908Y15496026D01*
X9534913Y15496024D01*
X9738638Y15455500D01*
X9738641Y15455500D01*
X9946361Y15455500D01*
X10150086Y15496024D01*
X10150091Y15496026D01*
X10203288Y15518061D01*
X10341993Y15575514D01*
X10514704Y15690917D01*
X10514709Y15690921D01*
X10661578Y15837790D01*
X10661583Y15837796D01*
X10674799Y15857575D01*
X10776986Y16010507D01*
X10856476Y16202414D01*
X10897000Y16406141D01*
X10897000Y16613859D01*
X10856476Y16817586D01*
X10776986Y17009493D01*
X10664733Y17177488D01*
X10643519Y17245240D01*
X10662302Y17313707D01*
X10715119Y17361151D01*
X10769499Y17373490D01*
X12352722Y17373490D01*
X12352724Y17373490D01*
X12482053Y17408143D01*
X12482055Y17408144D01*
X12482057Y17408145D01*
X12598002Y17475086D01*
X12598008Y17475091D01*
X13018901Y17895985D01*
X13085843Y18011931D01*
X13085846Y18011936D01*
X13120499Y18141265D01*
X13120499Y18193483D01*
X21568000Y18193483D01*
X21568000Y18001516D01*
X21605450Y17813248D01*
X21605451Y17813245D01*
X21678909Y17635901D01*
X21785556Y17476293D01*
X21785561Y17476287D01*
X21921287Y17340561D01*
X21921293Y17340556D01*
X22080901Y17233909D01*
X22258245Y17160451D01*
X22258248Y17160450D01*
X22446516Y17123000D01*
X22446520Y17123000D01*
X22638483Y17123000D01*
X22826751Y17160450D01*
X22826754Y17160451D01*
X22892262Y17187585D01*
X23004099Y17233909D01*
X23146535Y17329083D01*
X23163706Y17340556D01*
X23163712Y17340561D01*
X23299438Y17476287D01*
X23299443Y17476293D01*
X23406091Y17635901D01*
X23479550Y17813249D01*
X23517000Y18001520D01*
X23517000Y18193480D01*
X23516999Y18193483D01*
X31728000Y18193483D01*
X31728000Y18001516D01*
X31765450Y17813248D01*
X31765451Y17813245D01*
X31838909Y17635901D01*
X31945556Y17476293D01*
X31945561Y17476287D01*
X32081287Y17340561D01*
X32081293Y17340556D01*
X32240901Y17233909D01*
X32418245Y17160451D01*
X32418248Y17160450D01*
X32606516Y17123000D01*
X32606520Y17123000D01*
X32798483Y17123000D01*
X32986751Y17160450D01*
X32986754Y17160451D01*
X33052262Y17187585D01*
X33164099Y17233909D01*
X33306535Y17329083D01*
X33323706Y17340556D01*
X33323712Y17340561D01*
X33459438Y17476287D01*
X33459443Y17476293D01*
X33566091Y17635901D01*
X33639550Y17813249D01*
X33677000Y18001520D01*
X33677000Y18193480D01*
X33676999Y18193483D01*
X41888000Y18193483D01*
X41888000Y18001516D01*
X41925450Y17813248D01*
X41925451Y17813245D01*
X41998909Y17635901D01*
X42105556Y17476293D01*
X42105561Y17476287D01*
X42241287Y17340561D01*
X42241293Y17340556D01*
X42400901Y17233909D01*
X42578245Y17160451D01*
X42578248Y17160450D01*
X42766516Y17123000D01*
X42766520Y17123000D01*
X42958483Y17123000D01*
X43146751Y17160450D01*
X43146754Y17160451D01*
X43212262Y17187585D01*
X43324099Y17233909D01*
X43466535Y17329083D01*
X43483706Y17340556D01*
X43483712Y17340561D01*
X43619438Y17476287D01*
X43619443Y17476293D01*
X43726091Y17635901D01*
X43799550Y17813249D01*
X43837000Y18001520D01*
X43837000Y18193480D01*
X43799550Y18381751D01*
X43726091Y18559099D01*
X43619443Y18718707D01*
X43483707Y18854443D01*
X43324099Y18961091D01*
X43146751Y19034550D01*
X42958480Y19072000D01*
X42766520Y19072000D01*
X42578249Y19034550D01*
X42400901Y18961091D01*
X42241293Y18854443D01*
X42241287Y18854438D01*
X42105561Y18718712D01*
X42105557Y18718707D01*
X41998909Y18559099D01*
X41998909Y18559098D01*
X41925451Y18381754D01*
X41925450Y18381751D01*
X41888000Y18193483D01*
X33676999Y18193483D01*
X33639550Y18381751D01*
X33566091Y18559099D01*
X33459443Y18718707D01*
X33323707Y18854443D01*
X33164099Y18961091D01*
X32986751Y19034550D01*
X32798480Y19072000D01*
X32606520Y19072000D01*
X32418249Y19034550D01*
X32240901Y18961091D01*
X32081293Y18854443D01*
X32081287Y18854438D01*
X31945561Y18718712D01*
X31945557Y18718707D01*
X31838909Y18559099D01*
X31838909Y18559098D01*
X31765451Y18381754D01*
X31765450Y18381751D01*
X31728000Y18193483D01*
X23516999Y18193483D01*
X23479550Y18381751D01*
X23406091Y18559099D01*
X23299443Y18718707D01*
X23163707Y18854443D01*
X23004099Y18961091D01*
X22826751Y19034550D01*
X22638480Y19072000D01*
X22446520Y19072000D01*
X22258249Y19034550D01*
X22080901Y18961091D01*
X21921293Y18854443D01*
X21921287Y18854438D01*
X21785561Y18718712D01*
X21785557Y18718707D01*
X21678909Y18559099D01*
X21678909Y18559098D01*
X21605451Y18381754D01*
X21605450Y18381751D01*
X21568000Y18193483D01*
X13120499Y18193483D01*
X13120499Y18275156D01*
X13120499Y19089500D01*
X13140501Y19157621D01*
X13194157Y19204114D01*
X13246499Y19215500D01*
X14845063Y19215500D01*
X14845073Y19215501D01*
X14919300Y19230265D01*
X15003484Y19286516D01*
X15059733Y19370697D01*
X15059734Y19370699D01*
X15074500Y19444933D01*
X15074499Y21195066D01*
X15072241Y21206421D01*
X15078570Y21277135D01*
X15122125Y21333202D01*
X15189078Y21356820D01*
X15195820Y21357001D01*
X19075505Y21357001D01*
X19143626Y21336999D01*
X19190119Y21283343D01*
X19200223Y21213069D01*
X19180271Y21161001D01*
X19138909Y21099099D01*
X19138907Y21099096D01*
X19065451Y20921754D01*
X19065450Y20921751D01*
X19028000Y20733483D01*
X19028000Y20541516D01*
X19065450Y20353248D01*
X19065451Y20353245D01*
X19138909Y20175901D01*
X19245556Y20016293D01*
X19245561Y20016287D01*
X19381287Y19880561D01*
X19381293Y19880556D01*
X19540901Y19773909D01*
X19718245Y19700451D01*
X19718248Y19700450D01*
X19906516Y19663000D01*
X19906520Y19663000D01*
X20098483Y19663000D01*
X20286751Y19700450D01*
X20286754Y19700451D01*
X20352262Y19727585D01*
X20464099Y19773909D01*
X20623707Y19880557D01*
X20623712Y19880561D01*
X20759438Y20016287D01*
X20759443Y20016293D01*
X20866091Y20175901D01*
X20939550Y20353249D01*
X20977000Y20541520D01*
X20977000Y20733480D01*
X20939550Y20921751D01*
X20866091Y21099099D01*
X20824729Y21161000D01*
X20803515Y21228751D01*
X20822298Y21297218D01*
X20875115Y21344662D01*
X20929495Y21357001D01*
X23386056Y21357001D01*
X23591681Y21357001D01*
X23659802Y21336999D01*
X23680771Y21320100D01*
X23901773Y21099099D01*
X24086822Y20914050D01*
X24120847Y20851738D01*
X24121305Y20800375D01*
X24108000Y20733487D01*
X24108000Y20541516D01*
X24145450Y20353248D01*
X24145451Y20353245D01*
X24218909Y20175901D01*
X24325556Y20016293D01*
X24325561Y20016287D01*
X24461287Y19880561D01*
X24461293Y19880556D01*
X24620901Y19773909D01*
X24798245Y19700451D01*
X24798248Y19700450D01*
X24986516Y19663000D01*
X24986520Y19663000D01*
X25178483Y19663000D01*
X25366751Y19700450D01*
X25366754Y19700451D01*
X25432262Y19727585D01*
X25544099Y19773909D01*
X25703707Y19880557D01*
X25703712Y19880561D01*
X25839438Y20016287D01*
X25839443Y20016293D01*
X25946091Y20175901D01*
X26019550Y20353249D01*
X26057000Y20541520D01*
X26057000Y20733480D01*
X26019550Y20921751D01*
X25946091Y21099099D01*
X25904729Y21161000D01*
X25883515Y21228751D01*
X25902298Y21297218D01*
X25955115Y21344662D01*
X26009495Y21357001D01*
X29235505Y21357001D01*
X29303626Y21336999D01*
X29350119Y21283343D01*
X29360223Y21213069D01*
X29340271Y21161001D01*
X29298909Y21099099D01*
X29298907Y21099096D01*
X29225451Y20921754D01*
X29225450Y20921751D01*
X29188000Y20733483D01*
X29188000Y20541516D01*
X29225450Y20353248D01*
X29225451Y20353245D01*
X29298909Y20175901D01*
X29405556Y20016293D01*
X29405561Y20016287D01*
X29541287Y19880561D01*
X29541293Y19880556D01*
X29700901Y19773909D01*
X29878245Y19700451D01*
X29878248Y19700450D01*
X30066516Y19663000D01*
X30066520Y19663000D01*
X30258483Y19663000D01*
X30446751Y19700450D01*
X30446754Y19700451D01*
X30512262Y19727585D01*
X30624099Y19773909D01*
X30783707Y19880557D01*
X30783712Y19880561D01*
X30919438Y20016287D01*
X30919443Y20016293D01*
X31026091Y20175901D01*
X31099550Y20353249D01*
X31137000Y20541520D01*
X31137000Y20733480D01*
X31099550Y20921751D01*
X31026091Y21099099D01*
X30984729Y21161000D01*
X30963515Y21228751D01*
X30982298Y21297218D01*
X31035115Y21344662D01*
X31089495Y21357001D01*
X33312554Y21357001D01*
X33751681Y21357001D01*
X33819802Y21336999D01*
X33840771Y21320100D01*
X34061773Y21099099D01*
X34246822Y20914050D01*
X34280847Y20851738D01*
X34281305Y20800375D01*
X34268000Y20733487D01*
X34268000Y20541516D01*
X34305450Y20353248D01*
X34305451Y20353245D01*
X34378909Y20175901D01*
X34485556Y20016293D01*
X34485561Y20016287D01*
X34621287Y19880561D01*
X34621293Y19880556D01*
X34780901Y19773909D01*
X34958245Y19700451D01*
X34958248Y19700450D01*
X35146516Y19663000D01*
X35146520Y19663000D01*
X35338483Y19663000D01*
X35526751Y19700450D01*
X35526754Y19700451D01*
X35592262Y19727585D01*
X35704099Y19773909D01*
X35863707Y19880557D01*
X35863712Y19880561D01*
X35999438Y20016287D01*
X35999443Y20016293D01*
X36106091Y20175901D01*
X36179550Y20353249D01*
X36217000Y20541520D01*
X36217000Y20733480D01*
X36179550Y20921751D01*
X36106091Y21099099D01*
X36064729Y21161000D01*
X36043515Y21228751D01*
X36062298Y21297218D01*
X36115115Y21344662D01*
X36169495Y21357001D01*
X39395505Y21357001D01*
X39463626Y21336999D01*
X39510119Y21283343D01*
X39520223Y21213069D01*
X39500271Y21161001D01*
X39458909Y21099099D01*
X39458907Y21099096D01*
X39385451Y20921754D01*
X39385450Y20921751D01*
X39348000Y20733483D01*
X39348000Y20541516D01*
X39385450Y20353248D01*
X39385451Y20353245D01*
X39458909Y20175901D01*
X39565556Y20016293D01*
X39565561Y20016287D01*
X39701287Y19880561D01*
X39701293Y19880556D01*
X39860901Y19773909D01*
X40038245Y19700451D01*
X40038248Y19700450D01*
X40226516Y19663000D01*
X40226520Y19663000D01*
X40418483Y19663000D01*
X40606751Y19700450D01*
X40606754Y19700451D01*
X40672262Y19727585D01*
X40784099Y19773909D01*
X40943707Y19880557D01*
X40943712Y19880561D01*
X41079438Y20016287D01*
X41079443Y20016293D01*
X41186091Y20175901D01*
X41259550Y20353249D01*
X41297000Y20541520D01*
X41297000Y20733480D01*
X41259550Y20921751D01*
X41186091Y21099099D01*
X41144729Y21161000D01*
X41123515Y21228751D01*
X41142298Y21297218D01*
X41195115Y21344662D01*
X41249495Y21357001D01*
X43911681Y21357001D01*
X43979802Y21336999D01*
X44000771Y21320100D01*
X44221773Y21099099D01*
X44406822Y20914050D01*
X44440847Y20851738D01*
X44441305Y20800375D01*
X44428000Y20733487D01*
X44428000Y20541516D01*
X44465450Y20353248D01*
X44465451Y20353245D01*
X44538909Y20175901D01*
X44645556Y20016293D01*
X44645561Y20016287D01*
X44781287Y19880561D01*
X44781293Y19880556D01*
X44940901Y19773909D01*
X45118245Y19700451D01*
X45118248Y19700450D01*
X45306516Y19663000D01*
X45306520Y19663000D01*
X45498483Y19663000D01*
X45686751Y19700450D01*
X45686754Y19700451D01*
X45752262Y19727585D01*
X45864099Y19773909D01*
X46023707Y19880557D01*
X46023712Y19880561D01*
X46159438Y20016287D01*
X46159443Y20016293D01*
X46266091Y20175901D01*
X46339550Y20353249D01*
X46377000Y20541520D01*
X46377000Y20733480D01*
X46339550Y20921751D01*
X46266091Y21099099D01*
X46159443Y21258707D01*
X46023707Y21394443D01*
X45864099Y21501091D01*
X45686751Y21574550D01*
X45498480Y21612000D01*
X45306520Y21612000D01*
X45239624Y21598693D01*
X45168912Y21605021D01*
X45125951Y21633174D01*
X44486726Y22272402D01*
X44485604Y22273049D01*
X44470309Y22281881D01*
X44421315Y22333263D01*
X44407878Y22402976D01*
X44434265Y22468888D01*
X44492097Y22510070D01*
X44533308Y22517000D01*
X47791000Y22517000D01*
X47859121Y22496998D01*
X47905614Y22443342D01*
X47917000Y22391000D01*
X47917000Y469000D01*
X47896998Y400879D01*
X47843342Y354386D01*
X47791000Y343000D01*
X-47791000Y343000D01*
X-47859121Y363002D01*
X-47905614Y416658D01*
X-47917000Y469000D01*
X-47917000Y7718116D01*
X-45061687Y7718116D01*
X-45061687Y7521884D01*
X-45030989Y7328067D01*
X-44970350Y7141438D01*
X-44881262Y6966594D01*
X-44838872Y6908249D01*
X-44765919Y6807836D01*
X-44627163Y6669080D01*
X-44511821Y6585280D01*
X-44468406Y6553738D01*
X-44293562Y6464650D01*
X-44293559Y6464649D01*
X-44289151Y6462403D01*
X-44290232Y6460280D01*
X-44242578Y6421935D01*
X-44220109Y6354588D01*
X-44237617Y6285784D01*
X-44289198Y6237690D01*
X-44289151Y6237597D01*
X-44289475Y6237431D01*
X-44289544Y6237368D01*
X-44290087Y6237119D01*
X-44293553Y6235352D01*
X-44293562Y6235350D01*
X-44468406Y6146262D01*
X-44627162Y6030920D01*
X-44765920Y5892162D01*
X-44881262Y5733406D01*
X-44970350Y5558562D01*
X-45030989Y5371933D01*
X-45061687Y5178116D01*
X-45061687Y4981884D01*
X-45030989Y4788067D01*
X-44970350Y4601438D01*
X-44881262Y4426594D01*
X-44877300Y4421141D01*
X-44765919Y4267836D01*
X-44627163Y4129080D01*
X-44520090Y4051288D01*
X-44468406Y4013738D01*
X-44293562Y3924650D01*
X-44293559Y3924649D01*
X-44289151Y3922403D01*
X-44290232Y3920280D01*
X-44242578Y3881935D01*
X-44220109Y3814588D01*
X-44237617Y3745784D01*
X-44289198Y3697690D01*
X-44289151Y3697597D01*
X-44289475Y3697431D01*
X-44289544Y3697368D01*
X-44290087Y3697119D01*
X-44293553Y3695352D01*
X-44293562Y3695350D01*
X-44468406Y3606262D01*
X-44627162Y3490920D01*
X-44765920Y3352162D01*
X-44881262Y3193406D01*
X-44970350Y3018562D01*
X-45030989Y2831933D01*
X-45061687Y2638116D01*
X-45061687Y2441884D01*
X-45030989Y2248067D01*
X-44970350Y2061438D01*
X-44881262Y1886594D01*
X-44833218Y1820467D01*
X-44765919Y1727836D01*
X-44627163Y1589080D01*
X-44518928Y1510444D01*
X-44468406Y1473738D01*
X-44293562Y1384650D01*
X-44293559Y1384649D01*
X-44293557Y1384648D01*
X-44106936Y1324012D01*
X-44106940Y1324012D01*
X-44070852Y1318296D01*
X-43913116Y1293313D01*
X-43913113Y1293313D01*
X-43716887Y1293313D01*
X-43716884Y1293313D01*
X-43523067Y1324011D01*
X-43523066Y1324011D01*
X-43523061Y1324012D01*
X-43336442Y1384648D01*
X-43336436Y1384651D01*
X-43161592Y1473739D01*
X-43002836Y1589080D01*
X-42864080Y1727836D01*
X-42748739Y1886592D01*
X-42659651Y2061436D01*
X-42659648Y2061442D01*
X-42599012Y2248061D01*
X-42592991Y2286076D01*
X-42568313Y2441884D01*
X-42568313Y2638116D01*
X-42599011Y2831933D01*
X-42599011Y2831934D01*
X-42599012Y2831938D01*
X-42659648Y3018557D01*
X-42659651Y3018563D01*
X-42662267Y3023699D01*
X-42748738Y3193406D01*
X-42799845Y3263749D01*
X-42864080Y3352163D01*
X-43002836Y3490919D01*
X-43102848Y3563581D01*
X-43161594Y3606262D01*
X-43336438Y3695350D01*
X-43336440Y3695350D01*
X-43340849Y3697597D01*
X-43339780Y3699693D01*
X-43387499Y3738177D01*
X-43409895Y3805548D01*
X-43392313Y3874333D01*
X-43340783Y3922274D01*
X-43340849Y3922403D01*
X-43340397Y3922633D01*
X-43340333Y3922693D01*
X-43339820Y3922927D01*
X-43273662Y3956636D01*
X-43161594Y4013738D01*
X-43161592Y4013739D01*
X-43002836Y4129080D01*
X-42864080Y4267836D01*
X-42748739Y4426592D01*
X-42659651Y4601436D01*
X-42659648Y4601442D01*
X-42599012Y4788061D01*
X-42589994Y4845000D01*
X-42568313Y4981884D01*
X-42568313Y5178116D01*
X-42599011Y5371933D01*
X-42599011Y5371934D01*
X-42599012Y5371938D01*
X-42630677Y5469393D01*
X-42632704Y5540361D01*
X-42596042Y5601159D01*
X-42532329Y5632484D01*
X-42461796Y5624390D01*
X-42421749Y5597424D01*
X-41631089Y4806764D01*
X-41548236Y4723911D01*
X-41491894Y4691382D01*
X-41482993Y4686243D01*
X-41482992Y4686242D01*
X-41446768Y4665328D01*
X-41446765Y4665327D01*
X-41446764Y4665326D01*
X-41446762Y4665325D01*
X-41446761Y4665325D01*
X-41428753Y4660500D01*
X-41333586Y4635000D01*
X-41333585Y4635000D01*
X-39984663Y4635000D01*
X-39916542Y4614998D01*
X-39872397Y4566204D01*
X-39801262Y4426594D01*
X-39801260Y4426591D01*
X-39685919Y4267836D01*
X-39547163Y4129080D01*
X-39440090Y4051288D01*
X-39388406Y4013738D01*
X-39213562Y3924650D01*
X-39213559Y3924649D01*
X-39209151Y3922403D01*
X-39210232Y3920280D01*
X-39162578Y3881935D01*
X-39140109Y3814588D01*
X-39157617Y3745784D01*
X-39209198Y3697690D01*
X-39209151Y3697597D01*
X-39209475Y3697431D01*
X-39209544Y3697368D01*
X-39210087Y3697119D01*
X-39213553Y3695352D01*
X-39213562Y3695350D01*
X-39388406Y3606262D01*
X-39547162Y3490920D01*
X-39685920Y3352162D01*
X-39801262Y3193406D01*
X-39890350Y3018562D01*
X-39950989Y2831933D01*
X-39981687Y2638116D01*
X-39981687Y2441884D01*
X-39950989Y2248067D01*
X-39890350Y2061438D01*
X-39801262Y1886594D01*
X-39753218Y1820467D01*
X-39685919Y1727836D01*
X-39547163Y1589080D01*
X-39438928Y1510444D01*
X-39388406Y1473738D01*
X-39213562Y1384650D01*
X-39213559Y1384649D01*
X-39213557Y1384648D01*
X-39026936Y1324012D01*
X-39026940Y1324012D01*
X-38990852Y1318296D01*
X-38833116Y1293313D01*
X-38833113Y1293313D01*
X-38636887Y1293313D01*
X-38636884Y1293313D01*
X-38443067Y1324011D01*
X-38443066Y1324011D01*
X-38443061Y1324012D01*
X-38256442Y1384648D01*
X-38256436Y1384651D01*
X-38081592Y1473739D01*
X-37922836Y1589080D01*
X-37784080Y1727836D01*
X-37668739Y1886592D01*
X-37579651Y2061436D01*
X-37579648Y2061442D01*
X-37519012Y2248060D01*
X-37504708Y2338373D01*
X-37504707Y2338373D01*
X-37493823Y2407093D01*
X-37488313Y2441884D01*
X-37488313Y2638116D01*
X-37512211Y2789000D01*
X-32497516Y2789000D01*
X-31616330Y2789000D01*
X-31640075Y2765255D01*
X-31689444Y2679745D01*
X-31715000Y2584370D01*
X-31715000Y2485630D01*
X-31689444Y2390255D01*
X-31640075Y2304745D01*
X-31616330Y2281000D01*
X-32497516Y2281000D01*
X-32493870Y2257977D01*
X-32436329Y2080887D01*
X-32351789Y1914969D01*
X-32242339Y1764324D01*
X-32242337Y1764321D01*
X-32110678Y1632662D01*
X-32110675Y1632660D01*
X-31960030Y1523210D01*
X-31794112Y1438670D01*
X-31617023Y1381130D01*
X-31433101Y1352000D01*
X-31369000Y1352000D01*
X-31369000Y2160000D01*
X-30861000Y2160000D01*
X-30861000Y1352000D01*
X-30796899Y1352000D01*
X-30612976Y1381130D01*
X-30435887Y1438670D01*
X-30269969Y1523210D01*
X-30119324Y1632660D01*
X-30119321Y1632662D01*
X-29987662Y1764321D01*
X-29987660Y1764324D01*
X-29878210Y1914969D01*
X-29793670Y2080887D01*
X-29768337Y2158856D01*
X-26693500Y2158856D01*
X-26693500Y2029142D01*
X-26668194Y1901922D01*
X-26618555Y1782082D01*
X-26562062Y1697535D01*
X-26546490Y1674230D01*
X-26546485Y1674224D01*
X-26454774Y1582513D01*
X-26454769Y1582509D01*
X-26346917Y1510444D01*
X-26286696Y1485500D01*
X-26227080Y1460806D01*
X-26227077Y1460805D01*
X-26099860Y1435499D01*
X-26099857Y1435499D01*
X-26058015Y1435499D01*
X-25989894Y1415497D01*
X-25968920Y1398594D01*
X-25542589Y972263D01*
X-25477643Y907317D01*
X-25459737Y889411D01*
X-25459732Y889407D01*
X-25358268Y830827D01*
X-25358266Y830826D01*
X-25358264Y830825D01*
X-25301674Y815662D01*
X-25301673Y815661D01*
X-25301672Y815661D01*
X-25245089Y800499D01*
X-25245086Y800499D01*
X-13271914Y800499D01*
X-13215325Y815662D01*
X-13215324Y815661D01*
X-13158744Y830822D01*
X-13158732Y830827D01*
X-13057268Y889407D01*
X-13057258Y889415D01*
X-12974412Y972262D01*
X-12974412Y972263D01*
X-12455486Y1491188D01*
X-12393174Y1525213D01*
X-12341811Y1525670D01*
X-12265260Y1510444D01*
X-12139861Y1485500D01*
X-12139859Y1485500D01*
X-11932138Y1485500D01*
X-11728413Y1526024D01*
X-11728408Y1526026D01*
X-11536507Y1605514D01*
X-11363796Y1720916D01*
X-11363790Y1720921D01*
X-11216921Y1867790D01*
X-11216916Y1867796D01*
X-11101514Y2040507D01*
X-11022026Y2232408D01*
X-11022024Y2232413D01*
X-10981500Y2436138D01*
X-10981500Y2643859D01*
X-10550500Y2643859D01*
X-10550500Y2436141D01*
X-10509976Y2232414D01*
X-10430486Y2040507D01*
X-10327642Y1886592D01*
X-10315083Y1867796D01*
X-10315078Y1867790D01*
X-10168209Y1720921D01*
X-10168203Y1720916D01*
X-10122681Y1690499D01*
X-9995493Y1605514D01*
X-9831690Y1537665D01*
X-9803591Y1526026D01*
X-9803586Y1526024D01*
X-9599861Y1485500D01*
X-9599859Y1485500D01*
X-9392138Y1485500D01*
X-9188413Y1526024D01*
X-9188408Y1526026D01*
X-8996507Y1605514D01*
X-8823796Y1720916D01*
X-8823790Y1720921D01*
X-8676921Y1867790D01*
X-8676916Y1867796D01*
X-8561514Y2040507D01*
X-8482026Y2232408D01*
X-8482024Y2232413D01*
X-8441500Y2436138D01*
X-8441500Y2643861D01*
X-8482024Y2847586D01*
X-8482026Y2847591D01*
X-8528380Y2959500D01*
X-8561514Y3039493D01*
X-8648188Y3169208D01*
X-8676916Y3212203D01*
X-8676921Y3212209D01*
X-8823790Y3359078D01*
X-8823796Y3359083D01*
X-8996507Y3474486D01*
X-9188414Y3553976D01*
X-9392141Y3594500D01*
X-9599859Y3594500D01*
X-9803586Y3553976D01*
X-9995493Y3474486D01*
X-10168204Y3359083D01*
X-10315083Y3212204D01*
X-10430486Y3039493D01*
X-10509976Y2847586D01*
X-10550500Y2643859D01*
X-10981500Y2643859D01*
X-10981500Y2643861D01*
X-11022024Y2847586D01*
X-11022026Y2847591D01*
X-11068380Y2959500D01*
X-11101514Y3039493D01*
X-11188188Y3169208D01*
X-11216916Y3212203D01*
X-11216921Y3212209D01*
X-11363790Y3359078D01*
X-11363796Y3359083D01*
X-11536507Y3474486D01*
X-11728414Y3553976D01*
X-11932141Y3594500D01*
X-12139859Y3594500D01*
X-12343586Y3553976D01*
X-12535493Y3474486D01*
X-12708204Y3359083D01*
X-12855083Y3212204D01*
X-12970486Y3039493D01*
X-13049976Y2847586D01*
X-13090500Y2643859D01*
X-13090500Y2436141D01*
X-13050328Y2234185D01*
X-13056656Y2163475D01*
X-13084809Y2120514D01*
X-13384858Y1820467D01*
X-13477922Y1727403D01*
X-13540234Y1693378D01*
X-13567017Y1690499D01*
X-20293110Y1690499D01*
X-20361231Y1710501D01*
X-20407724Y1764157D01*
X-20417828Y1834431D01*
X-20405377Y1873702D01*
X-20331493Y2018707D01*
X-20331490Y2018713D01*
X-20265440Y2221995D01*
X-20255302Y2286000D01*
X-21159297Y2286000D01*
X-21124075Y2347007D01*
X-21090000Y2474174D01*
X-21090000Y2605826D01*
X-21124075Y2732993D01*
X-21159297Y2794000D01*
X-20255302Y2794000D01*
X-20265440Y2858004D01*
X-20331490Y3061286D01*
X-20331493Y3061292D01*
X-20428536Y3251750D01*
X-20554177Y3424679D01*
X-20705320Y3575822D01*
X-20878256Y3701468D01*
X-20880052Y3702569D01*
X-20880591Y3703164D01*
X-20882258Y3704376D01*
X-20882003Y3704726D01*
X-20927682Y3755217D01*
X-20939288Y3825259D01*
X-20911183Y3890456D01*
X-20882211Y3915559D01*
X-20882258Y3915624D01*
X-20881511Y3916166D01*
X-20880052Y3917431D01*
X-20878256Y3918531D01*
X-20705320Y4044177D01*
X-20554181Y4195316D01*
X-20476145Y4302723D01*
X-20476143Y4302724D01*
X-20428536Y4368249D01*
X-20331493Y4558707D01*
X-20331490Y4558713D01*
X-20265440Y4761995D01*
X-20255302Y4826000D01*
X-21159297Y4826000D01*
X-21124075Y4887007D01*
X-21090000Y5014174D01*
X-21090000Y5145826D01*
X-21124075Y5272993D01*
X-21159297Y5334000D01*
X-20255302Y5334000D01*
X-20265440Y5398004D01*
X-20331490Y5601286D01*
X-20331493Y5601292D01*
X-20416356Y5767846D01*
X-20416356Y5767847D01*
X-20428534Y5791747D01*
X-20448232Y5818859D01*
X-13021500Y5818859D01*
X-13021500Y5611141D01*
X-12980976Y5407414D01*
X-12901486Y5215507D01*
X-12786083Y5042796D01*
X-12786078Y5042790D01*
X-12639209Y4895921D01*
X-12639203Y4895916D01*
X-12581895Y4857623D01*
X-12466493Y4780514D01*
X-12332119Y4724855D01*
X-12274591Y4701026D01*
X-12274586Y4701024D01*
X-12070861Y4660500D01*
X-12070859Y4660500D01*
X-11863138Y4660500D01*
X-11659413Y4701024D01*
X-11659408Y4701026D01*
X-11467507Y4780514D01*
X-11294796Y4895916D01*
X-11294790Y4895921D01*
X-11147921Y5042790D01*
X-11147916Y5042796D01*
X-11032514Y5215507D01*
X-10953026Y5407408D01*
X-10953024Y5407413D01*
X-10912500Y5611138D01*
X-10912500Y5818859D01*
X-10481500Y5818859D01*
X-10481500Y5611141D01*
X-10440976Y5407414D01*
X-10361486Y5215507D01*
X-10246083Y5042796D01*
X-10246078Y5042790D01*
X-10099209Y4895921D01*
X-10099203Y4895916D01*
X-10041895Y4857623D01*
X-9926493Y4780514D01*
X-9792119Y4724855D01*
X-9734591Y4701026D01*
X-9734586Y4701024D01*
X-9530861Y4660500D01*
X-9530859Y4660500D01*
X-9323138Y4660500D01*
X-9119413Y4701024D01*
X-9119408Y4701026D01*
X-8927507Y4780514D01*
X-8754796Y4895916D01*
X-8754790Y4895921D01*
X-8607921Y5042790D01*
X-8607916Y5042796D01*
X-8492514Y5215507D01*
X-8413026Y5407408D01*
X-8413024Y5407413D01*
X-8378424Y5581359D01*
X-7722000Y5581359D01*
X-7722000Y5373641D01*
X-7681476Y5169914D01*
X-7601986Y4978007D01*
X-7490519Y4811187D01*
X-7486583Y4805296D01*
X-7486578Y4805290D01*
X-7339709Y4658421D01*
X-7339703Y4658416D01*
X-7295471Y4628861D01*
X-7166993Y4543014D01*
X-7003190Y4475165D01*
X-6975091Y4463526D01*
X-6975086Y4463524D01*
X-6771361Y4423000D01*
X-6771359Y4423000D01*
X-6563638Y4423000D01*
X-6359913Y4463524D01*
X-6359908Y4463526D01*
X-6168007Y4543014D01*
X-5995296Y4658416D01*
X-5995290Y4658421D01*
X-5954711Y4699000D01*
X-5094074Y4699000D01*
X-4121686Y4699000D01*
X-4130080Y4690606D01*
X-4182741Y4599394D01*
X-4210000Y4497661D01*
X-4210000Y4392339D01*
X-4182741Y4290606D01*
X-4130080Y4199394D01*
X-4121686Y4191000D01*
X-5094074Y4191000D01*
X-5085791Y4138704D01*
X-5022173Y3942906D01*
X-5022170Y3942900D01*
X-4928699Y3759454D01*
X-4807684Y3592892D01*
X-4807682Y3592889D01*
X-4662110Y3447317D01*
X-4662107Y3447315D01*
X-4495545Y3326300D01*
X-4312099Y3232829D01*
X-4312093Y3232826D01*
X-4116294Y3169208D01*
X-4116288Y3169206D01*
X-4113552Y3168773D01*
X-4112597Y3168320D01*
X-4111483Y3168053D01*
X-4111539Y3167818D01*
X-4049399Y3138360D01*
X-4011874Y3078091D01*
X-4012889Y3007102D01*
X-4052123Y2947930D01*
X-4108684Y2920746D01*
X-4117586Y2918976D01*
X-4309493Y2839486D01*
X-4482204Y2724083D01*
X-4629083Y2577204D01*
X-4744486Y2404493D01*
X-4823976Y2212586D01*
X-4864500Y2008859D01*
X-4864500Y1801141D01*
X-4823976Y1597414D01*
X-4744486Y1405507D01*
X-4629083Y1232796D01*
X-4629078Y1232790D01*
X-4482209Y1085921D01*
X-4482204Y1085917D01*
X-4309493Y970514D01*
X-4156921Y907317D01*
X-4117591Y891026D01*
X-4117586Y891024D01*
X-3913861Y850500D01*
X-3913859Y850500D01*
X-3706138Y850500D01*
X-3502413Y891024D01*
X-3502408Y891026D01*
X-3310507Y970514D01*
X-3137796Y1085916D01*
X-3137790Y1085921D01*
X-2990921Y1232790D01*
X-2990916Y1232796D01*
X-2875514Y1405507D01*
X-2796026Y1597408D01*
X-2796024Y1597413D01*
X-2772984Y1713243D01*
X-2755500Y1801138D01*
X-2755500Y2008861D01*
X-2772984Y2096757D01*
X-2785365Y2159000D01*
X2525926Y2159000D01*
X3498314Y2159000D01*
X3489920Y2150606D01*
X3437259Y2059394D01*
X3410000Y1957661D01*
X3410000Y1852339D01*
X3437259Y1750606D01*
X3489920Y1659394D01*
X3498314Y1651000D01*
X2525926Y1651000D01*
X2534208Y1598704D01*
X2597826Y1402906D01*
X2597829Y1402900D01*
X2691300Y1219454D01*
X2812315Y1052892D01*
X2812317Y1052889D01*
X2957889Y907317D01*
X2957892Y907315D01*
X3124454Y786300D01*
X3307900Y692829D01*
X3307906Y692826D01*
X3503705Y629208D01*
X3503703Y629208D01*
X3556000Y620925D01*
X3556000Y1593314D01*
X3564394Y1584920D01*
X3655606Y1532259D01*
X3757339Y1505000D01*
X3862661Y1505000D01*
X3964394Y1532259D01*
X4055606Y1584920D01*
X4064000Y1593314D01*
X4064000Y620925D01*
X4116295Y629208D01*
X4312093Y692826D01*
X4312099Y692829D01*
X4495545Y786300D01*
X4662107Y907315D01*
X4662110Y907317D01*
X4807682Y1052889D01*
X4807684Y1052892D01*
X4928699Y1219454D01*
X5022170Y1402900D01*
X5022173Y1402906D01*
X5085791Y1598704D01*
X5094074Y1651000D01*
X4121686Y1651000D01*
X4130080Y1659394D01*
X4182741Y1750606D01*
X4210000Y1852339D01*
X4210000Y1957661D01*
X4182741Y2059394D01*
X4130080Y2150606D01*
X4121686Y2159000D01*
X5094074Y2159000D01*
X5085791Y2211295D01*
X5022173Y2407093D01*
X5022170Y2407099D01*
X4928701Y2590543D01*
X4889963Y2643861D01*
X8470500Y2643861D01*
X8470500Y2436138D01*
X8511024Y2232413D01*
X8511026Y2232408D01*
X8590514Y2040507D01*
X8705916Y1867796D01*
X8705921Y1867790D01*
X8852790Y1720921D01*
X8852796Y1720916D01*
X9025507Y1605514D01*
X9217408Y1526026D01*
X9217413Y1526024D01*
X9421138Y1485500D01*
X9421141Y1485500D01*
X9628861Y1485500D01*
X9832586Y1526024D01*
X9832591Y1526026D01*
X9860690Y1537665D01*
X10024493Y1605514D01*
X10151681Y1690499D01*
X10197203Y1720916D01*
X10197209Y1720921D01*
X10344078Y1867790D01*
X10344083Y1867796D01*
X10356642Y1886592D01*
X10459486Y2040507D01*
X10538976Y2232414D01*
X10579500Y2436141D01*
X10579500Y2643859D01*
X10579500Y2643861D01*
X11010500Y2643861D01*
X11010500Y2436138D01*
X11051024Y2232413D01*
X11051026Y2232408D01*
X11130514Y2040507D01*
X11245916Y1867796D01*
X11245921Y1867790D01*
X11392790Y1720921D01*
X11392796Y1720916D01*
X11565507Y1605514D01*
X11757408Y1526026D01*
X11757413Y1526024D01*
X11961138Y1485500D01*
X11961141Y1485500D01*
X12168861Y1485500D01*
X12294260Y1510444D01*
X12370810Y1525670D01*
X12441523Y1519343D01*
X12484486Y1491188D01*
X12978912Y996763D01*
X12978912Y996762D01*
X13086258Y889415D01*
X13086268Y889407D01*
X13187733Y830826D01*
X13187736Y830825D01*
X13187738Y830824D01*
X13300915Y800499D01*
X13300916Y800499D01*
X24927589Y800499D01*
X24984172Y815661D01*
X24984173Y815661D01*
X24984174Y815662D01*
X25040764Y830825D01*
X25040766Y830826D01*
X25040768Y830827D01*
X25142232Y889407D01*
X25142237Y889411D01*
X25160143Y907317D01*
X25225089Y972263D01*
X25651420Y1398594D01*
X25713732Y1432620D01*
X25740515Y1435499D01*
X25782360Y1435499D01*
X25909577Y1460805D01*
X25909580Y1460806D01*
X25969196Y1485500D01*
X26029417Y1510444D01*
X26137269Y1582509D01*
X26137274Y1582513D01*
X26228985Y1674224D01*
X26228990Y1674230D01*
X26244562Y1697535D01*
X26301055Y1782082D01*
X26350694Y1901922D01*
X26376000Y2029142D01*
X26376000Y2158856D01*
X26350694Y2286076D01*
X26301055Y2405916D01*
X26228990Y2513768D01*
X26137269Y2605489D01*
X26029417Y2677554D01*
X25909577Y2727193D01*
X25782357Y2752499D01*
X25652643Y2752499D01*
X25525423Y2727193D01*
X25405583Y2677554D01*
X25405582Y2677553D01*
X25400126Y2674637D01*
X25399297Y2676187D01*
X25339522Y2657473D01*
X25271055Y2676259D01*
X25223615Y2729078D01*
X25212830Y2763738D01*
X25208829Y2789000D01*
X29732484Y2789000D01*
X30613670Y2789000D01*
X30589925Y2765255D01*
X30540556Y2679745D01*
X30515000Y2584370D01*
X30515000Y2485630D01*
X30540556Y2390255D01*
X30589925Y2304745D01*
X30613670Y2281000D01*
X29732484Y2281000D01*
X29736129Y2257977D01*
X29793670Y2080887D01*
X29878210Y1914969D01*
X29987660Y1764324D01*
X29987662Y1764321D01*
X30119321Y1632662D01*
X30119324Y1632660D01*
X30269969Y1523210D01*
X30435887Y1438670D01*
X30612976Y1381130D01*
X30796899Y1352000D01*
X30861000Y1352000D01*
X30861000Y2160000D01*
X31369000Y2160000D01*
X31369000Y1352000D01*
X31433101Y1352000D01*
X31617023Y1381130D01*
X31794112Y1438670D01*
X31960030Y1523210D01*
X32110675Y1632660D01*
X32110678Y1632662D01*
X32242337Y1764321D01*
X32242339Y1764324D01*
X32351789Y1914969D01*
X32436329Y2080887D01*
X32493870Y2257977D01*
X32497516Y2281000D01*
X31616330Y2281000D01*
X31640075Y2304745D01*
X31689444Y2390255D01*
X31715000Y2485630D01*
X31715000Y2584370D01*
X31689444Y2679745D01*
X31640075Y2765255D01*
X31616330Y2789000D01*
X32497516Y2789000D01*
X32493870Y2812022D01*
X32436329Y2989112D01*
X32351789Y3155030D01*
X32242339Y3305675D01*
X32242337Y3305678D01*
X32110678Y3437337D01*
X32110675Y3437339D01*
X31960030Y3546789D01*
X31794112Y3631329D01*
X31617022Y3688870D01*
X31492400Y3708608D01*
X31428246Y3739020D01*
X31390719Y3799288D01*
X31391733Y3870278D01*
X31430965Y3929450D01*
X31487525Y3956634D01*
X31611125Y3981221D01*
X31611128Y3981222D01*
X31673611Y4007103D01*
X31780283Y4051288D01*
X31909179Y4137414D01*
X31932520Y4153010D01*
X31932526Y4153015D01*
X32061984Y4282473D01*
X32061989Y4282479D01*
X32101186Y4341141D01*
X32163712Y4434717D01*
X32233779Y4603875D01*
X32269500Y4783452D01*
X32269500Y4966548D01*
X32233779Y5146125D01*
X32163712Y5315283D01*
X32061989Y5467521D01*
X31932521Y5596989D01*
X31780283Y5698712D01*
X31611125Y5768779D01*
X31431548Y5804500D01*
X30798452Y5804500D01*
X30618875Y5768779D01*
X30449717Y5698712D01*
X30303919Y5601292D01*
X30297479Y5596989D01*
X30297473Y5596984D01*
X30168015Y5467526D01*
X30168010Y5467520D01*
X30162299Y5458973D01*
X30066288Y5315283D01*
X30024960Y5215507D01*
X30017381Y5197209D01*
X29996221Y5146125D01*
X29960500Y4966548D01*
X29960500Y4783452D01*
X29975551Y4707789D01*
X29996221Y4603874D01*
X29996222Y4603871D01*
X30066288Y4434717D01*
X30168010Y4282479D01*
X30168015Y4282473D01*
X30297473Y4153015D01*
X30297479Y4153010D01*
X30449717Y4051288D01*
X30618871Y3981222D01*
X30618874Y3981221D01*
X30659794Y3973081D01*
X30742472Y3956635D01*
X30805380Y3923728D01*
X30840512Y3862033D01*
X30836712Y3791138D01*
X30795186Y3733552D01*
X30737600Y3708608D01*
X30612976Y3688869D01*
X30435887Y3631329D01*
X30269969Y3546789D01*
X30119324Y3437339D01*
X30119321Y3437337D01*
X29987662Y3305678D01*
X29987660Y3305675D01*
X29878210Y3155030D01*
X29793670Y2989112D01*
X29736129Y2812022D01*
X29732484Y2789000D01*
X25208829Y2789000D01*
X25207303Y2798638D01*
X25153580Y2963981D01*
X25074653Y3118884D01*
X24972465Y3259533D01*
X24849533Y3382465D01*
X24708884Y3484653D01*
X24553981Y3563580D01*
X24388638Y3617303D01*
X24216926Y3644500D01*
X24043074Y3644500D01*
X23871362Y3617303D01*
X23706019Y3563580D01*
X23551116Y3484653D01*
X23551112Y3484650D01*
X23410464Y3382463D01*
X23287536Y3259535D01*
X23185349Y3118887D01*
X23185347Y3118884D01*
X23128392Y3007102D01*
X23106341Y2963825D01*
X23057593Y2912210D01*
X22988678Y2895144D01*
X22921476Y2918045D01*
X22877324Y2973642D01*
X22874241Y2982092D01*
X22848509Y3061286D01*
X22848506Y3061292D01*
X22751463Y3251750D01*
X22625822Y3424679D01*
X22474679Y3575822D01*
X22301748Y3701465D01*
X22299955Y3702564D01*
X22299415Y3703159D01*
X22297742Y3704376D01*
X22297997Y3704727D01*
X22252321Y3755209D01*
X22240710Y3825250D01*
X22268810Y3890449D01*
X22297789Y3915559D01*
X22297742Y3915624D01*
X22298496Y3916172D01*
X22299955Y3917436D01*
X22301748Y3918534D01*
X22474679Y4044177D01*
X22625822Y4195320D01*
X22751463Y4368249D01*
X22848506Y4558707D01*
X22848507Y4558709D01*
X22874241Y4637908D01*
X22914315Y4696513D01*
X22979711Y4724150D01*
X23049668Y4712043D01*
X23101974Y4664037D01*
X23106341Y4656174D01*
X23185348Y4501113D01*
X23287536Y4360464D01*
X23410464Y4237536D01*
X23551112Y4135349D01*
X23706017Y4056421D01*
X23706023Y4056418D01*
X23871357Y4002698D01*
X23871360Y4002697D01*
X23871362Y4002697D01*
X24043074Y3975500D01*
X24043077Y3975500D01*
X24216923Y3975500D01*
X24216926Y3975500D01*
X24388638Y4002697D01*
X24388640Y4002697D01*
X24388642Y4002698D01*
X24553976Y4056418D01*
X24553978Y4056419D01*
X24553981Y4056420D01*
X24708884Y4135347D01*
X24711729Y4137414D01*
X24849535Y4237536D01*
X24972463Y4360464D01*
X25074650Y4501112D01*
X25074651Y4501113D01*
X25074653Y4501116D01*
X25153580Y4656019D01*
X25207303Y4821362D01*
X25234500Y4993074D01*
X25234500Y5166926D01*
X25207303Y5338638D01*
X25153580Y5503981D01*
X25074653Y5658884D01*
X24972465Y5799533D01*
X24849533Y5922465D01*
X24708884Y6024653D01*
X24553981Y6103580D01*
X24388638Y6157303D01*
X24216926Y6184500D01*
X24043074Y6184500D01*
X23871362Y6157303D01*
X23706019Y6103580D01*
X23551116Y6024653D01*
X23551112Y6024650D01*
X23410464Y5922463D01*
X23287536Y5799535D01*
X23214284Y5698712D01*
X23185347Y5658884D01*
X23124250Y5538973D01*
X23106341Y5503825D01*
X23057593Y5452210D01*
X22988678Y5435144D01*
X22921476Y5458045D01*
X22877324Y5513642D01*
X22874241Y5522092D01*
X22848509Y5601286D01*
X22848506Y5601292D01*
X22751463Y5791750D01*
X22625822Y5964679D01*
X22474679Y6115822D01*
X22301748Y6241465D01*
X22299955Y6242564D01*
X22299415Y6243159D01*
X22297742Y6244376D01*
X22297997Y6244727D01*
X22252321Y6295209D01*
X22240710Y6365250D01*
X22268810Y6430449D01*
X22297789Y6455559D01*
X22297742Y6455624D01*
X22298496Y6456172D01*
X22299955Y6457436D01*
X22301748Y6458534D01*
X22474679Y6584177D01*
X22625822Y6735320D01*
X22751463Y6908249D01*
X22848506Y7098707D01*
X22848507Y7098709D01*
X22874241Y7177908D01*
X22914315Y7236513D01*
X22979711Y7264150D01*
X23049668Y7252043D01*
X23101974Y7204037D01*
X23106341Y7196174D01*
X23185348Y7041113D01*
X23287536Y6900464D01*
X23410464Y6777536D01*
X23551112Y6675349D01*
X23706017Y6596421D01*
X23706023Y6596418D01*
X23871357Y6542698D01*
X23871360Y6542697D01*
X23871362Y6542697D01*
X24043074Y6515500D01*
X24043077Y6515500D01*
X24216923Y6515500D01*
X24216926Y6515500D01*
X24388638Y6542697D01*
X24388640Y6542697D01*
X24388642Y6542698D01*
X24553976Y6596418D01*
X24553978Y6596419D01*
X24553981Y6596420D01*
X24708884Y6675347D01*
X24711729Y6677414D01*
X24849535Y6777536D01*
X24972463Y6900464D01*
X25074650Y7041112D01*
X25074651Y7041113D01*
X25074653Y7041116D01*
X25153580Y7196019D01*
X25207303Y7361362D01*
X25234500Y7533074D01*
X25234500Y7706926D01*
X25232728Y7718116D01*
X37488313Y7718116D01*
X37488313Y7521884D01*
X37513003Y7366000D01*
X37519012Y7328061D01*
X37579648Y7141442D01*
X37579651Y7141436D01*
X37668739Y6966592D01*
X37784080Y6807836D01*
X37922836Y6669080D01*
X38081592Y6553739D01*
X38081594Y6553738D01*
X38256438Y6464650D01*
X38256440Y6464649D01*
X38260849Y6462403D01*
X38259780Y6460306D01*
X38307499Y6421823D01*
X38329895Y6354452D01*
X38312313Y6285667D01*
X38260783Y6237725D01*
X38260849Y6237597D01*
X38260397Y6237366D01*
X38260333Y6237307D01*
X38259820Y6237072D01*
X38256444Y6235352D01*
X38256438Y6235350D01*
X38081594Y6146262D01*
X38039697Y6115822D01*
X37922836Y6030919D01*
X37784080Y5892163D01*
X37719845Y5803750D01*
X37668738Y5733406D01*
X37581354Y5561905D01*
X37579651Y5558563D01*
X37579648Y5558557D01*
X37519012Y5371938D01*
X37519011Y5371934D01*
X37519011Y5371933D01*
X37488313Y5178116D01*
X37488313Y4981884D01*
X37509994Y4845000D01*
X37519012Y4788061D01*
X37579648Y4601442D01*
X37579651Y4601436D01*
X37668739Y4426592D01*
X37784080Y4267836D01*
X37922836Y4129080D01*
X38081592Y4013739D01*
X38081594Y4013738D01*
X38256438Y3924650D01*
X38256440Y3924649D01*
X38260849Y3922403D01*
X38259780Y3920306D01*
X38307499Y3881823D01*
X38329895Y3814452D01*
X38312313Y3745667D01*
X38260783Y3697725D01*
X38260849Y3697597D01*
X38260397Y3697366D01*
X38260333Y3697307D01*
X38259820Y3697072D01*
X38256444Y3695352D01*
X38256438Y3695350D01*
X38081594Y3606262D01*
X38022848Y3563581D01*
X37922836Y3490919D01*
X37784080Y3352163D01*
X37719845Y3263749D01*
X37668738Y3193406D01*
X37582268Y3023699D01*
X37579651Y3018563D01*
X37579648Y3018557D01*
X37519012Y2831938D01*
X37519011Y2831934D01*
X37519011Y2831933D01*
X37488313Y2638116D01*
X37488313Y2441884D01*
X37512991Y2286076D01*
X37519012Y2248061D01*
X37579648Y2061442D01*
X37579651Y2061436D01*
X37668739Y1886592D01*
X37784080Y1727836D01*
X37922836Y1589080D01*
X38081592Y1473739D01*
X38256436Y1384651D01*
X38256442Y1384648D01*
X38443063Y1324012D01*
X38443059Y1324012D01*
X38512806Y1312965D01*
X38636884Y1293313D01*
X38636887Y1293313D01*
X38833113Y1293313D01*
X38833116Y1293313D01*
X39026933Y1324011D01*
X39026934Y1324011D01*
X39026938Y1324012D01*
X39213557Y1384648D01*
X39213559Y1384649D01*
X39213562Y1384650D01*
X39388406Y1473738D01*
X39438928Y1510444D01*
X39547163Y1589080D01*
X39685919Y1727836D01*
X39753218Y1820467D01*
X39801262Y1886594D01*
X39890350Y2061438D01*
X39950989Y2248067D01*
X39981687Y2441884D01*
X39981687Y2638116D01*
X39950989Y2831933D01*
X39890350Y3018562D01*
X39801262Y3193406D01*
X39685920Y3352162D01*
X39547162Y3490920D01*
X39388406Y3606262D01*
X39213562Y3695350D01*
X39213559Y3695350D01*
X39209151Y3697597D01*
X39210232Y3699719D01*
X39162578Y3738065D01*
X39140109Y3805412D01*
X39157617Y3874216D01*
X39209198Y3922309D01*
X39209151Y3922403D01*
X39209475Y3922568D01*
X39209544Y3922632D01*
X39210087Y3922880D01*
X39213558Y3924648D01*
X39213562Y3924650D01*
X39388406Y4013738D01*
X39440090Y4051288D01*
X39547163Y4129080D01*
X39685919Y4267836D01*
X39797300Y4421141D01*
X39801262Y4426594D01*
X39890350Y4601438D01*
X39950989Y4788067D01*
X39981687Y4981884D01*
X39981687Y5178116D01*
X39950989Y5371933D01*
X39890350Y5558562D01*
X39801262Y5733406D01*
X39685920Y5892162D01*
X39547162Y6030920D01*
X39388406Y6146262D01*
X39213562Y6235350D01*
X39213559Y6235350D01*
X39209151Y6237597D01*
X39210232Y6239719D01*
X39162578Y6278065D01*
X39140109Y6345412D01*
X39157617Y6414216D01*
X39209198Y6462309D01*
X39209151Y6462403D01*
X39209475Y6462568D01*
X39209544Y6462632D01*
X39210087Y6462880D01*
X39213558Y6464648D01*
X39213562Y6464650D01*
X39388406Y6553738D01*
X39431821Y6585280D01*
X39547163Y6669080D01*
X39685919Y6807836D01*
X39801260Y6966591D01*
X39801262Y6966594D01*
X39872397Y7106204D01*
X39921144Y7157818D01*
X39984663Y7175000D01*
X41038485Y7175000D01*
X41106606Y7154998D01*
X41127575Y7138099D01*
X42288681Y5976993D01*
X42616692Y5648982D01*
X42650717Y5586670D01*
X42647429Y5520951D01*
X42599012Y5371938D01*
X42599011Y5371934D01*
X42599011Y5371933D01*
X42568313Y5178116D01*
X42568313Y4981884D01*
X42589994Y4845000D01*
X42599012Y4788061D01*
X42659648Y4601442D01*
X42659651Y4601436D01*
X42748739Y4426592D01*
X42864080Y4267836D01*
X43002836Y4129080D01*
X43161592Y4013739D01*
X43161594Y4013738D01*
X43336438Y3924650D01*
X43336440Y3924649D01*
X43340849Y3922403D01*
X43339780Y3920306D01*
X43387499Y3881823D01*
X43409895Y3814452D01*
X43392313Y3745667D01*
X43340783Y3697725D01*
X43340849Y3697597D01*
X43340397Y3697366D01*
X43340333Y3697307D01*
X43339820Y3697072D01*
X43336444Y3695352D01*
X43336438Y3695350D01*
X43161594Y3606262D01*
X43102848Y3563581D01*
X43002836Y3490919D01*
X42864080Y3352163D01*
X42799845Y3263749D01*
X42748738Y3193406D01*
X42662268Y3023699D01*
X42659651Y3018563D01*
X42659648Y3018557D01*
X42599012Y2831938D01*
X42599011Y2831934D01*
X42599011Y2831933D01*
X42568313Y2638116D01*
X42568313Y2441884D01*
X42592991Y2286076D01*
X42599012Y2248061D01*
X42659648Y2061442D01*
X42659651Y2061436D01*
X42748739Y1886592D01*
X42864080Y1727836D01*
X43002836Y1589080D01*
X43161592Y1473739D01*
X43336436Y1384651D01*
X43336442Y1384648D01*
X43523063Y1324012D01*
X43523059Y1324012D01*
X43592806Y1312965D01*
X43716884Y1293313D01*
X43716887Y1293313D01*
X43913113Y1293313D01*
X43913116Y1293313D01*
X44106933Y1324011D01*
X44106934Y1324011D01*
X44106938Y1324012D01*
X44293557Y1384648D01*
X44293559Y1384649D01*
X44293562Y1384650D01*
X44468406Y1473738D01*
X44518928Y1510444D01*
X44627163Y1589080D01*
X44765919Y1727836D01*
X44833218Y1820467D01*
X44881262Y1886594D01*
X44970350Y2061438D01*
X45030989Y2248067D01*
X45061687Y2441884D01*
X45061687Y2638116D01*
X45030989Y2831933D01*
X44970350Y3018562D01*
X44881262Y3193406D01*
X44765920Y3352162D01*
X44627162Y3490920D01*
X44468406Y3606262D01*
X44293562Y3695350D01*
X44293559Y3695350D01*
X44289151Y3697597D01*
X44290232Y3699719D01*
X44242578Y3738065D01*
X44220109Y3805412D01*
X44237617Y3874216D01*
X44289198Y3922309D01*
X44289151Y3922403D01*
X44289475Y3922568D01*
X44289544Y3922632D01*
X44290087Y3922880D01*
X44293558Y3924648D01*
X44293562Y3924650D01*
X44468406Y4013738D01*
X44520090Y4051288D01*
X44627163Y4129080D01*
X44765919Y4267836D01*
X44877300Y4421141D01*
X44881262Y4426594D01*
X44970350Y4601438D01*
X45030989Y4788067D01*
X45061687Y4981884D01*
X45061687Y5178116D01*
X45030989Y5371933D01*
X44970350Y5558562D01*
X44881262Y5733406D01*
X44765920Y5892162D01*
X44627162Y6030920D01*
X44468406Y6146262D01*
X44293562Y6235350D01*
X44293559Y6235350D01*
X44289151Y6237597D01*
X44290232Y6239719D01*
X44242578Y6278065D01*
X44220109Y6345412D01*
X44237617Y6414216D01*
X44289198Y6462309D01*
X44289151Y6462403D01*
X44289475Y6462568D01*
X44289544Y6462632D01*
X44290087Y6462880D01*
X44293558Y6464648D01*
X44293562Y6464650D01*
X44468406Y6553738D01*
X44511821Y6585280D01*
X44627163Y6669080D01*
X44765919Y6807836D01*
X44838872Y6908249D01*
X44881262Y6966594D01*
X44970350Y7141438D01*
X45030989Y7328067D01*
X45061687Y7521884D01*
X45061687Y7718116D01*
X45030989Y7911933D01*
X44970350Y8098562D01*
X44881262Y8273406D01*
X44765920Y8432162D01*
X44627162Y8570920D01*
X44468406Y8686262D01*
X44293562Y8775350D01*
X44106939Y8835987D01*
X44106938Y8835987D01*
X44106933Y8835989D01*
X43913116Y8866687D01*
X43716884Y8866687D01*
X43523067Y8835989D01*
X43336438Y8775350D01*
X43161594Y8686262D01*
X43119697Y8655822D01*
X43002836Y8570919D01*
X42864080Y8432163D01*
X42796783Y8339535D01*
X42748738Y8273406D01*
X42670574Y8120000D01*
X42659651Y8098563D01*
X42659648Y8098557D01*
X42599012Y7911938D01*
X42599011Y7911934D01*
X42599011Y7911933D01*
X42568313Y7718116D01*
X42568313Y7521884D01*
X42583340Y7427007D01*
X42599012Y7328059D01*
X42599013Y7328058D01*
X42630677Y7230604D01*
X42632704Y7159636D01*
X42596041Y7098839D01*
X42532329Y7067514D01*
X42461795Y7075608D01*
X42421755Y7102568D01*
X41548237Y7976088D01*
X41548236Y7976089D01*
X41446764Y8034674D01*
X41390174Y8049837D01*
X41333586Y8065000D01*
X41333585Y8065000D01*
X39984663Y8065000D01*
X39916542Y8085002D01*
X39872397Y8133795D01*
X39801262Y8273406D01*
X39685920Y8432162D01*
X39547162Y8570920D01*
X39388406Y8686262D01*
X39213562Y8775350D01*
X39026939Y8835987D01*
X39026938Y8835987D01*
X39026933Y8835989D01*
X38833116Y8866687D01*
X38636884Y8866687D01*
X38443067Y8835989D01*
X38256438Y8775350D01*
X38081594Y8686262D01*
X38039697Y8655822D01*
X37922836Y8570919D01*
X37784080Y8432163D01*
X37716783Y8339535D01*
X37668738Y8273406D01*
X37590574Y8120000D01*
X37579651Y8098563D01*
X37579648Y8098557D01*
X37519012Y7911938D01*
X37519011Y7911934D01*
X37519011Y7911933D01*
X37488313Y7718116D01*
X25232728Y7718116D01*
X25207303Y7878638D01*
X25153580Y8043981D01*
X25074653Y8198884D01*
X24972465Y8339533D01*
X24849533Y8462465D01*
X24708884Y8564653D01*
X24553981Y8643580D01*
X24388638Y8697303D01*
X24216926Y8724500D01*
X24043074Y8724500D01*
X23871362Y8697303D01*
X23706019Y8643580D01*
X23551116Y8564653D01*
X23551112Y8564650D01*
X23410464Y8462463D01*
X23287536Y8339535D01*
X23185349Y8198887D01*
X23185347Y8198884D01*
X23127322Y8085002D01*
X23106341Y8043825D01*
X23057593Y7992210D01*
X22988678Y7975144D01*
X22921476Y7998045D01*
X22877324Y8053642D01*
X22874241Y8062092D01*
X22848509Y8141286D01*
X22848506Y8141292D01*
X22751463Y8331750D01*
X22625822Y8504679D01*
X22474679Y8655822D01*
X22301748Y8781465D01*
X22299955Y8782564D01*
X22299415Y8783159D01*
X22297742Y8784376D01*
X22297997Y8784727D01*
X22252321Y8835209D01*
X22240710Y8905250D01*
X22268810Y8970449D01*
X22297789Y8995559D01*
X22297742Y8995624D01*
X22298496Y8996172D01*
X22299955Y8997436D01*
X22301748Y8998534D01*
X22474679Y9124177D01*
X22625822Y9275320D01*
X22751463Y9448249D01*
X22848506Y9638707D01*
X22848507Y9638709D01*
X22874241Y9717908D01*
X22914315Y9776513D01*
X22979711Y9804150D01*
X23049668Y9792043D01*
X23101974Y9744037D01*
X23106341Y9736174D01*
X23185348Y9581113D01*
X23287536Y9440464D01*
X23410464Y9317536D01*
X23551112Y9215349D01*
X23706017Y9136421D01*
X23706023Y9136418D01*
X23871357Y9082698D01*
X23871360Y9082697D01*
X23871362Y9082697D01*
X24043074Y9055500D01*
X24043077Y9055500D01*
X24216923Y9055500D01*
X24216926Y9055500D01*
X24388638Y9082697D01*
X24388640Y9082697D01*
X24388642Y9082698D01*
X24553976Y9136418D01*
X24553978Y9136419D01*
X24553981Y9136420D01*
X24708884Y9215347D01*
X24777678Y9265329D01*
X24849535Y9317536D01*
X24972463Y9440464D01*
X25074650Y9581112D01*
X25074651Y9581113D01*
X25074653Y9581116D01*
X25153580Y9736019D01*
X25207303Y9901362D01*
X25234500Y10073074D01*
X25234500Y10246926D01*
X25207303Y10418638D01*
X25153580Y10583981D01*
X25074653Y10738884D01*
X24972465Y10879533D01*
X24953137Y10898861D01*
X38633000Y10898861D01*
X38633000Y10691138D01*
X38673524Y10487413D01*
X38673526Y10487408D01*
X38753014Y10295507D01*
X38868416Y10122796D01*
X38868421Y10122790D01*
X39015290Y9975921D01*
X39015296Y9975916D01*
X39188007Y9860514D01*
X39379908Y9781026D01*
X39379913Y9781024D01*
X39583638Y9740500D01*
X39583641Y9740500D01*
X39791361Y9740500D01*
X39995086Y9781024D01*
X39995091Y9781026D01*
X40052619Y9804855D01*
X40186993Y9860514D01*
X40302395Y9937623D01*
X40359703Y9975916D01*
X40359709Y9975921D01*
X40506578Y10122790D01*
X40506583Y10122796D01*
X40529718Y10157420D01*
X40621986Y10295507D01*
X40701476Y10487414D01*
X40742000Y10691141D01*
X40742000Y10898859D01*
X40701476Y11102586D01*
X40654349Y11216361D01*
X43078000Y11216361D01*
X43078000Y11008638D01*
X43118524Y10804913D01*
X43118526Y10804908D01*
X43198014Y10613007D01*
X43313416Y10440296D01*
X43313421Y10440290D01*
X43460290Y10293421D01*
X43460296Y10293416D01*
X43633007Y10178014D01*
X43824908Y10098526D01*
X43824913Y10098524D01*
X44028638Y10058000D01*
X44028641Y10058000D01*
X44236361Y10058000D01*
X44440086Y10098524D01*
X44440091Y10098526D01*
X44496762Y10122000D01*
X44631993Y10178014D01*
X44804704Y10293417D01*
X44804709Y10293421D01*
X44951578Y10440290D01*
X44951583Y10440296D01*
X44969431Y10467007D01*
X45066986Y10613007D01*
X45146476Y10804914D01*
X45187000Y11008641D01*
X45187000Y11216359D01*
X45146476Y11420086D01*
X45066986Y11611993D01*
X44951583Y11784704D01*
X44804704Y11931583D01*
X44631993Y12046986D01*
X44440086Y12126476D01*
X44236359Y12167000D01*
X44028641Y12167000D01*
X43824914Y12126476D01*
X43633007Y12046986D01*
X43533451Y11980464D01*
X43460296Y11931583D01*
X43460290Y11931578D01*
X43313421Y11784709D01*
X43313416Y11784703D01*
X43292845Y11753916D01*
X43198014Y11611993D01*
X43145326Y11484791D01*
X43118526Y11420091D01*
X43118524Y11420086D01*
X43078000Y11216361D01*
X40654349Y11216361D01*
X40621986Y11294493D01*
X40506583Y11467204D01*
X40359704Y11614083D01*
X40186993Y11729486D01*
X39995086Y11808976D01*
X39791359Y11849500D01*
X39583641Y11849500D01*
X39379914Y11808976D01*
X39188007Y11729486D01*
X39028189Y11622698D01*
X39015296Y11614083D01*
X39015290Y11614078D01*
X38868421Y11467209D01*
X38868416Y11467203D01*
X38837867Y11421483D01*
X38753014Y11294493D01*
X38709699Y11189920D01*
X38673526Y11102591D01*
X38673524Y11102586D01*
X38633000Y10898861D01*
X24953137Y10898861D01*
X24849533Y11002465D01*
X24708884Y11104653D01*
X24553981Y11183580D01*
X24388638Y11237303D01*
X24216926Y11264500D01*
X24043074Y11264500D01*
X23871362Y11237303D01*
X23706019Y11183580D01*
X23551116Y11104653D01*
X23551112Y11104650D01*
X23410464Y11002463D01*
X23287536Y10879535D01*
X23189394Y10744454D01*
X23185347Y10738884D01*
X23121210Y10613007D01*
X23106341Y10583825D01*
X23057593Y10532210D01*
X22988678Y10515144D01*
X22921476Y10538045D01*
X22877324Y10593642D01*
X22874241Y10602092D01*
X22848509Y10681286D01*
X22848506Y10681292D01*
X22751463Y10871750D01*
X22625822Y11044679D01*
X22474679Y11195822D01*
X22301748Y11321465D01*
X22299955Y11322564D01*
X22299415Y11323159D01*
X22297742Y11324376D01*
X22297997Y11324727D01*
X22252321Y11375209D01*
X22240710Y11445250D01*
X22268810Y11510449D01*
X22297789Y11535559D01*
X22297742Y11535624D01*
X22298496Y11536172D01*
X22299955Y11537436D01*
X22301748Y11538534D01*
X22474679Y11664177D01*
X22625822Y11815320D01*
X22751465Y11988252D01*
X22787233Y12058451D01*
X22835981Y12110067D01*
X22904895Y12127133D01*
X22972097Y12104233D01*
X23016250Y12048636D01*
X23025500Y12001250D01*
X23025500Y11824936D01*
X23025501Y11824926D01*
X23040265Y11750699D01*
X23096516Y11666515D01*
X23180697Y11610266D01*
X23254932Y11595500D01*
X23254933Y11595500D01*
X25005063Y11595500D01*
X25005073Y11595501D01*
X25079300Y11610265D01*
X25163484Y11666516D01*
X25219733Y11750697D01*
X25219734Y11750699D01*
X25234500Y11824933D01*
X25234499Y13266548D01*
X29960500Y13266548D01*
X29960500Y13083452D01*
X29966219Y13054703D01*
X29996221Y12903874D01*
X29996222Y12903871D01*
X30066288Y12734717D01*
X30168010Y12582479D01*
X30168015Y12582473D01*
X30297473Y12453015D01*
X30297479Y12453010D01*
X30449717Y12351288D01*
X30618871Y12281222D01*
X30618874Y12281221D01*
X30691860Y12266703D01*
X30798452Y12245500D01*
X30798453Y12245500D01*
X31431546Y12245500D01*
X31431548Y12245500D01*
X31611125Y12281221D01*
X31611128Y12281222D01*
X31673611Y12307103D01*
X31780283Y12351288D01*
X31915080Y12441357D01*
X31932520Y12453010D01*
X31932526Y12453015D01*
X31965872Y12486361D01*
X36410500Y12486361D01*
X36410500Y12278638D01*
X36451024Y12074913D01*
X36451026Y12074908D01*
X36530514Y11883007D01*
X36645916Y11710296D01*
X36645921Y11710290D01*
X36792790Y11563421D01*
X36792796Y11563416D01*
X36965507Y11448014D01*
X37157408Y11368526D01*
X37157413Y11368524D01*
X37361138Y11328000D01*
X37361141Y11328000D01*
X37568861Y11328000D01*
X37772586Y11368524D01*
X37772591Y11368526D01*
X37865623Y11407061D01*
X37964493Y11448014D01*
X38090186Y11532000D01*
X38137203Y11563416D01*
X38137209Y11563421D01*
X38284078Y11710290D01*
X38284083Y11710296D01*
X38311078Y11750697D01*
X38399486Y11883007D01*
X38478976Y12074914D01*
X38519500Y12278641D01*
X38519500Y12486359D01*
X38478976Y12690086D01*
X38399486Y12881993D01*
X38284083Y13054704D01*
X38137204Y13201583D01*
X37964493Y13316986D01*
X37772586Y13396476D01*
X37568859Y13437000D01*
X37361141Y13437000D01*
X37157414Y13396476D01*
X36965507Y13316986D01*
X36792796Y13201583D01*
X36792790Y13201578D01*
X36645921Y13054709D01*
X36645916Y13054703D01*
X36607623Y12997395D01*
X36530514Y12881993D01*
X36491136Y12786926D01*
X36451026Y12690091D01*
X36451024Y12690086D01*
X36410500Y12486361D01*
X31965872Y12486361D01*
X32061984Y12582473D01*
X32061989Y12582479D01*
X32072080Y12597581D01*
X32163712Y12734717D01*
X32233779Y12903875D01*
X32269500Y13083452D01*
X32269500Y13266548D01*
X32235224Y13438861D01*
X38633000Y13438861D01*
X38633000Y13231138D01*
X38673524Y13027413D01*
X38673526Y13027408D01*
X38753014Y12835507D01*
X38868416Y12662796D01*
X38868421Y12662790D01*
X39015290Y12515921D01*
X39015296Y12515916D01*
X39188007Y12400514D01*
X39379908Y12321026D01*
X39379913Y12321024D01*
X39583638Y12280500D01*
X39583641Y12280500D01*
X39791361Y12280500D01*
X39995086Y12321024D01*
X39995091Y12321026D01*
X40068150Y12351288D01*
X40186993Y12400514D01*
X40315471Y12486361D01*
X40855500Y12486361D01*
X40855500Y12278638D01*
X40896024Y12074913D01*
X40896026Y12074908D01*
X40975514Y11883007D01*
X41090916Y11710296D01*
X41090921Y11710290D01*
X41237790Y11563421D01*
X41237796Y11563416D01*
X41410507Y11448014D01*
X41602408Y11368526D01*
X41602413Y11368524D01*
X41806138Y11328000D01*
X41806141Y11328000D01*
X42013861Y11328000D01*
X42070725Y11339311D01*
X42217586Y11368524D01*
X42233745Y11375217D01*
X42310623Y11407061D01*
X42409493Y11448014D01*
X42535186Y11532000D01*
X42582203Y11563416D01*
X42582209Y11563421D01*
X42729078Y11710290D01*
X42729083Y11710296D01*
X42756078Y11750697D01*
X42844486Y11883007D01*
X42923976Y12074914D01*
X42964500Y12278641D01*
X42964500Y12486359D01*
X42964500Y12486361D01*
X45300500Y12486361D01*
X45300500Y12278638D01*
X45341024Y12074913D01*
X45341026Y12074908D01*
X45420514Y11883007D01*
X45535916Y11710296D01*
X45535921Y11710290D01*
X45682790Y11563421D01*
X45682796Y11563416D01*
X45855507Y11448014D01*
X46047408Y11368526D01*
X46047413Y11368524D01*
X46251138Y11328000D01*
X46251141Y11328000D01*
X46458861Y11328000D01*
X46662586Y11368524D01*
X46662591Y11368526D01*
X46755623Y11407061D01*
X46854493Y11448014D01*
X46980186Y11532000D01*
X47027203Y11563416D01*
X47027209Y11563421D01*
X47174078Y11710290D01*
X47174083Y11710296D01*
X47201078Y11750697D01*
X47289486Y11883007D01*
X47368976Y12074914D01*
X47409500Y12278641D01*
X47409500Y12486359D01*
X47368976Y12690086D01*
X47289486Y12881993D01*
X47174083Y13054704D01*
X47027204Y13201583D01*
X46854493Y13316986D01*
X46662586Y13396476D01*
X46458859Y13437000D01*
X46251141Y13437000D01*
X46047414Y13396476D01*
X45855507Y13316986D01*
X45682796Y13201583D01*
X45682790Y13201578D01*
X45535921Y13054709D01*
X45535916Y13054703D01*
X45497623Y12997395D01*
X45420514Y12881993D01*
X45381136Y12786926D01*
X45341026Y12690091D01*
X45341024Y12690086D01*
X45300500Y12486361D01*
X42964500Y12486361D01*
X42923976Y12690086D01*
X42844486Y12881993D01*
X42729083Y13054704D01*
X42582204Y13201583D01*
X42409493Y13316986D01*
X42217586Y13396476D01*
X42013859Y13437000D01*
X41806141Y13437000D01*
X41602414Y13396476D01*
X41410507Y13316986D01*
X41237796Y13201583D01*
X41237790Y13201578D01*
X41090921Y13054709D01*
X41090916Y13054703D01*
X41052623Y12997395D01*
X40975514Y12881993D01*
X40936136Y12786926D01*
X40896026Y12690091D01*
X40896024Y12690086D01*
X40855500Y12486361D01*
X40315471Y12486361D01*
X40359703Y12515916D01*
X40359709Y12515921D01*
X40506578Y12662790D01*
X40506583Y12662796D01*
X40524821Y12690091D01*
X40621986Y12835507D01*
X40701476Y13027414D01*
X40742000Y13231141D01*
X40742000Y13438859D01*
X40701476Y13642586D01*
X40654349Y13756361D01*
X43078000Y13756361D01*
X43078000Y13548638D01*
X43118524Y13344913D01*
X43118526Y13344908D01*
X43198014Y13153007D01*
X43313416Y12980296D01*
X43313421Y12980290D01*
X43460290Y12833421D01*
X43460296Y12833416D01*
X43633007Y12718014D01*
X43824908Y12638526D01*
X43824913Y12638524D01*
X44028638Y12598000D01*
X44028641Y12598000D01*
X44236361Y12598000D01*
X44293225Y12609311D01*
X44440086Y12638524D01*
X44631993Y12718014D01*
X44804704Y12833417D01*
X44804709Y12833421D01*
X44951578Y12980290D01*
X44951583Y12980296D01*
X44976779Y13018004D01*
X45066986Y13153007D01*
X45146476Y13344914D01*
X45187000Y13548641D01*
X45187000Y13756359D01*
X45146476Y13960086D01*
X45066986Y14151993D01*
X44951583Y14324704D01*
X44804704Y14471583D01*
X44631993Y14586986D01*
X44440086Y14666476D01*
X44236359Y14707000D01*
X44028641Y14707000D01*
X43824914Y14666476D01*
X43633007Y14586986D01*
X43460296Y14471583D01*
X43460290Y14471578D01*
X43313421Y14324709D01*
X43313416Y14324703D01*
X43276521Y14269486D01*
X43198014Y14151993D01*
X43145230Y14024560D01*
X43118526Y13960091D01*
X43118524Y13960086D01*
X43078000Y13756361D01*
X40654349Y13756361D01*
X40621986Y13834493D01*
X40506583Y14007204D01*
X40359704Y14154083D01*
X40186993Y14269486D01*
X39995086Y14348976D01*
X39791359Y14389500D01*
X39583641Y14389500D01*
X39379914Y14348976D01*
X39188007Y14269486D01*
X39015296Y14154083D01*
X39015290Y14154078D01*
X38868421Y14007209D01*
X38868416Y14007203D01*
X38855201Y13987425D01*
X38753014Y13834493D01*
X38711175Y13733484D01*
X38673526Y13642591D01*
X38673524Y13642586D01*
X38633000Y13438861D01*
X32235224Y13438861D01*
X32233779Y13446125D01*
X32163712Y13615283D01*
X32061989Y13767521D01*
X31932521Y13896989D01*
X31780283Y13998712D01*
X31611125Y14068779D01*
X31431548Y14104500D01*
X30798452Y14104500D01*
X30618875Y14068779D01*
X30449717Y13998712D01*
X30358940Y13938056D01*
X30297479Y13896989D01*
X30297473Y13896984D01*
X30168015Y13767526D01*
X30168010Y13767520D01*
X30160551Y13756357D01*
X30066288Y13615283D01*
X30027966Y13522765D01*
X30012374Y13485121D01*
X29996221Y13446125D01*
X29960500Y13266548D01*
X25234499Y13266548D01*
X25234499Y13575066D01*
X25233713Y13579016D01*
X25223772Y13629001D01*
X25219734Y13649301D01*
X25163484Y13733484D01*
X25079301Y13789734D01*
X25005067Y13804500D01*
X23254934Y13804499D01*
X23254931Y13804498D01*
X23254926Y13804498D01*
X23180699Y13789734D01*
X23130748Y13756357D01*
X23096515Y13733483D01*
X23040266Y13649302D01*
X23025500Y13575069D01*
X23025500Y13398752D01*
X23005498Y13330631D01*
X22951842Y13284138D01*
X22881568Y13274034D01*
X22816988Y13303528D01*
X22787233Y13341549D01*
X22751463Y13411750D01*
X22625822Y13584679D01*
X22474679Y13735822D01*
X22301750Y13861463D01*
X22111292Y13958506D01*
X22111286Y13958509D01*
X21908001Y14024560D01*
X21844000Y14034696D01*
X21844000Y13130702D01*
X21782993Y13165925D01*
X21655826Y13200000D01*
X21524174Y13200000D01*
X21397007Y13165925D01*
X21336000Y13130702D01*
X21336000Y14034696D01*
X21271998Y14024560D01*
X21068713Y13958509D01*
X21068707Y13958506D01*
X20878249Y13861463D01*
X20705320Y13735822D01*
X20554177Y13584679D01*
X20428536Y13411750D01*
X20331493Y13221292D01*
X20331490Y13221286D01*
X20265440Y13018004D01*
X20255302Y12954000D01*
X21159297Y12954000D01*
X21124075Y12892993D01*
X21090000Y12765826D01*
X21090000Y12634174D01*
X21124075Y12507007D01*
X21159297Y12446000D01*
X20255302Y12446000D01*
X20265440Y12381995D01*
X20331490Y12178713D01*
X20331493Y12178707D01*
X20428536Y11988249D01*
X20554177Y11815320D01*
X20705320Y11664177D01*
X20878256Y11538531D01*
X20880052Y11537431D01*
X20880591Y11536835D01*
X20882258Y11535624D01*
X20882003Y11535273D01*
X20927682Y11484783D01*
X20939288Y11414741D01*
X20911183Y11349544D01*
X20882211Y11324440D01*
X20882258Y11324376D01*
X20881511Y11323833D01*
X20880052Y11322569D01*
X20878256Y11321468D01*
X20705320Y11195822D01*
X20554177Y11044679D01*
X20428536Y10871750D01*
X20331493Y10681292D01*
X20331490Y10681286D01*
X20265440Y10478004D01*
X20255302Y10414000D01*
X21159297Y10414000D01*
X21124075Y10352993D01*
X21090000Y10225826D01*
X21090000Y10094174D01*
X21124075Y9967007D01*
X21159297Y9906000D01*
X20255302Y9906000D01*
X20265440Y9841995D01*
X20331490Y9638713D01*
X20331493Y9638707D01*
X20428536Y9448249D01*
X20554177Y9275320D01*
X20705320Y9124177D01*
X20878256Y8998531D01*
X20880052Y8997431D01*
X20880591Y8996835D01*
X20882258Y8995624D01*
X20882003Y8995273D01*
X20927682Y8944783D01*
X20939288Y8874741D01*
X20911183Y8809544D01*
X20882211Y8784440D01*
X20882258Y8784376D01*
X20881511Y8783833D01*
X20880052Y8782569D01*
X20878256Y8781468D01*
X20705320Y8655822D01*
X20554177Y8504679D01*
X20428536Y8331750D01*
X20331493Y8141292D01*
X20331490Y8141286D01*
X20265440Y7938004D01*
X20255302Y7874000D01*
X21159297Y7874000D01*
X21124075Y7812993D01*
X21090000Y7685826D01*
X21090000Y7554174D01*
X21124075Y7427007D01*
X21159297Y7366000D01*
X20255302Y7366000D01*
X20265440Y7301995D01*
X20331490Y7098713D01*
X20331493Y7098707D01*
X20428536Y6908249D01*
X20554177Y6735320D01*
X20705320Y6584177D01*
X20878256Y6458531D01*
X20880052Y6457431D01*
X20880591Y6456835D01*
X20882258Y6455624D01*
X20882003Y6455273D01*
X20927682Y6404783D01*
X20939288Y6334741D01*
X20911183Y6269544D01*
X20882211Y6244440D01*
X20882258Y6244376D01*
X20881511Y6243833D01*
X20880052Y6242569D01*
X20878256Y6241468D01*
X20705320Y6115822D01*
X20554177Y5964679D01*
X20428536Y5791750D01*
X20331493Y5601292D01*
X20331490Y5601286D01*
X20265440Y5398004D01*
X20255302Y5334000D01*
X21159297Y5334000D01*
X21124075Y5272993D01*
X21090000Y5145826D01*
X21090000Y5014174D01*
X21124075Y4887007D01*
X21159297Y4826000D01*
X20255302Y4826000D01*
X20265440Y4761995D01*
X20331490Y4558713D01*
X20331493Y4558707D01*
X20428536Y4368249D01*
X20554177Y4195320D01*
X20705320Y4044177D01*
X20878256Y3918531D01*
X20880052Y3917431D01*
X20880591Y3916835D01*
X20882258Y3915624D01*
X20882003Y3915273D01*
X20927682Y3864783D01*
X20939288Y3794741D01*
X20911183Y3729544D01*
X20882211Y3704440D01*
X20882258Y3704376D01*
X20881511Y3703833D01*
X20880052Y3702569D01*
X20878256Y3701468D01*
X20705320Y3575822D01*
X20554177Y3424679D01*
X20428536Y3251750D01*
X20331493Y3061292D01*
X20331490Y3061286D01*
X20265440Y2858004D01*
X20255302Y2794000D01*
X21159297Y2794000D01*
X21124075Y2732993D01*
X21090000Y2605826D01*
X21090000Y2474174D01*
X21124075Y2347007D01*
X21159297Y2286000D01*
X20255302Y2286000D01*
X20265440Y2221995D01*
X20331490Y2018713D01*
X20331493Y2018707D01*
X20405377Y1873702D01*
X20418481Y1803925D01*
X20391781Y1738140D01*
X20333753Y1697234D01*
X20293110Y1690499D01*
X13596017Y1690499D01*
X13527896Y1710501D01*
X13506922Y1727403D01*
X13413858Y1820467D01*
X13113810Y2120513D01*
X13079787Y2182823D01*
X13079328Y2234183D01*
X13119500Y2436141D01*
X13119500Y2643859D01*
X13078976Y2847586D01*
X12999486Y3039493D01*
X12884083Y3212204D01*
X12737204Y3359083D01*
X12564493Y3474486D01*
X12372586Y3553976D01*
X12168859Y3594500D01*
X11961141Y3594500D01*
X11757414Y3553976D01*
X11565507Y3474486D01*
X11392796Y3359083D01*
X11392790Y3359078D01*
X11245921Y3212209D01*
X11245916Y3212203D01*
X11217188Y3169208D01*
X11130514Y3039493D01*
X11097380Y2959500D01*
X11051026Y2847591D01*
X11051024Y2847586D01*
X11010500Y2643861D01*
X10579500Y2643861D01*
X10538976Y2847586D01*
X10459486Y3039493D01*
X10344083Y3212204D01*
X10197204Y3359083D01*
X10024493Y3474486D01*
X9832586Y3553976D01*
X9628859Y3594500D01*
X9421141Y3594500D01*
X9217414Y3553976D01*
X9025507Y3474486D01*
X8852796Y3359083D01*
X8852790Y3359078D01*
X8705921Y3212209D01*
X8705916Y3212203D01*
X8677188Y3169208D01*
X8590514Y3039493D01*
X8557380Y2959500D01*
X8511026Y2847591D01*
X8511024Y2847586D01*
X8470500Y2643861D01*
X4889963Y2643861D01*
X4807684Y2757107D01*
X4807682Y2757110D01*
X4662110Y2902682D01*
X4662107Y2902684D01*
X4495545Y3023699D01*
X4312099Y3117170D01*
X4312093Y3117173D01*
X4116298Y3180790D01*
X4113568Y3181223D01*
X4112612Y3181675D01*
X4111483Y3181947D01*
X4111539Y3182184D01*
X4049411Y3211628D01*
X4011878Y3271893D01*
X4012884Y3342882D01*
X4052110Y3402058D01*
X4108678Y3429252D01*
X4117583Y3431023D01*
X4117591Y3431026D01*
X4212890Y3470500D01*
X4309493Y3510514D01*
X4452789Y3606262D01*
X4482203Y3625916D01*
X4482209Y3625921D01*
X4629078Y3772790D01*
X4629083Y3772796D01*
X4643752Y3794750D01*
X4744486Y3945507D01*
X4823976Y4137414D01*
X4864500Y4341141D01*
X4864500Y4548859D01*
X4848587Y4628861D01*
X5613000Y4628861D01*
X5613000Y4421138D01*
X5653524Y4217413D01*
X5653526Y4217408D01*
X5733014Y4025507D01*
X5848416Y3852796D01*
X5848421Y3852790D01*
X5995290Y3705921D01*
X5995296Y3705916D01*
X6168007Y3590514D01*
X6359908Y3511026D01*
X6359913Y3511024D01*
X6563638Y3470500D01*
X6563641Y3470500D01*
X6771361Y3470500D01*
X6975086Y3511024D01*
X6975091Y3511026D01*
X7061431Y3546789D01*
X7166993Y3590514D01*
X7326537Y3697119D01*
X7339703Y3705916D01*
X7339709Y3705921D01*
X7486578Y3852790D01*
X7486583Y3852796D01*
X7494077Y3864011D01*
X7601986Y4025507D01*
X7681476Y4217414D01*
X7722000Y4421141D01*
X7722000Y4628859D01*
X7681476Y4832586D01*
X7601986Y5024493D01*
X7486583Y5197204D01*
X7339704Y5344083D01*
X7166993Y5459486D01*
X6975086Y5538976D01*
X6771359Y5579500D01*
X6563641Y5579500D01*
X6359914Y5538976D01*
X6168007Y5459486D01*
X6039528Y5373638D01*
X5995296Y5344083D01*
X5995290Y5344078D01*
X5848421Y5197209D01*
X5848416Y5197203D01*
X5830178Y5169908D01*
X5733014Y5024493D01*
X5700957Y4947099D01*
X5653526Y4832591D01*
X5653524Y4832586D01*
X5613000Y4628861D01*
X4848587Y4628861D01*
X4823976Y4752586D01*
X4744486Y4944493D01*
X4629083Y5117204D01*
X4482204Y5264083D01*
X4309493Y5379486D01*
X4117586Y5458976D01*
X3913859Y5499500D01*
X3706141Y5499500D01*
X3502414Y5458976D01*
X3310507Y5379486D01*
X3151131Y5272993D01*
X3137796Y5264083D01*
X3137790Y5264078D01*
X2990921Y5117209D01*
X2990917Y5117204D01*
X2875514Y4944493D01*
X2855393Y4895916D01*
X2796026Y4752591D01*
X2796024Y4752586D01*
X2755500Y4548861D01*
X2755500Y4341138D01*
X2796024Y4137413D01*
X2796026Y4137408D01*
X2875514Y3945507D01*
X2990916Y3772796D01*
X2990921Y3772790D01*
X3137790Y3625921D01*
X3137796Y3625916D01*
X3310507Y3510514D01*
X3502408Y3431026D01*
X3502414Y3431024D01*
X3511322Y3429252D01*
X3574230Y3396341D01*
X3609358Y3334644D01*
X3605554Y3263749D01*
X3564026Y3206165D01*
X3508478Y3182109D01*
X3508517Y3181947D01*
X3507589Y3181724D01*
X3506434Y3181224D01*
X3503705Y3180792D01*
X3503705Y3180791D01*
X3307906Y3117173D01*
X3307900Y3117170D01*
X3124454Y3023699D01*
X2957892Y2902684D01*
X2957889Y2902682D01*
X2812317Y2757110D01*
X2812315Y2757107D01*
X2691300Y2590545D01*
X2597829Y2407099D01*
X2597826Y2407093D01*
X2534208Y2211295D01*
X2525926Y2159000D01*
X-2785365Y2159000D01*
X-2796024Y2212586D01*
X-2796026Y2212591D01*
X-2834718Y2306002D01*
X-2875514Y2404493D01*
X-2966058Y2540000D01*
X-2990916Y2577203D01*
X-2990921Y2577209D01*
X-3137790Y2724078D01*
X-3137796Y2724083D01*
X-3142450Y2727193D01*
X-3310507Y2839486D01*
X-3502414Y2918976D01*
X-3511315Y2920746D01*
X-3574224Y2953653D01*
X-3609357Y3015348D01*
X-3605557Y3086242D01*
X-3564032Y3143829D01*
X-3508478Y3167894D01*
X-3508517Y3168053D01*
X-3507608Y3168270D01*
X-3506450Y3168773D01*
X-3503706Y3169207D01*
X-3503705Y3169208D01*
X-3307906Y3232826D01*
X-3307900Y3232829D01*
X-3124454Y3326300D01*
X-2957892Y3447315D01*
X-2957889Y3447317D01*
X-2812317Y3592889D01*
X-2812315Y3592892D01*
X-2691300Y3759454D01*
X-2597829Y3942900D01*
X-2597826Y3942906D01*
X-2534208Y4138704D01*
X-2525926Y4191000D01*
X-3498314Y4191000D01*
X-3489920Y4199394D01*
X-3437259Y4290606D01*
X-3410000Y4392339D01*
X-3410000Y4497661D01*
X-3437259Y4599394D01*
X-3489920Y4690606D01*
X-3498314Y4699000D01*
X-2525926Y4699000D01*
X-2534208Y4751295D01*
X-2597826Y4947093D01*
X-2597829Y4947099D01*
X-2691300Y5130545D01*
X-2812315Y5297107D01*
X-2812317Y5297110D01*
X-2957889Y5442682D01*
X-2957892Y5442684D01*
X-3124454Y5563699D01*
X-3307900Y5657170D01*
X-3307906Y5657173D01*
X-3503705Y5720791D01*
X-3503705Y5720792D01*
X-3506434Y5721224D01*
X-3507387Y5721675D01*
X-3508517Y5721947D01*
X-3508460Y5722184D01*
X-3570590Y5751630D01*
X-3608122Y5811895D01*
X-3608023Y5818861D01*
X8470500Y5818861D01*
X8470500Y5611138D01*
X8511024Y5407413D01*
X8511026Y5407408D01*
X8590514Y5215507D01*
X8705916Y5042796D01*
X8705921Y5042790D01*
X8852790Y4895921D01*
X8852796Y4895916D01*
X9025507Y4780514D01*
X9217408Y4701026D01*
X9217413Y4701024D01*
X9421138Y4660500D01*
X9421141Y4660500D01*
X9628861Y4660500D01*
X9832586Y4701024D01*
X9832591Y4701026D01*
X9890119Y4724855D01*
X10024493Y4780514D01*
X10139895Y4857623D01*
X10197203Y4895916D01*
X10197209Y4895921D01*
X10344078Y5042790D01*
X10344083Y5042796D01*
X10459486Y5215507D01*
X10538976Y5407414D01*
X10579500Y5611141D01*
X10579500Y5818859D01*
X10579500Y5818861D01*
X11010500Y5818861D01*
X11010500Y5611138D01*
X11051024Y5407413D01*
X11051026Y5407408D01*
X11130514Y5215507D01*
X11245916Y5042796D01*
X11245921Y5042790D01*
X11392790Y4895921D01*
X11392796Y4895916D01*
X11565507Y4780514D01*
X11757408Y4701026D01*
X11757413Y4701024D01*
X11961138Y4660500D01*
X11961141Y4660500D01*
X12168861Y4660500D01*
X12372586Y4701024D01*
X12372591Y4701026D01*
X12430119Y4724855D01*
X12564493Y4780514D01*
X12679895Y4857623D01*
X12737203Y4895916D01*
X12737209Y4895921D01*
X12884078Y5042790D01*
X12884083Y5042796D01*
X12999486Y5215507D01*
X13078976Y5407414D01*
X13119500Y5611141D01*
X13119500Y5818859D01*
X13078976Y6022586D01*
X12999486Y6214493D01*
X12884083Y6387204D01*
X12737204Y6534083D01*
X12564493Y6649486D01*
X12372586Y6728976D01*
X12168859Y6769500D01*
X11961141Y6769500D01*
X11757414Y6728976D01*
X11565507Y6649486D01*
X11405689Y6542698D01*
X11392796Y6534083D01*
X11392790Y6534078D01*
X11245921Y6387209D01*
X11245916Y6387203D01*
X11218083Y6345548D01*
X11130514Y6214493D01*
X11084573Y6103581D01*
X11051026Y6022591D01*
X11051024Y6022586D01*
X11010500Y5818861D01*
X10579500Y5818861D01*
X10538976Y6022586D01*
X10459486Y6214493D01*
X10344083Y6387204D01*
X10197204Y6534083D01*
X10024493Y6649486D01*
X9832586Y6728976D01*
X9628859Y6769500D01*
X9421141Y6769500D01*
X9217414Y6728976D01*
X9025507Y6649486D01*
X8865689Y6542698D01*
X8852796Y6534083D01*
X8852790Y6534078D01*
X8705921Y6387209D01*
X8705916Y6387203D01*
X8678083Y6345548D01*
X8590514Y6214493D01*
X8544573Y6103581D01*
X8511026Y6022591D01*
X8511024Y6022586D01*
X8470500Y5818861D01*
X-3608023Y5818861D01*
X-3607114Y5882885D01*
X-3567887Y5942060D01*
X-3511322Y5969252D01*
X-3502414Y5971024D01*
X-3502408Y5971026D01*
X-3310507Y6050514D01*
X-3137796Y6165916D01*
X-3137790Y6165921D01*
X-2990921Y6312790D01*
X-2990916Y6312796D01*
X-2875514Y6485507D01*
X-2796026Y6677408D01*
X-2796024Y6677413D01*
X-2755500Y6881138D01*
X-2755500Y7088861D01*
X2755500Y7088861D01*
X2755500Y6881138D01*
X2796024Y6677413D01*
X2796026Y6677408D01*
X2875514Y6485507D01*
X2990916Y6312796D01*
X2990921Y6312790D01*
X3137790Y6165921D01*
X3137796Y6165916D01*
X3310507Y6050514D01*
X3502408Y5971026D01*
X3502413Y5971024D01*
X3706138Y5930500D01*
X3706141Y5930500D01*
X3913861Y5930500D01*
X3971975Y5942060D01*
X4117586Y5971024D01*
X4309493Y6050514D01*
X4452789Y6146262D01*
X4482203Y6165916D01*
X4482209Y6165921D01*
X4629078Y6312790D01*
X4629083Y6312796D01*
X4643752Y6334750D01*
X4744486Y6485507D01*
X4823976Y6677414D01*
X4864500Y6881141D01*
X4864500Y7088859D01*
X4823976Y7292586D01*
X4744486Y7484493D01*
X4629083Y7657204D01*
X4482204Y7804083D01*
X4309493Y7919486D01*
X4117586Y7998976D01*
X3913859Y8039500D01*
X3706141Y8039500D01*
X3502414Y7998976D01*
X3310507Y7919486D01*
X3151131Y7812993D01*
X3137796Y7804083D01*
X3137790Y7804078D01*
X2990921Y7657209D01*
X2990917Y7657204D01*
X2875514Y7484493D01*
X2875514Y7484492D01*
X2796026Y7292591D01*
X2796024Y7292586D01*
X2755500Y7088861D01*
X-2755500Y7088861D01*
X-2796024Y7292586D01*
X-2796026Y7292591D01*
X-2875514Y7484492D01*
X-2875514Y7484493D01*
X-2990917Y7657204D01*
X-2990921Y7657209D01*
X-3137790Y7804078D01*
X-3137796Y7804083D01*
X-3151131Y7812993D01*
X-3310507Y7919486D01*
X-3502414Y7998976D01*
X-3706141Y8039500D01*
X-3913859Y8039500D01*
X-4117586Y7998976D01*
X-4309493Y7919486D01*
X-4482204Y7804083D01*
X-4629083Y7657204D01*
X-4744486Y7484493D01*
X-4823976Y7292586D01*
X-4864500Y7088859D01*
X-4864500Y6881141D01*
X-4823976Y6677414D01*
X-4744486Y6485507D01*
X-4643752Y6334750D01*
X-4629083Y6312796D01*
X-4629078Y6312790D01*
X-4482209Y6165921D01*
X-4482203Y6165916D01*
X-4452789Y6146262D01*
X-4309493Y6050514D01*
X-4242068Y6022586D01*
X-4117591Y5971026D01*
X-4117583Y5971023D01*
X-4108678Y5969252D01*
X-4045770Y5936342D01*
X-4010641Y5874645D01*
X-4014444Y5803750D01*
X-4055972Y5746166D01*
X-4111521Y5722109D01*
X-4111483Y5721947D01*
X-4112410Y5721724D01*
X-4113568Y5721223D01*
X-4116298Y5720790D01*
X-4312093Y5657173D01*
X-4312099Y5657170D01*
X-4495545Y5563699D01*
X-4662107Y5442684D01*
X-4662110Y5442682D01*
X-4807682Y5297110D01*
X-4807684Y5297107D01*
X-4928699Y5130545D01*
X-5022170Y4947099D01*
X-5022173Y4947093D01*
X-5085791Y4751295D01*
X-5094074Y4699000D01*
X-5954711Y4699000D01*
X-5903278Y4750434D01*
X-5848421Y4805290D01*
X-5848416Y4805296D01*
X-5733014Y4978007D01*
X-5653526Y5169908D01*
X-5653524Y5169913D01*
X-5613000Y5373638D01*
X-5613000Y5581361D01*
X-5653524Y5785086D01*
X-5653526Y5785091D01*
X-5690620Y5874645D01*
X-5733014Y5976993D01*
X-5817598Y6103581D01*
X-5848416Y6149703D01*
X-5848421Y6149709D01*
X-5995290Y6296578D01*
X-5995296Y6296583D01*
X-6019560Y6312796D01*
X-6168007Y6411986D01*
X-6359914Y6491476D01*
X-6563641Y6532000D01*
X-6771359Y6532000D01*
X-6975086Y6491476D01*
X-7166993Y6411986D01*
X-7339704Y6296583D01*
X-7486583Y6149704D01*
X-7601986Y5976993D01*
X-7681476Y5785086D01*
X-7722000Y5581359D01*
X-8378424Y5581359D01*
X-8372500Y5611139D01*
X-8372500Y5818861D01*
X-8413024Y6022586D01*
X-8413026Y6022591D01*
X-8446573Y6103581D01*
X-8492514Y6214493D01*
X-8580083Y6345548D01*
X-8607916Y6387203D01*
X-8607921Y6387209D01*
X-8754790Y6534078D01*
X-8754796Y6534083D01*
X-8767689Y6542698D01*
X-8927507Y6649486D01*
X-9119414Y6728976D01*
X-9323141Y6769500D01*
X-9530859Y6769500D01*
X-9734586Y6728976D01*
X-9926493Y6649486D01*
X-10099204Y6534083D01*
X-10246083Y6387204D01*
X-10361486Y6214493D01*
X-10440976Y6022586D01*
X-10481500Y5818859D01*
X-10912500Y5818859D01*
X-10912500Y5818861D01*
X-10953024Y6022586D01*
X-10953026Y6022591D01*
X-10986573Y6103581D01*
X-11032514Y6214493D01*
X-11120083Y6345548D01*
X-11147916Y6387203D01*
X-11147921Y6387209D01*
X-11294790Y6534078D01*
X-11294796Y6534083D01*
X-11307689Y6542698D01*
X-11467507Y6649486D01*
X-11659414Y6728976D01*
X-11863141Y6769500D01*
X-12070859Y6769500D01*
X-12274586Y6728976D01*
X-12466493Y6649486D01*
X-12639204Y6534083D01*
X-12786083Y6387204D01*
X-12901486Y6214493D01*
X-12980976Y6022586D01*
X-13021500Y5818859D01*
X-20448232Y5818859D01*
X-20554177Y5964679D01*
X-20705320Y6115822D01*
X-20878256Y6241468D01*
X-20880052Y6242569D01*
X-20880591Y6243164D01*
X-20882258Y6244376D01*
X-20882003Y6244726D01*
X-20927682Y6295217D01*
X-20939288Y6365259D01*
X-20911183Y6430456D01*
X-20882211Y6455559D01*
X-20882258Y6455624D01*
X-20881511Y6456166D01*
X-20880052Y6457431D01*
X-20878256Y6458531D01*
X-20705320Y6584177D01*
X-20554177Y6735320D01*
X-20428536Y6908249D01*
X-20331493Y7098707D01*
X-20331490Y7098713D01*
X-20265440Y7301995D01*
X-20255302Y7366000D01*
X-21159297Y7366000D01*
X-21124075Y7427007D01*
X-21090000Y7554174D01*
X-21090000Y7685826D01*
X-21124075Y7812993D01*
X-21159297Y7874000D01*
X-20255302Y7874000D01*
X-20265440Y7938004D01*
X-20331490Y8141286D01*
X-20331493Y8141292D01*
X-20428536Y8331750D01*
X-20554177Y8504679D01*
X-20705320Y8655822D01*
X-20878256Y8781468D01*
X-20880052Y8782569D01*
X-20880591Y8783164D01*
X-20882258Y8784376D01*
X-20882003Y8784726D01*
X-20927682Y8835217D01*
X-20939288Y8905259D01*
X-20911183Y8970456D01*
X-20882211Y8995559D01*
X-20882258Y8995624D01*
X-20881511Y8996166D01*
X-20880052Y8997431D01*
X-20878256Y8998531D01*
X-20705320Y9124177D01*
X-20554177Y9275320D01*
X-20428536Y9448249D01*
X-20331493Y9638707D01*
X-20331490Y9638713D01*
X-20265440Y9841995D01*
X-20255302Y9906000D01*
X-21159297Y9906000D01*
X-21124075Y9967007D01*
X-21090000Y10094174D01*
X-21090000Y10225826D01*
X-21124075Y10352993D01*
X-21159297Y10414000D01*
X-20255302Y10414000D01*
X-20265440Y10478004D01*
X-20331490Y10681286D01*
X-20331493Y10681292D01*
X-20428536Y10871750D01*
X-20554177Y11044679D01*
X-20705320Y11195822D01*
X-20748633Y11227291D01*
X-20885535Y11326085D01*
X-17183000Y11326085D01*
X-17183000Y10731500D01*
X-16186686Y10731500D01*
X-16195080Y10723106D01*
X-16247741Y10631894D01*
X-16275000Y10530161D01*
X-16275000Y10424839D01*
X-16247741Y10323106D01*
X-16195080Y10231894D01*
X-16186686Y10223500D01*
X-17183000Y10223500D01*
X-17183000Y9628914D01*
X-17182999Y9628902D01*
X-17176494Y9568406D01*
X-17125444Y9431535D01*
X-17125444Y9431534D01*
X-17037904Y9314595D01*
X-16920965Y9227055D01*
X-16784093Y9176005D01*
X-16723597Y9169500D01*
X-16129000Y9169500D01*
X-16129000Y10165814D01*
X-16120606Y10157420D01*
X-16029394Y10104759D01*
X-15927661Y10077500D01*
X-15822339Y10077500D01*
X-15720606Y10104759D01*
X-15629394Y10157420D01*
X-15621000Y10165814D01*
X-15621000Y9169500D01*
X-15026402Y9169500D01*
X-14965906Y9176005D01*
X-14829035Y9227055D01*
X-14829034Y9227055D01*
X-14712095Y9314595D01*
X-14624555Y9431534D01*
X-14624553Y9431539D01*
X-14597033Y9505323D01*
X-14554486Y9562159D01*
X-14487966Y9586969D01*
X-14418592Y9571877D01*
X-14408976Y9566055D01*
X-14374493Y9543014D01*
X-14256198Y9494015D01*
X-14182591Y9463526D01*
X-14182586Y9463524D01*
X-13978861Y9423000D01*
X-13978859Y9423000D01*
X-13771138Y9423000D01*
X-13567413Y9463524D01*
X-13567408Y9463526D01*
X-13375507Y9543014D01*
X-13202796Y9658416D01*
X-13202790Y9658421D01*
X-13055921Y9805290D01*
X-13055916Y9805296D01*
X-12940514Y9978007D01*
X-12861026Y10169908D01*
X-12861024Y10169913D01*
X-12820500Y10373638D01*
X-12820500Y10581361D01*
X-12861024Y10785086D01*
X-12861026Y10785091D01*
X-12940514Y10976992D01*
X-12940514Y10976993D01*
X-13024437Y11102591D01*
X-13055916Y11149703D01*
X-13055921Y11149709D01*
X-13202790Y11296578D01*
X-13202796Y11296583D01*
X-13375507Y11411986D01*
X-13375509Y11411987D01*
X-13382180Y11414750D01*
X-13567414Y11491476D01*
X-13771141Y11532000D01*
X-13978859Y11532000D01*
X-14182586Y11491476D01*
X-14374493Y11411986D01*
X-14408977Y11388943D01*
X-14476727Y11367729D01*
X-14545194Y11386511D01*
X-14592638Y11439327D01*
X-14597034Y11449676D01*
X-14624556Y11523466D01*
X-14631647Y11532938D01*
X-11785500Y11532938D01*
X-11785500Y11327061D01*
X-11753291Y11123703D01*
X-11689673Y10927906D01*
X-11689670Y10927900D01*
X-11596199Y10744454D01*
X-11565083Y10701626D01*
X-11565082Y10701626D01*
X-10877500Y11389208D01*
X-10877500Y11377339D01*
X-10850241Y11275606D01*
X-10797580Y11184394D01*
X-10723106Y11109920D01*
X-10631894Y11057259D01*
X-10530161Y11030000D01*
X-10518290Y11030000D01*
X-11205872Y10342416D01*
X-11163041Y10311298D01*
X-11163040Y10311297D01*
X-10979599Y10217829D01*
X-10979593Y10217826D01*
X-10783794Y10154208D01*
X-10783798Y10154208D01*
X-10580439Y10122000D01*
X-10374561Y10122000D01*
X-10171203Y10154208D01*
X-9975406Y10217826D01*
X-9975400Y10217829D01*
X-9791952Y10311301D01*
X-9749125Y10342416D01*
X-9988068Y10581359D01*
X-7722000Y10581359D01*
X-7722000Y10373641D01*
X-7681476Y10169914D01*
X-7601986Y9978007D01*
X-7504821Y9832591D01*
X-7486583Y9805296D01*
X-7486578Y9805290D01*
X-7339709Y9658421D01*
X-7339703Y9658416D01*
X-7330744Y9652430D01*
X-7166993Y9543014D01*
X-7048698Y9494015D01*
X-6975091Y9463526D01*
X-6975086Y9463524D01*
X-6771361Y9423000D01*
X-6771359Y9423000D01*
X-6563638Y9423000D01*
X-6359913Y9463524D01*
X-6359908Y9463526D01*
X-6168007Y9543014D01*
X-5995296Y9658416D01*
X-5995290Y9658421D01*
X-5848421Y9805290D01*
X-5848416Y9805296D01*
X-5733014Y9978007D01*
X-5653526Y10169908D01*
X-5653524Y10169913D01*
X-5617689Y10350067D01*
X-4864500Y10350067D01*
X-4864499Y9507940D01*
X-4864499Y8699936D01*
X-4864498Y8699926D01*
X-4853290Y8643578D01*
X-4849734Y8625699D01*
X-4813131Y8570919D01*
X-4793483Y8541515D01*
X-4709302Y8485266D01*
X-4635067Y8470500D01*
X-2984936Y8470500D01*
X-2984926Y8470501D01*
X-2910699Y8485265D01*
X-2826515Y8541516D01*
X-2770266Y8625697D01*
X-2755500Y8699930D01*
X-2755500Y8699934D01*
X-2755500Y9136421D01*
X-2755500Y9628861D01*
X2755500Y9628861D01*
X2755500Y9421138D01*
X2796024Y9217413D01*
X2796026Y9217408D01*
X2875514Y9025507D01*
X2990916Y8852796D01*
X2990921Y8852790D01*
X3137790Y8705921D01*
X3137796Y8705916D01*
X3310507Y8590514D01*
X3502408Y8511026D01*
X3502413Y8511024D01*
X3706138Y8470500D01*
X3706141Y8470500D01*
X3913861Y8470500D01*
X4117586Y8511024D01*
X4117591Y8511026D01*
X4191198Y8541515D01*
X4309493Y8590514D01*
X4452789Y8686262D01*
X4482203Y8705916D01*
X4482209Y8705921D01*
X4629078Y8852790D01*
X4629083Y8852796D01*
X4690547Y8944783D01*
X4744486Y9025507D01*
X4823976Y9217414D01*
X4864500Y9421141D01*
X4864500Y9628859D01*
X4864500Y9628861D01*
X5613000Y9628861D01*
X5613000Y9421138D01*
X5653524Y9217413D01*
X5653526Y9217408D01*
X5733014Y9025507D01*
X5848416Y8852796D01*
X5848421Y8852790D01*
X5995290Y8705921D01*
X5995296Y8705916D01*
X6168007Y8590514D01*
X6359908Y8511026D01*
X6359913Y8511024D01*
X6563638Y8470500D01*
X6563641Y8470500D01*
X6771361Y8470500D01*
X6975086Y8511024D01*
X6975091Y8511026D01*
X7048698Y8541515D01*
X7166993Y8590514D01*
X7310289Y8686262D01*
X7339703Y8705916D01*
X7339709Y8705921D01*
X7486578Y8852790D01*
X7486583Y8852796D01*
X7548047Y8944783D01*
X7601986Y9025507D01*
X7681476Y9217414D01*
X7722000Y9421141D01*
X7722000Y9628859D01*
X7681476Y9832586D01*
X7601986Y10024493D01*
X7486583Y10197204D01*
X7339704Y10344083D01*
X7166993Y10459486D01*
X6975086Y10538976D01*
X6771359Y10579500D01*
X6563641Y10579500D01*
X6359914Y10538976D01*
X6168007Y10459486D01*
X6039531Y10373640D01*
X5995296Y10344083D01*
X5995290Y10344078D01*
X5848421Y10197209D01*
X5848416Y10197203D01*
X5830178Y10169908D01*
X5733014Y10024493D01*
X5712893Y9975916D01*
X5653526Y9832591D01*
X5653524Y9832586D01*
X5613000Y9628861D01*
X4864500Y9628861D01*
X4823976Y9832586D01*
X4744486Y10024493D01*
X4629083Y10197204D01*
X4482204Y10344083D01*
X4309493Y10459486D01*
X4117586Y10538976D01*
X3913859Y10579500D01*
X3706141Y10579500D01*
X3502414Y10538976D01*
X3310507Y10459486D01*
X3182031Y10373640D01*
X3137796Y10344083D01*
X3137790Y10344078D01*
X2990921Y10197209D01*
X2990916Y10197203D01*
X2972678Y10169908D01*
X2875514Y10024493D01*
X2855393Y9975916D01*
X2796026Y9832591D01*
X2796024Y9832586D01*
X2755500Y9628861D01*
X-2755500Y9628861D01*
X-2755501Y10350066D01*
X-2755501Y10350067D01*
X-2755501Y10350073D01*
X-2770265Y10424300D01*
X-2826516Y10508484D01*
X-2910697Y10564733D01*
X-2910699Y10564734D01*
X-2984933Y10579500D01*
X-4635066Y10579499D01*
X-4635069Y10579498D01*
X-4635073Y10579498D01*
X-4684326Y10569701D01*
X-4709301Y10564734D01*
X-4793484Y10508484D01*
X-4849734Y10424301D01*
X-4864500Y10350067D01*
X-5617689Y10350067D01*
X-5613000Y10373640D01*
X-5613000Y10581361D01*
X-5653524Y10785086D01*
X-5653526Y10785091D01*
X-5733014Y10976992D01*
X-5733014Y10976993D01*
X-5816937Y11102591D01*
X-5848416Y11149703D01*
X-5848421Y11149709D01*
X-5995290Y11296578D01*
X-5995296Y11296583D01*
X-6034179Y11322564D01*
X-6168007Y11411986D01*
X-6359914Y11491476D01*
X-6563641Y11532000D01*
X-6771359Y11532000D01*
X-6975086Y11491476D01*
X-7166993Y11411986D01*
X-7339704Y11296583D01*
X-7486583Y11149704D01*
X-7601986Y10976993D01*
X-7681476Y10785086D01*
X-7722000Y10581359D01*
X-9988068Y10581359D01*
X-10436709Y11030000D01*
X-10424839Y11030000D01*
X-10323106Y11057259D01*
X-10231894Y11109920D01*
X-10157420Y11184394D01*
X-10104759Y11275606D01*
X-10077500Y11377339D01*
X-10077500Y11389209D01*
X-9389916Y10701625D01*
X-9358800Y10744455D01*
X-9265329Y10927900D01*
X-9265326Y10927906D01*
X-9201708Y11123703D01*
X-9169500Y11327061D01*
X-9169500Y11532938D01*
X-9201708Y11736296D01*
X-9265326Y11932093D01*
X-9265329Y11932099D01*
X-9358797Y12115540D01*
X-9358798Y12115541D01*
X-9389916Y12158372D01*
X-10077500Y11470788D01*
X-10077500Y11482661D01*
X-10104759Y11584394D01*
X-10157420Y11675606D01*
X-10231894Y11750080D01*
X-10323106Y11802741D01*
X-10424839Y11830000D01*
X-10436710Y11830000D01*
X-9749126Y12517582D01*
X-9749126Y12517583D01*
X-9791954Y12548699D01*
X-9835293Y12570782D01*
X-9975400Y12642170D01*
X-9975406Y12642173D01*
X-10082160Y12676859D01*
X-4189500Y12676859D01*
X-4189500Y12469141D01*
X-4148976Y12265414D01*
X-4069486Y12073507D01*
X-4007318Y11980467D01*
X-3954083Y11900796D01*
X-3954078Y11900790D01*
X-3807209Y11753921D01*
X-3807203Y11753916D01*
X-3802388Y11750699D01*
X-3634493Y11638514D01*
X-3530647Y11595500D01*
X-3442591Y11559026D01*
X-3442586Y11559024D01*
X-3238861Y11518500D01*
X-3238859Y11518500D01*
X-3031138Y11518500D01*
X-2827413Y11559024D01*
X-2827408Y11559026D01*
X-2635506Y11638514D01*
X-2462796Y11753916D01*
X-2462790Y11753921D01*
X-2315921Y11900790D01*
X-2315916Y11900796D01*
X-2200514Y12073507D01*
X-2121026Y12265408D01*
X-2121024Y12265413D01*
X-2080500Y12469138D01*
X-2080500Y12675938D01*
X557000Y12675938D01*
X557000Y12470061D01*
X589208Y12266703D01*
X652826Y12070906D01*
X652829Y12070900D01*
X746301Y11887452D01*
X777416Y11844625D01*
X1465000Y12532209D01*
X1465000Y12520339D01*
X1492259Y12418606D01*
X1544920Y12327394D01*
X1619394Y12252920D01*
X1710606Y12200259D01*
X1812339Y12173000D01*
X1824209Y12173000D01*
X1136625Y11485416D01*
X1179452Y11454301D01*
X1362900Y11360829D01*
X1362906Y11360826D01*
X1558705Y11297208D01*
X1558701Y11297208D01*
X1762061Y11265000D01*
X1967939Y11265000D01*
X2171296Y11297208D01*
X2367093Y11360826D01*
X2367099Y11360829D01*
X2550540Y11454297D01*
X2550541Y11454298D01*
X2593372Y11485416D01*
X2593372Y11485417D01*
X2549991Y11528798D01*
X2465851Y11612938D01*
X8534500Y11612938D01*
X8534500Y11407061D01*
X8566708Y11203703D01*
X8630326Y11007906D01*
X8630329Y11007900D01*
X8723801Y10824452D01*
X8754916Y10781625D01*
X9442500Y11469209D01*
X9442500Y11457339D01*
X9469759Y11355606D01*
X9522420Y11264394D01*
X9596894Y11189920D01*
X9688106Y11137259D01*
X9789839Y11110000D01*
X9801709Y11110000D01*
X9114125Y10422416D01*
X9156952Y10391301D01*
X9340400Y10297829D01*
X9340406Y10297826D01*
X9536205Y10234208D01*
X9536201Y10234208D01*
X9739561Y10202000D01*
X9945439Y10202000D01*
X10148796Y10234208D01*
X10344593Y10297826D01*
X10344599Y10297829D01*
X10528040Y10391297D01*
X10528041Y10391298D01*
X10570872Y10422416D01*
X9883290Y11110000D01*
X9895161Y11110000D01*
X9996894Y11137259D01*
X10088106Y11189920D01*
X10162580Y11264394D01*
X10215241Y11355606D01*
X10242500Y11457339D01*
X10242500Y11469208D01*
X10930082Y10781626D01*
X10930083Y10781626D01*
X10961199Y10824454D01*
X11054670Y11007900D01*
X11054673Y11007906D01*
X11118291Y11203703D01*
X11133950Y11302569D01*
X12214388Y11302569D01*
X12214388Y9652436D01*
X12214389Y9652426D01*
X12229153Y9578199D01*
X12285404Y9494015D01*
X12369585Y9437766D01*
X12443820Y9423000D01*
X12443821Y9423000D01*
X14093951Y9423000D01*
X14093961Y9423001D01*
X14168188Y9437765D01*
X14252371Y9494015D01*
X14261675Y9507939D01*
X14261676Y9507940D01*
X14308621Y9578197D01*
X14308622Y9578199D01*
X14323388Y9652433D01*
X14323387Y9839021D01*
X14343389Y9907139D01*
X14360292Y9928115D01*
X14868888Y10436711D01*
X14868888Y10424839D01*
X14896147Y10323106D01*
X14948808Y10231894D01*
X15023282Y10157420D01*
X15114494Y10104759D01*
X15216227Y10077500D01*
X15228097Y10077500D01*
X14540513Y9389916D01*
X14583340Y9358801D01*
X14766788Y9265329D01*
X14766794Y9265326D01*
X14962593Y9201708D01*
X14962589Y9201708D01*
X15165949Y9169500D01*
X15371827Y9169500D01*
X15575184Y9201708D01*
X15770981Y9265326D01*
X15770987Y9265329D01*
X15954428Y9358797D01*
X15954429Y9358798D01*
X15997260Y9389916D01*
X15309678Y10077500D01*
X15321549Y10077500D01*
X15423282Y10104759D01*
X15514494Y10157420D01*
X15588968Y10231894D01*
X15641629Y10323106D01*
X15668888Y10424839D01*
X15668888Y10436708D01*
X16356470Y9749126D01*
X16356471Y9749126D01*
X16387587Y9791954D01*
X16481058Y9975400D01*
X16481059Y9975401D01*
X16483396Y9982594D01*
X16483397Y9982596D01*
X16544679Y10171203D01*
X16576888Y10374561D01*
X16576888Y10580438D01*
X16544679Y10783796D01*
X16481061Y10979593D01*
X16481058Y10979599D01*
X16387589Y11163041D01*
X16356470Y11205872D01*
X16356469Y11205872D01*
X15668888Y10518291D01*
X15668888Y10530161D01*
X15641629Y10631894D01*
X15588968Y10723106D01*
X15514494Y10797580D01*
X15423282Y10850241D01*
X15321549Y10877500D01*
X15309679Y10877500D01*
X15997260Y11565081D01*
X15997260Y11565082D01*
X15954429Y11596201D01*
X15770987Y11689670D01*
X15770981Y11689673D01*
X15575182Y11753291D01*
X15575186Y11753291D01*
X15371827Y11785500D01*
X15165949Y11785500D01*
X14962591Y11753291D01*
X14766794Y11689673D01*
X14766788Y11689670D01*
X14583342Y11596199D01*
X14540514Y11565083D01*
X14540514Y11565082D01*
X15228098Y10877500D01*
X15216227Y10877500D01*
X15114494Y10850241D01*
X15023282Y10797580D01*
X14948808Y10723106D01*
X14896147Y10631894D01*
X14868888Y10530161D01*
X14868888Y10518289D01*
X14360292Y11026885D01*
X14326267Y11089198D01*
X14323387Y11115981D01*
X14323387Y11302563D01*
X14323386Y11302572D01*
X14308622Y11376801D01*
X14261677Y11447059D01*
X14256621Y11454625D01*
X14252372Y11460984D01*
X14168189Y11517234D01*
X14093955Y11532000D01*
X12443822Y11531999D01*
X12443819Y11531998D01*
X12443814Y11531998D01*
X12375952Y11518500D01*
X12369587Y11517234D01*
X12294712Y11467203D01*
X12285403Y11460983D01*
X12229154Y11376802D01*
X12214388Y11302569D01*
X11133950Y11302569D01*
X11138052Y11328468D01*
X11150500Y11407061D01*
X11150500Y11612938D01*
X11118291Y11816296D01*
X11054673Y12012093D01*
X11054670Y12012099D01*
X10961201Y12195541D01*
X10930082Y12238372D01*
X10930081Y12238372D01*
X10242500Y11550791D01*
X10242500Y11562661D01*
X10215241Y11664394D01*
X10162580Y11755606D01*
X10088106Y11830080D01*
X9996894Y11882741D01*
X9895161Y11910000D01*
X9883291Y11910000D01*
X10570872Y12597581D01*
X10570872Y12597582D01*
X10528041Y12628701D01*
X10344599Y12722170D01*
X10344593Y12722173D01*
X10148794Y12785791D01*
X10148796Y12785791D01*
X10110286Y12791890D01*
X10110285Y12791891D01*
X9945439Y12818000D01*
X9739561Y12818000D01*
X9536203Y12785791D01*
X9340406Y12722173D01*
X9340400Y12722170D01*
X9156954Y12628699D01*
X9114126Y12597583D01*
X9114126Y12597582D01*
X9801710Y11910000D01*
X9789839Y11910000D01*
X9688106Y11882741D01*
X9596894Y11830080D01*
X9522420Y11755606D01*
X9469759Y11664394D01*
X9442500Y11562661D01*
X9442500Y11550788D01*
X8754916Y12238372D01*
X8723798Y12195541D01*
X8723797Y12195540D01*
X8630329Y12012099D01*
X8630326Y12012093D01*
X8566708Y11816296D01*
X8534500Y11612938D01*
X2465851Y11612938D01*
X1905790Y12173000D01*
X1917661Y12173000D01*
X2019394Y12200259D01*
X2110606Y12252920D01*
X2185080Y12327394D01*
X2237741Y12418606D01*
X2265000Y12520339D01*
X2265000Y12532208D01*
X2952582Y11844626D01*
X2952583Y11844626D01*
X2983699Y11887454D01*
X3077170Y12070900D01*
X3077173Y12070906D01*
X3140791Y12266703D01*
X3173000Y12470061D01*
X3173000Y12675938D01*
X3140791Y12879296D01*
X3077173Y13075093D01*
X3077170Y13075099D01*
X2983701Y13258541D01*
X2952582Y13301372D01*
X2952581Y13301372D01*
X2265000Y12613791D01*
X2265000Y12625661D01*
X2237741Y12727394D01*
X2185080Y12818606D01*
X2110606Y12893080D01*
X2019394Y12945741D01*
X1917661Y12973000D01*
X1905791Y12973000D01*
X2593372Y13660581D01*
X2593372Y13660582D01*
X2550541Y13691701D01*
X2367099Y13785170D01*
X2367093Y13785173D01*
X2171294Y13848791D01*
X2171298Y13848791D01*
X1967939Y13881000D01*
X1762061Y13881000D01*
X1558703Y13848791D01*
X1362906Y13785173D01*
X1362900Y13785170D01*
X1179454Y13691699D01*
X1136626Y13660583D01*
X1136626Y13660582D01*
X1824210Y12973000D01*
X1812339Y12973000D01*
X1710606Y12945741D01*
X1619394Y12893080D01*
X1544920Y12818606D01*
X1492259Y12727394D01*
X1465000Y12625661D01*
X1465000Y12613788D01*
X777416Y13301372D01*
X746298Y13258541D01*
X746297Y13258540D01*
X652829Y13075099D01*
X652826Y13075093D01*
X589208Y12879296D01*
X557000Y12675938D01*
X-2080500Y12675938D01*
X-2080500Y12676861D01*
X-2121024Y12880586D01*
X-2121026Y12880591D01*
X-2159303Y12973000D01*
X-2200514Y13072493D01*
X-2315917Y13245204D01*
X-2315921Y13245209D01*
X-2462790Y13392078D01*
X-2462796Y13392083D01*
X-2472777Y13398752D01*
X-2635507Y13507486D01*
X-2827414Y13586976D01*
X-3031141Y13627500D01*
X-3238859Y13627500D01*
X-3442586Y13586976D01*
X-3634493Y13507486D01*
X-3807204Y13392083D01*
X-3954083Y13245204D01*
X-4069486Y13072493D01*
X-4148976Y12880586D01*
X-4189500Y12676859D01*
X-10082160Y12676859D01*
X-10171205Y12705791D01*
X-10171201Y12705791D01*
X-10374561Y12738000D01*
X-10580439Y12738000D01*
X-10783796Y12705791D01*
X-10979593Y12642173D01*
X-10979599Y12642170D01*
X-11163041Y12548701D01*
X-11205872Y12517582D01*
X-11205872Y12517581D01*
X-10518291Y11830000D01*
X-10530161Y11830000D01*
X-10631894Y11802741D01*
X-10723106Y11750080D01*
X-10797580Y11675606D01*
X-10850241Y11584394D01*
X-10877500Y11482661D01*
X-10877500Y11470791D01*
X-11565081Y12158372D01*
X-11565082Y12158372D01*
X-11596201Y12115541D01*
X-11689670Y11932099D01*
X-11689673Y11932093D01*
X-11753291Y11736296D01*
X-11785500Y11532938D01*
X-14631647Y11532938D01*
X-14712095Y11640404D01*
X-14829034Y11727944D01*
X-14965906Y11778994D01*
X-15026402Y11785499D01*
X-15026415Y11785500D01*
X-15621000Y11785500D01*
X-15621000Y10789186D01*
X-15629394Y10797580D01*
X-15720606Y10850241D01*
X-15822339Y10877500D01*
X-15927661Y10877500D01*
X-16029394Y10850241D01*
X-16120606Y10797580D01*
X-16129000Y10789186D01*
X-16129000Y11785500D01*
X-16723585Y11785500D01*
X-16723597Y11785499D01*
X-16784093Y11778994D01*
X-16920964Y11727944D01*
X-16920965Y11727944D01*
X-17037904Y11640404D01*
X-17125444Y11523465D01*
X-17125444Y11523464D01*
X-17176494Y11386593D01*
X-17182999Y11326097D01*
X-17183000Y11326085D01*
X-20885535Y11326085D01*
X-20887948Y11327826D01*
X-20906924Y11352272D01*
X-20927682Y11375217D01*
X-20928481Y11380044D01*
X-20931482Y11383909D01*
X-20934228Y11414727D01*
X-20939288Y11445259D01*
X-20937350Y11449752D01*
X-20937785Y11454625D01*
X-20923432Y11482038D01*
X-20911183Y11510456D01*
X-20906374Y11514622D01*
X-20904856Y11517523D01*
X-20899529Y11520553D01*
X-20882211Y11535559D01*
X-20882258Y11535624D01*
X-20881511Y11536166D01*
X-20880052Y11537431D01*
X-20878256Y11538531D01*
X-20705320Y11664177D01*
X-20554177Y11815320D01*
X-20428536Y11988249D01*
X-20331493Y12178707D01*
X-20331490Y12178713D01*
X-20265438Y12382001D01*
X-20255301Y12446000D01*
X-21159297Y12446000D01*
X-21124075Y12507007D01*
X-21090000Y12634174D01*
X-21090000Y12765826D01*
X-21124075Y12892993D01*
X-21159297Y12954000D01*
X-20255302Y12954000D01*
X-20265440Y13018004D01*
X-20331490Y13221286D01*
X-20331493Y13221292D01*
X-20428536Y13411750D01*
X-20554177Y13584679D01*
X-20705320Y13735822D01*
X-20878249Y13861463D01*
X-21068707Y13958506D01*
X-21068713Y13958509D01*
X-21271998Y14024560D01*
X-21336000Y14034696D01*
X-21336000Y13130702D01*
X-21397007Y13165925D01*
X-21524174Y13200000D01*
X-21655826Y13200000D01*
X-21782993Y13165925D01*
X-21844000Y13130702D01*
X-21844000Y14034696D01*
X-21908001Y14024560D01*
X-22111286Y13958509D01*
X-22111292Y13958506D01*
X-22301750Y13861463D01*
X-22474679Y13735822D01*
X-22625822Y13584679D01*
X-22751463Y13411750D01*
X-22848506Y13221292D01*
X-22848509Y13221286D01*
X-22874241Y13142092D01*
X-22914314Y13083486D01*
X-22979711Y13055849D01*
X-23049668Y13067956D01*
X-23101974Y13115962D01*
X-23106341Y13123825D01*
X-23121210Y13153007D01*
X-23185347Y13278884D01*
X-23196474Y13294199D01*
X-23287536Y13419535D01*
X-23410464Y13542463D01*
X-23502859Y13609592D01*
X-23551116Y13644653D01*
X-23706019Y13723580D01*
X-23871362Y13777303D01*
X-24043074Y13804500D01*
X-24216926Y13804500D01*
X-24388638Y13777303D01*
X-24553981Y13723580D01*
X-24708884Y13644653D01*
X-24849533Y13542465D01*
X-24972465Y13419533D01*
X-25074653Y13278884D01*
X-25153580Y13123981D01*
X-25207303Y12958638D01*
X-25234500Y12786926D01*
X-25234500Y12613074D01*
X-25207303Y12441362D01*
X-25153580Y12276019D01*
X-25074653Y12121116D01*
X-25070602Y12115540D01*
X-24972463Y11980464D01*
X-24849535Y11857536D01*
X-24708887Y11755349D01*
X-24708884Y11755347D01*
X-24553981Y11676420D01*
X-24553978Y11676419D01*
X-24553976Y11676418D01*
X-24388642Y11622698D01*
X-24388640Y11622697D01*
X-24388638Y11622697D01*
X-24216926Y11595500D01*
X-24216923Y11595500D01*
X-24043077Y11595500D01*
X-24043074Y11595500D01*
X-23871362Y11622697D01*
X-23871360Y11622697D01*
X-23871357Y11622698D01*
X-23706023Y11676418D01*
X-23706017Y11676421D01*
X-23551112Y11755349D01*
X-23410464Y11857536D01*
X-23287536Y11980464D01*
X-23185348Y12121113D01*
X-23106341Y12276174D01*
X-23057592Y12327789D01*
X-22988678Y12344855D01*
X-22921476Y12321954D01*
X-22877324Y12266356D01*
X-22874241Y12257908D01*
X-22848507Y12178709D01*
X-22848506Y12178707D01*
X-22751463Y11988249D01*
X-22625822Y11815320D01*
X-22474679Y11664177D01*
X-22301748Y11538534D01*
X-22299955Y11537436D01*
X-22299415Y11536840D01*
X-22297742Y11535624D01*
X-22297997Y11535272D01*
X-22252321Y11484791D01*
X-22240710Y11414750D01*
X-22268810Y11349551D01*
X-22297789Y11324440D01*
X-22297742Y11324376D01*
X-22298496Y11323827D01*
X-22299955Y11322564D01*
X-22301748Y11321465D01*
X-22474679Y11195822D01*
X-22625822Y11044679D01*
X-22751463Y10871750D01*
X-22848506Y10681292D01*
X-22848509Y10681286D01*
X-22874241Y10602092D01*
X-22914314Y10543486D01*
X-22979711Y10515849D01*
X-23049668Y10527956D01*
X-23101974Y10575962D01*
X-23106341Y10583825D01*
X-23121210Y10613007D01*
X-23185347Y10738884D01*
X-23189394Y10744454D01*
X-23287536Y10879535D01*
X-23410464Y11002463D01*
X-23551112Y11104650D01*
X-23551116Y11104653D01*
X-23706019Y11183580D01*
X-23871362Y11237303D01*
X-24043074Y11264500D01*
X-24216926Y11264500D01*
X-24388638Y11237303D01*
X-24553981Y11183580D01*
X-24708884Y11104653D01*
X-24849533Y11002465D01*
X-24972465Y10879533D01*
X-25074653Y10738884D01*
X-25153580Y10583981D01*
X-25207303Y10418638D01*
X-25234500Y10246926D01*
X-25234500Y10073074D01*
X-25207303Y9901362D01*
X-25153580Y9736019D01*
X-25074653Y9581116D01*
X-25074651Y9581113D01*
X-25074650Y9581112D01*
X-24972463Y9440464D01*
X-24849535Y9317536D01*
X-24777678Y9265329D01*
X-24708884Y9215347D01*
X-24553981Y9136420D01*
X-24553978Y9136419D01*
X-24553976Y9136418D01*
X-24388642Y9082698D01*
X-24388640Y9082697D01*
X-24388638Y9082697D01*
X-24216926Y9055500D01*
X-24216923Y9055500D01*
X-24043077Y9055500D01*
X-24043074Y9055500D01*
X-23871362Y9082697D01*
X-23871360Y9082697D01*
X-23871357Y9082698D01*
X-23706023Y9136418D01*
X-23706017Y9136421D01*
X-23551112Y9215349D01*
X-23410464Y9317536D01*
X-23287536Y9440464D01*
X-23185348Y9581113D01*
X-23106341Y9736174D01*
X-23057592Y9787789D01*
X-22988678Y9804855D01*
X-22921476Y9781954D01*
X-22877324Y9726356D01*
X-22874241Y9717908D01*
X-22848507Y9638709D01*
X-22848506Y9638707D01*
X-22751463Y9448249D01*
X-22625822Y9275320D01*
X-22474679Y9124177D01*
X-22301748Y8998534D01*
X-22299955Y8997436D01*
X-22299415Y8996840D01*
X-22297742Y8995624D01*
X-22297997Y8995272D01*
X-22252321Y8944791D01*
X-22240710Y8874750D01*
X-22268810Y8809551D01*
X-22297789Y8784440D01*
X-22297742Y8784376D01*
X-22298496Y8783827D01*
X-22299955Y8782564D01*
X-22301748Y8781465D01*
X-22474679Y8655822D01*
X-22625822Y8504679D01*
X-22751463Y8331750D01*
X-22848506Y8141292D01*
X-22848509Y8141286D01*
X-22874241Y8062092D01*
X-22914314Y8003486D01*
X-22979711Y7975849D01*
X-23049668Y7987956D01*
X-23101974Y8035962D01*
X-23106341Y8043825D01*
X-23127322Y8085002D01*
X-23185347Y8198884D01*
X-23185349Y8198887D01*
X-23287536Y8339535D01*
X-23410464Y8462463D01*
X-23551112Y8564650D01*
X-23551116Y8564653D01*
X-23706019Y8643580D01*
X-23871362Y8697303D01*
X-24043074Y8724500D01*
X-24216926Y8724500D01*
X-24388638Y8697303D01*
X-24553981Y8643580D01*
X-24708884Y8564653D01*
X-24849533Y8462465D01*
X-24972465Y8339533D01*
X-25074653Y8198884D01*
X-25153580Y8043981D01*
X-25207303Y7878638D01*
X-25234500Y7706926D01*
X-25234500Y7533074D01*
X-25207303Y7361362D01*
X-25153580Y7196019D01*
X-25074653Y7041116D01*
X-25074651Y7041113D01*
X-25074650Y7041112D01*
X-24972463Y6900464D01*
X-24849535Y6777536D01*
X-24711729Y6677414D01*
X-24708884Y6675347D01*
X-24553981Y6596420D01*
X-24553978Y6596419D01*
X-24553976Y6596418D01*
X-24388642Y6542698D01*
X-24388640Y6542697D01*
X-24388638Y6542697D01*
X-24216926Y6515500D01*
X-24216923Y6515500D01*
X-24043077Y6515500D01*
X-24043074Y6515500D01*
X-23871362Y6542697D01*
X-23871360Y6542697D01*
X-23871357Y6542698D01*
X-23706023Y6596418D01*
X-23706017Y6596421D01*
X-23551112Y6675349D01*
X-23410464Y6777536D01*
X-23287536Y6900464D01*
X-23185348Y7041113D01*
X-23106341Y7196174D01*
X-23057592Y7247789D01*
X-22988678Y7264855D01*
X-22921476Y7241954D01*
X-22877324Y7186356D01*
X-22874241Y7177908D01*
X-22848507Y7098709D01*
X-22848506Y7098707D01*
X-22751463Y6908249D01*
X-22625822Y6735320D01*
X-22474679Y6584177D01*
X-22301748Y6458534D01*
X-22299955Y6457436D01*
X-22299415Y6456840D01*
X-22297742Y6455624D01*
X-22297997Y6455272D01*
X-22252321Y6404791D01*
X-22240710Y6334750D01*
X-22268810Y6269551D01*
X-22297789Y6244440D01*
X-22297742Y6244376D01*
X-22298496Y6243827D01*
X-22299955Y6242564D01*
X-22301748Y6241465D01*
X-22474679Y6115822D01*
X-22625822Y5964679D01*
X-22751463Y5791750D01*
X-22848506Y5601292D01*
X-22848509Y5601286D01*
X-22874241Y5522092D01*
X-22914314Y5463486D01*
X-22979711Y5435849D01*
X-23049668Y5447956D01*
X-23101974Y5495962D01*
X-23106341Y5503825D01*
X-23124250Y5538973D01*
X-23185347Y5658884D01*
X-23214284Y5698712D01*
X-23287536Y5799535D01*
X-23410464Y5922463D01*
X-23551112Y6024650D01*
X-23551116Y6024653D01*
X-23706019Y6103580D01*
X-23871362Y6157303D01*
X-24043074Y6184500D01*
X-24216926Y6184500D01*
X-24388638Y6157303D01*
X-24553981Y6103580D01*
X-24708884Y6024653D01*
X-24849533Y5922465D01*
X-24972465Y5799533D01*
X-25074653Y5658884D01*
X-25153580Y5503981D01*
X-25207303Y5338638D01*
X-25234500Y5166926D01*
X-25234500Y4993074D01*
X-25207303Y4821362D01*
X-25153580Y4656019D01*
X-25074653Y4501116D01*
X-25074651Y4501113D01*
X-25074650Y4501112D01*
X-24972463Y4360464D01*
X-24849535Y4237536D01*
X-24711729Y4137414D01*
X-24708884Y4135347D01*
X-24553981Y4056420D01*
X-24553978Y4056419D01*
X-24553976Y4056418D01*
X-24388642Y4002698D01*
X-24388640Y4002697D01*
X-24388638Y4002697D01*
X-24216926Y3975500D01*
X-24216923Y3975500D01*
X-24043077Y3975500D01*
X-24043074Y3975500D01*
X-23871362Y4002697D01*
X-23871360Y4002697D01*
X-23871357Y4002698D01*
X-23706023Y4056418D01*
X-23706017Y4056421D01*
X-23551112Y4135349D01*
X-23410464Y4237536D01*
X-23287536Y4360464D01*
X-23185348Y4501113D01*
X-23106341Y4656174D01*
X-23057592Y4707789D01*
X-22988678Y4724855D01*
X-22921476Y4701954D01*
X-22877324Y4646356D01*
X-22874241Y4637908D01*
X-22848507Y4558709D01*
X-22848506Y4558707D01*
X-22751463Y4368249D01*
X-22625822Y4195320D01*
X-22474679Y4044177D01*
X-22301748Y3918534D01*
X-22299955Y3917436D01*
X-22299415Y3916840D01*
X-22297742Y3915624D01*
X-22297997Y3915272D01*
X-22252321Y3864791D01*
X-22240710Y3794750D01*
X-22268810Y3729551D01*
X-22297789Y3704440D01*
X-22297742Y3704376D01*
X-22298496Y3703827D01*
X-22299955Y3702564D01*
X-22301748Y3701465D01*
X-22474679Y3575822D01*
X-22625822Y3424679D01*
X-22751463Y3251750D01*
X-22787232Y3181549D01*
X-22835980Y3129933D01*
X-22904895Y3112866D01*
X-22972096Y3135766D01*
X-23016250Y3191363D01*
X-23025500Y3238749D01*
X-23025500Y3415063D01*
X-23025501Y3415073D01*
X-23040265Y3489300D01*
X-23096516Y3573484D01*
X-23180697Y3629733D01*
X-23180699Y3629734D01*
X-23254933Y3644500D01*
X-25005066Y3644499D01*
X-25005069Y3644498D01*
X-25005073Y3644498D01*
X-25054326Y3634701D01*
X-25079301Y3629734D01*
X-25163484Y3573484D01*
X-25219734Y3489301D01*
X-25234500Y3415067D01*
X-25234499Y2666000D01*
X-25234499Y2496599D01*
X-25254501Y2428478D01*
X-25308157Y2381985D01*
X-25378431Y2371881D01*
X-25443011Y2401374D01*
X-25465264Y2426597D01*
X-25523509Y2513767D01*
X-25523514Y2513773D01*
X-25615225Y2605484D01*
X-25615231Y2605489D01*
X-25627457Y2613658D01*
X-25723083Y2677554D01*
X-25842923Y2727193D01*
X-25970143Y2752499D01*
X-26099857Y2752499D01*
X-26227077Y2727193D01*
X-26346917Y2677554D01*
X-26454769Y2605489D01*
X-26546490Y2513768D01*
X-26618555Y2405916D01*
X-26668194Y2286076D01*
X-26693500Y2158856D01*
X-29768337Y2158856D01*
X-29753674Y2203983D01*
X-29736129Y2257977D01*
X-29732484Y2281000D01*
X-30613670Y2281000D01*
X-30589925Y2304745D01*
X-30540556Y2390255D01*
X-30515000Y2485630D01*
X-30515000Y2584370D01*
X-30540556Y2679745D01*
X-30589925Y2765255D01*
X-30613670Y2789000D01*
X-29732484Y2789000D01*
X-29736129Y2812022D01*
X-29793670Y2989112D01*
X-29878210Y3155030D01*
X-29987660Y3305675D01*
X-29987662Y3305678D01*
X-30119321Y3437337D01*
X-30119324Y3437339D01*
X-30269969Y3546789D01*
X-30435887Y3631329D01*
X-30612976Y3688869D01*
X-30737600Y3708608D01*
X-30801753Y3739020D01*
X-30839280Y3799288D01*
X-30838266Y3870278D01*
X-30799033Y3929450D01*
X-30742472Y3956635D01*
X-30659794Y3973081D01*
X-30618874Y3981221D01*
X-30618871Y3981222D01*
X-30449717Y4051288D01*
X-30297479Y4153010D01*
X-30297473Y4153015D01*
X-30168015Y4282473D01*
X-30168010Y4282479D01*
X-30066288Y4434717D01*
X-29996222Y4603871D01*
X-29996221Y4603874D01*
X-29975551Y4707789D01*
X-29960500Y4783452D01*
X-29960500Y4966548D01*
X-29996221Y5146125D01*
X-30017381Y5197209D01*
X-30024960Y5215507D01*
X-30066288Y5315283D01*
X-30162299Y5458973D01*
X-30168010Y5467520D01*
X-30168015Y5467526D01*
X-30297473Y5596984D01*
X-30297479Y5596989D01*
X-30303919Y5601292D01*
X-30449717Y5698712D01*
X-30618875Y5768779D01*
X-30798452Y5804500D01*
X-31431548Y5804500D01*
X-31611125Y5768779D01*
X-31780283Y5698712D01*
X-31932521Y5596989D01*
X-32061989Y5467521D01*
X-32163712Y5315283D01*
X-32233779Y5146125D01*
X-32269500Y4966548D01*
X-32269500Y4783452D01*
X-32233779Y4603875D01*
X-32163712Y4434717D01*
X-32101186Y4341141D01*
X-32061989Y4282479D01*
X-32061984Y4282473D01*
X-31932526Y4153015D01*
X-31932520Y4153010D01*
X-31909179Y4137414D01*
X-31780283Y4051288D01*
X-31673611Y4007103D01*
X-31611128Y3981222D01*
X-31611125Y3981221D01*
X-31487526Y3956635D01*
X-31424619Y3923728D01*
X-31389487Y3862033D01*
X-31393287Y3791138D01*
X-31434813Y3733552D01*
X-31492400Y3708608D01*
X-31617022Y3688870D01*
X-31794112Y3631329D01*
X-31960030Y3546789D01*
X-32110675Y3437339D01*
X-32110678Y3437337D01*
X-32242337Y3305678D01*
X-32242339Y3305675D01*
X-32351789Y3155030D01*
X-32436329Y2989112D01*
X-32493870Y2812022D01*
X-32497516Y2789000D01*
X-37512211Y2789000D01*
X-37519011Y2831933D01*
X-37519011Y2831934D01*
X-37519012Y2831938D01*
X-37579648Y3018557D01*
X-37579651Y3018563D01*
X-37582267Y3023699D01*
X-37668738Y3193406D01*
X-37719845Y3263749D01*
X-37784080Y3352163D01*
X-37922836Y3490919D01*
X-38022848Y3563581D01*
X-38081594Y3606262D01*
X-38256438Y3695350D01*
X-38256440Y3695350D01*
X-38260849Y3697597D01*
X-38259780Y3699693D01*
X-38307499Y3738177D01*
X-38329895Y3805548D01*
X-38312313Y3874333D01*
X-38260783Y3922274D01*
X-38260849Y3922403D01*
X-38260397Y3922633D01*
X-38260333Y3922693D01*
X-38259820Y3922927D01*
X-38193662Y3956636D01*
X-38081594Y4013738D01*
X-38081592Y4013739D01*
X-37922836Y4129080D01*
X-37784080Y4267836D01*
X-37668739Y4426592D01*
X-37579651Y4601436D01*
X-37579648Y4601442D01*
X-37519012Y4788061D01*
X-37509994Y4845000D01*
X-37488313Y4981884D01*
X-37488313Y5178116D01*
X-37519011Y5371933D01*
X-37519011Y5371934D01*
X-37519012Y5371938D01*
X-37579648Y5558557D01*
X-37579651Y5558563D01*
X-37581353Y5561905D01*
X-37668738Y5733406D01*
X-37719845Y5803750D01*
X-37784080Y5892163D01*
X-37922836Y6030919D01*
X-38039697Y6115822D01*
X-38081594Y6146262D01*
X-38256438Y6235350D01*
X-38256440Y6235350D01*
X-38260849Y6237597D01*
X-38259780Y6239693D01*
X-38307499Y6278177D01*
X-38329895Y6345548D01*
X-38312313Y6414333D01*
X-38260783Y6462274D01*
X-38260849Y6462403D01*
X-38260397Y6462633D01*
X-38260333Y6462693D01*
X-38259820Y6462927D01*
X-38224997Y6480670D01*
X-38081594Y6553738D01*
X-38081592Y6553739D01*
X-37922836Y6669080D01*
X-37784080Y6807836D01*
X-37668739Y6966592D01*
X-37579651Y7141436D01*
X-37579648Y7141442D01*
X-37519012Y7328061D01*
X-37513003Y7366000D01*
X-37488313Y7521884D01*
X-37488313Y7718116D01*
X-37519011Y7911933D01*
X-37519011Y7911934D01*
X-37519012Y7911938D01*
X-37579648Y8098557D01*
X-37579651Y8098563D01*
X-37590573Y8120000D01*
X-37668738Y8273406D01*
X-37716783Y8339535D01*
X-37784080Y8432163D01*
X-37922836Y8570919D01*
X-38039697Y8655822D01*
X-38081594Y8686262D01*
X-38256438Y8775350D01*
X-38443061Y8835987D01*
X-38443062Y8835987D01*
X-38443067Y8835989D01*
X-38636884Y8866687D01*
X-38833116Y8866687D01*
X-39026933Y8835989D01*
X-39213562Y8775350D01*
X-39388406Y8686262D01*
X-39547162Y8570920D01*
X-39685920Y8432162D01*
X-39801262Y8273406D01*
X-39890350Y8098562D01*
X-39950989Y7911933D01*
X-39981687Y7718116D01*
X-39981687Y7521884D01*
X-39950989Y7328067D01*
X-39890350Y7141438D01*
X-39801262Y6966594D01*
X-39758872Y6908249D01*
X-39685919Y6807836D01*
X-39547163Y6669080D01*
X-39431821Y6585280D01*
X-39388406Y6553738D01*
X-39213562Y6464650D01*
X-39213559Y6464649D01*
X-39209151Y6462403D01*
X-39210232Y6460280D01*
X-39162578Y6421935D01*
X-39140109Y6354588D01*
X-39157617Y6285784D01*
X-39209198Y6237690D01*
X-39209151Y6237597D01*
X-39209475Y6237431D01*
X-39209544Y6237368D01*
X-39210087Y6237119D01*
X-39213553Y6235352D01*
X-39213562Y6235350D01*
X-39388406Y6146262D01*
X-39547162Y6030920D01*
X-39685920Y5892162D01*
X-39801262Y5733406D01*
X-39872397Y5593795D01*
X-39921144Y5542182D01*
X-39984663Y5525000D01*
X-41038485Y5525000D01*
X-41106606Y5545002D01*
X-41127580Y5561905D01*
X-42616691Y7051016D01*
X-42650717Y7113328D01*
X-42647429Y7179046D01*
X-42599013Y7328058D01*
X-42599012Y7328059D01*
X-42583340Y7427007D01*
X-42568313Y7521884D01*
X-42568313Y7718116D01*
X-42599011Y7911933D01*
X-42599011Y7911934D01*
X-42599012Y7911938D01*
X-42659648Y8098557D01*
X-42659651Y8098563D01*
X-42670573Y8120000D01*
X-42748738Y8273406D01*
X-42796783Y8339535D01*
X-42864080Y8432163D01*
X-43002836Y8570919D01*
X-43119697Y8655822D01*
X-43161594Y8686262D01*
X-43336438Y8775350D01*
X-43523061Y8835987D01*
X-43523062Y8835987D01*
X-43523067Y8835989D01*
X-43716884Y8866687D01*
X-43913116Y8866687D01*
X-44106933Y8835989D01*
X-44293562Y8775350D01*
X-44468406Y8686262D01*
X-44627162Y8570920D01*
X-44765920Y8432162D01*
X-44881262Y8273406D01*
X-44970350Y8098562D01*
X-45030989Y7911933D01*
X-45061687Y7718116D01*
X-47917000Y7718116D01*
X-47917000Y11216359D01*
X-45187000Y11216359D01*
X-45187000Y11008641D01*
X-45146476Y10804914D01*
X-45066986Y10613007D01*
X-44969431Y10467007D01*
X-44951583Y10440296D01*
X-44951578Y10440290D01*
X-44804709Y10293421D01*
X-44804704Y10293417D01*
X-44631993Y10178014D01*
X-44496762Y10122000D01*
X-44440091Y10098526D01*
X-44440086Y10098524D01*
X-44236361Y10058000D01*
X-44236359Y10058000D01*
X-44028638Y10058000D01*
X-43824913Y10098524D01*
X-43824908Y10098526D01*
X-43633007Y10178014D01*
X-43460296Y10293416D01*
X-43460290Y10293421D01*
X-43313421Y10440290D01*
X-43313416Y10440296D01*
X-43198014Y10613007D01*
X-43118526Y10804908D01*
X-43118524Y10804913D01*
X-43078000Y11008638D01*
X-43078000Y11216359D01*
X-40742000Y11216359D01*
X-40742000Y11008641D01*
X-40701476Y10804914D01*
X-40621986Y10613007D01*
X-40524431Y10467007D01*
X-40506583Y10440296D01*
X-40506578Y10440290D01*
X-40359709Y10293421D01*
X-40359704Y10293417D01*
X-40186993Y10178014D01*
X-40051762Y10122000D01*
X-39995091Y10098526D01*
X-39995086Y10098524D01*
X-39791361Y10058000D01*
X-39791359Y10058000D01*
X-39583638Y10058000D01*
X-39379913Y10098524D01*
X-39379908Y10098526D01*
X-39188007Y10178014D01*
X-39015296Y10293416D01*
X-39015290Y10293421D01*
X-38868421Y10440290D01*
X-38868416Y10440296D01*
X-38753014Y10613007D01*
X-38673526Y10804908D01*
X-38673524Y10804913D01*
X-38633000Y11008638D01*
X-38633000Y11216361D01*
X-38673524Y11420086D01*
X-38673526Y11420091D01*
X-38700326Y11484791D01*
X-38753014Y11611993D01*
X-38847845Y11753916D01*
X-38868416Y11784703D01*
X-38868421Y11784709D01*
X-39015290Y11931578D01*
X-39015296Y11931583D01*
X-39088451Y11980464D01*
X-39188007Y12046986D01*
X-39379914Y12126476D01*
X-39583641Y12167000D01*
X-39791359Y12167000D01*
X-39995086Y12126476D01*
X-40186993Y12046986D01*
X-40359704Y11931583D01*
X-40506583Y11784704D01*
X-40621986Y11611993D01*
X-40701476Y11420086D01*
X-40742000Y11216359D01*
X-43078000Y11216359D01*
X-43078000Y11216361D01*
X-43118524Y11420086D01*
X-43118526Y11420091D01*
X-43145326Y11484791D01*
X-43198014Y11611993D01*
X-43292845Y11753916D01*
X-43313416Y11784703D01*
X-43313421Y11784709D01*
X-43460290Y11931578D01*
X-43460296Y11931583D01*
X-43533451Y11980464D01*
X-43633007Y12046986D01*
X-43824914Y12126476D01*
X-44028641Y12167000D01*
X-44236359Y12167000D01*
X-44440086Y12126476D01*
X-44631993Y12046986D01*
X-44804704Y11931583D01*
X-44951583Y11784704D01*
X-45066986Y11611993D01*
X-45146476Y11420086D01*
X-45187000Y11216359D01*
X-47917000Y11216359D01*
X-47917000Y12486359D01*
X-47409500Y12486359D01*
X-47409500Y12278641D01*
X-47368976Y12074914D01*
X-47289486Y11883007D01*
X-47201078Y11750697D01*
X-47174083Y11710296D01*
X-47174078Y11710290D01*
X-47027209Y11563421D01*
X-47027203Y11563416D01*
X-46980186Y11532000D01*
X-46854493Y11448014D01*
X-46755623Y11407061D01*
X-46662591Y11368526D01*
X-46662586Y11368524D01*
X-46458861Y11328000D01*
X-46458859Y11328000D01*
X-46251138Y11328000D01*
X-46186125Y11340932D01*
X-46086099Y11360829D01*
X-46047413Y11368524D01*
X-46047408Y11368526D01*
X-45855507Y11448014D01*
X-45682796Y11563416D01*
X-45682790Y11563421D01*
X-45535921Y11710290D01*
X-45535916Y11710296D01*
X-45420514Y11883007D01*
X-45341026Y12074908D01*
X-45341024Y12074913D01*
X-45300500Y12278638D01*
X-45300500Y12486359D01*
X-42964500Y12486359D01*
X-42964500Y12278641D01*
X-42923976Y12074914D01*
X-42844486Y11883007D01*
X-42756078Y11750697D01*
X-42729083Y11710296D01*
X-42729078Y11710290D01*
X-42582209Y11563421D01*
X-42582203Y11563416D01*
X-42535186Y11532000D01*
X-42409493Y11448014D01*
X-42310623Y11407061D01*
X-42217591Y11368526D01*
X-42217586Y11368524D01*
X-42013861Y11328000D01*
X-42013859Y11328000D01*
X-41806138Y11328000D01*
X-41741125Y11340932D01*
X-41641099Y11360829D01*
X-41602413Y11368524D01*
X-41602408Y11368526D01*
X-41410507Y11448014D01*
X-41237796Y11563416D01*
X-41237790Y11563421D01*
X-41090921Y11710290D01*
X-41090916Y11710296D01*
X-40975514Y11883007D01*
X-40896026Y12074908D01*
X-40896024Y12074913D01*
X-40855500Y12278638D01*
X-40855500Y12486359D01*
X-38519500Y12486359D01*
X-38519500Y12278641D01*
X-38478976Y12074914D01*
X-38399486Y11883007D01*
X-38311078Y11750697D01*
X-38284083Y11710296D01*
X-38284078Y11710290D01*
X-38137209Y11563421D01*
X-38137203Y11563416D01*
X-38090186Y11532000D01*
X-37964493Y11448014D01*
X-37865623Y11407061D01*
X-37772591Y11368526D01*
X-37772586Y11368524D01*
X-37568861Y11328000D01*
X-37568859Y11328000D01*
X-37361138Y11328000D01*
X-37157413Y11368524D01*
X-37157408Y11368526D01*
X-36965507Y11448014D01*
X-36792796Y11563416D01*
X-36792790Y11563421D01*
X-36645921Y11710290D01*
X-36645916Y11710296D01*
X-36530514Y11883007D01*
X-36451026Y12074908D01*
X-36451024Y12074913D01*
X-36410500Y12278638D01*
X-36410500Y12486361D01*
X-36451024Y12690086D01*
X-36451026Y12690091D01*
X-36491136Y12786926D01*
X-36530514Y12881993D01*
X-36607623Y12997395D01*
X-36645916Y13054703D01*
X-36645921Y13054709D01*
X-36792790Y13201578D01*
X-36792796Y13201583D01*
X-36890022Y13266548D01*
X-32269500Y13266548D01*
X-32269500Y13083452D01*
X-32233779Y12903875D01*
X-32163712Y12734717D01*
X-32072080Y12597581D01*
X-32061989Y12582479D01*
X-32061984Y12582473D01*
X-31932526Y12453015D01*
X-31932520Y12453010D01*
X-31915080Y12441357D01*
X-31780283Y12351288D01*
X-31673611Y12307103D01*
X-31611128Y12281222D01*
X-31611125Y12281221D01*
X-31431548Y12245500D01*
X-31431546Y12245500D01*
X-30798453Y12245500D01*
X-30798452Y12245500D01*
X-30691860Y12266703D01*
X-30618874Y12281221D01*
X-30618871Y12281222D01*
X-30449717Y12351288D01*
X-30297479Y12453010D01*
X-30297473Y12453015D01*
X-30168015Y12582473D01*
X-30168010Y12582479D01*
X-30066288Y12734717D01*
X-29996222Y12903871D01*
X-29996221Y12903874D01*
X-29966219Y13054703D01*
X-29960500Y13083452D01*
X-29960500Y13266548D01*
X-29996221Y13446125D01*
X-30012374Y13485121D01*
X-30027966Y13522765D01*
X-30066288Y13615283D01*
X-30160551Y13756357D01*
X-30168010Y13767520D01*
X-30168015Y13767526D01*
X-30297473Y13896984D01*
X-30297479Y13896989D01*
X-30358940Y13938056D01*
X-30449717Y13998712D01*
X-30618875Y14068779D01*
X-30798452Y14104500D01*
X-31431548Y14104500D01*
X-31611125Y14068779D01*
X-31780283Y13998712D01*
X-31932521Y13896989D01*
X-32061989Y13767521D01*
X-32163712Y13615283D01*
X-32233779Y13446125D01*
X-32269500Y13266548D01*
X-36890022Y13266548D01*
X-36965507Y13316986D01*
X-37157414Y13396476D01*
X-37361141Y13437000D01*
X-37568859Y13437000D01*
X-37772586Y13396476D01*
X-37964493Y13316986D01*
X-38137204Y13201583D01*
X-38284083Y13054704D01*
X-38399486Y12881993D01*
X-38478976Y12690086D01*
X-38519500Y12486359D01*
X-40855500Y12486359D01*
X-40855500Y12486361D01*
X-40896024Y12690086D01*
X-40896026Y12690091D01*
X-40936136Y12786926D01*
X-40975514Y12881993D01*
X-41052623Y12997395D01*
X-41090916Y13054703D01*
X-41090921Y13054709D01*
X-41237790Y13201578D01*
X-41237796Y13201583D01*
X-41410507Y13316986D01*
X-41602414Y13396476D01*
X-41806141Y13437000D01*
X-42013859Y13437000D01*
X-42217586Y13396476D01*
X-42409493Y13316986D01*
X-42582204Y13201583D01*
X-42729083Y13054704D01*
X-42844486Y12881993D01*
X-42923976Y12690086D01*
X-42964500Y12486359D01*
X-45300500Y12486359D01*
X-45300500Y12486361D01*
X-45341024Y12690086D01*
X-45341026Y12690091D01*
X-45381136Y12786926D01*
X-45420514Y12881993D01*
X-45497623Y12997395D01*
X-45535916Y13054703D01*
X-45535921Y13054709D01*
X-45682790Y13201578D01*
X-45682796Y13201583D01*
X-45855507Y13316986D01*
X-46047414Y13396476D01*
X-46251141Y13437000D01*
X-46458859Y13437000D01*
X-46662586Y13396476D01*
X-46854493Y13316986D01*
X-47027204Y13201583D01*
X-47174083Y13054704D01*
X-47289486Y12881993D01*
X-47368976Y12690086D01*
X-47409500Y12486359D01*
X-47917000Y12486359D01*
X-47917000Y13756359D01*
X-45187000Y13756359D01*
X-45187000Y13548641D01*
X-45146476Y13344914D01*
X-45066986Y13153007D01*
X-44976779Y13018004D01*
X-44951583Y12980296D01*
X-44951578Y12980290D01*
X-44804709Y12833421D01*
X-44804704Y12833417D01*
X-44631993Y12718014D01*
X-44468190Y12650165D01*
X-44440091Y12638526D01*
X-44440086Y12638524D01*
X-44236361Y12598000D01*
X-44236359Y12598000D01*
X-44028638Y12598000D01*
X-43963625Y12610932D01*
X-43874297Y12628701D01*
X-43824913Y12638524D01*
X-43824908Y12638526D01*
X-43633007Y12718014D01*
X-43460296Y12833416D01*
X-43460290Y12833421D01*
X-43313421Y12980290D01*
X-43313416Y12980296D01*
X-43198014Y13153007D01*
X-43118526Y13344908D01*
X-43118524Y13344913D01*
X-43078000Y13548638D01*
X-43078000Y13756359D01*
X-40742000Y13756359D01*
X-40742000Y13548641D01*
X-40701476Y13344914D01*
X-40621986Y13153007D01*
X-40531779Y13018004D01*
X-40506583Y12980296D01*
X-40506578Y12980290D01*
X-40359709Y12833421D01*
X-40359704Y12833417D01*
X-40186993Y12718014D01*
X-40023190Y12650165D01*
X-39995091Y12638526D01*
X-39995086Y12638524D01*
X-39791361Y12598000D01*
X-39791359Y12598000D01*
X-39583638Y12598000D01*
X-39518625Y12610932D01*
X-39429297Y12628701D01*
X-39379913Y12638524D01*
X-39379908Y12638526D01*
X-39188007Y12718014D01*
X-39015296Y12833416D01*
X-39015290Y12833421D01*
X-38868421Y12980290D01*
X-38868416Y12980296D01*
X-38753014Y13153007D01*
X-38673526Y13344908D01*
X-38673524Y13344913D01*
X-38633000Y13548638D01*
X-38633000Y13756361D01*
X-38673524Y13960086D01*
X-38673526Y13960091D01*
X-38700230Y14024560D01*
X-38753014Y14151993D01*
X-38831521Y14269486D01*
X-38868416Y14324703D01*
X-38868421Y14324709D01*
X-39015290Y14471578D01*
X-39015296Y14471583D01*
X-39188007Y14586986D01*
X-39379914Y14666476D01*
X-39583641Y14707000D01*
X-39791359Y14707000D01*
X-39995086Y14666476D01*
X-40186993Y14586986D01*
X-40359704Y14471583D01*
X-40506583Y14324704D01*
X-40621986Y14151993D01*
X-40701476Y13960086D01*
X-40742000Y13756359D01*
X-43078000Y13756359D01*
X-43078000Y13756361D01*
X-43118524Y13960086D01*
X-43118526Y13960091D01*
X-43145230Y14024560D01*
X-43198014Y14151993D01*
X-43276521Y14269486D01*
X-43313416Y14324703D01*
X-43313421Y14324709D01*
X-43460290Y14471578D01*
X-43460296Y14471583D01*
X-43633007Y14586986D01*
X-43824914Y14666476D01*
X-44028641Y14707000D01*
X-44236359Y14707000D01*
X-44440086Y14666476D01*
X-44631993Y14586986D01*
X-44804704Y14471583D01*
X-44951583Y14324704D01*
X-45066986Y14151993D01*
X-45146476Y13960086D01*
X-45187000Y13756359D01*
X-47917000Y13756359D01*
X-47917000Y15026359D01*
X-47409500Y15026359D01*
X-47409500Y14818641D01*
X-47368976Y14614914D01*
X-47289486Y14423007D01*
X-47215981Y14313000D01*
X-47174083Y14250296D01*
X-47174078Y14250290D01*
X-47027209Y14103421D01*
X-47027204Y14103417D01*
X-46854493Y13988014D01*
X-46733883Y13938056D01*
X-46662591Y13908526D01*
X-46662586Y13908524D01*
X-46458861Y13868000D01*
X-46458859Y13868000D01*
X-46251138Y13868000D01*
X-46185786Y13881000D01*
X-46098471Y13898368D01*
X-46047413Y13908524D01*
X-46047408Y13908526D01*
X-45855507Y13988014D01*
X-45682796Y14103416D01*
X-45682790Y14103421D01*
X-45535921Y14250290D01*
X-45535916Y14250296D01*
X-45420514Y14423007D01*
X-45341026Y14614908D01*
X-45341024Y14614913D01*
X-45300500Y14818638D01*
X-45300500Y15026359D01*
X-42964500Y15026359D01*
X-42964500Y14818641D01*
X-42923976Y14614914D01*
X-42844486Y14423007D01*
X-42770981Y14313000D01*
X-42729083Y14250296D01*
X-42729078Y14250290D01*
X-42582209Y14103421D01*
X-42582204Y14103417D01*
X-42409493Y13988014D01*
X-42288883Y13938056D01*
X-42217591Y13908526D01*
X-42217586Y13908524D01*
X-42013861Y13868000D01*
X-42013859Y13868000D01*
X-41806138Y13868000D01*
X-41740786Y13881000D01*
X-41653471Y13898368D01*
X-41602413Y13908524D01*
X-41602408Y13908526D01*
X-41410507Y13988014D01*
X-41237796Y14103416D01*
X-41237790Y14103421D01*
X-41090921Y14250290D01*
X-41090916Y14250296D01*
X-40975514Y14423007D01*
X-40896026Y14614908D01*
X-40896024Y14614913D01*
X-40855500Y14818638D01*
X-40855500Y15026359D01*
X-38519500Y15026359D01*
X-38519500Y14818641D01*
X-38478976Y14614914D01*
X-38399486Y14423007D01*
X-38325981Y14313000D01*
X-38284083Y14250296D01*
X-38284078Y14250290D01*
X-38137209Y14103421D01*
X-38137204Y14103417D01*
X-37964493Y13988014D01*
X-37843883Y13938056D01*
X-37772591Y13908526D01*
X-37772586Y13908524D01*
X-37568861Y13868000D01*
X-37568859Y13868000D01*
X-37361138Y13868000D01*
X-37157413Y13908524D01*
X-37157408Y13908526D01*
X-36965507Y13988014D01*
X-36792796Y14103416D01*
X-36792790Y14103421D01*
X-36645921Y14250290D01*
X-36645916Y14250296D01*
X-36530514Y14423007D01*
X-36451026Y14614908D01*
X-36451024Y14614913D01*
X-36410500Y14818638D01*
X-36410500Y15026359D01*
X-19152000Y15026359D01*
X-19152000Y14818641D01*
X-19111476Y14614914D01*
X-19031986Y14423007D01*
X-18958481Y14313000D01*
X-18916583Y14250296D01*
X-18916578Y14250290D01*
X-18769709Y14103421D01*
X-18769704Y14103417D01*
X-18596993Y13988014D01*
X-18476383Y13938056D01*
X-18405091Y13908526D01*
X-18405086Y13908524D01*
X-18201361Y13868000D01*
X-18201359Y13868000D01*
X-17993638Y13868000D01*
X-17789913Y13908524D01*
X-17789908Y13908526D01*
X-17598007Y13988014D01*
X-17425296Y14103416D01*
X-17425290Y14103421D01*
X-17278421Y14250290D01*
X-17278416Y14250296D01*
X-17163014Y14423007D01*
X-17083526Y14614908D01*
X-17083524Y14614913D01*
X-17043000Y14818638D01*
X-17043000Y15026359D01*
X-16612000Y15026359D01*
X-16612000Y14818641D01*
X-16571476Y14614914D01*
X-16491986Y14423007D01*
X-16418481Y14313000D01*
X-16376583Y14250296D01*
X-16376578Y14250290D01*
X-16229709Y14103421D01*
X-16229704Y14103417D01*
X-16056993Y13988014D01*
X-15936383Y13938056D01*
X-15865091Y13908526D01*
X-15865086Y13908524D01*
X-15661361Y13868000D01*
X-15661359Y13868000D01*
X-15453638Y13868000D01*
X-15249913Y13908524D01*
X-15249908Y13908526D01*
X-15058007Y13988014D01*
X-14885296Y14103416D01*
X-14885290Y14103421D01*
X-14738421Y14250290D01*
X-14738416Y14250296D01*
X-14623014Y14423007D01*
X-14543526Y14614908D01*
X-14543524Y14614913D01*
X-14503000Y14818638D01*
X-14503000Y15026361D01*
X-14543524Y15230086D01*
X-14543526Y15230091D01*
X-14572864Y15300920D01*
X-14623014Y15421993D01*
X-14720800Y15568339D01*
X-14738416Y15594703D01*
X-14738421Y15594709D01*
X-14885290Y15741578D01*
X-14885296Y15741583D01*
X-14909560Y15757796D01*
X-15058007Y15856986D01*
X-15249914Y15936476D01*
X-15453641Y15977000D01*
X-15661359Y15977000D01*
X-15865086Y15936476D01*
X-16056993Y15856986D01*
X-16229704Y15741583D01*
X-16376583Y15594704D01*
X-16491986Y15421993D01*
X-16571476Y15230086D01*
X-16612000Y15026359D01*
X-17043000Y15026359D01*
X-17043000Y15026361D01*
X-17083524Y15230086D01*
X-17083526Y15230091D01*
X-17112864Y15300920D01*
X-17163014Y15421993D01*
X-17260800Y15568339D01*
X-17278416Y15594703D01*
X-17278421Y15594709D01*
X-17425290Y15741578D01*
X-17425296Y15741583D01*
X-17449560Y15757796D01*
X-17598007Y15856986D01*
X-17789914Y15936476D01*
X-17993641Y15977000D01*
X-18201359Y15977000D01*
X-18405086Y15936476D01*
X-18596993Y15856986D01*
X-18769704Y15741583D01*
X-18916583Y15594704D01*
X-19031986Y15421993D01*
X-19111476Y15230086D01*
X-19152000Y15026359D01*
X-36410500Y15026359D01*
X-36410500Y15026361D01*
X-36451024Y15230086D01*
X-36451026Y15230091D01*
X-36480364Y15300920D01*
X-36530514Y15421993D01*
X-36628300Y15568339D01*
X-36645916Y15594703D01*
X-36645921Y15594709D01*
X-36792790Y15741578D01*
X-36792796Y15741583D01*
X-36817060Y15757796D01*
X-36965507Y15856986D01*
X-37157414Y15936476D01*
X-37361141Y15977000D01*
X-37568859Y15977000D01*
X-37772586Y15936476D01*
X-37964493Y15856986D01*
X-38137204Y15741583D01*
X-38284083Y15594704D01*
X-38399486Y15421993D01*
X-38478976Y15230086D01*
X-38519500Y15026359D01*
X-40855500Y15026359D01*
X-40855500Y15026361D01*
X-40896024Y15230086D01*
X-40896026Y15230091D01*
X-40925364Y15300920D01*
X-40975514Y15421993D01*
X-41073300Y15568339D01*
X-41090916Y15594703D01*
X-41090921Y15594709D01*
X-41237790Y15741578D01*
X-41237796Y15741583D01*
X-41262060Y15757796D01*
X-41410507Y15856986D01*
X-41602414Y15936476D01*
X-41806141Y15977000D01*
X-42013859Y15977000D01*
X-42217586Y15936476D01*
X-42409493Y15856986D01*
X-42582204Y15741583D01*
X-42729083Y15594704D01*
X-42844486Y15421993D01*
X-42923976Y15230086D01*
X-42964500Y15026359D01*
X-45300500Y15026359D01*
X-45300500Y15026361D01*
X-45341024Y15230086D01*
X-45341026Y15230091D01*
X-45370364Y15300920D01*
X-45420514Y15421993D01*
X-45518300Y15568339D01*
X-45535916Y15594703D01*
X-45535921Y15594709D01*
X-45682790Y15741578D01*
X-45682796Y15741583D01*
X-45707060Y15757796D01*
X-45855507Y15856986D01*
X-46047414Y15936476D01*
X-46251141Y15977000D01*
X-46458859Y15977000D01*
X-46662586Y15936476D01*
X-46854493Y15856986D01*
X-47027204Y15741583D01*
X-47174083Y15594704D01*
X-47289486Y15421993D01*
X-47368976Y15230086D01*
X-47409500Y15026359D01*
X-47917000Y15026359D01*
X-47917000Y18193480D01*
X-43837000Y18193480D01*
X-43837000Y18001520D01*
X-43799550Y17813249D01*
X-43726091Y17635901D01*
X-43619443Y17476293D01*
X-43619438Y17476287D01*
X-43483712Y17340561D01*
X-43483706Y17340556D01*
X-43466535Y17329083D01*
X-43324099Y17233909D01*
X-43212262Y17187585D01*
X-43146754Y17160451D01*
X-43146751Y17160450D01*
X-42958483Y17123000D01*
X-42958480Y17123000D01*
X-42766516Y17123000D01*
X-42578248Y17160450D01*
X-42578245Y17160451D01*
X-42400901Y17233909D01*
X-42241293Y17340556D01*
X-42241287Y17340561D01*
X-42105561Y17476287D01*
X-42105556Y17476293D01*
X-41998909Y17635901D01*
X-41925451Y17813245D01*
X-41925450Y17813248D01*
X-41888000Y18001516D01*
X-41888000Y18193480D01*
X-33677000Y18193480D01*
X-33677000Y18001520D01*
X-33639550Y17813249D01*
X-33566091Y17635901D01*
X-33459443Y17476293D01*
X-33459438Y17476287D01*
X-33323712Y17340561D01*
X-33323706Y17340556D01*
X-33306535Y17329083D01*
X-33164099Y17233909D01*
X-33052262Y17187585D01*
X-32986754Y17160451D01*
X-32986751Y17160450D01*
X-32798483Y17123000D01*
X-32798480Y17123000D01*
X-32606516Y17123000D01*
X-32418248Y17160450D01*
X-32418245Y17160451D01*
X-32240901Y17233909D01*
X-32081293Y17340556D01*
X-32081287Y17340561D01*
X-31945561Y17476287D01*
X-31945556Y17476293D01*
X-31838909Y17635901D01*
X-31765451Y17813245D01*
X-31765450Y17813248D01*
X-31728000Y18001516D01*
X-31728000Y18193480D01*
X-23517000Y18193480D01*
X-23517000Y18001520D01*
X-23479550Y17813249D01*
X-23406091Y17635901D01*
X-23299443Y17476293D01*
X-23299438Y17476287D01*
X-23163712Y17340561D01*
X-23163706Y17340556D01*
X-23146535Y17329083D01*
X-23004099Y17233909D01*
X-22892262Y17187585D01*
X-22826754Y17160451D01*
X-22826751Y17160450D01*
X-22638483Y17123000D01*
X-22638480Y17123000D01*
X-22446516Y17123000D01*
X-22258248Y17160450D01*
X-22258245Y17160451D01*
X-22080901Y17233909D01*
X-21921293Y17340556D01*
X-21921287Y17340561D01*
X-21785561Y17476287D01*
X-21785556Y17476293D01*
X-21678909Y17635901D01*
X-21605451Y17813245D01*
X-21605450Y17813248D01*
X-21568000Y18001516D01*
X-21568000Y18193483D01*
X-21605450Y18381751D01*
X-21605451Y18381754D01*
X-21678909Y18559098D01*
X-21678909Y18559099D01*
X-21785557Y18718707D01*
X-21785561Y18718712D01*
X-21921287Y18854438D01*
X-21921293Y18854443D01*
X-22080901Y18961091D01*
X-22258249Y19034550D01*
X-22446520Y19072000D01*
X-22638480Y19072000D01*
X-22826751Y19034550D01*
X-23004099Y18961091D01*
X-23163707Y18854443D01*
X-23299443Y18718707D01*
X-23406091Y18559099D01*
X-23479550Y18381751D01*
X-23517000Y18193480D01*
X-31728000Y18193480D01*
X-31728000Y18193483D01*
X-31765450Y18381751D01*
X-31765451Y18381754D01*
X-31838909Y18559098D01*
X-31838909Y18559099D01*
X-31945557Y18718707D01*
X-31945561Y18718712D01*
X-32081287Y18854438D01*
X-32081293Y18854443D01*
X-32240901Y18961091D01*
X-32418249Y19034550D01*
X-32606520Y19072000D01*
X-32798480Y19072000D01*
X-32986751Y19034550D01*
X-33164099Y18961091D01*
X-33323707Y18854443D01*
X-33459443Y18718707D01*
X-33566091Y18559099D01*
X-33639550Y18381751D01*
X-33677000Y18193480D01*
X-41888000Y18193480D01*
X-41888000Y18193483D01*
X-41925450Y18381751D01*
X-41925451Y18381754D01*
X-41998909Y18559098D01*
X-41998909Y18559099D01*
X-42105557Y18718707D01*
X-42105561Y18718712D01*
X-42241287Y18854438D01*
X-42241293Y18854443D01*
X-42400901Y18961091D01*
X-42578249Y19034550D01*
X-42766520Y19072000D01*
X-42958480Y19072000D01*
X-43146751Y19034550D01*
X-43324099Y18961091D01*
X-43483707Y18854443D01*
X-43619443Y18718707D01*
X-43726091Y18559099D01*
X-43799550Y18381751D01*
X-43837000Y18193480D01*
X-47917000Y18193480D01*
X-47917000Y20733480D01*
X-46377000Y20733480D01*
X-46377000Y20541520D01*
X-46339550Y20353249D01*
X-46266091Y20175901D01*
X-46159443Y20016293D01*
X-46159438Y20016287D01*
X-46023712Y19880561D01*
X-46023707Y19880557D01*
X-45864099Y19773909D01*
X-45752262Y19727585D01*
X-45686754Y19700451D01*
X-45686751Y19700450D01*
X-45498483Y19663000D01*
X-45498480Y19663000D01*
X-45306516Y19663000D01*
X-45118248Y19700450D01*
X-45118245Y19700451D01*
X-44940901Y19773909D01*
X-44781293Y19880556D01*
X-44781287Y19880561D01*
X-44645561Y20016287D01*
X-44645556Y20016293D01*
X-44538909Y20175901D01*
X-44465451Y20353245D01*
X-44465450Y20353248D01*
X-44428000Y20541516D01*
X-44428000Y20733483D01*
X-44465450Y20921751D01*
X-44465451Y20921754D01*
X-44538909Y21099098D01*
X-44538909Y21099099D01*
X-44645557Y21258707D01*
X-44645561Y21258712D01*
X-44781287Y21394438D01*
X-44781293Y21394443D01*
X-44940901Y21501091D01*
X-45118249Y21574550D01*
X-45306520Y21612000D01*
X-45498480Y21612000D01*
X-45686751Y21574550D01*
X-45864099Y21501091D01*
X-46023707Y21394443D01*
X-46159443Y21258707D01*
X-46266091Y21099099D01*
X-46339550Y20921751D01*
X-46377000Y20733480D01*
X-47917000Y20733480D01*
X-47917000Y22391000D01*
X-47896998Y22459121D01*
X-47843342Y22505614D01*
X-47791000Y22517000D01*
X-39453308Y22517000D01*
X-39385187Y22496998D01*
G37*
%TD.AperFunction*%
%TD*%
M02*
