%TF.GenerationSoftware,KiCad,Pcbnew,10.0.0*%
%TF.CreationDate,2026-05-22T16:26:58-07:00*%
%TF.ProjectId,Voltage Source,566f6c74-6167-4652-9053-6f757263652e,rev?*%
%TF.SameCoordinates,Original*%
%TF.FileFunction,Copper,L1,Top*%
%TF.FilePolarity,Positive*%
%FSLAX46Y46*%
G04 Gerber Fmt 4.6, Leading zero omitted, Abs format (unit mm)*
G04 Created by KiCad (PCBNEW 10.0.0) date 2026-05-22 16:26:58*
%MOMM*%
%LPD*%
G01*
G04 APERTURE LIST*
%TA.AperFunction,ComponentPad*%
%ADD10C,1.600000*%
%TD*%
%TA.AperFunction,ComponentPad*%
%ADD11R,1.600000X1.600000*%
%TD*%
%TA.AperFunction,ComponentPad*%
%ADD12O,1.600000X1.600000*%
%TD*%
%TA.AperFunction,ComponentPad*%
%ADD13C,1.440000*%
%TD*%
%TA.AperFunction,ComponentPad*%
%ADD14O,1.800000X1.350000*%
%TD*%
%TA.AperFunction,ComponentPad*%
%ADD15R,1.500000X1.050000*%
%TD*%
%TA.AperFunction,ComponentPad*%
%ADD16O,1.500000X1.050000*%
%TD*%
%TA.AperFunction,ComponentPad*%
%ADD17C,1.984375*%
%TD*%
%TA.AperFunction,ComponentPad*%
%ADD18R,1.700000X1.700000*%
%TD*%
%TA.AperFunction,ComponentPad*%
%ADD19O,1.700000X1.700000*%
%TD*%
%TA.AperFunction,ViaPad*%
%ADD20C,0.808000*%
%TD*%
%TA.AperFunction,Conductor*%
%ADD21C,0.381000*%
%TD*%
%TA.AperFunction,Conductor*%
%ADD22C,1.016000*%
%TD*%
%TA.AperFunction,Conductor*%
%ADD23C,0.508000*%
%TD*%
G04 APERTURE END LIST*
D10*
%TO.P,C6,1*%
%TO.N,Net-(C6-Pad1)*%
X-6667500Y10477500D03*
%TO.P,C6,2*%
%TO.N,Net-(SW1A-B)*%
X-6667500Y5477500D03*
%TD*%
%TO.P,C4,1*%
%TO.N,VREF+*%
X9842500Y16510000D03*
%TO.P,C4,2*%
%TO.N,GND*%
X9842500Y11510000D03*
%TD*%
D11*
%TO.P,C3,1*%
%TO.N,VREF+*%
X13268888Y10477500D03*
D10*
%TO.P,C3,2*%
%TO.N,GND*%
X15268888Y10477500D03*
%TD*%
%TO.P,C1,1*%
%TO.N,GND*%
X-10477500Y11430000D03*
%TO.P,C1,2*%
%TO.N,VREF-*%
X-10477500Y16430000D03*
%TD*%
D11*
%TO.P,C2,1*%
%TO.N,GND*%
X-15875000Y10477500D03*
D10*
%TO.P,C2,2*%
%TO.N,VREF-*%
X-13875000Y10477500D03*
%TD*%
%TO.P,C7,1*%
%TO.N,Net-(C7-Pad1)*%
X6667500Y9525000D03*
%TO.P,C7,2*%
%TO.N,Net-(SW2A-B)*%
X6667500Y4525000D03*
%TD*%
%TO.P,C5,1*%
%TO.N,VCC*%
X2500000Y15621000D03*
%TO.P,C5,2*%
%TO.N,GND*%
X-2500000Y15621000D03*
%TD*%
%TO.P,R5,1*%
%TO.N,Net-(SW1A-B)*%
X-9496000Y2540000D03*
D12*
%TO.P,R5,2*%
%TO.N,Net-(J4-Pin_1)*%
X-12036000Y2540000D03*
%TD*%
D10*
%TO.P,R2,1*%
%TO.N,VCC*%
X18097500Y14922500D03*
D12*
%TO.P,R2,2*%
%TO.N,VREF+*%
X15557500Y14922500D03*
%TD*%
D10*
%TO.P,R3,1*%
%TO.N,Net-(J4-Pin_1)*%
X-11967000Y5715000D03*
D12*
%TO.P,R3,2*%
%TO.N,Net-(C6-Pad1)*%
X-9427000Y5715000D03*
%TD*%
D10*
%TO.P,R1,1*%
%TO.N,VEE*%
X-18097500Y14922500D03*
D12*
%TO.P,R1,2*%
%TO.N,VREF-*%
X-15557500Y14922500D03*
%TD*%
D10*
%TO.P,R6,1*%
%TO.N,Net-(SW2A-B)*%
X9525000Y2540000D03*
D12*
%TO.P,R6,2*%
%TO.N,Net-(J3-Pin_1)*%
X12065000Y2540000D03*
%TD*%
D10*
%TO.P,R4,1*%
%TO.N,Net-(J3-Pin_1)*%
X12065000Y5715000D03*
D12*
%TO.P,R4,2*%
%TO.N,Net-(C7-Pad1)*%
X9525000Y5715000D03*
%TD*%
D13*
%TO.P,RV6,1,1_1*%
%TO.N,VREF+*%
X-40322500Y20637500D03*
%TO.P,RV6,2,2_2*%
%TO.N,Net-(R11-Pad1)*%
X-42862500Y18097500D03*
%TO.P,RV6,3,3_3*%
%TO.N,VREF-*%
X-45402500Y20637500D03*
%TD*%
D11*
%TO.P,U1,1*%
%TO.N,Net-(C6-Pad1)*%
X-3810000Y9525000D03*
D12*
%TO.P,U1,2,-_2*%
%TO.N,Net-(SW1A-B)*%
X-3810000Y6985000D03*
%TO.P,U1,3,+_3*%
%TO.N,GND*%
X-3810000Y4445000D03*
%TO.P,U1,4,V-_4*%
%TO.N,VEE*%
X-3810000Y1905000D03*
%TO.P,U1,5,+_5*%
%TO.N,GND*%
X3810000Y1905000D03*
%TO.P,U1,6,-_6*%
%TO.N,Net-(SW2A-B)*%
X3810000Y4445000D03*
%TO.P,U1,7*%
%TO.N,Net-(C7-Pad1)*%
X3810000Y6985000D03*
%TO.P,U1,8,V+_8*%
%TO.N,VCC*%
X3810000Y9525000D03*
%TD*%
D14*
%TO.P,J1,S*%
%TO.N,GND*%
X-31115000Y2535000D03*
%TO.P,J1,T*%
%TO.N,Net-(J4-Pin_1)*%
X-31115000Y13175000D03*
%TO.P,J1,TN*%
%TO.N,unconnected-(J1-PadTN)*%
X-31115000Y4875000D03*
%TD*%
%TO.P,J2,S*%
%TO.N,GND*%
X31115000Y2535000D03*
%TO.P,J2,T*%
%TO.N,Net-(J3-Pin_1)*%
X31115000Y13175000D03*
%TO.P,J2,TN*%
%TO.N,unconnected-(J2-PadTN)*%
X31115000Y4875000D03*
%TD*%
D15*
%TO.P,U2,1*%
%TO.N,N/C*%
X5397500Y16827500D03*
D16*
%TO.P,U2,2,K_2*%
%TO.N,VREF+*%
X5397500Y15557500D03*
%TO.P,U2,3,A_3*%
%TO.N,GND*%
X5397500Y14287500D03*
%TD*%
D15*
%TO.P,U3,1*%
%TO.N,N/C*%
X-6032500Y14287500D03*
D16*
%TO.P,U3,2,K_2*%
%TO.N,GND*%
X-6032500Y15557500D03*
%TO.P,U3,3,A_3*%
%TO.N,VREF-*%
X-6032500Y16827500D03*
%TD*%
D10*
%TO.P,R7,1*%
%TO.N,Net-(R7-Pad1)*%
X-37465000Y14922500D03*
D12*
%TO.P,R7,2*%
%TO.N,/ZERO_1*%
X-37465000Y12382500D03*
%TD*%
D10*
%TO.P,R8,1*%
%TO.N,/THREE_1*%
X-44132500Y11112500D03*
D12*
%TO.P,R8,2*%
%TO.N,VREF-*%
X-44132500Y13652500D03*
%TD*%
D10*
%TO.P,R9,1*%
%TO.N,/THREE_1*%
X-39687500Y11112500D03*
D12*
%TO.P,R9,2*%
%TO.N,Net-(R9-Pad2)*%
X-39687500Y13652500D03*
%TD*%
D10*
%TO.P,R10,1*%
%TO.N,VREF-*%
X-41910000Y14922500D03*
D12*
%TO.P,R10,2*%
%TO.N,/FIVE_1*%
X-41910000Y12382500D03*
%TD*%
D10*
%TO.P,R11,1*%
%TO.N,Net-(R11-Pad1)*%
X-46355000Y14922500D03*
D12*
%TO.P,R11,2*%
%TO.N,/FIVE_1*%
X-46355000Y12382500D03*
%TD*%
D10*
%TO.P,R12,1*%
%TO.N,Net-(R12-Pad1)*%
X46355000Y14922500D03*
D12*
%TO.P,R12,2*%
%TO.N,/ZERO_2*%
X46355000Y12382500D03*
%TD*%
D10*
%TO.P,R13,1*%
%TO.N,/THREE_2*%
X44132500Y11112500D03*
D12*
%TO.P,R13,2*%
%TO.N,VREF-*%
X44132500Y13652500D03*
%TD*%
D10*
%TO.P,R14,1*%
%TO.N,/THREE_2*%
X39687500Y10795000D03*
D12*
%TO.P,R14,2*%
%TO.N,Net-(R14-Pad2)*%
X39687500Y13335000D03*
%TD*%
D10*
%TO.P,R15,1*%
%TO.N,VREF-*%
X41910000Y14922500D03*
D12*
%TO.P,R15,2*%
%TO.N,/FIVE_2*%
X41910000Y12382500D03*
%TD*%
D10*
%TO.P,R16,1*%
%TO.N,Net-(R16-Pad1)*%
X37465000Y14922500D03*
D12*
%TO.P,R16,2*%
%TO.N,/FIVE_2*%
X37465000Y12382500D03*
%TD*%
D13*
%TO.P,RV1,1,1_1*%
%TO.N,VREF+*%
X-20002500Y20637500D03*
%TO.P,RV1,2,2_2*%
%TO.N,Net-(R7-Pad1)*%
X-22542500Y18097500D03*
%TO.P,RV1,3,3_3*%
%TO.N,VREF-*%
X-25082500Y20637500D03*
%TD*%
%TO.P,RV2,1,1_1*%
%TO.N,VREF+*%
X-30162500Y20637500D03*
%TO.P,RV2,2,2_2*%
%TO.N,Net-(R9-Pad2)*%
X-32702500Y18097500D03*
%TO.P,RV2,3,3_3*%
%TO.N,VREF-*%
X-35242500Y20637500D03*
%TD*%
%TO.P,RV3,1,1_1*%
%TO.N,VREF+*%
X45402500Y20637500D03*
%TO.P,RV3,2,2_2*%
%TO.N,Net-(R12-Pad1)*%
X42862500Y18097500D03*
%TO.P,RV3,3,3_3*%
%TO.N,VREF-*%
X40322500Y20637500D03*
%TD*%
%TO.P,RV4,1,1_1*%
%TO.N,VREF+*%
X35242500Y20637500D03*
%TO.P,RV4,2,2_2*%
%TO.N,Net-(R14-Pad2)*%
X32702500Y18097500D03*
%TO.P,RV4,3,3_3*%
%TO.N,VREF-*%
X30162500Y20637500D03*
%TD*%
%TO.P,RV5,1,1_1*%
%TO.N,VREF+*%
X25082500Y20637500D03*
%TO.P,RV5,2,2_2*%
%TO.N,Net-(R16-Pad1)*%
X22542500Y18097500D03*
%TO.P,RV5,3,3_3*%
%TO.N,VREF-*%
X20002500Y20637500D03*
%TD*%
D17*
%TO.P,SW1,1,A_1*%
%TO.N,/FIVE_1*%
X-43815000Y2540000D03*
%TO.P,SW1,2,B_2*%
%TO.N,Net-(SW1A-B)*%
X-43815000Y5080000D03*
%TO.P,SW1,3,C_3*%
%TO.N,Net-(SW1A-C)*%
X-43815000Y7620000D03*
%TO.P,SW1,4,A_4*%
%TO.N,/ZERO_1*%
X-38735000Y2540000D03*
%TO.P,SW1,5,B_5*%
%TO.N,Net-(SW1A-C)*%
X-38735000Y5080000D03*
%TO.P,SW1,6,C_6*%
%TO.N,/THREE_1*%
X-38735000Y7620000D03*
%TD*%
%TO.P,SW2,1,A_1*%
%TO.N,/FIVE_2*%
X38735000Y2540000D03*
%TO.P,SW2,2,B_2*%
%TO.N,Net-(SW2A-B)*%
X38735000Y5080000D03*
%TO.P,SW2,3,C_3*%
%TO.N,Net-(SW2A-C)*%
X38735000Y7620000D03*
%TO.P,SW2,4,A_4*%
%TO.N,/ZERO_2*%
X43815000Y2540000D03*
%TO.P,SW2,5,B_5*%
%TO.N,Net-(SW2A-C)*%
X43815000Y5080000D03*
%TO.P,SW2,6,C_6*%
%TO.N,/THREE_2*%
X43815000Y7620000D03*
%TD*%
D10*
%TO.P,C8,1*%
%TO.N,GND*%
X1865000Y12573000D03*
%TO.P,C8,2*%
%TO.N,VEE*%
X-3135000Y12573000D03*
%TD*%
D18*
%TO.P,J5,1,Pin_1_1*%
%TO.N,VCC*%
X24130000Y12700000D03*
D19*
%TO.P,J5,2,Pin_2_2*%
%TO.N,GND*%
X21590000Y12700000D03*
%TO.P,J5,3,Pin_3_3*%
%TO.N,VCC*%
X24130000Y10160000D03*
%TO.P,J5,4,Pin_4_4*%
%TO.N,GND*%
X21590000Y10160000D03*
%TO.P,J5,5,Pin_5_5*%
%TO.N,VCC*%
X24130000Y7620000D03*
%TO.P,J5,6,Pin_6_6*%
%TO.N,GND*%
X21590000Y7620000D03*
%TO.P,J5,7,Pin_7_7*%
%TO.N,VCC*%
X24130000Y5080000D03*
%TO.P,J5,8,Pin_8_8*%
%TO.N,GND*%
X21590000Y5080000D03*
%TO.P,J5,9,Pin_9_9*%
%TO.N,VCC*%
X24130000Y2540000D03*
%TO.P,J5,10,Pin_10_10*%
%TO.N,GND*%
X21590000Y2540000D03*
%TD*%
D18*
%TO.P,J6,1,Pin_1_1*%
%TO.N,VEE*%
X-24130000Y2540000D03*
D19*
%TO.P,J6,2,Pin_2_2*%
%TO.N,GND*%
X-21590000Y2540000D03*
%TO.P,J6,3,Pin_3_3*%
%TO.N,VEE*%
X-24130000Y5080000D03*
%TO.P,J6,4,Pin_4_4*%
%TO.N,GND*%
X-21590000Y5080000D03*
%TO.P,J6,5,Pin_5_5*%
%TO.N,VEE*%
X-24130000Y7620000D03*
%TO.P,J6,6,Pin_6_6*%
%TO.N,GND*%
X-21590000Y7620000D03*
%TO.P,J6,7,Pin_7_7*%
%TO.N,VEE*%
X-24130000Y10160000D03*
%TO.P,J6,8,Pin_8_8*%
%TO.N,GND*%
X-21590000Y10160000D03*
%TO.P,J6,9,Pin_9_9*%
%TO.N,VEE*%
X-24130000Y12700000D03*
%TO.P,J6,10,Pin_10_10*%
%TO.N,GND*%
X-21590000Y12700000D03*
%TD*%
D18*
%TO.P,J4,1,Pin_1_1*%
%TO.N,Net-(J4-Pin_1)*%
X-13970000Y20320000D03*
%TD*%
%TO.P,J3,1,Pin_1_1*%
%TO.N,Net-(J3-Pin_1)*%
X13970000Y20320000D03*
%TD*%
D20*
%TO.N,Net-(J4-Pin_1)*%
X-26035000Y2093999D03*
%TO.N,Net-(J3-Pin_1)*%
X25717500Y2093999D03*
%TD*%
%TO.N,Net-(C6-Pad1)*%
D21*
X-5715000Y9525000D02*
X-6667500Y10477500D01*
X-5715000Y9427000D02*
X-9427000Y5715000D01*
X-3810000Y9525000D02*
X-5715000Y9525000D01*
X-5715000Y9525000D02*
X-5715000Y9427000D01*
%TO.N,Net-(C7-Pad1)*%
X8255000Y6985000D02*
X9525000Y5715000D01*
X4127500Y6985000D02*
X3810000Y6985000D01*
X3810000Y6985000D02*
X8255000Y6985000D01*
X6667500Y9525000D02*
X4127500Y6985000D01*
%TO.N,VEE*%
D22*
X-18097500Y9728398D02*
X-17284601Y8915499D01*
X-18097500Y14922500D02*
X-18097500Y9728398D01*
X-3643000Y12065000D02*
X-3135000Y12573000D01*
X-24130000Y12700000D02*
X-24130000Y10160000D01*
X-24130000Y10160000D02*
X-24130000Y7620000D01*
X-17284601Y8915499D02*
X-10680239Y8915499D01*
X-21907500Y14922500D02*
X-18097500Y14922500D01*
X-2247999Y3467001D02*
X-3810000Y1905000D01*
X-7530738Y12065000D02*
X-3643000Y12065000D01*
X-2247999Y11010999D02*
X-2247999Y3467001D01*
X-10680239Y8915499D02*
X-7530738Y12065000D01*
X-24130000Y5080000D02*
X-24130000Y2540000D01*
X-24130000Y7620000D02*
X-24130000Y5080000D01*
X-3135000Y11898000D02*
X-2247999Y11010999D01*
X-3135000Y12573000D02*
X-3135000Y11898000D01*
X-24130000Y12700000D02*
X-21907500Y14922500D01*
%TO.N,VCC*%
X18097500Y14922500D02*
X18097500Y10388238D01*
X2500000Y14148416D02*
X3428000Y13220416D01*
X3428000Y11939000D02*
X3810000Y11557000D01*
X21907500Y14922500D02*
X18097500Y14922500D01*
X2500000Y15621000D02*
X2500000Y14148416D01*
X3428000Y13220416D02*
X3428000Y11939000D01*
X18097500Y10388238D02*
X16624761Y8915499D01*
X3810000Y11557000D02*
X3810000Y9525000D01*
X7112000Y11557000D02*
X3810000Y11557000D01*
X24130000Y12700000D02*
X21907500Y14922500D01*
X24130000Y5080000D02*
X24130000Y7620000D01*
X9753501Y8915499D02*
X7112000Y11557000D01*
X24130000Y7620000D02*
X24130000Y10160000D01*
X24130000Y10160000D02*
X24130000Y12700000D01*
X24130000Y2540000D02*
X24130000Y5080000D01*
X16624761Y8915499D02*
X9753501Y8915499D01*
%TO.N,VREF+*%
D23*
X35242500Y20637500D02*
X34925000Y20637500D01*
X8890000Y15557500D02*
X9842500Y16510000D01*
X5397500Y15557500D02*
X8890000Y15557500D01*
X10953750Y15398750D02*
X9842500Y16510000D01*
X11430000Y14922500D02*
X10953750Y15398750D01*
X13268888Y13083612D02*
X10953750Y15398750D01*
X15557500Y14922500D02*
X11430000Y14922500D01*
X13268888Y10477500D02*
X13268888Y13083612D01*
%TO.N,VREF-*%
X-12901099Y21865501D02*
X-12598010Y21562412D01*
X-25082500Y20637500D02*
X-23854499Y21865501D01*
X18774499Y21865501D02*
X18373001Y21865501D01*
X-26310501Y21865501D02*
X-23536999Y21865501D01*
X-10477500Y16510000D02*
X-10160000Y16827500D01*
X40322500Y20637500D02*
X39094499Y21865501D01*
X-44174499Y21865501D02*
X-40280501Y21865501D01*
X12611999Y18208210D02*
X12611999Y21576401D01*
X-10375510Y17881990D02*
X12285779Y17881990D01*
X-35242500Y20637500D02*
X-34014499Y21865501D01*
X-10579490Y17881990D02*
X-10375510Y17881990D01*
X-41910000Y14922500D02*
X-41634499Y15198001D01*
X40322500Y16510000D02*
X40322500Y20637500D01*
X28934499Y21865501D02*
X28533001Y21865501D01*
X30162500Y20637500D02*
X28934499Y21865501D01*
X12285779Y17881990D02*
X12611999Y18208210D01*
X-10477500Y16510000D02*
X-10477500Y17780000D01*
X-23536999Y21865501D02*
X-12901099Y21865501D01*
X20002500Y20637500D02*
X18774499Y21865501D01*
X12901099Y21865501D02*
X12611999Y21576401D01*
X-12598010Y18194221D02*
X-12285779Y17881990D01*
X-40280501Y21865501D02*
X-33295501Y21865501D01*
X-40911941Y21865501D02*
X-40280501Y21865501D01*
X-23854499Y21865501D02*
X-23536999Y21865501D01*
X41910000Y14922500D02*
X42862500Y14922500D01*
X18373001Y21865501D02*
X12901099Y21865501D01*
X42862500Y14922500D02*
X44132500Y13652500D01*
X-12065000Y14922500D02*
X-10477500Y16510000D01*
X-12285779Y17881990D02*
X-10579490Y17881990D01*
X-33295501Y21865501D02*
X-26310501Y21865501D01*
X-45402500Y20637500D02*
X-44174499Y21865501D01*
X-34014499Y21865501D02*
X-33295501Y21865501D01*
X-41634499Y18139499D02*
X-41634499Y21142943D01*
X-43180000Y13652500D02*
X-41910000Y14922500D01*
X-10477500Y17780000D02*
X-10579490Y17881990D01*
X-41634499Y15198001D02*
X-41634499Y18139499D01*
X-41634499Y18139499D02*
X-41634499Y18686941D01*
X-15557500Y14922500D02*
X-12065000Y14922500D01*
X-13875000Y13112500D02*
X-10477500Y16510000D01*
X28533001Y21865501D02*
X18373001Y21865501D01*
X-10477500Y17780000D02*
X-10375510Y17881990D01*
X39094499Y21865501D02*
X28533001Y21865501D01*
X-10160000Y16827500D02*
X-6032500Y16827500D01*
X-44132500Y13652500D02*
X-43180000Y13652500D01*
X-41634499Y21142943D02*
X-40911941Y21865501D01*
X-12598010Y21562412D02*
X-12598010Y18194221D01*
X-13875000Y10477500D02*
X-13875000Y13112500D01*
X41910000Y14922500D02*
X40322500Y16510000D01*
%TO.N,Net-(R7-Pad1)*%
D21*
X-37465000Y14922500D02*
X-32829500Y14922500D01*
X-32829500Y14922500D02*
X-29654500Y18097500D01*
X-29654500Y18097500D02*
X-22542500Y18097500D01*
%TO.N,Net-(R9-Pad2)*%
X-39687500Y14783870D02*
X-36373870Y18097500D01*
X-39687500Y13652500D02*
X-39687500Y14783870D01*
X-36373870Y18097500D02*
X-32702500Y18097500D01*
%TO.N,Net-(R16-Pad1)*%
X32956500Y14922500D02*
X37465000Y14922500D01*
X22542500Y18097500D02*
X29781500Y18097500D01*
X29781500Y18097500D02*
X32956500Y14922500D01*
%TO.N,/ZERO_1*%
X-38735000Y2540000D02*
X-37236399Y4038601D01*
X-37236399Y12153899D02*
X-37465000Y12382500D01*
X-37236399Y4038601D02*
X-37236399Y12153899D01*
%TO.N,/THREE_1*%
X-38735000Y10160000D02*
X-39687500Y11112500D01*
X-38735000Y7620000D02*
X-38735000Y10160000D01*
X-39687500Y11112500D02*
X-44132500Y11112500D01*
%TO.N,/FIVE_1*%
X-46355000Y5080000D02*
X-46355000Y12382500D01*
X-46355000Y12382500D02*
X-41910000Y12382500D01*
X-43815000Y2540000D02*
X-46355000Y5080000D01*
%TO.N,/ZERO_2*%
X46355000Y12382500D02*
X46355000Y5080000D01*
X46355000Y5080000D02*
X43815000Y2540000D01*
%TO.N,/THREE_2*%
X39687500Y10795000D02*
X43815000Y10795000D01*
X43815000Y10795000D02*
X44132500Y11112500D01*
X43815000Y7620000D02*
X43815000Y10795000D01*
%TO.N,Net-(R14-Pad2)*%
X36131862Y18097500D02*
X32702500Y18097500D01*
X39687500Y13335000D02*
X39687500Y14541862D01*
X39687500Y14541862D02*
X36131862Y18097500D01*
%TO.N,/FIVE_2*%
X40233601Y8407037D02*
X40233601Y4038601D01*
X40233601Y4038601D02*
X38735000Y2540000D01*
X41617999Y12090499D02*
X41910000Y12382500D01*
X37465000Y12382500D02*
X37757001Y12090499D01*
X37465000Y12382500D02*
X37465000Y11175638D01*
X37757001Y12090499D02*
X41617999Y12090499D01*
X37465000Y11175638D02*
X40233601Y8407037D01*
%TO.N,Net-(R12-Pad1)*%
X43180000Y18097500D02*
X42862500Y18097500D01*
X46355000Y14922500D02*
X43180000Y18097500D01*
%TO.N,Net-(R11-Pad1)*%
X-46355000Y14922500D02*
X-43180000Y18097500D01*
X-43180000Y18097500D02*
X-42862500Y18097500D01*
%TO.N,Net-(SW1A-B)*%
X-37616501Y1245499D02*
X-37846000Y1016000D01*
X-3810000Y6985000D02*
X-5051000Y6985000D01*
X-37846000Y1016000D02*
X-39428930Y1016000D01*
X-10790501Y1245499D02*
X-37616501Y1245499D01*
X-39428930Y1016000D02*
X-43492930Y5080000D01*
X-43492930Y5080000D02*
X-43815000Y5080000D01*
X-9271000Y2765000D02*
X-9242000Y2794000D01*
X-5051000Y6985000D02*
X-10790501Y1245499D01*
%TO.N,Net-(SW2A-B)*%
X6667500Y4445000D02*
X7620000Y4445000D01*
X6667500Y4445000D02*
X3810000Y4445000D01*
X37244278Y5080000D02*
X35847278Y3683000D01*
X35847278Y3683000D02*
X29806898Y3683000D01*
X27369397Y1245499D02*
X10819501Y1245499D01*
X7620000Y4445000D02*
X9525000Y2540000D01*
X29806898Y3683000D02*
X27369397Y1245499D01*
X10819501Y1245499D02*
X9525000Y2540000D01*
X38735000Y5080000D02*
X37244278Y5080000D01*
%TO.N,Net-(J4-Pin_1)*%
X-28336250Y15953750D02*
X-31115000Y13175000D01*
X-26035000Y2093999D02*
X-26035000Y8095000D01*
X-12036000Y2540000D02*
X-11967000Y2609000D01*
X-11782000Y2794000D02*
X-12036000Y2540000D01*
X-11967000Y5715000D02*
X-11967000Y5588000D01*
X-11967000Y2609000D02*
X-11967000Y5715000D01*
X-26035000Y8095000D02*
X-31115000Y13175000D01*
X-17357001Y16932999D02*
X-27357001Y16932999D01*
X-13970000Y20320000D02*
X-17357001Y16932999D01*
X-27357001Y16932999D02*
X-28336250Y15953750D01*
%TO.N,Net-(J3-Pin_1)*%
X25717500Y2093999D02*
X25717500Y7777500D01*
X31115000Y13175000D02*
X28122999Y16167001D01*
X25717500Y7777500D02*
X31115000Y13175000D01*
X12065000Y5715000D02*
X12065000Y2540000D01*
X18122999Y16167001D02*
X13970000Y20320000D01*
X28122999Y16167001D02*
X18122999Y16167001D01*
%TD*%
M02*
