M48
; DRILL file KiCad 10.0.0 date 2026-05-22T16:27:04
; FORMAT={-:-/ absolute / metric / decimal}
; #@! TF.CreationDate,2026-05-22T16:27:04-07:00
; #@! TF.GenerationSoftware,Kicad,Pcbnew,10.0.0
; #@! TF.FileFunction,Plated,1,2,PTH
FMAT,2
METRIC
; #@! TA.AperFunction,Plated,PTH,ViaDrill
T1C0.300
; #@! TA.AperFunction,Plated,PTH,ComponentDrill
T2C0.750
; #@! TA.AperFunction,Plated,PTH,ComponentDrill
T3C0.800
; #@! TA.AperFunction,Plated,PTH,ComponentDrill
T4C1.000
; #@! TA.AperFunction,Plated,PTH,ComponentDrill
T5C1.100
%
G90
G05
T1
X-26.035Y2.094
X25.717Y2.094
T2
X-6.032Y16.828
X-6.032Y15.557
X-6.032Y14.287
X5.397Y16.828
X5.397Y15.557
X5.397Y14.287
T3
X-46.355Y14.922
X-46.355Y12.383
X-45.402Y20.637
X-44.133Y13.652
X-44.133Y11.112
X-42.862Y18.098
X-41.91Y14.922
X-41.91Y12.383
X-40.322Y20.637
X-39.688Y13.652
X-39.688Y11.112
X-37.465Y14.922
X-37.465Y12.383
X-35.242Y20.637
X-32.703Y18.098
X-30.162Y20.637
X-25.082Y20.637
X-22.543Y18.098
X-20.002Y20.637
X-18.098Y14.922
X-15.875Y10.477
X-15.557Y14.922
X-13.875Y10.477
X-12.036Y2.54
X-11.967Y5.715
X-10.477Y16.43
X-10.477Y11.43
X-9.496Y2.54
X-9.427Y5.715
X-6.667Y10.477
X-6.667Y5.478
X-3.81Y9.525
X-3.81Y6.985
X-3.81Y4.445
X-3.81Y1.905
X-3.135Y12.573
X-2.5Y15.621
X1.865Y12.573
X2.5Y15.621
X3.81Y9.525
X3.81Y6.985
X3.81Y4.445
X3.81Y1.905
X6.667Y9.525
X6.667Y4.525
X9.525Y5.715
X9.525Y2.54
X9.842Y16.51
X9.842Y11.51
X12.065Y5.715
X12.065Y2.54
X13.269Y10.477
X15.269Y10.477
X15.557Y14.922
X18.098Y14.922
X20.002Y20.637
X22.543Y18.098
X25.082Y20.637
X30.162Y20.637
X32.703Y18.098
X35.242Y20.637
X37.465Y14.922
X37.465Y12.383
X39.688Y13.335
X39.688Y10.795
X40.322Y20.637
X41.91Y14.922
X41.91Y12.383
X42.862Y18.098
X44.133Y13.652
X44.133Y11.112
X45.402Y20.637
X46.355Y14.922
X46.355Y12.383
T4
X-24.13Y12.7
X-24.13Y10.16
X-24.13Y7.62
X-24.13Y5.08
X-24.13Y2.54
X-21.59Y12.7
X-21.59Y10.16
X-21.59Y7.62
X-21.59Y5.08
X-21.59Y2.54
X-13.97Y20.32
X13.97Y20.32
X21.59Y12.7
X21.59Y10.16
X21.59Y7.62
X21.59Y5.08
X21.59Y2.54
X24.13Y12.7
X24.13Y10.16
X24.13Y7.62
X24.13Y5.08
X24.13Y2.54
T5
X-43.815Y7.62
X-43.815Y5.08
X-43.815Y2.54
X-38.735Y7.62
X-38.735Y5.08
X-38.735Y2.54
X38.735Y7.62
X38.735Y5.08
X38.735Y2.54
X43.815Y7.62
X43.815Y5.08
X43.815Y2.54
T2
X-31.34Y13.175G85X-30.89Y13.175
G05
X-31.34Y4.875G85X-30.89Y4.875
G05
X-31.34Y2.535G85X-30.89Y2.535
G05
X30.89Y13.175G85X31.34Y13.175
G05
X30.89Y4.875G85X31.34Y4.875
G05
X30.89Y2.535G85X31.34Y2.535
G05
M30
