%TF.GenerationSoftware,KiCad,Pcbnew,10.0.0*%
%TF.CreationDate,2026-05-22T16:26:58-07:00*%
%TF.ProjectId,Voltage Source,566f6c74-6167-4652-9053-6f757263652e,rev?*%
%TF.SameCoordinates,Original*%
%TF.FileFunction,Legend,Bot*%
%TF.FilePolarity,Positive*%
%FSLAX46Y46*%
G04 Gerber Fmt 4.6, Leading zero omitted, Abs format (unit mm)*
G04 Created by KiCad (PCBNEW 10.0.0) date 2026-05-22 16:26:58*
%MOMM*%
%LPD*%
G01*
G04 APERTURE LIST*
%ADD10C,0.150000*%
%ADD11C,0.120000*%
%ADD12C,1.600000*%
%ADD13R,1.600000X1.600000*%
%ADD14O,1.600000X1.600000*%
%ADD15C,1.440000*%
%ADD16O,1.800000X1.350000*%
%ADD17R,1.500000X1.050000*%
%ADD18O,1.500000X1.050000*%
%ADD19C,1.984375*%
%ADD20R,1.700000X1.700000*%
%ADD21O,1.700000X1.700000*%
G04 APERTURE END LIST*
D10*
X-25686547Y10240152D02*
X-26019880Y9240152D01*
X-26019880Y9240152D02*
X-26353213Y10240152D01*
X-26877023Y10240152D02*
X-27067499Y10240152D01*
X-27067499Y10240152D02*
X-27162737Y10192533D01*
X-27162737Y10192533D02*
X-27257975Y10097295D01*
X-27257975Y10097295D02*
X-27305594Y9906819D01*
X-27305594Y9906819D02*
X-27305594Y9573486D01*
X-27305594Y9573486D02*
X-27257975Y9383010D01*
X-27257975Y9383010D02*
X-27162737Y9287772D01*
X-27162737Y9287772D02*
X-27067499Y9240152D01*
X-27067499Y9240152D02*
X-26877023Y9240152D01*
X-26877023Y9240152D02*
X-26781785Y9287772D01*
X-26781785Y9287772D02*
X-26686547Y9383010D01*
X-26686547Y9383010D02*
X-26638928Y9573486D01*
X-26638928Y9573486D02*
X-26638928Y9906819D01*
X-26638928Y9906819D02*
X-26686547Y10097295D01*
X-26686547Y10097295D02*
X-26781785Y10192533D01*
X-26781785Y10192533D02*
X-26877023Y10240152D01*
X-28210356Y9240152D02*
X-27734166Y9240152D01*
X-27734166Y9240152D02*
X-27734166Y10240152D01*
X-28400833Y10240152D02*
X-28972261Y10240152D01*
X-28686547Y9240152D02*
X-28686547Y10240152D01*
X-29257976Y9525867D02*
X-29734166Y9525867D01*
X-29162738Y9240152D02*
X-29496071Y10240152D01*
X-29496071Y10240152D02*
X-29829404Y9240152D01*
X-30686547Y10192533D02*
X-30591309Y10240152D01*
X-30591309Y10240152D02*
X-30448452Y10240152D01*
X-30448452Y10240152D02*
X-30305595Y10192533D01*
X-30305595Y10192533D02*
X-30210357Y10097295D01*
X-30210357Y10097295D02*
X-30162738Y10002057D01*
X-30162738Y10002057D02*
X-30115119Y9811581D01*
X-30115119Y9811581D02*
X-30115119Y9668724D01*
X-30115119Y9668724D02*
X-30162738Y9478248D01*
X-30162738Y9478248D02*
X-30210357Y9383010D01*
X-30210357Y9383010D02*
X-30305595Y9287772D01*
X-30305595Y9287772D02*
X-30448452Y9240152D01*
X-30448452Y9240152D02*
X-30543690Y9240152D01*
X-30543690Y9240152D02*
X-30686547Y9287772D01*
X-30686547Y9287772D02*
X-30734166Y9335391D01*
X-30734166Y9335391D02*
X-30734166Y9668724D01*
X-30734166Y9668724D02*
X-30543690Y9668724D01*
X-31162738Y9763962D02*
X-31496071Y9763962D01*
X-31638928Y9240152D02*
X-31162738Y9240152D01*
X-31162738Y9240152D02*
X-31162738Y10240152D01*
X-31162738Y10240152D02*
X-31638928Y10240152D01*
X-32781786Y9287772D02*
X-32924643Y9240152D01*
X-32924643Y9240152D02*
X-33162738Y9240152D01*
X-33162738Y9240152D02*
X-33257976Y9287772D01*
X-33257976Y9287772D02*
X-33305595Y9335391D01*
X-33305595Y9335391D02*
X-33353214Y9430629D01*
X-33353214Y9430629D02*
X-33353214Y9525867D01*
X-33353214Y9525867D02*
X-33305595Y9621105D01*
X-33305595Y9621105D02*
X-33257976Y9668724D01*
X-33257976Y9668724D02*
X-33162738Y9716343D01*
X-33162738Y9716343D02*
X-32972262Y9763962D01*
X-32972262Y9763962D02*
X-32877024Y9811581D01*
X-32877024Y9811581D02*
X-32829405Y9859200D01*
X-32829405Y9859200D02*
X-32781786Y9954438D01*
X-32781786Y9954438D02*
X-32781786Y10049676D01*
X-32781786Y10049676D02*
X-32829405Y10144914D01*
X-32829405Y10144914D02*
X-32877024Y10192533D01*
X-32877024Y10192533D02*
X-32972262Y10240152D01*
X-32972262Y10240152D02*
X-33210357Y10240152D01*
X-33210357Y10240152D02*
X-33353214Y10192533D01*
X-33972262Y10240152D02*
X-34162738Y10240152D01*
X-34162738Y10240152D02*
X-34257976Y10192533D01*
X-34257976Y10192533D02*
X-34353214Y10097295D01*
X-34353214Y10097295D02*
X-34400833Y9906819D01*
X-34400833Y9906819D02*
X-34400833Y9573486D01*
X-34400833Y9573486D02*
X-34353214Y9383010D01*
X-34353214Y9383010D02*
X-34257976Y9287772D01*
X-34257976Y9287772D02*
X-34162738Y9240152D01*
X-34162738Y9240152D02*
X-33972262Y9240152D01*
X-33972262Y9240152D02*
X-33877024Y9287772D01*
X-33877024Y9287772D02*
X-33781786Y9383010D01*
X-33781786Y9383010D02*
X-33734167Y9573486D01*
X-33734167Y9573486D02*
X-33734167Y9906819D01*
X-33734167Y9906819D02*
X-33781786Y10097295D01*
X-33781786Y10097295D02*
X-33877024Y10192533D01*
X-33877024Y10192533D02*
X-33972262Y10240152D01*
X-34829405Y10240152D02*
X-34829405Y9430629D01*
X-34829405Y9430629D02*
X-34877024Y9335391D01*
X-34877024Y9335391D02*
X-34924643Y9287772D01*
X-34924643Y9287772D02*
X-35019881Y9240152D01*
X-35019881Y9240152D02*
X-35210357Y9240152D01*
X-35210357Y9240152D02*
X-35305595Y9287772D01*
X-35305595Y9287772D02*
X-35353214Y9335391D01*
X-35353214Y9335391D02*
X-35400833Y9430629D01*
X-35400833Y9430629D02*
X-35400833Y10240152D01*
X-36448452Y9240152D02*
X-36115119Y9716343D01*
X-35877024Y9240152D02*
X-35877024Y10240152D01*
X-35877024Y10240152D02*
X-36257976Y10240152D01*
X-36257976Y10240152D02*
X-36353214Y10192533D01*
X-36353214Y10192533D02*
X-36400833Y10144914D01*
X-36400833Y10144914D02*
X-36448452Y10049676D01*
X-36448452Y10049676D02*
X-36448452Y9906819D01*
X-36448452Y9906819D02*
X-36400833Y9811581D01*
X-36400833Y9811581D02*
X-36353214Y9763962D01*
X-36353214Y9763962D02*
X-36257976Y9716343D01*
X-36257976Y9716343D02*
X-35877024Y9716343D01*
X-37448452Y9335391D02*
X-37400833Y9287772D01*
X-37400833Y9287772D02*
X-37257976Y9240152D01*
X-37257976Y9240152D02*
X-37162738Y9240152D01*
X-37162738Y9240152D02*
X-37019881Y9287772D01*
X-37019881Y9287772D02*
X-36924643Y9383010D01*
X-36924643Y9383010D02*
X-36877024Y9478248D01*
X-36877024Y9478248D02*
X-36829405Y9668724D01*
X-36829405Y9668724D02*
X-36829405Y9811581D01*
X-36829405Y9811581D02*
X-36877024Y10002057D01*
X-36877024Y10002057D02*
X-36924643Y10097295D01*
X-36924643Y10097295D02*
X-37019881Y10192533D01*
X-37019881Y10192533D02*
X-37162738Y10240152D01*
X-37162738Y10240152D02*
X-37257976Y10240152D01*
X-37257976Y10240152D02*
X-37400833Y10192533D01*
X-37400833Y10192533D02*
X-37448452Y10144914D01*
X-37877024Y9763962D02*
X-38210357Y9763962D01*
X-38353214Y9240152D02*
X-37877024Y9240152D01*
X-37877024Y9240152D02*
X-37877024Y10240152D01*
X-37877024Y10240152D02*
X-38353214Y10240152D01*
X-30162737Y7630208D02*
X-29829404Y8106399D01*
X-29591309Y7630208D02*
X-29591309Y8630208D01*
X-29591309Y8630208D02*
X-29972261Y8630208D01*
X-29972261Y8630208D02*
X-30067499Y8582589D01*
X-30067499Y8582589D02*
X-30115118Y8534970D01*
X-30115118Y8534970D02*
X-30162737Y8439732D01*
X-30162737Y8439732D02*
X-30162737Y8296875D01*
X-30162737Y8296875D02*
X-30115118Y8201637D01*
X-30115118Y8201637D02*
X-30067499Y8154018D01*
X-30067499Y8154018D02*
X-29972261Y8106399D01*
X-29972261Y8106399D02*
X-29591309Y8106399D01*
X-30591309Y8154018D02*
X-30924642Y8154018D01*
X-31067499Y7630208D02*
X-30591309Y7630208D01*
X-30591309Y7630208D02*
X-30591309Y8630208D01*
X-30591309Y8630208D02*
X-31067499Y8630208D01*
X-31353214Y8630208D02*
X-31686547Y7630208D01*
X-31686547Y7630208D02*
X-32019880Y8630208D01*
X-33305595Y8630208D02*
X-33400833Y8630208D01*
X-33400833Y8630208D02*
X-33496071Y8582589D01*
X-33496071Y8582589D02*
X-33543690Y8534970D01*
X-33543690Y8534970D02*
X-33591309Y8439732D01*
X-33591309Y8439732D02*
X-33638928Y8249256D01*
X-33638928Y8249256D02*
X-33638928Y8011161D01*
X-33638928Y8011161D02*
X-33591309Y7820685D01*
X-33591309Y7820685D02*
X-33543690Y7725447D01*
X-33543690Y7725447D02*
X-33496071Y7677828D01*
X-33496071Y7677828D02*
X-33400833Y7630208D01*
X-33400833Y7630208D02*
X-33305595Y7630208D01*
X-33305595Y7630208D02*
X-33210357Y7677828D01*
X-33210357Y7677828D02*
X-33162738Y7725447D01*
X-33162738Y7725447D02*
X-33115119Y7820685D01*
X-33115119Y7820685D02*
X-33067500Y8011161D01*
X-33067500Y8011161D02*
X-33067500Y8249256D01*
X-33067500Y8249256D02*
X-33115119Y8439732D01*
X-33115119Y8439732D02*
X-33162738Y8534970D01*
X-33162738Y8534970D02*
X-33210357Y8582589D01*
X-33210357Y8582589D02*
X-33305595Y8630208D01*
X-34543690Y8630208D02*
X-34067500Y8630208D01*
X-34067500Y8630208D02*
X-34019881Y8154018D01*
X-34019881Y8154018D02*
X-34067500Y8201637D01*
X-34067500Y8201637D02*
X-34162738Y8249256D01*
X-34162738Y8249256D02*
X-34400833Y8249256D01*
X-34400833Y8249256D02*
X-34496071Y8201637D01*
X-34496071Y8201637D02*
X-34543690Y8154018D01*
X-34543690Y8154018D02*
X-34591309Y8058780D01*
X-34591309Y8058780D02*
X-34591309Y7820685D01*
X-34591309Y7820685D02*
X-34543690Y7725447D01*
X-34543690Y7725447D02*
X-34496071Y7677828D01*
X-34496071Y7677828D02*
X-34400833Y7630208D01*
X-34400833Y7630208D02*
X-34162738Y7630208D01*
X-34162738Y7630208D02*
X-34067500Y7677828D01*
X-34067500Y7677828D02*
X-34019881Y7725447D01*
X36152380Y9287652D02*
X36152380Y10287652D01*
X36152380Y10287652D02*
X35580952Y9287652D01*
X35580952Y9287652D02*
X35580952Y10287652D01*
X35104761Y9811462D02*
X34771428Y9811462D01*
X34628571Y9287652D02*
X35104761Y9287652D01*
X35104761Y9287652D02*
X35104761Y10287652D01*
X35104761Y10287652D02*
X34628571Y10287652D01*
X34295237Y10287652D02*
X34057142Y9287652D01*
X34057142Y9287652D02*
X33866666Y10001938D01*
X33866666Y10001938D02*
X33676190Y9287652D01*
X33676190Y9287652D02*
X33438095Y10287652D01*
X32342856Y9335272D02*
X32199999Y9287652D01*
X32199999Y9287652D02*
X31961904Y9287652D01*
X31961904Y9287652D02*
X31866666Y9335272D01*
X31866666Y9335272D02*
X31819047Y9382891D01*
X31819047Y9382891D02*
X31771428Y9478129D01*
X31771428Y9478129D02*
X31771428Y9573367D01*
X31771428Y9573367D02*
X31819047Y9668605D01*
X31819047Y9668605D02*
X31866666Y9716224D01*
X31866666Y9716224D02*
X31961904Y9763843D01*
X31961904Y9763843D02*
X32152380Y9811462D01*
X32152380Y9811462D02*
X32247618Y9859081D01*
X32247618Y9859081D02*
X32295237Y9906700D01*
X32295237Y9906700D02*
X32342856Y10001938D01*
X32342856Y10001938D02*
X32342856Y10097176D01*
X32342856Y10097176D02*
X32295237Y10192414D01*
X32295237Y10192414D02*
X32247618Y10240033D01*
X32247618Y10240033D02*
X32152380Y10287652D01*
X32152380Y10287652D02*
X31914285Y10287652D01*
X31914285Y10287652D02*
X31771428Y10240033D01*
X31152380Y9763843D02*
X31152380Y9287652D01*
X31485713Y10287652D02*
X31152380Y9763843D01*
X31152380Y9763843D02*
X30819047Y10287652D01*
X30533332Y9335272D02*
X30390475Y9287652D01*
X30390475Y9287652D02*
X30152380Y9287652D01*
X30152380Y9287652D02*
X30057142Y9335272D01*
X30057142Y9335272D02*
X30009523Y9382891D01*
X30009523Y9382891D02*
X29961904Y9478129D01*
X29961904Y9478129D02*
X29961904Y9573367D01*
X29961904Y9573367D02*
X30009523Y9668605D01*
X30009523Y9668605D02*
X30057142Y9716224D01*
X30057142Y9716224D02*
X30152380Y9763843D01*
X30152380Y9763843D02*
X30342856Y9811462D01*
X30342856Y9811462D02*
X30438094Y9859081D01*
X30438094Y9859081D02*
X30485713Y9906700D01*
X30485713Y9906700D02*
X30533332Y10001938D01*
X30533332Y10001938D02*
X30533332Y10097176D01*
X30533332Y10097176D02*
X30485713Y10192414D01*
X30485713Y10192414D02*
X30438094Y10240033D01*
X30438094Y10240033D02*
X30342856Y10287652D01*
X30342856Y10287652D02*
X30104761Y10287652D01*
X30104761Y10287652D02*
X29961904Y10240033D01*
X29676189Y10287652D02*
X29104761Y10287652D01*
X29390475Y9287652D02*
X29390475Y10287652D01*
X28771427Y9811462D02*
X28438094Y9811462D01*
X28295237Y9287652D02*
X28771427Y9287652D01*
X28771427Y9287652D02*
X28771427Y10287652D01*
X28771427Y10287652D02*
X28295237Y10287652D01*
X27866665Y9287652D02*
X27866665Y10287652D01*
X27866665Y10287652D02*
X27533332Y9573367D01*
X27533332Y9573367D02*
X27199999Y10287652D01*
X27199999Y10287652D02*
X27199999Y9287652D01*
X26771427Y9335272D02*
X26628570Y9287652D01*
X26628570Y9287652D02*
X26390475Y9287652D01*
X26390475Y9287652D02*
X26295237Y9335272D01*
X26295237Y9335272D02*
X26247618Y9382891D01*
X26247618Y9382891D02*
X26199999Y9478129D01*
X26199999Y9478129D02*
X26199999Y9573367D01*
X26199999Y9573367D02*
X26247618Y9668605D01*
X26247618Y9668605D02*
X26295237Y9716224D01*
X26295237Y9716224D02*
X26390475Y9763843D01*
X26390475Y9763843D02*
X26580951Y9811462D01*
X26580951Y9811462D02*
X26676189Y9859081D01*
X26676189Y9859081D02*
X26723808Y9906700D01*
X26723808Y9906700D02*
X26771427Y10001938D01*
X26771427Y10001938D02*
X26771427Y10097176D01*
X26771427Y10097176D02*
X26723808Y10192414D01*
X26723808Y10192414D02*
X26676189Y10240033D01*
X26676189Y10240033D02*
X26580951Y10287652D01*
X26580951Y10287652D02*
X26342856Y10287652D01*
X26342856Y10287652D02*
X26199999Y10240033D01*
X36009523Y7677708D02*
X36009523Y8677708D01*
X35533333Y7677708D02*
X35533333Y8677708D01*
X35533333Y8677708D02*
X34961905Y7677708D01*
X34961905Y7677708D02*
X34961905Y8677708D01*
X34533333Y7725328D02*
X34390476Y7677708D01*
X34390476Y7677708D02*
X34152381Y7677708D01*
X34152381Y7677708D02*
X34057143Y7725328D01*
X34057143Y7725328D02*
X34009524Y7772947D01*
X34009524Y7772947D02*
X33961905Y7868185D01*
X33961905Y7868185D02*
X33961905Y7963423D01*
X33961905Y7963423D02*
X34009524Y8058661D01*
X34009524Y8058661D02*
X34057143Y8106280D01*
X34057143Y8106280D02*
X34152381Y8153899D01*
X34152381Y8153899D02*
X34342857Y8201518D01*
X34342857Y8201518D02*
X34438095Y8249137D01*
X34438095Y8249137D02*
X34485714Y8296756D01*
X34485714Y8296756D02*
X34533333Y8391994D01*
X34533333Y8391994D02*
X34533333Y8487232D01*
X34533333Y8487232D02*
X34485714Y8582470D01*
X34485714Y8582470D02*
X34438095Y8630089D01*
X34438095Y8630089D02*
X34342857Y8677708D01*
X34342857Y8677708D02*
X34104762Y8677708D01*
X34104762Y8677708D02*
X33961905Y8630089D01*
X33676190Y8677708D02*
X33104762Y8677708D01*
X33390476Y7677708D02*
X33390476Y8677708D01*
X32200000Y7677708D02*
X32533333Y8153899D01*
X32771428Y7677708D02*
X32771428Y8677708D01*
X32771428Y8677708D02*
X32390476Y8677708D01*
X32390476Y8677708D02*
X32295238Y8630089D01*
X32295238Y8630089D02*
X32247619Y8582470D01*
X32247619Y8582470D02*
X32200000Y8487232D01*
X32200000Y8487232D02*
X32200000Y8344375D01*
X32200000Y8344375D02*
X32247619Y8249137D01*
X32247619Y8249137D02*
X32295238Y8201518D01*
X32295238Y8201518D02*
X32390476Y8153899D01*
X32390476Y8153899D02*
X32771428Y8153899D01*
X31771428Y8677708D02*
X31771428Y7868185D01*
X31771428Y7868185D02*
X31723809Y7772947D01*
X31723809Y7772947D02*
X31676190Y7725328D01*
X31676190Y7725328D02*
X31580952Y7677708D01*
X31580952Y7677708D02*
X31390476Y7677708D01*
X31390476Y7677708D02*
X31295238Y7725328D01*
X31295238Y7725328D02*
X31247619Y7772947D01*
X31247619Y7772947D02*
X31200000Y7868185D01*
X31200000Y7868185D02*
X31200000Y8677708D01*
X30723809Y7677708D02*
X30723809Y8677708D01*
X30723809Y8677708D02*
X30390476Y7963423D01*
X30390476Y7963423D02*
X30057143Y8677708D01*
X30057143Y8677708D02*
X30057143Y7677708D01*
X29580952Y8201518D02*
X29247619Y8201518D01*
X29104762Y7677708D02*
X29580952Y7677708D01*
X29580952Y7677708D02*
X29580952Y8677708D01*
X29580952Y8677708D02*
X29104762Y8677708D01*
X28676190Y7677708D02*
X28676190Y8677708D01*
X28676190Y8677708D02*
X28104762Y7677708D01*
X28104762Y7677708D02*
X28104762Y8677708D01*
X27771428Y8677708D02*
X27200000Y8677708D01*
X27485714Y7677708D02*
X27485714Y8677708D01*
X26914285Y7725328D02*
X26771428Y7677708D01*
X26771428Y7677708D02*
X26533333Y7677708D01*
X26533333Y7677708D02*
X26438095Y7725328D01*
X26438095Y7725328D02*
X26390476Y7772947D01*
X26390476Y7772947D02*
X26342857Y7868185D01*
X26342857Y7868185D02*
X26342857Y7963423D01*
X26342857Y7963423D02*
X26390476Y8058661D01*
X26390476Y8058661D02*
X26438095Y8106280D01*
X26438095Y8106280D02*
X26533333Y8153899D01*
X26533333Y8153899D02*
X26723809Y8201518D01*
X26723809Y8201518D02*
X26819047Y8249137D01*
X26819047Y8249137D02*
X26866666Y8296756D01*
X26866666Y8296756D02*
X26914285Y8391994D01*
X26914285Y8391994D02*
X26914285Y8487232D01*
X26914285Y8487232D02*
X26866666Y8582470D01*
X26866666Y8582470D02*
X26819047Y8630089D01*
X26819047Y8630089D02*
X26723809Y8677708D01*
X26723809Y8677708D02*
X26485714Y8677708D01*
X26485714Y8677708D02*
X26342857Y8630089D01*
X26777916Y13137704D02*
X26777916Y12566276D01*
X26777916Y12566276D02*
X26816011Y12451990D01*
X26816011Y12451990D02*
X26892202Y12375800D01*
X26892202Y12375800D02*
X27006487Y12337704D01*
X27006487Y12337704D02*
X27082678Y12337704D01*
X26016011Y13137704D02*
X26396963Y13137704D01*
X26396963Y13137704D02*
X26435059Y12756752D01*
X26435059Y12756752D02*
X26396963Y12794847D01*
X26396963Y12794847D02*
X26320773Y12832942D01*
X26320773Y12832942D02*
X26130297Y12832942D01*
X26130297Y12832942D02*
X26054106Y12794847D01*
X26054106Y12794847D02*
X26016011Y12756752D01*
X26016011Y12756752D02*
X25977916Y12680561D01*
X25977916Y12680561D02*
X25977916Y12490085D01*
X25977916Y12490085D02*
X26016011Y12413895D01*
X26016011Y12413895D02*
X26054106Y12375800D01*
X26054106Y12375800D02*
X26130297Y12337704D01*
X26130297Y12337704D02*
X26320773Y12337704D01*
X26320773Y12337704D02*
X26396963Y12375800D01*
X26396963Y12375800D02*
X26435059Y12413895D01*
X-26403333Y2977704D02*
X-26403333Y2406276D01*
X-26403333Y2406276D02*
X-26365238Y2291990D01*
X-26365238Y2291990D02*
X-26289047Y2215800D01*
X-26289047Y2215800D02*
X-26174762Y2177704D01*
X-26174762Y2177704D02*
X-26098571Y2177704D01*
X-27127143Y2977704D02*
X-26974762Y2977704D01*
X-26974762Y2977704D02*
X-26898571Y2939609D01*
X-26898571Y2939609D02*
X-26860476Y2901514D01*
X-26860476Y2901514D02*
X-26784286Y2787228D01*
X-26784286Y2787228D02*
X-26746190Y2634847D01*
X-26746190Y2634847D02*
X-26746190Y2330085D01*
X-26746190Y2330085D02*
X-26784286Y2253895D01*
X-26784286Y2253895D02*
X-26822381Y2215800D01*
X-26822381Y2215800D02*
X-26898571Y2177704D01*
X-26898571Y2177704D02*
X-27050952Y2177704D01*
X-27050952Y2177704D02*
X-27127143Y2215800D01*
X-27127143Y2215800D02*
X-27165238Y2253895D01*
X-27165238Y2253895D02*
X-27203333Y2330085D01*
X-27203333Y2330085D02*
X-27203333Y2520561D01*
X-27203333Y2520561D02*
X-27165238Y2596752D01*
X-27165238Y2596752D02*
X-27127143Y2634847D01*
X-27127143Y2634847D02*
X-27050952Y2672942D01*
X-27050952Y2672942D02*
X-26898571Y2672942D01*
X-26898571Y2672942D02*
X-26822381Y2634847D01*
X-26822381Y2634847D02*
X-26784286Y2596752D01*
X-26784286Y2596752D02*
X-26746190Y2520561D01*
X-16084583Y20757704D02*
X-16084583Y20186276D01*
X-16084583Y20186276D02*
X-16046488Y20071990D01*
X-16046488Y20071990D02*
X-15970297Y19995800D01*
X-15970297Y19995800D02*
X-15856012Y19957704D01*
X-15856012Y19957704D02*
X-15779821Y19957704D01*
X-16808393Y20491038D02*
X-16808393Y19957704D01*
X-16617917Y20795800D02*
X-16427440Y20224371D01*
X-16427440Y20224371D02*
X-16922679Y20224371D01*
X16459166Y20757704D02*
X16459166Y20186276D01*
X16459166Y20186276D02*
X16497261Y20071990D01*
X16497261Y20071990D02*
X16573452Y19995800D01*
X16573452Y19995800D02*
X16687737Y19957704D01*
X16687737Y19957704D02*
X16763928Y19957704D01*
X16154404Y20757704D02*
X15659166Y20757704D01*
X15659166Y20757704D02*
X15925832Y20452942D01*
X15925832Y20452942D02*
X15811547Y20452942D01*
X15811547Y20452942D02*
X15735356Y20414847D01*
X15735356Y20414847D02*
X15697261Y20376752D01*
X15697261Y20376752D02*
X15659166Y20300561D01*
X15659166Y20300561D02*
X15659166Y20110085D01*
X15659166Y20110085D02*
X15697261Y20033895D01*
X15697261Y20033895D02*
X15735356Y19995800D01*
X15735356Y19995800D02*
X15811547Y19957704D01*
X15811547Y19957704D02*
X16040118Y19957704D01*
X16040118Y19957704D02*
X16116309Y19995800D01*
X16116309Y19995800D02*
X16154404Y20033895D01*
%TO.C,J5*%
D11*
X20260000Y14030000D02*
X20260000Y1210000D01*
X22860000Y14030000D02*
X20260000Y14030000D01*
X22860000Y11430000D02*
X22860000Y14030000D01*
X25460000Y14030000D02*
X24130000Y14030000D01*
X25460000Y12700000D02*
X25460000Y14030000D01*
X25460000Y11430000D02*
X22860000Y11430000D01*
X25460000Y11430000D02*
X25460000Y1210000D01*
X25460000Y1210000D02*
X20260000Y1210000D01*
%TO.C,J6*%
X-25460000Y14030000D02*
X-20260000Y14030000D01*
X-25460000Y3810000D02*
X-25460000Y14030000D01*
X-25460000Y3810000D02*
X-22860000Y3810000D01*
X-25460000Y2540000D02*
X-25460000Y1210000D01*
X-25460000Y1210000D02*
X-24130000Y1210000D01*
X-22860000Y3810000D02*
X-22860000Y1210000D01*
X-22860000Y1210000D02*
X-20260000Y1210000D01*
X-20260000Y1210000D02*
X-20260000Y14030000D01*
%TO.C,J4*%
X-15300000Y21650000D02*
X-12640000Y21650000D01*
X-15300000Y21590000D02*
X-15300000Y21650000D01*
X-15300000Y21590000D02*
X-12640000Y21590000D01*
X-15300000Y20320000D02*
X-15300000Y18990000D01*
X-15300000Y18990000D02*
X-13970000Y18990000D01*
X-12640000Y21590000D02*
X-12640000Y21650000D01*
%TO.C,J3*%
X12640000Y21650000D02*
X15300000Y21650000D01*
X12640000Y21590000D02*
X12640000Y21650000D01*
X12640000Y21590000D02*
X15300000Y21590000D01*
X12640000Y20320000D02*
X12640000Y18990000D01*
X12640000Y18990000D02*
X13970000Y18990000D01*
X15300000Y21590000D02*
X15300000Y21650000D01*
%TD*%
%LPC*%
D12*
%TO.C,C6*%
X-6667500Y10477500D03*
X-6667500Y5477500D03*
%TD*%
%TO.C,C4*%
X9842500Y16510000D03*
X9842500Y11510000D03*
%TD*%
D13*
%TO.C,C3*%
X13268888Y10477500D03*
D12*
X15268888Y10477500D03*
%TD*%
%TO.C,C1*%
X-10477500Y11430000D03*
X-10477500Y16430000D03*
%TD*%
D13*
%TO.C,C2*%
X-15875000Y10477500D03*
D12*
X-13875000Y10477500D03*
%TD*%
%TO.C,C7*%
X6667500Y9525000D03*
X6667500Y4525000D03*
%TD*%
%TO.C,C5*%
X2500000Y15621000D03*
X-2500000Y15621000D03*
%TD*%
%TO.C,R5*%
X-9496000Y2540000D03*
D14*
X-12036000Y2540000D03*
%TD*%
D12*
%TO.C,R2*%
X18097500Y14922500D03*
D14*
X15557500Y14922500D03*
%TD*%
D12*
%TO.C,R3*%
X-11967000Y5715000D03*
D14*
X-9427000Y5715000D03*
%TD*%
D12*
%TO.C,R1*%
X-18097500Y14922500D03*
D14*
X-15557500Y14922500D03*
%TD*%
D12*
%TO.C,R6*%
X9525000Y2540000D03*
D14*
X12065000Y2540000D03*
%TD*%
D12*
%TO.C,R4*%
X12065000Y5715000D03*
D14*
X9525000Y5715000D03*
%TD*%
D15*
%TO.C,RV6*%
X-40322500Y20637500D03*
X-42862500Y18097500D03*
X-45402500Y20637500D03*
%TD*%
D13*
%TO.C,U1*%
X-3810000Y9525000D03*
D14*
X-3810000Y6985000D03*
X-3810000Y4445000D03*
X-3810000Y1905000D03*
X3810000Y1905000D03*
X3810000Y4445000D03*
X3810000Y6985000D03*
X3810000Y9525000D03*
%TD*%
D16*
%TO.C,J1*%
X-31115000Y2535000D03*
X-31115000Y13175000D03*
X-31115000Y4875000D03*
%TD*%
%TO.C,J2*%
X31115000Y2535000D03*
X31115000Y13175000D03*
X31115000Y4875000D03*
%TD*%
D17*
%TO.C,U2*%
X5397500Y16827500D03*
D18*
X5397500Y15557500D03*
X5397500Y14287500D03*
%TD*%
D17*
%TO.C,U3*%
X-6032500Y14287500D03*
D18*
X-6032500Y15557500D03*
X-6032500Y16827500D03*
%TD*%
D12*
%TO.C,R7*%
X-37465000Y14922500D03*
D14*
X-37465000Y12382500D03*
%TD*%
D12*
%TO.C,R8*%
X-44132500Y11112500D03*
D14*
X-44132500Y13652500D03*
%TD*%
D12*
%TO.C,R9*%
X-39687500Y11112500D03*
D14*
X-39687500Y13652500D03*
%TD*%
D12*
%TO.C,R10*%
X-41910000Y14922500D03*
D14*
X-41910000Y12382500D03*
%TD*%
D12*
%TO.C,R11*%
X-46355000Y14922500D03*
D14*
X-46355000Y12382500D03*
%TD*%
D12*
%TO.C,R12*%
X46355000Y14922500D03*
D14*
X46355000Y12382500D03*
%TD*%
D12*
%TO.C,R13*%
X44132500Y11112500D03*
D14*
X44132500Y13652500D03*
%TD*%
D12*
%TO.C,R14*%
X39687500Y10795000D03*
D14*
X39687500Y13335000D03*
%TD*%
D12*
%TO.C,R15*%
X41910000Y14922500D03*
D14*
X41910000Y12382500D03*
%TD*%
D12*
%TO.C,R16*%
X37465000Y14922500D03*
D14*
X37465000Y12382500D03*
%TD*%
D15*
%TO.C,RV1*%
X-20002500Y20637500D03*
X-22542500Y18097500D03*
X-25082500Y20637500D03*
%TD*%
%TO.C,RV2*%
X-30162500Y20637500D03*
X-32702500Y18097500D03*
X-35242500Y20637500D03*
%TD*%
%TO.C,RV3*%
X45402500Y20637500D03*
X42862500Y18097500D03*
X40322500Y20637500D03*
%TD*%
%TO.C,RV4*%
X35242500Y20637500D03*
X32702500Y18097500D03*
X30162500Y20637500D03*
%TD*%
%TO.C,RV5*%
X25082500Y20637500D03*
X22542500Y18097500D03*
X20002500Y20637500D03*
%TD*%
D19*
%TO.C,SW1*%
X-43815000Y2540000D03*
X-43815000Y5080000D03*
X-43815000Y7620000D03*
X-38735000Y2540000D03*
X-38735000Y5080000D03*
X-38735000Y7620000D03*
%TD*%
%TO.C,SW2*%
X38735000Y2540000D03*
X38735000Y5080000D03*
X38735000Y7620000D03*
X43815000Y2540000D03*
X43815000Y5080000D03*
X43815000Y7620000D03*
%TD*%
D12*
%TO.C,C8*%
X1865000Y12573000D03*
X-3135000Y12573000D03*
%TD*%
D20*
%TO.C,J5*%
X24130000Y12700000D03*
D21*
X21590000Y12700000D03*
X24130000Y10160000D03*
X21590000Y10160000D03*
X24130000Y7620000D03*
X21590000Y7620000D03*
X24130000Y5080000D03*
X21590000Y5080000D03*
X24130000Y2540000D03*
X21590000Y2540000D03*
%TD*%
D20*
%TO.C,J6*%
X-24130000Y2540000D03*
D21*
X-21590000Y2540000D03*
X-24130000Y5080000D03*
X-21590000Y5080000D03*
X-24130000Y7620000D03*
X-21590000Y7620000D03*
X-24130000Y10160000D03*
X-21590000Y10160000D03*
X-24130000Y12700000D03*
X-21590000Y12700000D03*
%TD*%
D20*
%TO.C,J4*%
X-13970000Y20320000D03*
%TD*%
%TO.C,J3*%
X13970000Y20320000D03*
%TD*%
%LPD*%
M02*
